<svg id="Capa_1" data-name="Capa 1" xmlns="http://www.w3.org/2000/svg" viewBox="0 0 519.23 502.61"><defs><style>.cls-1{fill:#834328;}.cls-2{fill:#773d24;}.cls-3{fill:#6ec3e6;}.cls-4{fill:#58abc7;}.cls-5{fill:#ff8c1b;}.cls-6{fill:#ff5b24;}.cls-7{fill:#ffce4d;}.cls-8{fill:#e71c24;}.cls-10,.cls-9{fill:none;stroke:#4c241d;stroke-miterlimit:10;stroke-width:6px;}.cls-10{stroke-dasharray:31.58 31.58;}</style></defs><title>canvas</title><path class="cls-1" d="M256,493.12a29.65,29.65,0,0,1-5.52-.53c-15.4-2.91-26.58-17.44-26.58-34.54V356.84c0-17.11,11.18-31.63,26.58-34.55a29.71,29.71,0,0,1,5.52-.52c17.69,0,32.09,15.73,32.09,35.07V458.05C288.09,477.39,273.69,493.12,256,493.12Z" transform="translate(3.62 6)"/><path d="M256,324.77c16.08,0,29.1,14.35,29.1,32.07V458.05c0,17.71-13,32.07-29.1,32.07a27.05,27.05,0,0,1-5-.47c-13.71-2.6-24.14-15.75-24.14-31.6V356.84c0-15.85,10.43-29,24.14-31.6a26.2,26.2,0,0,1,5-.47m0-6a32.87,32.87,0,0,0-6.06.57c-16.82,3.18-29,19-29,37.5V458.05c0,18.54,12.21,34.31,29,37.49a32.89,32.89,0,0,0,6.06.58c19.36,0,35.1-17.08,35.1-38.07V356.84c0-21-15.74-38.07-35.1-38.07Z" transform="translate(3.62 6)"/><path class="cls-2" d="M226.9,356.5V457.71c0,15.85,10.43,29,24.14,31.6V324.9C237.33,327.49,226.9,340.65,226.9,356.5Z" transform="translate(3.62 6)"/><path class="cls-1" d="M382.76,493.08c-14.05,0-27.06-9.32-32.38-23.19l-36-93.94c-3.8-9.92-2.83-20.68,2.61-28.76a26.85,26.85,0,0,1,5.3-5.87l.12-.1a27.61,27.61,0,0,1,17.52-6.09c14.05,0,27.07,9.32,32.39,23.2l36,93.94c4.94,12.9,1.71,26.85-8,34.73l-.26.21a27.61,27.61,0,0,1-16.29,5.86Z" transform="translate(3.62 6)"/><path d="M339.94,338.13c12,0,24.49,8,29.58,21.28l36,93.93c4.5,11.73,1.66,24.24-7.11,31.32h0a24.43,24.43,0,0,1-14.75,5.41h-.89c-12,0-24.49-8-29.58-21.27l-5.65-14.75-30.35-79.18c-3.52-9.19-2.52-18.86,2.3-26a23.73,23.73,0,0,1,4.82-5.3h0a24.59,24.59,0,0,1,15.64-5.43m0-6a30.54,30.54,0,0,0-19.41,6.76l0,0h0a30.37,30.37,0,0,0-6,6.6c-6,8.9-7.06,20.68-2.91,31.52l30.35,79.18L347.58,471c5.76,15,19.9,25.12,35.18,25.12h1.08a30.53,30.53,0,0,0,18.33-6.74c10.76-8.69,14.36-24,8.95-38.14l-36-93.93c-5.76-15-19.9-25.13-35.18-25.13Z" transform="translate(3.62 6)"/><path class="cls-2" d="M333,356.92c-2.26-5.91-8.3-9.13-13.52-8.07-4.82,7.16-5.82,16.83-2.29,26l30.34,79.18,5.66,14.75c5.21,13.6,18.17,21.66,30.46,21.26a12.58,12.58,0,0,0-.72-2.87Z" transform="translate(3.62 6)"/><path class="cls-1" d="M136,493.61a27.5,27.5,0,0,1-16.69-5.68c-11.36-8.58-16-24.61-11.38-39l31-95.69c3.28-10.12,10.79-17.87,20.1-20.75a27.16,27.16,0,0,1,8-1.22c9,0,17.48,4.48,23.16,12.29A36.19,36.19,0,0,1,195.06,376l-31,95.69c-4.26,13.14-15.54,22-28.07,22Z" transform="translate(3.62 6)"/><path d="M167,334.28c18.66,0,31.63,21,25.21,40.74l-31,95.69c-3.87,12-13.94,19.9-25.21,19.9h0a24.53,24.53,0,0,1-14.88-5.07c-9.81-7.41-14.83-21.83-10.34-35.68l4.88-15,26.15-80.66c3-9.37,9.89-16.25,18.14-18.8a24,24,0,0,1,7.08-1.09h0m0-6h0a29.73,29.73,0,0,0-8.85,1.36c-10.24,3.16-18.49,11.64-22.07,22.68L109.91,433,105,448c-5.05,15.58.06,33,12.43,42.32A30.47,30.47,0,0,0,136,496.61c13.83,0,26.26-9.67,30.92-24.05l31-95.69a39.19,39.19,0,0,0-5.33-35.07c-6.25-8.59-15.58-13.52-25.59-13.52Z" transform="translate(3.62 6)"/><path class="cls-2" d="M165.36,350.14c1.95-6-.72-12.32-5.45-14.78-8.25,2.55-15.1,9.43-18.14,18.8l-26.15,80.66-4.88,15c-4.49,13.85.53,28.27,10.34,35.68a12.14,12.14,0,0,0,1.24-2.68Z" transform="translate(3.62 6)"/><path class="cls-3" d="M466.39,25.53H45.61A11.39,11.39,0,0,0,34.22,36.92V324.75H477.78V36.92A11.39,11.39,0,0,0,466.39,25.53Z" transform="translate(3.62 6)"/><path class="cls-4" d="M66,25.53H45.61A11.39,11.39,0,0,0,34.22,36.92V324.75H54.64V36.92A11.39,11.39,0,0,1,66,25.53Z" transform="translate(3.62 6)"/><path class="cls-5" d="M215.54,141.51c-5.32-7.16-13.94-7.16-19.26,0L60,324.75H208.35l71.73-96.46Z" transform="translate(3.62 6)"/><path class="cls-6" d="M215.54,141.51c-5.32-7.16-13.94-7.16-19.26,0L60,324.75H83.11L217.46,144.08Z" transform="translate(3.62 6)"/><path class="cls-7" d="M453.38,324.75,338.47,170.22c-4.48-6-11.76-6-16.24,0L207.33,324.75Z" transform="translate(3.62 6)"/><path class="cls-5" d="M338.47,170.22c-4.48-6-11.76-6-16.24,0L207.33,324.75h26.89L343.8,177.39Z" transform="translate(3.62 6)"/><circle class="cls-6" cx="285.81" cy="123.91" r="33.98"/><path class="cls-8" d="M268.62,117.9A34,34,0,0,1,292.4,85.48a34,34,0,1,0,0,64.85A34,34,0,0,1,268.62,117.9Z" transform="translate(3.62 6)"/><path class="cls-1" d="M22.15,375.74A22.79,22.79,0,0,1-.62,353V341.45a22.79,22.79,0,0,1,22.77-22.76h467.7a22.82,22.82,0,0,1,22.77,22.76V353a22.79,22.79,0,0,1-22.77,22.76Z" transform="translate(3.62 6)"/><path d="M489.85,321.69a19.81,19.81,0,0,1,19.76,19.76V353a19.82,19.82,0,0,1-19.76,19.76H22.15A19.82,19.82,0,0,1,2.38,353V341.45a19.82,19.82,0,0,1,19.77-19.76h467.7m0-6H22.15A25.79,25.79,0,0,0-3.62,341.45V353a25.8,25.8,0,0,0,25.77,25.76h467.7A25.79,25.79,0,0,0,515.61,353V341.45a25.81,25.81,0,0,0-25.76-25.76Z" transform="translate(3.62 6)"/><path class="cls-2" d="M489.85,352.33H22.15A19.84,19.84,0,0,1,2.91,337a19.69,19.69,0,0,0-.53,4.44V353a19.82,19.82,0,0,0,19.77,19.76h467.7A19.82,19.82,0,0,0,509.62,353V341.45a19.69,19.69,0,0,0-.53-4.44A19.84,19.84,0,0,1,489.85,352.33Z" transform="translate(3.62 6)"/><path class="cls-1" d="M194,54.05a22.79,22.79,0,0,1-22.76-22.76V19.76A22.79,22.79,0,0,1,194-3H318a22.81,22.81,0,0,1,22.76,22.76V31.29A22.79,22.79,0,0,1,318,54.05Z" transform="translate(3.62 6)"/><path d="M318,0a19.82,19.82,0,0,1,19.76,19.76V31.29A19.82,19.82,0,0,1,318,51.05H194a19.82,19.82,0,0,1-19.76-19.76V19.76A19.82,19.82,0,0,1,194,0H318m0-6H194a25.79,25.79,0,0,0-25.76,25.76V31.29A25.78,25.78,0,0,0,194,57.05H318a25.78,25.78,0,0,0,25.76-25.76V19.76A25.81,25.81,0,0,0,318-6Z" transform="translate(3.62 6)"/><path class="cls-2" d="M318,30.64H194a19.83,19.83,0,0,1-19.24-15.32,19.69,19.69,0,0,0-.52,4.44V31.29A19.82,19.82,0,0,0,194,51.05H318a19.82,19.82,0,0,0,19.76-19.76V19.76a19.69,19.69,0,0,0-.52-4.44A19.83,19.83,0,0,1,318,30.64Z" transform="translate(3.62 6)"/><line class="cls-9" x1="481.39" y1="345.04" x2="464.89" y2="345.04"/><line class="cls-10" x1="433.31" y1="345.04" x2="70.13" y2="345.04"/><line class="cls-9" x1="54.34" y1="345.04" x2="37.84" y2="345.04"/></svg>