<!-- Generator: Adobe Illustrator 19.0.1, SVG Export Plug-In  -->
<svg version="1.1"
	 xmlns="http://www.w3.org/2000/svg" xmlns:xlink="http://www.w3.org/1999/xlink" xmlns:a="http://ns.adobe.com/AdobeSVGViewerExtensions/3.0/"
	 x="0px" y="0px" width="512px" height="455.5px" viewBox="0 0 512 455.5" style="enable-background:new 0 0 512 455.5;"
	 xml:space="preserve">
<style type="text/css">
	.st0{clip-path:url(#SVGID_2_);}
	.st1{clip-path:url(#SVGID_4_);}
</style>
<defs>
</defs>
<g>
	<defs>
		<rect id="SVGID_1_" width="512" height="455.5"/>
	</defs>
	<clipPath id="SVGID_2_">
		<use xlink:href="#SVGID_1_"  style="overflow:visible;"/>
	</clipPath>
	<path class="st0" d="M256,455.5c-7.3,0-14.3-2.6-19.8-7.4C215.5,430,195.6,413,178,398l-0.1-0.1C126.3,354,81.8,316,50.8,278.6
		C16.1,236.8,0,197.2,0,153.9C0,111.8,14.4,73,40.6,44.6C67.1,15.8,103.5,0,143,0c29.6,0,56.6,9.3,80.4,27.8
		c12,9.3,22.9,20.7,32.5,34c9.6-13.3,20.5-24.7,32.5-34C312.4,9.3,339.4,0,369,0c39.5,0,75.9,15.8,102.4,44.6
		C497.6,73,512,111.8,512,153.9c0,43.3-16.1,82.9-50.8,124.7c-31,37.4-75.5,75.4-127.1,119.3c-17.6,15-37.6,32-58.3,50.2
		C270.3,452.9,263.3,455.5,256,455.5"/>
</g>
</svg>
