<svg height="408pt" viewBox="0 -10 408.77569 408" width="408pt" xmlns="http://www.w3.org/2000/svg"><path d="m252.585938 126.679688c0 69.75-56.542969 126.292968-126.292969 126.292968s-126.292969-56.542968-126.292969-126.292968 56.542969-126.292969 126.292969-126.292969 126.292969 56.542969 126.292969 126.292969zm0 0" fill="#e7d1c4"/><path d="m375.464844 348.546875h-314.023438c0-11.308594 9.167969-20.480469 20.480469-20.480469h273.066406c11.308594 0 20.476563 9.171875 20.476563 20.480469zm0 0" fill="#fc8c29"/><path d="m375.464844 355.375h-314.023438c-3.769531 0-6.828125-3.054688-6.828125-6.828125 0-15.058594 12.25-27.304687 27.308594-27.304687h273.066406c15.054688 0 27.304688 12.246093 27.304688 27.304687 0 3.773437-3.054688 6.828125-6.828125 6.828125zm-305.363282-13.652344h296.707032c-2.367188-4.082031-6.777344-6.828125-11.820313-6.828125h-273.066406c-5.046875 0-9.457031 2.746094-11.820313 6.828125zm0 0" fill="#4c241d"/><path d="m401.945312 382.53125h-366.984374v-9.285156c0-13.558594 10.992187-24.546875 24.546874-24.546875h317.890626c13.554687 0 24.546874 10.988281 24.546874 24.546875zm0 0" fill="#fc8c29"/><path d="m401.949219 389.359375h-366.988281c-3.769532 0-6.828126-3.050781-6.828126-6.824219v-9.285156c0-17.300781 14.078126-31.382812 31.378907-31.382812h317.886719c17.300781 0 31.378906 14.082031 31.378906 31.382812v9.285156c-.003906 3.773438-3.058594 6.824219-6.828125 6.824219zm-360.160157-13.652344h353.332032v-2.457031c0-9.777344-7.949219-17.730469-17.722656-17.730469h-317.890626c-9.773437 0-17.722656 7.953125-17.722656 17.730469v2.457031zm0 0" fill="#4c241d"/><path d="m81.921875 164.226562h27.304687v163.839844h-27.304687zm0 0" fill="#ffce56"/><path d="m109.226562 334.894531h-27.304687c-3.773437 0-6.828125-3.054687-6.828125-6.828125v-163.839844c0-3.773437 3.054688-6.824218 6.828125-6.824218h27.304687c3.769532 0 6.828126 3.050781 6.828126 6.824218v163.839844c0 3.773438-3.058594 6.828125-6.828126 6.828125zm-20.480468-13.652343h13.652344v-150.1875h-13.652344zm0 0" fill="#4c241d"/><path d="m143.359375 164.226562h27.308594v163.839844h-27.308594zm0 0" fill="#ffce56"/><path d="m170.667969 334.894531h-27.308594c-3.769531 0-6.824219-3.054687-6.824219-6.828125v-163.839844c0-3.773437 3.054688-6.824218 6.824219-6.824218h27.308594c3.769531 0 6.824219 3.050781 6.824219 6.824218v163.839844c0 3.773438-3.054688 6.828125-6.824219 6.828125zm-20.480469-13.652343h13.652344v-150.1875h-13.652344zm0 0" fill="#4c241d"/><path d="m204.800781 164.226562h27.304688v163.839844h-27.304688zm0 0" fill="#ffce56"/><path d="m232.105469 334.894531h-27.304688c-3.769531 0-6.828125-3.054687-6.828125-6.828125v-163.839844c0-3.773437 3.058594-6.824218 6.828125-6.824218h27.304688c3.769531 0 6.828125 3.050781 6.828125 6.824218v163.839844c0 3.773438-3.058594 6.828125-6.828125 6.828125zm-20.480469-13.652343h13.65625v-150.1875h-13.65625zm0 0" fill="#4c241d"/><path d="m266.238281 164.226562h27.308594v163.839844h-27.308594zm0 0" fill="#ffce56"/><path d="m293.546875 334.894531h-27.308594c-3.769531 0-6.824219-3.054687-6.824219-6.828125v-163.839844c0-3.773437 3.054688-6.824218 6.824219-6.824218h27.308594c3.769531 0 6.828125 3.050781 6.828125 6.824218v163.839844c0 3.773438-3.058594 6.828125-6.828125 6.828125zm-20.480469-13.652343h13.652344v-150.1875h-13.652344zm0 0" fill="#4c241d"/><path d="m327.679688 164.226562h27.308593v163.839844h-27.308593zm0 0" fill="#ffce56"/><g fill="#4c241d"><path d="m354.988281 334.894531h-27.308593c-3.769532 0-6.828126-3.054687-6.828126-6.828125v-163.839844c0-3.773437 3.058594-6.824218 6.828126-6.824218h27.308593c3.769531 0 6.824219 3.050781 6.824219 6.824218v163.839844c0 3.773438-3.054688 6.828125-6.824219 6.828125zm-20.480469-13.652343h13.652344v-150.1875h-13.652344zm0 0"/><path d="m116.054688 205.1875h-40.574219c-3.769531 0-6.828125-3.054688-6.828125-6.828125s3.058594-6.824219 6.828125-6.824219h40.574219c3.769531 0 6.824218 3.050782 6.824218 6.824219s-3.054687 6.828125-6.824218 6.828125zm0 0"/><path d="m177.492188 205.1875h-40.570313c-3.769531 0-6.828125-3.054688-6.828125-6.828125s3.058594-6.824219 6.828125-6.824219h40.570313c3.769531 0 6.828124 3.050782 6.828124 6.824219s-3.058593 6.828125-6.828124 6.828125zm0 0"/><path d="m238.933594 205.1875h-40.574219c-3.769531 0-6.824219-3.054688-6.824219-6.828125s3.054688-6.824219 6.824219-6.824219h40.574219c3.769531 0 6.828125 3.050782 6.828125 6.824219s-3.058594 6.828125-6.828125 6.828125zm0 0"/><path d="m300.375 205.1875h-40.574219c-3.769531 0-6.828125-3.054688-6.828125-6.828125s3.058594-6.824219 6.828125-6.824219h40.574219c3.769531 0 6.824219 3.050782 6.824219 6.824219s-3.054688 6.828125-6.824219 6.828125zm0 0"/><path d="m361.8125 205.1875h-40.570312c-3.769532 0-6.828126-3.054688-6.828126-6.828125s3.058594-6.824219 6.828126-6.824219h40.570312c3.769531 0 6.828125 3.050782 6.828125 6.824219s-3.058594 6.828125-6.828125 6.828125zm0 0"/></g><path d="m54.613281 150.574219h327.679688v27.308593h-327.679688zm0 0" fill="#fc8c29"/><path d="m382.292969 184.707031h-327.679688c-3.769531 0-6.828125-3.050781-6.828125-6.824219v-27.308593c0-3.773438 3.058594-6.828125 6.828125-6.828125h327.679688c3.769531 0 6.828125 3.054687 6.828125 6.828125v27.308593c0 3.773438-3.058594 6.824219-6.828125 6.824219zm-320.851563-13.652343h314.023438v-13.652344h-314.023438zm0 0" fill="#4c241d"/><path d="m54.613281 150.574219h327.679688l-163.839844-102.398438zm0 0" fill="#ffce56"/><path d="m382.292969 157.402344h-327.679688c-3.046875 0-5.722656-2.023438-6.5625-4.945313-.839843-2.925781.363281-6.054687 2.945313-7.667969l163.839844-102.398437c2.214843-1.386719 5.019531-1.386719 7.234374 0l163.839844 102.398437c2.582032 1.613282 3.785156 4.738282 2.945313 7.667969-.839844 2.925781-3.515625 4.945313-6.5625 4.945313zm-303.875-13.65625h280.070312l-140.035156-87.519532zm0 0" fill="#4c241d"/><path d="m341.328125 157.402344c-1.214844 0-2.445313-.320313-3.554687-1l-119.324219-72.921875-31.90625 19.453125c-3.234375 1.972656-7.425781.945312-9.382813-2.273438-1.957031-3.222656-.945312-7.421875 2.277344-9.378906l35.460938-21.628906c2.183593-1.332032 4.933593-1.332032 7.113281 0l122.882812 75.09375c3.214844 1.964844 4.230469 6.167968 2.265625 9.386718-1.289062 2.109376-3.53125 3.269532-5.832031 3.269532zm0 0" fill="#4c241d"/><path d="m135.460938 82.574219c-2.078126 0-4.050782.425781-5.894532 1.105469-3.796875-7.273438-11.320312-12.296876-20.09375-12.296876-.058594 0-.113281.015626-.175781.015626-5.03125-10.90625-16.03125-18.492188-28.832031-18.492188-13.566406 0-25.117188 8.519531-29.667969 20.492188-.316406-.015626-.613281-.09375-.929687-.09375-11.914063 0-21.566407 9.65625-21.566407 21.566406s9.65625 21.566406 21.566407 21.566406h85.59375c9.46875 0 17.144531-7.25 17.144531-16.71875s-7.675781-17.144531-17.144531-17.144531zm0 0" fill="#9dc1e4"/><path d="m135.460938 123.269531h-85.59375c-15.65625 0-28.394532-12.742187-28.394532-28.394531 0-14.46875 10.875-26.441406 24.878906-28.179688 6.613282-12.496093 19.789063-20.613281 34.113282-20.613281 13.585937 0 26.152344 7.238281 33.074218 18.75 7.570313 1.0625 14.40625 5.042969 19.125 11.09375 14.304688-1.800781 26.769532 9.648438 26.769532 23.792969 0 13.207031-10.53125 23.550781-23.972656 23.550781zm-86.050782-43.15625c-7.671875.023438-14.285156 6.636719-14.285156 14.761719s6.613281 14.738281 14.742188 14.738281h85.59375c5.785156 0 10.320312-4.34375 10.320312-9.890625 0-6.820312-6.273438-12.414062-13.859375-9.636718-3.210937 1.207031-6.816406-.207032-8.414063-3.246094-2.730468-5.238282-7.976562-8.519532-13.746093-8.632813-3.085938.21875-5.484375-1.394531-6.660157-3.945312-4.070312-8.828125-12.957031-14.527344-22.636718-14.527344-10.269532 0-19.628906 6.464844-23.289063 16.09375-1.042969 2.753906-3.75 4.632813-6.664062 4.390625-.226563-.003906-.878907-.070312-1.101563-.105469zm0 0" fill="#4c241d"/><path d="m348.160156 48.175781c-2.558594 0-4.925781.746094-6.972656 1.972657-.757812-12.511719-11.042969-22.453126-23.746094-22.453126-13.199218 0-23.894531 10.695313-23.894531 23.890626 0 13.199218 10.695313 23.894531 23.894531 23.894531h30.71875c7.539063 0 13.652344-6.113281 13.652344-13.652344s-6.113281-13.652344-13.652344-13.652344zm0 0" fill="#9dc1e4"/><path d="m348.160156 82.308594h-30.71875c-16.941406 0-30.722656-13.78125-30.722656-30.722656 0-16.9375 13.78125-30.71875 30.722656-30.71875 13.265625 0 24.6875 8.546874 28.890625 20.566406 11.84375-1.152344 22.308594 8.496094 22.308594 20.394531 0 11.292969-9.1875 20.480469-20.480469 20.480469zm-30.71875-47.789063c-9.410156 0-17.066406 7.65625-17.066406 17.066407 0 9.414062 7.65625 17.070312 17.066406 17.070312h30.71875c3.761719 0 6.828125-3.0625 6.828125-6.828125 0-4.960937-5.667969-8.578125-10.292969-5.828125-2.054687 1.222656-4.585937 1.296875-6.691406.1875-2.109375-1.113281-3.488281-3.246094-3.628906-5.628906-.542969-8.992188-7.984375-16.039063-16.933594-16.039063zm0 0" fill="#4c241d"/></svg>