<!-- Generator: Adobe Illustrator 19.0.1, SVG Export Plug-In  -->
<svg version="1.1"
	 xmlns="http://www.w3.org/2000/svg" xmlns:xlink="http://www.w3.org/1999/xlink" xmlns:a="http://ns.adobe.com/AdobeSVGViewerExtensions/3.0/"
	 x="0px" y="0px" width="90px" height="90px" viewBox="0 0 90 90" style="enable-background:new 0 0 90 90;" xml:space="preserve">
<style type="text/css">
	.st0{clip-path:url(#SVGID_2_);}
	.st1{clip-path:url(#SVGID_2_);fill:none;stroke:#6f3faa;stroke-miterlimit:10;}
	.st2{clip-path:url(#SVGID_4_);}
	.st3{clip-path:url(#SVGID_4_);fill:none;stroke:#6f3faa;stroke-miterlimit:10;}
	path{fill:#6f3faa;}
</style>
<defs>
</defs>
<g>
	<defs>
		<rect id="SVGID_1_" width="90" height="90"/>
	</defs>
	<clipPath id="SVGID_2_">
		<use xlink:href="#SVGID_1_"  style="overflow:visible;"/>
	</clipPath>
	<path class="st0" d="M90,43.8c0,24.2-19.8,43.8-44.2,43.8c-7.7,0-15-2-21.4-5.5L0,90l8-23.5c-4-6.6-6.3-14.4-6.3-22.6
		C1.6,19.6,21.4,0,45.8,0C70.2,0,90,19.6,90,43.8 M45.8,7C25.3,7,8.7,23.5,8.7,43.8c0,8.1,2.6,15.5,7.1,21.6l-4.6,13.7l14.3-4.5
		c5.9,3.9,12.9,6.1,20.4,6.1C66.3,80.7,83,64.2,83,43.8S66.3,7,45.8,7 M62.4,59.6c-0.3-0.4-1-0.7-2.1-1.3c-1.1-0.5-6.4-3.1-7.4-3.5
		c-1-0.4-1.7-0.5-2.4,0.5c-0.7,1.1-2.8,3.5-3.4,4.2c-0.6,0.7-1.3,0.8-2.3,0.3c-1.1-0.5-4.6-1.7-8.7-5.3c-3.2-2.8-5.4-6.4-6-7.4
		c-0.6-1.1-0.1-1.7,0.5-2.2c0.5-0.5,1.1-1.3,1.6-1.9c0.5-0.6,0.7-1.1,1.1-1.8c0.4-0.7,0.2-1.3-0.1-1.9c-0.3-0.5-2.4-5.8-3.3-8
		c-0.9-2.1-1.8-1.8-2.4-1.8c-0.6,0-1.4-0.1-2.1-0.1c-0.7,0-1.9,0.3-2.9,1.3c-1,1.1-3.8,3.7-3.8,9c0,5.3,3.9,10.4,4.4,11.1
		c0.5,0.7,7.5,11.9,18.5,16.2c11,4.3,11,2.9,13,2.7c2-0.2,6.4-2.6,7.3-5.1C62.7,62.2,62.7,60.1,62.4,59.6"/>
	<path class="st0" d="M46.1,32.4c-1.1-0.3-2.3,0.3-2.6,1.4c-0.3,1.1,0.3,2.3,1.4,2.6c3.1,0.9,5.6,3.4,6.5,6.5c0.3,0.9,1.1,1.5,2,1.5
		c0.2,0,0.4,0,0.6-0.1c1.1-0.3,1.8-1.5,1.5-2.6C54.3,37.3,50.7,33.7,46.1,32.4"/>
	<path class="st1" d="M46.1,32.4c-1.1-0.3-2.3,0.3-2.6,1.4c-0.3,1.1,0.3,2.3,1.4,2.6c3.1,0.9,5.6,3.4,6.5,6.5c0.3,0.9,1.1,1.5,2,1.5
		c0.2,0,0.4,0,0.6-0.1c1.1-0.3,1.8-1.5,1.5-2.6C54.3,37.3,50.7,33.7,46.1,32.4z"/>
	<path class="st0" d="M62.1,45c0.2,0,0.4,0,0.6-0.1c1.1-0.3,1.8-1.5,1.5-2.6c-2.5-8.8-9.5-15.8-18.3-18.3c-1.1-0.3-2.3,0.3-2.6,1.4
		c-0.3,1.1,0.3,2.3,1.4,2.6c7.4,2.1,13.3,8,15.4,15.4C60.4,44.4,61.2,45,62.1,45"/>
	<path class="st1" d="M62.1,45c0.2,0,0.4,0,0.6-0.1c1.1-0.3,1.8-1.5,1.5-2.6c-2.5-8.8-9.5-15.8-18.3-18.3c-1.1-0.3-2.3,0.3-2.6,1.4
		c-0.3,1.1,0.3,2.3,1.4,2.6c7.4,2.1,13.3,8,15.4,15.4C60.4,44.4,61.2,45,62.1,45z"/>
	<path class="st0" d="M45,14.2c-1.1-0.3-2.3,0.3-2.6,1.4c-0.3,1.1,0.3,2.3,1.4,2.6c12.5,3.6,22.5,13.6,26,26.1
		c0.3,0.9,1.1,1.5,2,1.5c0.2,0,0.4,0,0.6-0.1c1.1-0.3,1.8-1.5,1.5-2.6C70,29.3,58.9,18.2,45,14.2"/>
	<path class="st1" d="M45,14.2c-1.1-0.3-2.3,0.3-2.6,1.4c-0.3,1.1,0.3,2.3,1.4,2.6c12.5,3.6,22.5,13.6,26,26.1
		c0.3,0.9,1.1,1.5,2,1.5c0.2,0,0.4,0,0.6-0.1c1.1-0.3,1.8-1.5,1.5-2.6C70,29.3,58.9,18.2,45,14.2z"/>
</g>
</svg>
