<?xml version="1.0" standalone="no"?>
<!DOCTYPE svg PUBLIC "-//W3C//DTD SVG 1.1//EN" "http://www.w3.org/Graphics/SVG/1.1/DTD/svg11.dtd" >
<svg xmlns="http://www.w3.org/2000/svg" xmlns:xlink="http://www.w3.org/1999/xlink" version="1.1">
<metadata></metadata>
<defs>
<font id="uni_neuebold" horiz-adv-x="1228" >
<font-face units-per-em="2048" ascent="1536" descent="-512" />
<missing-glyph horiz-adv-x="442" />
<glyph horiz-adv-x="0" />
<glyph unicode="&#xd;" horiz-adv-x="681" />
<glyph unicode=" "  horiz-adv-x="442" />
<glyph unicode="&#x09;" horiz-adv-x="442" />
<glyph unicode="&#xa0;" horiz-adv-x="442" />
<glyph unicode="!" horiz-adv-x="548" d="M119 135.5q0 65.5 44 110.5t111 45q66 0 111 -45t45 -110.5t-45 -110.5t-111 -45q-68 0 -111.5 45t-43.5 110.5zM150 1061v373q0 31 28 30h191q31 0 30 -30v-373l-16 -631q0 -29 -31 -29h-155q-31 0 -31 29z" />
<glyph unicode="&#x22;" horiz-adv-x="755" d="M113 983l16 451q0 31 33 30h164q28 1 26 -32l-53 -451q-4 -29 -33 -29h-127q-27 0 -26 31zM424 983l16 451q0 31 33 30h164q33 1 27 -32l-54 -451q-4 -29 -32 -29h-125q-29 0 -29 31z" />
<glyph unicode="#" horiz-adv-x="1554" d="M57 432l37 123q6 25 31 25h266l80 294h-258q-35 0 -25 33l35 121q6 27 33 27h266l109 383q6 27 33 26h145q37 0 27 -34l-109 -375h281l110 383q6 27 33 26h145q35 0 25 -34l-107 -375h256q35 0 25 -35l-35 -121q-10 -25 -33 -25h-264l-80 -294h256q35 0 25 -33l-35 -123 q-6 -25 -33 -25h-264l-106 -372q-6 -27 -33 -27h-145q-35 0 -25 35l104 364h-280l-109 -372q-5 -27 -32 -27h-146q-35 0 -24 35l104 364h-258q-35 0 -25 33zM596 580h283l79 294h-282z" />
<glyph unicode="$" horiz-adv-x="1216" d="M82 217l100 139q18 25 41 6q199 -147 383 -153q117 0 202 52t85 151q0 43 -18.5 75.5t-43 53t-74.5 39t-86 27.5t-104 24q-94 20 -165.5 47t-149.5 75t-121 126.5t-43 185.5q0 182 114.5 287.5t303.5 130.5v145q0 31 31 31h139q29 0 29 -31v-143q193 -20 387 -162 q25 -14 8 -41l-96 -139q-16 -23 -43 -6q-168 115 -361 120q-125 0 -196.5 -53t-71.5 -145q0 -37 16.5 -66.5t39 -48t67.5 -36t80 -27t98 -23.5q90 -20 142 -35.5t132 -51.5t123 -79t77 -116.5t34 -167.5q0 -186 -123 -294t-313 -132v-158q0 -31 -29 -31h-139q-31 0 -31 31 v156q-215 23 -420 194q-25 20 -4 43z" />
<glyph unicode="%" horiz-adv-x="1572" d="M84 977v231q0 133 81 200t195 67q117 0 198 -67t81 -200v-231q0 -131 -82 -199.5t-197 -68.5q-113 0 -194.5 68.5t-81.5 199.5zM225.5 10q-6.5 10 3.5 27l901 1395q12 20 37 20h150q16 0 22.5 -11t-4.5 -26l-901 -1397q-10 -18 -37 -18h-147q-18 0 -24.5 10zM256 989 q0 -63 30.5 -93t73.5 -30q45 0 76 30t31 93v203q0 66 -30.5 95.5t-76.5 29.5q-43 0 -73.5 -30t-30.5 -95v-203zM938 250v231q0 131 81 199t195 68q117 0 197 -68t80 -199v-231q0 -131 -82 -199.5t-194.5 -68.5t-194.5 68.5t-82 199.5zM1108 262q0 -63 30.5 -93t75.5 -30 q43 0 75 30t32 93v203q0 63 -32 93t-75 30q-45 0 -75.5 -30t-30.5 -93v-203z" />
<glyph unicode="&#x26;" horiz-adv-x="1261" d="M78 403q0 137 71.5 233.5t196.5 178.5q-135 176 -135 328q0 147 109.5 246.5t269.5 99.5q158 0 259 -99.5t99 -252.5q-2 -129 -75.5 -217.5t-204.5 -167.5q14 -18 200 -256q59 98 88 159q12 27 37 15l142 -64q25 -10 16 -41q-45 -115 -135 -258l211 -270q10 -16 4 -26.5 t-25 -10.5h-211q-27 0 -37 16l-86 117q-162 -158 -356 -158q-182 0 -310 120t-128 308zM305 406q0 -92 65.5 -154t161.5 -62q113 0 207 115l-258 336q-176 -110 -176 -235zM430 1139q0 -82 102 -215q98 57 147.5 104t49.5 111q0 66 -38 108.5t-105.5 42.5t-111.5 -44 t-44 -107z" />
<glyph unicode="'" horiz-adv-x="444" d="M113 983l16 451q0 31 33 30h164q30 1 28 -32l-55 -451q-4 -29 -33 -29h-125q-29 0 -28 31z" />
<glyph unicode="(" horiz-adv-x="626" d="M90 729q0 475 268 946q12 20 37 21h172q39 0 23 -37q-127 -213 -200 -457t-73 -473q0 -471 273 -930q16 -37 -23 -37h-172q-25 0 -37 21q-268 471 -268 946z" />
<glyph unicode=")" horiz-adv-x="626" d="M37 -201q272 459 272 930q0 229 -72.5 473t-199.5 457q-16 37 22 37h172q25 0 37 -21q268 -471 268.5 -946t-268.5 -946q-12 -21 -37 -21h-172q-39 0 -22 37z" />
<glyph unicode="*" horiz-adv-x="935" d="M80 1126l45 142q10 29 37 20l205 -67v213q0 31 28 30h146q31 0 30 -30v-213l203 65q27 8 37 -18l45 -140q10 -27 -16 -36l-205 -66l125 -172q14 -25 -6 -43l-117 -86q-25 -20 -41 6l-129 172l-123 -170q-16 -26 -41 -8l-119 86q-23 16 -8 41l125 172l-201 66 q-29 12 -20 36z" />
<glyph unicode="+" d="M147 604v162q0 29 29 29h326v327q0 29 28 29h166q31 0 31 -29v-327h326q29 0 28 -29v-162q0 -31 -28 -31h-326v-327q0 -29 -31 -29h-166q-29 0 -28 29v327h-326q-29 0 -29 31z" />
<glyph unicode="," horiz-adv-x="487" d="M29 -221l116 450q6 27 33 27h180q35 0 25 -35l-150 -452q-6 -25 -34 -25h-144q-33 0 -26 35z" />
<glyph unicode="-" horiz-adv-x="827" d="M127 530v160q0 31 31 31h512q31 0 30 -31v-160q1 -28 -30 -28h-512q-31 0 -31 28z" />
<glyph unicode="." horiz-adv-x="487" d="M94 139q0 68 41 110t109 42q66 0 108.5 -42t42.5 -110q0 -66 -43 -107.5t-108 -41.5q-68 0 -109 42t-41 107z" />
<glyph unicode="/" horiz-adv-x="909" d="M53 35l570 1407q8 23 32 22h179q36 1 22 -34l-565 -1407q-8 -23 -35 -23h-180q-16 0 -22.5 10t-0.5 25z" />
<glyph unicode="0" horiz-adv-x="1259" d="M125 477v518q0 246 149.5 370t356.5 124t355.5 -124t148.5 -370v-518q0 -250 -148.5 -376t-355.5 -126q-131 0 -241.5 48.5t-187.5 166t-77 287.5zM365 469q0 -141 77.5 -201.5t188 -60.5t187.5 60.5t77 201.5v522q0 143 -77 204.5t-187.5 61.5t-188 -61t-77.5 -205v-522 z" />
<glyph unicode="1" horiz-adv-x="776" d="M29 1174q-16 23 8 43l350 237q12 10 37 10h158q29 0 28 -30v-1403q1 -31 -28 -31h-181q-31 0 -30 31v1147l-217 -150q-23 -16 -41 10z" />
<glyph unicode="2" horiz-adv-x="1150" d="M76 31v123q0 23 14 36l416 433q143 150 212.5 249t69.5 197q0 82 -53 138.5t-162 56.5q-168 0 -327 -164q-20 -25 -41 2l-96 131q-16 20 2 41q199 215 462 215q203 0 331 -108.5t128 -307.5q0 -133 -68.5 -252t-215.5 -286q-125 -143 -306 -314h582q31 0 31 -31v-159 q0 -31 -31 -31h-920q-29 0 -28 31z" />
<glyph unicode="3" horiz-adv-x="1165" d="M66 168q-18 20 0 43l100 117q20 20 43 0q90 -66 167 -96.5t189 -30.5q121 0 193.5 70.5t72.5 201.5q0 248 -288 248q-63 0 -129 -14q-23 -6 -37 18l-39 84q-10 23 8 43l201 219q131 139 174 172h-555q-29 0 -29 31v160q0 31 29 30h835q29 0 29 -30v-119q0 -18 -14 -37 l-371 -393l2 -4q172 4 300 -107.5t128 -306.5q0 -225 -143.5 -358.5t-366.5 -133.5q-279 0 -499 193z" />
<glyph unicode="4" horiz-adv-x="1179" d="M53 332v133q0 20 10 37l502 940q12 23 35 22h207q18 0 24.5 -11t-2.5 -26l-483 -907h383l4 285q4 29 31 29h174q31 0 31 -29v-285h125q31 0 30 -28v-160q0 -31 -30 -31h-125v-270q0 -31 -31 -31h-178q-31 0 -31 31v270h-645q-31 0 -31 31z" />
<glyph unicode="5" horiz-adv-x="1191" d="M111 166q-16 20 0 43l112 123q18 20 43 -2q160 -125 334 -125q129 0 197.5 74.5t68.5 205.5q0 258 -264 258q-162 0 -262 -88q-20 -18 -41 -10l-139 47q-27 6 -27 35l27 707q0 31 30 30h807q31 0 31 -30v-164q0 -31 -31 -31h-606l-10 -340q104 63 250 64 q221 0 349 -126.5t128 -351.5q0 -231 -137 -370.5t-373 -139.5q-281 0 -487 191z" />
<glyph unicode="6" horiz-adv-x="1224" d="M125 461v534q0 236 143.5 365t360.5 129q248 0 438 -146q23 -18 4 -43l-92 -131q-18 -25 -41 -6q-135 100 -307 101q-115 0 -189.5 -67t-74.5 -191v-158q123 94 292 94q223 0 352.5 -122t129.5 -345q0 -221 -142.5 -360.5t-365.5 -139.5q-225 0 -366.5 135.5 t-141.5 350.5zM367 461q0 -117 72.5 -186.5t195.5 -69.5t192.5 71.5t69.5 198.5q0 250 -254 250q-123 0 -199.5 -60.5t-76.5 -185.5v-18z" />
<glyph unicode="7" horiz-adv-x="1093" d="M53 1264v170q0 31 31 30h938q31 0 31 -30v-109q0 -16 -11 -37l-600 -1265q-7 -23 -34 -23h-209q-16 0 -22.5 10t1.5 27l567 1196h-661q-31 0 -31 31z" />
<glyph unicode="8" horiz-adv-x="1269" d="M102 430q0 111 51.5 204t149.5 140q-164 106 -164 311q0 170 139.5 287t356.5 117q215 0 355 -117t140 -287q0 -205 -165 -311q98 -47 149 -140t51 -204q0 -215 -145.5 -335t-385 -120t-386 121t-146.5 334zM346 432q0 -104 79 -168.5t210 -64.5t210 64.5t79 168.5 q0 100 -78 158.5t-211 58.5t-211 -58.5t-78 -158.5zM379 1073q0 -100 67.5 -155.5t188.5 -55.5t188.5 55.5t67.5 155.5q0 90 -68.5 142.5t-187.5 52.5q-121 0 -188.5 -52.5t-67.5 -142.5z" />
<glyph unicode="9" horiz-adv-x="1226" d="M86 989q0 221 142.5 360.5t365.5 139.5t365.5 -135t142.5 -350v-535q0 -236 -143.5 -365t-360.5 -129q-248 0 -446 160q-23 18 -5 41l93 137q18 25 43 4q145 -113 313 -112q115 0 188.5 65.5t73.5 190.5v155q-121 -94 -291 -94q-221 0 -351 122t-130 345zM330 991 q0 -252 262 -252q115 0 190.5 63.5t75.5 184.5v19q0 117 -72.5 187.5t-193.5 70.5q-123 0 -192.5 -73t-69.5 -200z" />
<glyph unicode=":" horiz-adv-x="552" d="M127 139q0 68 41 109t106 41q68 0 110 -41t42 -109q0 -70 -42 -110.5t-110 -40.5q-66 0 -106.5 41t-40.5 110zM127 936q0 68 41 109.5t106 41.5q68 0 110 -41.5t42 -109.5t-42 -109t-110 -41q-66 0 -106.5 41t-40.5 109z" />
<glyph unicode=";" horiz-adv-x="557" d="M55 -221l117 469q6 27 33 26h180q16 0 23.5 -10t1.5 -24l-150 -469q-6 -27 -35 -27h-143q-33 0 -27 35zM137 935.5q0 65.5 41 108.5t107 43q68 0 109.5 -43t41.5 -108.5t-42 -107.5t-109 -42q-66 0 -107 42t-41 107.5z" />
<glyph unicode="&#x3c;" d="M111 618v115q0 20 20 33l877 430q16 8 26 1t10 -23v-195q0 -27 -22 -37l-608 -266l608 -266q22 -10 22 -37v-195q0 -16 -10 -23.5t-26 1.5l-877 430q-20 12 -20 32z" />
<glyph unicode="=" d="M147 406v161q0 29 29 29h877q29 0 28 -29v-161q1 -31 -28 -31h-877q-29 0 -29 31zM147 795v161q0 31 29 31h877q29 0 28 -31v-161q1 -31 -28 -31h-877q-29 0 -29 31z" />
<glyph unicode="&#x3e;" d="M184 178v195q0 27 25 37l606 266l-606 266q-25 10 -25 37v195q0 16 11.5 23t25.5 -1l879 -430q20 -12 20 -33v-115q0 -20 -20 -32l-879 -430q-14 -8 -25.5 -1t-11.5 23z" />
<glyph unicode="?" horiz-adv-x="1013" d="M59 1294q-14 20 4 41q68 63 176.5 108.5t237.5 45.5q195 0 331 -111.5t136 -316.5q0 -98 -38 -170t-92 -114t-108.5 -78.5t-92.5 -88t-38 -121.5v-61q1 -29 -30 -29h-174q-31 0 -31 29v107q0 80 38 140t92 98t108.5 75t92.5 90t38 121q0 94 -58.5 156.5t-179.5 62.5 q-156 0 -278 -117q-27 -27 -43 4zM311 139.5q0 65.5 41 108.5t107 43q68 0 109.5 -43t41.5 -108.5t-42 -107.5t-109 -42q-66 0 -107 42t-41 107.5z" />
<glyph unicode="@" horiz-adv-x="1875" d="M111 520v287q0 141 43 259t133 215t250.5 152.5t377.5 55.5q582 0 826 -369q10 -16 10 -37v-532q0 -186 -90 -286.5t-238 -100.5q-152 0 -239 74q-100 -78 -254 -78q-166 0 -270.5 109.5t-104.5 271.5v153q0 168 101.5 270.5t281.5 102.5q209 0 350 -80q18 -16 19 -37 v-491q0 -123 127 -119q129 2 129 174v539q-205 262 -639 262q-313 0 -466 -140.5t-153 -369.5v-285q0 -268 144.5 -419.5t404.5 -151.5q197 0 346 69q29 12 39 -18l27 -113q6 -29 -17 -37q-70 -37 -188.5 -59t-206.5 -22q-367 0 -555 204.5t-188 546.5zM756 551 q0 -106 49 -157.5t131 -51.5q111 0 172 55v455q-53 35 -166 35q-86 0 -136 -53.5t-50 -141.5v-141z" />
<glyph unicode="A" horiz-adv-x="1310" d="M14 35l492 1405q10 25 33 24h233q23 0 33 -24l491 -1405q10 -35 -24 -35h-201q-29 0 -35 25l-100 309h-561l-101 -309q-7 -25 -34 -25h-201q-35 0 -25 35zM444 557h422l-207 637h-8z" />
<glyph unicode="B" horiz-adv-x="1320" d="M168 31v1403q0 31 29 30h532q207 0 322.5 -105.5t115.5 -295.5q0 -199 -145 -287q209 -90 209 -338q0 -207 -133 -322.5t-369 -115.5h-532q-29 0 -29 31zM414 221h313q252 0 252 219q0 100 -63.5 158.5t-190.5 58.5h-311v-436zM414 872h307q90 0 143.5 47.5t53.5 139.5 q0 90 -54.5 137t-142.5 47h-307v-371z" />
<glyph unicode="C" horiz-adv-x="1214" d="M123 498v467q0 256 159.5 390t401.5 134t438 -137q23 -16 6 -41l-96 -140q-14 -25 -43 -8q-133 92 -305 92q-147 0 -230 -77.5t-83 -214.5v-459q0 -139 83 -217t232 -78q193 0 340 106q27 18 41 -8l96 -139q16 -27 -4 -43q-193 -150 -471 -150q-246 0 -405.5 133.5 t-159.5 389.5z" />
<glyph unicode="D" horiz-adv-x="1378" d="M168 31v1403q0 31 29 30h508q260 0 406 -138t146 -402v-389q0 -260 -146 -397.5t-406 -137.5h-508q-29 0 -29 31zM416 231h289q297 0 296 301v394q0 311 -296 311h-289v-1006z" />
<glyph unicode="E" horiz-adv-x="1200" d="M168 31v1403q0 31 29 30h847q31 0 31 -30v-166q0 -29 -31 -29h-628v-383h575q31 0 31 -31v-163q0 -31 -31 -31h-575v-406h657q31 0 31 -28v-166q0 -31 -31 -31h-876q-29 0 -29 31z" />
<glyph unicode="F" horiz-adv-x="1157" d="M168 31v1403q0 31 29 30h870q31 1 31 -30v-168q0 -29 -31 -29h-653v-426h567q29 0 29 -31v-164q0 -31 -29 -30h-567v-555q0 -31 -29 -31h-188q-29 0 -29 31z" />
<glyph unicode="G" horiz-adv-x="1337" d="M123 500v467q0 256 158.5 389t398.5 133q272 0 491 -137q29 -18 11 -43l-103 -142q-14 -23 -41 -8q-162 96 -360 96q-139 0 -223 -74.5t-84 -219.5v-459q0 -145 91 -219t232 -74q174 0 287 86v311h-274q-29 0 -29 31v160q0 31 29 30h487q29 0 29 -30v-576q-1 -25 -11 -33 q-199 -213 -518 -213q-244 0 -407.5 135.5t-163.5 389.5z" />
<glyph unicode="H" horiz-adv-x="1404" d="M168 31v1403q0 31 29 30h188q29 0 29 -30v-580h577v580q0 31 29 30h188q29 0 29 -30v-1403q0 -31 -29 -31h-188q-29 0 -29 31v596h-577v-596q0 -31 -29 -31h-188q-29 0 -29 31z" />
<glyph unicode="I" horiz-adv-x="581" d="M168 31v1403q0 31 29 30h188q29 1 29 -30v-1403q0 -31 -29 -31h-188q-29 0 -29 31z" />
<glyph unicode="J" horiz-adv-x="1056" d="M16 172l84 139q18 25 43 6q155 -108 289 -108h2q100 0 157.5 71.5t57.5 219.5v934q0 31 31 30h188q29 0 29 -30v-936q0 -244 -130 -383.5t-331 -139.5q-223 0 -413 156q-20 14 -7 41z" />
<glyph unicode="K" horiz-adv-x="1275" d="M168 31v1403q0 31 29 30h188q29 0 29 -30v-594l512 606q18 18 37 18h239q20 0 25.5 -11t-6.5 -26l-543 -616l588 -774q12 -16 6 -26.5t-25 -10.5h-239q-27 0 -37 18l-455 613l-102 -111v-489q0 -31 -29 -31h-188q-29 0 -29 31z" />
<glyph unicode="L" horiz-adv-x="1073" d="M168 31v1403q0 31 29 30h190q29 0 29 -30v-1207h602q31 0 31 -28v-168q0 -31 -31 -31h-821q-29 0 -29 31z" />
<glyph unicode="M" horiz-adv-x="1761" d="M168 31v1403q0 31 29 30h223q25 0 33 -22l249 -465q78 -145 175 -361h8q96 215 174 361l248 465q12 23 34 22h222q31 0 30 -30v-1403q0 -31 -30 -31h-187q-29 0 -28 31v411q0 242 16 643l-6 2q-61 -133 -184 -378l-181 -351q-10 -23 -35 -22h-155q-25 0 -35 22l-180 351 q-123 246 -185 378l-6 -2q16 -401 17 -643v-411q0 -31 -31 -31h-186q-29 0 -29 31z" />
<glyph unicode="N" horiz-adv-x="1445" d="M168 31v1403q0 31 29 30h206q23 0 37 -20l400 -696q147 -262 204 -371l7 2q-18 260 -19 555v500q0 31 31 30h184q31 0 31 -30v-1403q0 -31 -31 -31h-207q-23 0 -34 20l-388 642q-121 195 -219 403l-6 -2q18 -317 19 -563v-469q0 -31 -29 -31h-186q-29 0 -29 31z" />
<glyph unicode="O" horiz-adv-x="1388" d="M119 545v377q0 268 151.5 417.5t424 150t424 -149.5t151.5 -418v-377q0 -268 -151.5 -419t-424 -151t-424 150.5t-151.5 419.5zM371 545q0 -164 82 -250t241.5 -86t241.5 86t82 250v375q0 338 -323 338h-1q-324 0 -323 -338v-375z" />
<glyph unicode="P" horiz-adv-x="1294" d="M168 31v1403q0 30 29 30h518q242 0 378 -133t136 -366q0 -238 -136.5 -370t-377.5 -132h-301v-432q0 -31 -29 -31h-188q-29 0 -29 31zM414 692h272q150 0 220.5 66.5t70.5 206t-70.5 205t-220.5 65.5h-272v-543z" />
<glyph unicode="Q" horiz-adv-x="1392" d="M119 545v377q0 268 151.5 417.5t424 149.5t424 -149.5t151.5 -417.5v-377q0 -221 -107 -363l119 -123q20 -23 0 -43l-100 -98q-25 -25 -43 0l-127 133q-135 -76 -318 -76q-272 0 -423.5 150.5t-151.5 419.5zM371 545q0 -332 319 -336q72 0 139 29l-143 151q-18 20 0 43 l98 98q25 20 43 0l156 -159q35 80 35 174v375q0 166 -83 251.5t-241 85.5q-324 0 -323 -337v-375z" />
<glyph unicode="R" horiz-adv-x="1304" d="M168 31v1403q0 31 29 30h475q252 0 392 -123.5t140 -343.5q0 -168 -89 -280.5t-251 -155.5l375 -524q23 -37 -18 -37h-232q-23 0 -35 20l-358 515h-182v-504q0 -31 -29 -31h-188q-29 0 -29 31zM414 756h258q143 0 211.5 58t68.5 181q0 125 -68.5 183.5t-211.5 58.5h-258 v-481z" />
<glyph unicode="S" horiz-adv-x="1263" d="M96 215l103 143q16 23 41 7q207 -150 395 -156q123 0 210 52t87 151q0 53 -24.5 91t-78 62.5t-99.5 37.5t-130 30q-498 104 -498 448q0 203 155 305.5t392 102.5q244 0 481 -162q27 -16 9 -41l-99 -141q-14 -25 -43 -6q-174 113 -366 118q-131 0 -205 -48t-74 -132 q0 -39 16.5 -68.5t40 -49t68.5 -37t83 -27.5t104 -25q74 -16 124 -30.5t116.5 -39t111.5 -57t87 -77.5t62.5 -108.5t20.5 -141.5q0 -217 -160 -329t-401 -112q-150 0 -272 47.5t-251 149.5q-20 20 -6 43z" />
<glyph unicode="T" horiz-adv-x="1181" d="M25 1266v168q-1 30 30 30h1071q31 0 31 -30v-168q0 -29 -31 -29h-411v-1206q0 -31 -29 -31h-188q-29 0 -29 31v1206h-414q-31 0 -30 29z" />
<glyph unicode="U" horiz-adv-x="1429" d="M158 510v924q0 31 30 30h191q31 0 31 -30v-910q0 -154 78.5 -236.5t224 -82.5t226.5 83t81 236v910q0 31 31 30h190q31 0 31 -30v-924q0 -244 -152.5 -389.5t-406.5 -145.5q-252 0 -403.5 146.5t-151.5 388.5z" />
<glyph unicode="V" horiz-adv-x="1331" d="M12 1430q-10 35 25 34h205q27 0 32 -24l269 -793q37 -109 119 -373h8q23 70 64.5 200t56.5 173l266 793q6 25 35 24h204q35 0 23 -34l-496 -1405q-7 -25 -32 -25h-248q-23 0 -35 25z" />
<glyph unicode="W" horiz-adv-x="1982" d="M23 1430q-10 35 26 34h201q27 0 33 -26l170 -680q45 -176 98 -463h6q49 231 125 498l176 624q6 27 33 27h201q27 0 32 -27l179 -624q68 -238 122 -498h7q41 233 98 463l170 680q6 27 31 26h202q37 0 27 -34l-387 -1403q-6 -27 -33 -27h-215q-27 0 -33 27l-190 645 q-66 219 -107 458h-8q-41 -231 -104 -458l-193 -645q-6 -27 -33 -27h-215q-27 0 -32 27z" />
<glyph unicode="X" horiz-adv-x="1236" d="M33 10q-6 10 4 27l436 696l-412 694q-8 14 -1.5 25.5t24.5 11.5h221q23 0 35 -22l278 -514l281 514q12 23 35 22h221q16 0 22.5 -11t-1.5 -26l-412 -694l436 -696q8 -16 3 -26.5t-21 -10.5h-230q-25 0 -37 23l-297 520l-296 -520q-12 -23 -37 -23h-228q-18 0 -24 10z" />
<glyph unicode="Y" horiz-adv-x="1212" d="M8 1452.5q6 11.5 25 11.5h215q25 0 33 -22l325 -674l324 674q8 23 35 22h215q16 0 22 -11t-2 -26l-469 -890v-506q0 -31 -31 -31h-188q-31 0 -31 31v510l-471 886q-8 14 -2 25.5z" />
<glyph unicode="Z" horiz-adv-x="1241" d="M74 31v116q0 25 10 39l727 1051h-672q-31 0 -30 31v166q0 31 30 30h975q29 0 29 -30v-113q0 -25 -10 -37l-723 -1057h725q29 0 28 -28v-168q1 -31 -28 -31h-1031q-31 0 -30 31z" />
<glyph unicode="[" horiz-adv-x="624" d="M154 -209v1874q0 31 28 31h344q31 0 31 -31v-149q0 -31 -31 -31h-145v-1514h145q31 0 31 -28v-152q0 -31 -31 -31h-344q-29 0 -28 31z" />
<glyph unicode="\" horiz-adv-x="909" d="M51 1430q-14 35 23 34h178q25 0 33 -22l569 -1407q6 -14 0 -24.5t-23 -10.5h-180q-27 0 -35 23z" />
<glyph unicode="]" horiz-adv-x="624" d="M68 -57q0 29 30 28h146v1514h-146q-31 0 -30 31v149q0 31 30 31h344q29 0 29 -31v-1874q0 -31 -29 -31h-344q-31 0 -30 31v152z" />
<glyph unicode="^" d="M73 1156q-5 11 7 26l416 485q16 16 36 16h164q18 0 35 -16l416 -485q12 -14 7 -25.5t-24 -11.5h-212q-23 0 -35 16l-269 322l-268 -322q-12 -16 -37 -16h-211q-20 0 -25 11z" />
<glyph unicode="_" horiz-adv-x="1155" d="M63 -55q0 31 31 30h967q31 1 31 -30v-156q0 -29 -31 -29h-967q-31 0 -31 29v156z" />
<glyph unicode="`" horiz-adv-x="526" d="M-7 1525.5q5 10.5 23 10.5h181q25 0 36 -20l164 -269q10 -14 4 -25.5t-24 -11.5h-135q-25 0 -37 19l-205 270q-12 16 -7 26.5z" />
<glyph unicode="a" horiz-adv-x="1064" d="M57 317q0 162 122 245t327 83q82 0 205 -16v39q0 111 -46.5 158.5t-158.5 47.5q-152 0 -262 -65q-25 -18 -41 8l-82 125q-14 23 0 35q157 108 397 108h4q199 0 312.5 -103t113.5 -312v-598q0 -25 -22 -35q-199 -61 -412 -62q-199 0 -328 82t-129 260zM297 319 q0 -70 59.5 -103.5t157.5 -33.5q94 0 197 25v231q-111 16 -199 17q-215 -1 -215 -136z" />
<glyph unicode="b" horiz-adv-x="1126" d="M127 84v1350q0 31 31 30h176q31 0 31 -30v-394q106 45 221 45q197 0 322.5 -118.5t125.5 -315.5v-225q0 -223 -129 -337t-342 -114t-411 74q-25 8 -25 35zM365 217q69 -29 192 -29q117 0 176.5 55.5t59.5 180.5v227q0 223 -232 223q-113 0 -196 -53v-604z" />
<glyph unicode="c" horiz-adv-x="966" d="M94 389v285q0 188 123 299.5t334 111.5q178 0 336 -98q25 -16 8 -43l-80 -123q-16 -23 -43 -8q-102 59 -215 59q-109 0 -167 -51t-58 -147v-287q0 -94 58.5 -146.5t164.5 -52.5q125 0 238 74q29 16 43 -8l86 -123q16 -25 -7 -41q-162 -115 -362 -115q-213 0 -336 113 t-123 301z" />
<glyph unicode="d" horiz-adv-x="1124" d="M92 426v225q0 197 125 315.5t322 118.5q117 0 221 -45v394q0 31 31 30h176q31 0 30 -30v-1350q0 -27 -22 -35q-201 -74 -414 -74t-341 113t-128 338zM332 424q0 -127 60.5 -183.5t174.5 -56.5q117 0 193 29v608q-80 53 -197 53q-231 0 -231 -223v-227z" />
<glyph unicode="e" horiz-adv-x="1073" d="M96 375v291q0 211 131 315t320 104q186 0 314 -104t128 -315v-207q0 -29 -31 -29h-622v-57q0 -92 58.5 -140.5t158.5 -48.5q150 0 289 95q25 16 41 -7l84 -112q20 -23 -6 -43q-178 -141 -416 -142q-188 0 -318.5 103.5t-130.5 296.5zM336 614h422v54q0 106 -59.5 157.5 t-151.5 51.5q-211 0 -211 -209v-54z" />
<glyph unicode="f" horiz-adv-x="671" d="M131 31v1063q0 190 103.5 292.5t263.5 102.5q78 0 125 -8q29 -2 28 -33v-141q1 -31 -24 -31q-37 6 -92 6q-80 0 -123 -50t-43 -138v-47h235q31 0 31 -31v-148q0 -31 -31 -30h-235v-807q0 -31 -31 -31h-176q-31 0 -31 31z" />
<glyph unicode="g" horiz-adv-x="1124" d="M92 455v192q0 227 130 332.5t343 105.5q221 0 410 -79q23 -8 22 -35v-903q0 -477 -454 -478q-236 0 -400 127q-20 14 -6 41l86 127q16 27 41 9q127 -92 277 -93q119 0 172 61q49 58 49 193v21q-102 -45 -227 -45q-193 0 -318 108.5t-125 315.5zM332 455q0 -215 225 -215 q141 0 203 51v559q-65 22 -181 22h-10q-115 0 -176 -50t-61 -175v-192z" />
<glyph unicode="h" horiz-adv-x="1155" d="M131 31v1403q0 31 31 30h176q31 0 31 -30v-383q97 34 214 34h7q201 0 323.5 -113.5t122.5 -348.5v-592q0 -31 -28 -31h-179q-31 0 -30 31v585q0 141 -57.5 198.5t-176.5 57.5q-123 0 -196 -36v-805q0 -31 -31 -31h-176q-31 0 -31 31z" />
<glyph unicode="i" horiz-adv-x="495" d="M115 1339.5q0 57.5 39 95.5t96 38t95 -38t38 -95.5t-38 -96.5t-95 -39t-96 39t-39 96.5zM129 31v1001q0 29 31 29h178q29 0 29 -29v-1001q0 -31 -29 -31h-178q-31 0 -31 31z" />
<glyph unicode="j" horiz-adv-x="512" d="M-90 -223q0 31 33 30q49 -4 67 -4q70 0 102.5 44t32.5 143v1042q0 29 29 29h178q31 0 31 -29v-1048q0 -188 -89 -293t-253 -105q-57 0 -102 6q-29 4 -29 33v152zM131 1337.5q0 57.5 38 95t95 37.5q59 0 97 -37.5t38 -95t-38.5 -96.5t-96 -39t-95.5 39t-38 96.5z" />
<glyph unicode="k" horiz-adv-x="1042" d="M131 31v1403q0 31 31 30h176q31 0 31 -30v-779l360 392q12 14 37 14h211q20 0 24.5 -10.5t-8.5 -24.5l-395 -420l438 -569q10 -16 6 -26.5t-24 -10.5h-217q-29 0 -39 18l-322 422l-71 -73v-336q0 -31 -31 -31h-176q-31 0 -31 31z" />
<glyph unicode="l" horiz-adv-x="620" d="M123 373v1061q0 31 31 30h176q31 0 30 -30v-1053q0 -100 33 -144t103 -44q25 0 77 4q31 0 31 -31v-152q1 -30 -22 -32q-53 -6 -117 -7q-164 0 -253 104.5t-89 293.5z" />
<glyph unicode="m" horiz-adv-x="1687" d="M127 31v938q0 27 25 37q180 79 365 79h5q176 0 297 -94q152 94 309 94q199 0 320 -113.5t121 -322.5v-618q0 -31 -29 -31h-178q-29 0 -29 31v626q0 213 -211 213q-102 0 -180 -51q27 -80 27 -166v-622q0 -31 -31 -31h-176q-31 0 -31 31v626q0 215 -203 215 q-88 0 -163 -22v-819q0 -31 -31 -31h-176q-31 0 -31 31z" />
<glyph unicode="n" horiz-adv-x="1150" d="M127 31v938q0 27 23 37q183 80 404 80h3q223 0 349 -112t126 -347v-596q0 -31 -28 -31h-179q-31 0 -30 31v592q0 137 -59.5 193t-178.5 56q-106 0 -192 -22v-819q0 -31 -31 -31h-176q-31 0 -31 31z" />
<glyph unicode="o" horiz-adv-x="1122" d="M94 389v275q0 193 127 307t340 114t340 -114.5t127 -306.5v-275q0 -190 -127 -302t-340 -112t-340 112t-127 302zM334 389q0 -201 227 -201q111 0 169 51.5t58 149.5v275q0 100 -59 154t-168 54q-111 0 -169 -53t-58 -155v-275z" />
<glyph unicode="p" horiz-adv-x="1126" d="M127 -358v1337q0 25 23 33q185 73 407 73h6q213 0 342 -112.5t129 -335.5v-225q0 -199 -127 -318t-325 -119q-113 0 -217 45v-378q0 -31 -31 -31h-176q-31 0 -31 31zM365 242q83 -58 196 -58q231 0 232 226v229q0 127 -59.5 182.5t-176.5 55.5q-123 0 -192 -29v-606z" />
<glyph unicode="q" horiz-adv-x="1124" d="M92 412v225q0 223 128 335.5t341 112.5q219 0 414 -71q23 -10 22 -35v-1337q0 -31 -30 -31h-176q-31 0 -31 31v378q-104 -45 -217 -45q-199 0 -325 119t-126 318zM332 410q0 -225 231 -226q115 0 197 58v606q-70 29 -193 29q-117 0 -176 -55.5t-59 -182.5v-229z" />
<glyph unicode="r" horiz-adv-x="776" d="M127 31v942q0 27 23 35q158 77 353 77h5q104 0 209 -16q27 -2 26 -31v-147q0 -31 -32 -25q-51 8 -166 8q-113 0 -180 -28v-815q0 -31 -31 -31h-176q-31 0 -31 31z" />
<glyph unicode="s" horiz-adv-x="991" d="M70 150l77 133q14 27 41 8q143 -104 310 -105q84 0 137 31t53 88q0 55 -50 80t-140 41q-57 10 -102.5 22.5t-108 39t-103.5 60.5t-70.5 90t-29.5 128q0 160 126 240.5t308 80.5t356 -94q27 -14 11 -41l-78 -131q-16 -23 -41 -10q-125 68 -260 68q-88 0 -137.5 -31 t-49.5 -82q0 -57 52.5 -82t175.5 -49q80 -14 133 -30.5t117.5 -51.5t97.5 -94.5t33 -143.5q0 -166 -121 -253t-313 -87q-233 0 -416 134q-25 14 -8 41z" />
<glyph unicode="t" horiz-adv-x="681" d="M123 354v936q0 29 31 29h155q27 0 31 -27l18 -245h220q31 0 30 -29v-150q0 -29 -30 -28h-218v-469q0 -84 42 -131t120 -47q18 0 84 4q33 0 33 -29v-156q0 -31 -29 -32q-70 -4 -108 -5q-170 0 -274.5 93.5t-104.5 285.5z" />
<glyph unicode="u" horiz-adv-x="1138" d="M119 436v596q0 29 31 29h178q29 0 28 -29v-592q0 -137 58.5 -194.5t173.5 -57.5q117 0 186 25v819q0 29 29 29h178q31 0 31 -29v-938q0 -27 -23 -37q-186 -82 -401 -82q-219 0 -344 113t-125 348z" />
<glyph unicode="v" horiz-adv-x="1056" d="M27 1028q-6 14 0 23.5t22 9.5h191q29 0 34 -23l252 -792h4l252 792q6 23 33 23h193q33 0 22 -33l-360 -1003q-10 -25 -35 -25h-215q-27 0 -35 25z" />
<glyph unicode="w" horiz-adv-x="1568" d="M29 1028q-10 33 22 33h185q27 0 32 -25l78 -336q12 -59 56 -240t49 -200h4q20 94 100 406l98 356q6 25 33 25h191q27 0 32 -25l101 -356q61 -244 98 -406h6q10 45 105 440l75 336q6 25 35 25h182q35 0 25 -33l-289 -1001q-6 -27 -33 -27h-204q-27 0 -33 27l-115 415 q-53 201 -76 318h-8q-29 -135 -78 -318l-112 -415q-6 -27 -33 -27h-205q-27 0 -33 27z" />
<glyph unicode="x" horiz-adv-x="1028" d="M37 37l330 495l-312 494q-8 14 -2 24.5t23 10.5h207q23 0 36 -21l195 -342l195 342q14 20 36 21h207q16 0 22.5 -10.5t-1.5 -24.5l-311 -494l329 -495q20 -37 -18 -37h-217q-25 0 -37 20l-205 349l-205 -349q-12 -20 -37 -20h-215q-41 0 -20 37z" />
<glyph unicode="y" horiz-adv-x="1142" d="M119 449v583q0 29 31 29h178q29 0 28 -29v-573q0 -111 65.5 -162t168.5 -51h9q99 0 175 41v745q0 29 31 29h176q31 0 31 -29v-964q0 -477 -457 -478q-246 0 -401 129q-23 16 -7 41l89 125q16 27 38 11q137 -94 279 -95q115 0 172 61q52 54 52 179q0 13 -1 27 q-119 -37 -219 -37q-176 0 -307 109.5t-131 308.5z" />
<glyph unicode="z" horiz-adv-x="983" d="M63 31v88q0 20 13 37l499 696h-450q-31 0 -31 29v151q0 29 31 29h747q31 0 31 -29v-82q0 -25 -12 -39l-502 -700h494q29 0 28 -31v-149q1 -31 -28 -31h-789q-31 0 -31 31z" />
<glyph unicode="{" horiz-adv-x="663" d="M63 653v152q0 25 29 29q125 25 125 217v360q0 152 63.5 219.5t202.5 67.5h84q29 0 29 -31v-151q0 -31 -29 -31h-59q-74 0 -74 -92v-381q0 -98 -47 -178t-113 -105q66 -25 113 -104.5t47 -178.5v-380q0 -92 74 -93h59q29 0 29 -30v-152q0 -31 -29 -31h-84 q-139 0 -202.5 68t-63.5 219v361q0 193 -125 217q-29 4 -29 28z" />
<glyph unicode="|" horiz-adv-x="528" d="M154 -254v1987q0 31 28 30h162q31 0 31 -30v-1987q0 -31 -31 -31h-162q-29 0 -28 31z" />
<glyph unicode="}" horiz-adv-x="663" d="M68 -57q0 31 28 30h60q74 0 73 93v380q0 98 47.5 178.5t112.5 104.5q-66 25 -113 104.5t-47 178.5v381q0 92 -73 92h-60q-29 0 -28 31v151q0 31 28 31h84q139 0 202.5 -67.5t63.5 -219.5v-360q0 -193 125 -217q29 -4 29 -29v-152q0 -25 -29 -28q-125 -25 -125 -217v-361 q0 -152 -63.5 -219.5t-202.5 -67.5h-84q-29 0 -28 31v152z" />
<glyph unicode="~" d="M147 700q88 129 269 129q80 0 207 -53q109 -43 155 -43q92 0 150 53q20 18 43 2l104 -90q22 -16 8 -39q-94 -135 -270 -135q-74 0 -209 56q-106 43 -153 43q-94 0 -150 -52q-23 -23 -43 -4l-104 90q-23 20 -7 43z" />
<glyph unicode="&#xa2;" horiz-adv-x="1019" d="M111 389v285q0 160 90 267.5t250 135.5v152q0 31 28 31h109q29 0 28 -31v-146q150 -12 287 -96q25 -16 8 -43l-80 -123q-16 -23 -43 -8q-106 61 -214.5 61t-167 -52t-58.5 -148v-287q0 -94 58.5 -146.5t164.5 -52.5q125 0 238 74q29 17 43 -8l86 -123q14 -25 -8 -41 q-145 -102 -314 -113v-151q0 -31 -28 -31h-109q-29 0 -28 31v160q-160 29 -250 136t-90 267z" />
<glyph unicode="&#xa3;" horiz-adv-x="1136" d="M96 31v141q0 25 29 29q127 23 123 213v248h-123q-29 0 -29 30v139q0 29 29 29h123v219q0 186 114.5 298t305.5 112q219 0 362 -115q20 -18 6 -43l-82 -114q-16 -25 -41 -7q-102 74 -243 74q-100 0 -155.5 -54t-55.5 -151v-219h354q31 0 31 -29v-139q0 -31 -31 -30h-354 v-248q0 -154 -82 -215h647q29 0 29 -29v-139q0 -31 -29 -31h-899q-29 0 -29 31z" />
<glyph unicode="&#xa5;" horiz-adv-x="1249" d="M53 1452.5q6 11.5 23 11.5h205q27 0 34 -22l310 -674l307 674q8 22 37 22h202q18 0 24.5 -11t-1.5 -26l-379 -743h180q31 0 31 -31v-116q0 -29 -31 -29h-250v-117h250q31 0 31 -31v-114q0 -31 -31 -31h-250v-184q0 -31 -30 -31h-180q-29 0 -29 31v184h-254q-31 0 -31 31 v114q0 31 31 31h254v117h-254q-31 0 -31 29v116q0 31 31 31h182l-379 743q-8 14 -2 25.5z" />
<glyph unicode="&#xa8;" horiz-adv-x="602" d="M0 1337q0 59 36 93t91 34t90 -34t35 -93q0 -57 -35 -91t-90 -34t-91 34t-36 91zM420 1337q0 59 34.5 93t92.5 34q55 0 90 -34t35 -93q0 -57 -35 -91t-90 -34t-91 34t-36 91z" />
<glyph unicode="&#xa9;" horiz-adv-x="1677" d="M98 733q0 348 213 552t531 204q315 0 526 -204t211 -552q0 -350 -211 -554t-526 -204q-319 0 -531.5 204t-212.5 554zM209 733q0 -309 179 -480t454 -171q270 0 448 171t178 480t-178 478t-448 169q-274 0 -453.5 -169t-179.5 -478zM524 618v236q0 143 92.5 219t223.5 76 q162 0 276 -111q18 -18 2 -41l-63 -82q-18 -27 -41 -4q-78 74 -168 74q-59 0 -102.5 -33.5t-43.5 -95.5v-238q0 -63 41 -97t105 -34q109 0 186 64q25 25 41 -6l53 -80q14 -23 -2 -39q-100 -102 -280 -102q-131 0 -225.5 75.5t-94.5 218.5z" />
<glyph unicode="&#xab;" horiz-adv-x="1107" d="M78 575q-12 20 0 41l276 412q10 18 35 19h186q41 0 19 -37l-281 -414l281 -414q22 -37 -19 -37h-186q-25 0 -35 19zM506 575q-12 20 0 41l276 412q10 18 35 19h187q41 0 18 -37l-281 -414l281 -414q23 -37 -18 -37h-187q-25 0 -35 19z" />
<glyph unicode="&#xad;" horiz-adv-x="827" d="M127 530v160q0 31 31 31h512q31 0 30 -31v-160q1 -28 -30 -28h-512q-31 0 -31 28z" />
<glyph unicode="&#xae;" horiz-adv-x="1036" d="M92 1063q0 195 122 310.5t304 115.5t304 -115.5t122 -310.5q0 -197 -122 -311.5t-304 -114.5t-304 114.5t-122 311.5zM178 1063q0 -160 97.5 -251t244.5 -91q145 0 241.5 91t96.5 251q0 162 -96 252t-242 90q-147 0 -244.5 -90t-97.5 -252zM375 891v352q0 31 31 31h135 q68 0 109.5 -33t41.5 -98q0 -106 -96 -127l88 -119q23 -37 -16 -37h-29q-25 0 -37 19l-92 131h-55v-119q0 -31 -31 -31h-18q-31 0 -31 31zM455 1081h84q74 0 73 62q0 57 -73 57h-84v-119z" />
<glyph unicode="&#xb4;" horiz-adv-x="583" d="M18.5 1221.5q-6.5 11.5 4.5 25.5l163 269q12 20 37 20h180q18 0 23.5 -10t-6.5 -27l-205 -270q-12 -19 -37 -19h-135q-18 0 -24.5 11.5z" />
<glyph unicode="&#xb8;" horiz-adv-x="380" d="M25 -309q0 31 34 24q45 -10 78 -10q109 0 109 64q0 57 -103 63q-25 0 -37 21q-4 12 5 28l45 105q8 23 34 22h70q39 0 25 -35l-31 -67q78 -6 125 -47.5t47 -104.5q0 -86 -70.5 -132t-189.5 -46q-66 0 -117 18q-25 6 -24 35v62z" />
<glyph unicode="&#xbb;" horiz-adv-x="1107" d="M86 182l281 414l-281 414q-23 37 18 37h187q25 0 35 -19l276 -412q12 -20 0 -41l-276 -411q-10 -19 -35 -19h-187q-41 0 -18 37zM514 182l281 414l-281 414q-23 37 18 37h187q25 0 35 -19l276 -412q12 -20 0 -41l-276 -411q-10 -19 -35 -19h-187q-41 0 -18 37z" />
<glyph unicode="&#x2c6;" horiz-adv-x="718" d="M39 1247l231 271q16 18 37 18h121q25 0 37 -18l229 -271q27 -37 -14 -37h-145q-25 0 -37 17l-129 153l-133 -153q-17 -17 -35 -17h-146q-43 0 -16 37z" />
<glyph unicode="&#x2da;" horiz-adv-x="491" d="M-2 1382.5q0 102.5 67.5 165t174.5 62.5q100 0 164.5 -63.5t64.5 -166t-63.5 -163t-165.5 -60.5q-106 0 -174 61.5t-68 164zM135 1380q0 -41 29 -67.5t74 -26.5t70.5 26.5t25.5 67.5q0 47 -25.5 74t-70.5 27q-47 0 -75 -28t-28 -73z" />
<glyph unicode="&#x2dc;" horiz-adv-x="733" d="M25 1296q27 68 76 119t116 51q59 0 154 -53q94 -47 127 -47q35 0 69 66q14 27 41 14l97 -55q22 -13 16 -33q-23 -66 -75 -121t-122 -55q-55 0 -153 53q-86 47 -117 47q-41 0 -78 -65q-14 -27 -41 -15l-96 55q-25 12 -14 39z" />
<glyph unicode="&#x401;" horiz-adv-x="1200" d="M168 31v1403q0 31 29 30h847q31 0 31 -30v-166q0 -29 -31 -29h-628v-383h575q31 0 31 -31v-163q0 -31 -31 -31h-575v-406h657q31 0 31 -28v-166q0 -31 -31 -31h-876q-29 0 -29 31zM297 1740.5q0 57.5 37 94.5t94 37t94 -37t37 -94.5t-37 -94t-94 -36.5t-94 36.5t-37 94z M723 1740.5q0 57.5 37 94.5t94 37t95 -37t38 -94.5t-38 -94t-95 -36.5t-94 36.5t-37 94z" />
<glyph unicode="&#x402;" horiz-adv-x="1474" d="M25 1268v166q0 31 28 30h1071q31 0 31 -30v-166q0 -29 -31 -29h-411v-221q100 35 223 35q203 0 326.5 -115t123.5 -350v-215q0 -188 -90 -293t-256 -105q-51 0 -98 7q-27 2 -27 32v156q0 14 7.5 22.5t21.5 6.5q25 -2 66 -2q68 0 99.5 43t31.5 139v196q0 141 -56.5 200 t-173.5 59q-115 0 -198 -39v-764q0 -31 -31 -31h-184q-31 0 -31 31v1208h-414q-29 0 -28 29z" />
<glyph unicode="&#x403;" horiz-adv-x="1054" d="M168 31v1403q0 31 29 30h804q31 0 31 -30v-168q0 -29 -31 -29h-587v-1206q0 -31 -29 -31h-188q-29 0 -29 31zM426 1630l211 271q12 18 37 18h196q20 0 25.5 -11.5t-6.5 -25.5l-256 -272q-14 -16 -37 -17h-150q-43 0 -20 37z" />
<glyph unicode="&#x404;" horiz-adv-x="1220" d="M123 498v467q0 256 159.5 390t401.5 134t438 -137q23 -16 6 -41l-96 -140q-14 -25 -43 -8q-133 92 -305 92q-147 0 -230 -77.5t-83 -214.5v-123h473q31 0 30 -29v-168q0 -29 -30 -29h-473v-110q0 -139 83 -218t232 -79q190 0 340 108q27 18 41 -8l96 -139q16 -27 -4 -43 q-195 -152 -471 -152q-246 0 -405.5 133.5t-159.5 391.5z" />
<glyph unicode="&#x405;" horiz-adv-x="1271" d="M100 215l103 143q16 23 41 7q207 -150 395 -156q123 0 210 52t87 151q0 53 -24.5 91t-78 62.5t-99.5 37.5t-130 30q-498 104 -498 448q0 203 155 305.5t392 102.5q244 0 482 -162q27 -16 8 -41l-99 -141q-14 -25 -43 -6q-174 113 -366 118q-131 0 -205 -48t-74 -132 q0 -39 16.5 -68.5t40 -49t68.5 -37t83 -27.5t104 -25q74 -16 124 -30.5t116.5 -39t111.5 -57t87 -77.5t62.5 -108.5t20.5 -141.5q0 -217 -160 -329t-401 -112q-150 0 -271.5 47.5t-251.5 149.5q-20 20 -6 43z" />
<glyph unicode="&#x406;" horiz-adv-x="581" d="M168 31v1403q0 31 29 30h188q29 1 29 -30v-1403q0 -31 -29 -31h-188q-29 0 -29 31z" />
<glyph unicode="&#x407;" horiz-adv-x="583" d="M-29 1740.5q0 57.5 37 94.5t94 37q55 0 92 -37t37 -94.5t-36.5 -94t-92.5 -36.5q-57 0 -94 36.5t-37 94zM168 31v1403q0 31 31 30h186q31 1 31 -30v-1403q0 -31 -31 -31h-186q-31 0 -31 31zM352 1740.5q0 57.5 37 94.5t94.5 37t94 -37t36.5 -94.5t-36.5 -94t-94 -36.5 t-94.5 36.5t-37 94z" />
<glyph unicode="&#x408;" horiz-adv-x="1056" d="M16 172l84 139q18 25 43 6q156 -109 291 -108q100 0 157.5 71.5t57.5 219.5v934q0 31 31 30h188q29 0 29 -30v-936q0 -244 -130 -383.5t-331 -139.5q-223 0 -413 156q-20 14 -7 41z" />
<glyph unicode="&#x409;" horiz-adv-x="2052" d="M25 25v170q0 29 28 28q82 4 131 42t78 134q63 193 109 1033q2 33 30 32h799q31 0 31 -30v-498h246q246 0 380 -117t134 -350q0 -223 -137.5 -346t-364.5 -123h-477q-31 0 -31 31v1204h-373q-29 -710 -125 -956q-59 -154 -160.5 -219.5t-267.5 -65.5q-31 0 -30 31z M1231 231h256q248 0 248 238t-258 238h-246v-476z" />
<glyph unicode="&#x40a;" horiz-adv-x="2025" d="M168 31v1403q0 29 29 28h188q31 0 31 -28v-537h542v537q0 29 29 28h189q31 0 30 -28v-535h246q248 0 381 -109.5t133 -328.5t-136 -340t-366 -121h-477q-29 0 -29 31v637h-542v-637q0 -31 -31 -31h-188q-29 0 -29 31zM1206 229h256q250 0 250 230q0 209 -258 209h-248 v-439z" />
<glyph unicode="&#x40b;" horiz-adv-x="1480" d="M27 1268v166q0 31 28 30h1057q31 0 31 -30v-166q0 -29 -31 -29h-405v-221q104 35 221 35q203 0 326.5 -115t123.5 -350v-557q0 -31 -30 -31h-183q-27 0 -30 31v544q0 141 -57.5 200t-174.5 59q-113 0 -196 -37v-766q0 -31 -29 -31h-186q-31 0 -31 31v1208h-406 q-29 0 -28 29z" />
<glyph unicode="&#x40c;" horiz-adv-x="1275" d="M168 31v1403q0 31 29 30h188q29 0 29 -30v-594l512 606q18 18 37 18h239q20 0 25.5 -11t-6.5 -26l-543 -616l588 -774q12 -16 6 -26.5t-25 -10.5h-239q-27 0 -37 18l-455 613l-102 -111v-489q0 -31 -29 -31h-188q-29 0 -29 31zM516 1630l211 271q12 18 37 18h197 q20 0 25 -11.5t-7 -25.5l-256 -272q-14 -16 -37 -17h-149q-43 0 -21 37z" />
<glyph unicode="&#x40e;" horiz-adv-x="1165" d="M12 1455q6 9 23 9h209q29 0 37 -24l315 -717l291 717q8 25 35 24h206q16 0 22.5 -9t0.5 -25l-610 -1405q-8 -25 -37 -25h-207q-16 0 -22.5 10t1.5 25l195 428l-457 967q-8 16 -2 25zM233 1851q-6 25 25 33l129 31q27 6 35 -23q29 -125 162 -125q137 0 161 125q8 29 35 23 l129 -31q29 -6 25 -29q-16 -127 -106.5 -202.5t-244 -75.5t-243.5 73.5t-107 200.5z" />
<glyph unicode="&#x40f;" horiz-adv-x="1404" d="M168 31v1403q0 31 29 30h188q29 0 29 -30v-1207h577v1207q0 30 29 30h188q29 0 29 -30v-1403q0 -31 -29 -31h-387v-248q0 -29 -30 -28h-175q-31 0 -30 28v248h-389q-29 0 -29 31z" />
<glyph unicode="&#x410;" horiz-adv-x="1310" d="M14 35l492 1405q10 25 33 24h233q23 0 33 -24l491 -1405q10 -35 -24 -35h-201q-29 0 -35 25l-100 309h-561l-101 -309q-7 -25 -34 -25h-201q-35 0 -25 35zM444 557h422l-207 637h-8z" />
<glyph unicode="&#x411;" horiz-adv-x="1316" d="M168 31v1403q0 31 29 30h895q31 0 30 -30v-164q0 -31 -30 -31h-678v-344h309q262 0 389 -105.5t127 -334.5q0 -225 -136 -340t-370 -115h-536q-29 0 -29 31zM414 225h313q129 0 194.5 53.5t65.5 176.5q0 113 -61.5 165t-198.5 52h-313v-447z" />
<glyph unicode="&#x412;" horiz-adv-x="1320" d="M168 31v1403q0 31 29 30h532q207 0 322.5 -105.5t115.5 -295.5q0 -199 -145 -287q209 -90 209 -338q0 -207 -133 -322.5t-369 -115.5h-532q-29 0 -29 31zM414 221h313q252 0 252 219q0 100 -63.5 158.5t-190.5 58.5h-311v-436zM414 872h307q90 0 143.5 47.5t53.5 139.5 q0 90 -54.5 137t-142.5 47h-307v-371z" />
<glyph unicode="&#x413;" horiz-adv-x="1054" d="M168 31v1403q0 31 29 30h804q31 0 31 -30v-168q0 -29 -31 -29h-587v-1206q0 -31 -29 -31h-188q-29 0 -29 31z" />
<glyph unicode="&#x414;" horiz-adv-x="1466" d="M31 199q0 31 30 30h52q72 23 116.5 129.5t78.5 357.5t63 716q2 33 32 32h811q31 0 31 -30v-1205h111q31 0 30 -30v-447q0 -29 -30 -28h-185q-31 0 -30 28v248h-867v-248q1 -28 -28 -28h-185q-31 0 -30 28v447zM449 229h546v1008h-383q-20 -424 -55 -657.5t-108 -350.5z " />
<glyph unicode="&#x415;" horiz-adv-x="1200" d="M168 31v1403q0 31 29 30h847q31 0 31 -30v-166q0 -29 -31 -29h-628v-383h575q31 0 31 -31v-163q0 -31 -31 -31h-575v-406h657q31 0 31 -28v-166q0 -31 -31 -31h-876q-29 0 -29 31z" />
<glyph unicode="&#x416;" horiz-adv-x="1904" d="M16 37l562 778l-510 612q-12 16 -7 26.5t23 10.5h231q29 0 39 -18l475 -621v609q0 31 31 30h184q29 0 29 -30v-609l477 621q10 18 37 18h232q45 0 18 -37l-510 -612l561 -778q23 -37 -20 -37h-238q-23 0 -37 20l-422 611l-98 -115v-485q0 -31 -29 -31h-184q-31 0 -31 31 v485l-98 115l-422 -611q-12 -20 -37 -20h-237q-41 0 -19 37z" />
<glyph unicode="&#x417;" horiz-adv-x="1234" d="M55 197l97 139q16 27 41 6q156 -135 395 -135q131 0 211 62.5t80 168.5q0 96 -78 152.5t-240 56.5h-176q-29 0 -29 31v156q0 31 29 30h174q137 0 210 57.5t73 145.5q0 84 -66.5 138.5t-193.5 54.5q-213 0 -359 -117q-25 -20 -43 4l-94 135q-16 23 6 41q182 166 490 166 q236 0 375 -121t137 -293q-2 -98 -50.5 -179t-134.5 -118q106 -43 166 -135t60 -209q0 -219 -153 -339t-392 -120q-328 0 -531 179q-18 18 -4 43z" />
<glyph unicode="&#x418;" horiz-adv-x="1445" d="M168 31v1403q0 31 31 30h184q31 0 31 -30v-500q0 -295 -19 -555l6 -2q57 109 205 371l400 696q14 20 36 20h207q29 0 29 -30v-1403q0 -31 -29 -31h-186q-29 0 -29 31v469q0 246 19 563l-6 2q-98 -209 -220 -403l-387 -642q-12 -20 -34 -20h-207q-31 0 -31 31z" />
<glyph unicode="&#x419;" horiz-adv-x="1445" d="M168 31q0 -31 31 -31h207q23 0 34 20l387 642q121 195 220 403l6 -2q-18 -317 -19 -563v-469q0 -31 29 -31h186q29 0 29 31v1403q0 31 -29 30h-207q-23 0 -36 -20l-400 -696q-147 -262 -205 -371l-6 2q18 262 19 555v500q0 31 -31 30h-184q-31 0 -31 -30v-1403zM389 1851 q-6 25 25 33l129 31q27 6 35 -23q29 -125 161 -125q137 0 162 125q8 29 35 23l129 -31q29 -6 25 -29q-16 -127 -106.5 -202.5t-244 -75.5t-243.5 73.5t-107 200.5z" />
<glyph unicode="&#x41a;" horiz-adv-x="1275" d="M168 31v1403q0 31 29 30h188q29 0 29 -30v-594l512 606q18 18 37 18h239q20 0 25.5 -11t-6.5 -26l-543 -616l588 -774q12 -16 6 -26.5t-25 -10.5h-239q-27 0 -37 18l-455 613l-102 -111v-489q0 -31 -29 -31h-188q-29 0 -29 31z" />
<glyph unicode="&#x41b;" horiz-adv-x="1404" d="M29 23v170q0 31 28 30q92 6 136.5 68.5t76.5 230.5q45 246 70 912q0 31 31 30h837q29 0 29 -30v-1403q0 -31 -29 -31h-188q-29 0 -29 31v1204h-413q-21 -500 -76 -776q-49 -250 -151.5 -354.5t-291.5 -110.5q-31 0 -30 29z" />
<glyph unicode="&#x41c;" horiz-adv-x="1761" d="M168 31v1403q0 31 29 30h223q25 0 33 -22l249 -465q78 -145 175 -361h8q96 215 174 361l248 465q12 23 34 22h222q31 0 30 -30v-1403q0 -31 -30 -31h-187q-29 0 -28 31v411q0 242 16 643l-6 2q-61 -133 -184 -378l-181 -351q-10 -23 -35 -22h-155q-25 0 -35 22l-180 351 q-123 246 -185 378l-6 -2q16 -401 17 -643v-411q0 -31 -31 -31h-186q-29 0 -29 31z" />
<glyph unicode="&#x41d;" horiz-adv-x="1404" d="M168 31v1403q0 31 29 30h188q29 0 29 -30v-580h577v580q0 31 29 30h188q29 0 29 -30v-1403q0 -31 -29 -31h-188q-29 0 -29 31v596h-577v-596q0 -31 -29 -31h-188q-29 0 -29 31z" />
<glyph unicode="&#x41e;" horiz-adv-x="1388" d="M119 545v377q0 268 151.5 417.5t424 149.5t424 -149.5t151.5 -417.5v-377q0 -268 -151.5 -419t-424 -151t-424 150.5t-151.5 419.5zM371 545q0 -164 82 -250t241.5 -86t241.5 86t82 250v375q0 338 -323.5 337.5t-323.5 -337.5v-375z" />
<glyph unicode="&#x41f;" horiz-adv-x="1411" d="M168 31v1403q0 31 29 30h1015q31 0 31 -30v-1403q0 -31 -31 -31h-188q-29 0 -29 31v1206h-579v-1206q0 -31 -29 -31h-190q-29 0 -29 31z" />
<glyph unicode="&#x420;" horiz-adv-x="1294" d="M168 31v1403q0 30 29 30h518q242 0 378 -133t136 -366q0 -238 -136.5 -370t-377.5 -132h-301v-432q0 -31 -29 -31h-188q-29 0 -29 31zM414 692h272q150 0 220.5 66.5t70.5 206t-70.5 205t-220.5 65.5h-272v-543z" />
<glyph unicode="&#x421;" horiz-adv-x="1214" d="M123 498v467q0 256 159.5 390t401.5 134t438 -137q23 -16 6 -41l-96 -140q-14 -25 -43 -8q-133 92 -305 92q-147 0 -230 -77.5t-83 -214.5v-459q0 -139 83 -217t232 -78q193 0 340 106q27 18 41 -8l96 -139q16 -27 -4 -43q-193 -150 -471 -150q-246 0 -405.5 133.5 t-159.5 389.5z" />
<glyph unicode="&#x422;" horiz-adv-x="1181" d="M25 1266v168q-1 30 30 30h1071q31 0 31 -30v-168q0 -29 -31 -29h-411v-1206q0 -31 -29 -31h-188q-29 0 -29 31v1206h-414q-31 0 -30 29z" />
<glyph unicode="&#x423;" horiz-adv-x="1165" d="M12 1455q6 9 23 9h209q29 0 37 -24l315 -717l291 717q8 25 35 24h206q16 0 22.5 -9t0.5 -25l-610 -1405q-8 -25 -37 -25h-207q-16 0 -22.5 10t1.5 25l195 428l-457 967q-8 16 -2 25z" />
<glyph unicode="&#x424;" horiz-adv-x="1773" d="M117 596v266q0 276 156.5 416.5t394.5 140.5h96v135q0 29 29 29h186q31 0 31 -29v-135h96q238 0 394.5 -140t156.5 -417v-266q0 -279 -158 -420t-393 -141h-96v-144q0 -30 -31 -30h-186q-29 0 -29 30v144h-96q-236 0 -393.5 141t-157.5 420zM371 592q0 -168 86 -246 t223 -78h84v920h-84q-309 0 -309 -324v-272zM1010 268h84q137 0 223 78t86 246v272q0 324 -309 324h-84v-920z" />
<glyph unicode="&#x425;" horiz-adv-x="1236" d="M33 10q-6 10 4 27l436 696l-412 694q-8 14 -1.5 25.5t24.5 11.5h221q23 0 35 -22l278 -514l281 514q12 23 35 22h221q16 0 22.5 -11t-1.5 -26l-412 -694l436 -696q8 -16 3 -26.5t-21 -10.5h-230q-25 0 -37 23l-297 520l-296 -520q-12 -23 -37 -23h-228q-18 0 -24 10z" />
<glyph unicode="&#x426;" horiz-adv-x="1447" d="M168 31v1403q0 31 29 30h188q29 0 29 -30v-1205h565v1205q0 31 31 30h186q31 0 31 -30v-1205h112q29 0 29 -28v-439q0 -30 -29 -30h-176q-31 0 -30 30v238h-936q-29 0 -29 31z" />
<glyph unicode="&#x427;" horiz-adv-x="1312" d="M98 987v447q0 31 29 30h190q31 0 31 -30v-437q0 -143 79 -210.5t202 -67.5q147 0 268 72v643q0 31 29 30h188q31 0 31 -30v-1403q0 -31 -31 -31h-188q-29 0 -29 31v522q-143 -63 -293 -64q-225 0 -365.5 125t-140.5 373z" />
<glyph unicode="&#x428;" horiz-adv-x="1959" d="M168 31v1403q0 31 29 30h188q31 0 31 -30v-1205h440v1205q0 31 31 30h186q31 0 31 -30v-1205h440v1205q0 31 31 30h186q31 0 31 -30v-1403q0 -31 -31 -31h-1564q-29 0 -29 31z" />
<glyph unicode="&#x429;" horiz-adv-x="2011" d="M168 31v1403q0 31 29 30h188q31 0 31 -30v-1205h438v1205q0 31 31 30h188q29 0 29 -30v-1205h438v1205q0 31 31 30h188q31 0 31 -30v-1205h111q31 0 30 -28v-439q1 -30 -30 -30h-175q-31 0 -30 30v238h-1499q-29 0 -29 31z" />
<glyph unicode="&#x42a;" horiz-adv-x="1445" d="M35 1264v170q0 31 28 30h490q29 0 29 -30v-476h284q246 0 382 -119.5t136 -355.5q0 -231 -138 -357t-367 -126h-517q-29 0 -28 31v1202h-271q-29 0 -28 31zM582 231h295q252 0 251 252q0 244 -262 244h-284v-496z" />
<glyph unicode="&#x42b;" horiz-adv-x="1828" d="M168 31v1403q0 31 29 30h190q29 0 29 -30v-476h284q244 0 381.5 -125.5t137.5 -351t-134 -353.5t-372 -128h-516q-29 0 -29 31zM416 231h295q252 0 252 250q0 246 -252 246h-295v-496zM1413 31v1403q0 31 29 30h188q31 0 31 -30v-1403q0 -31 -31 -31h-188q-29 0 -29 31z " />
<glyph unicode="&#x42c;" horiz-adv-x="1280" d="M168 31v1403q0 31 29 30h190q29 0 29 -30v-476h284q244 0 381.5 -124.5t137.5 -348.5q0 -227 -134 -356t-372 -129h-516q-29 0 -29 31zM416 231h295q252 0 252 254q0 242 -252 242h-295v-496z" />
<glyph unicode="&#x42d;" horiz-adv-x="1220" d="M57 168l97 139q14 27 41 8q150 -109 340 -108q150 0 232.5 79t82.5 218v110h-473q-31 0 -31 29v168q0 29 31 29h473v123q0 137 -83 214.5t-230 77.5q-172 0 -306 -92q-29 -16 -43 8l-96 140q-16 25 6 41q197 137 438.5 137t401.5 -134t160 -390v-467q0 -258 -160 -391.5 t-406 -133.5q-276 0 -471 152q-20 16 -4 43z" />
<glyph unicode="&#x42e;" horiz-adv-x="1873" d="M168 31v1403q0 31 29 30h186q31 0 31 -30v-568h235l2 97q0 258 159 392t392.5 134t392 -134t158.5 -392v-459q0 -258 -158.5 -393.5t-392 -135.5t-392.5 136.5t-159 394.5l-2 131h-235v-606q0 -31 -31 -31h-186q-29 0 -29 31zM903 506q0 -147 85 -222t214 -75t213 74.5 t84 222.5v455q0 154 -83 224t-214 70q-133 0 -216 -70.5t-83 -223.5v-455z" />
<glyph unicode="&#x42f;" horiz-adv-x="1339" d="M55.5 10q-6.5 10 5.5 27l373 518q-152 41 -237.5 154.5t-85.5 281.5q0 223 136 348t378 125h516q31 0 30 -30v-1403q0 -31 -30 -31h-187q-31 0 -30 31v497h-226l-344 -508q-12 -20 -37 -20h-237q-18 0 -24.5 10zM362 987q1 -235 267 -235h295v481h-295q-266 0 -267 -246z " />
<glyph unicode="&#x430;" horiz-adv-x="1064" d="M57 317q0 162 122 245t327 83q82 0 205 -16v39q0 111 -46.5 158.5t-158.5 47.5q-152 0 -262 -65q-25 -18 -41 8l-82 125q-14 23 0 35q158 109 401 108q199 0 312.5 -103t113.5 -312v-598q0 -25 -22 -35q-199 -61 -412 -62q-199 0 -328 82t-129 260zM297 319 q0 -70 59.5 -103.5t157.5 -33.5q94 0 197 25v231q-111 16 -199 17q-215 -1 -215 -136z" />
<glyph unicode="&#x431;" horiz-adv-x="1124" d="M121 410v618q0 188 124 297t294 141q244 43 309 76q29 12 41 -10l76 -129q12 -29 -11 -41q-72 -41 -331 -100q-57 -14 -96.5 -28.5t-82.5 -41.5t-64.5 -70t-21.5 -102v-62q106 51 238 52q195 0 315.5 -109.5t120.5 -310.5v-182q0 -215 -132 -324t-329 -109 q-190 0 -320 110t-130 325zM358 408q0 -113 59.5 -166.5t151.5 -53.5q96 0 159 53.5t63 164.5v180q0 221 -218 221q-121 0 -215 -49v-350z" />
<glyph unicode="&#x432;" horiz-adv-x="1087" d="M129 31v1001q0 29 31 29h428q176 0 279.5 -79t103.5 -206q0 -141 -125 -215q162 -70 162 -260q0 -135 -115 -218t-305 -83h-428q-31 0 -31 31zM367 188h211q190 0 190 138q0 131 -190 131h-211v-269zM367 631h211q72 0 113.5 31.5t41.5 91.5q0 119 -158 118h-208v-241z " />
<glyph unicode="&#x433;" horiz-adv-x="849" d="M129 29v1003q0 29 31 29h628q29 0 29 -29v-151q0 -29 -29 -29h-421v-823q0 -31 -31 -31h-176q-31 0 -31 31z" />
<glyph unicode="&#x434;" horiz-adv-x="1218" d="M37 180q0 29 29 29h45q68 47 104.5 214t71.5 609q4 29 30 29h680q31 0 31 -29v-823h105q31 0 30 -31v-426q0 -29 -30 -28h-166q-31 0 -31 28v248h-674v-248q0 -28 -31 -28h-165q-29 0 -29 28v428zM367 209h426v643h-285q-41 -508 -141 -643z" />
<glyph unicode="&#x435;" horiz-adv-x="1073" d="M96 375v291q0 211 131 315t320 104q186 0 314 -104t128 -315v-207q0 -29 -31 -29h-622v-57q0 -92 58.5 -140.5t158.5 -48.5q150 0 289 95q25 16 41 -7l84 -112q20 -23 -6 -43q-178 -141 -416 -142q-188 0 -318.5 103.5t-130.5 296.5zM336 614h422v54q0 106 -59.5 157.5 t-151.5 51.5q-211 0 -211 -209v-54z" />
<glyph unicode="&#x436;" horiz-adv-x="1517" d="M27 37l370 569l-331 420q-10 14 -6.5 24.5t22.5 10.5h211q25 0 37 -19l162 -219q82 -111 151 -213v422q0 29 31 29h170q31 0 30 -29v-422q70 102 152 213l162 219q12 18 37 19h211q18 0 22 -10.5t-6 -24.5l-332 -420l371 -569q20 -37 -21 -37h-208q-27 0 -37 20l-258 424 l-93 -108v-305q0 -31 -30 -31h-170q-31 0 -31 31v305l-92 108l-258 -424q-10 -20 -37 -20h-209q-41 0 -20 37z" />
<glyph unicode="&#x437;" horiz-adv-x="1005" d="M49 174l92 113q18 23 43 4q133 -109 295 -109q207 0 207 144q0 131 -197 131h-174q-29 0 -28 30v113q0 31 28 31h174q78 0 122 32.5t44 92.5q0 129 -182 129q-143 0 -264 -94q-27 -20 -43 6l-86 110q-18 23 2 43q174 137 397 137q184 0 298 -91t114 -230 q0 -137 -121 -207q156 -66 156 -242q0 -150 -121 -246t-316 -96q-131 0 -233 33t-205 125q-18 18 -2 41z" />
<glyph unicode="&#x438;" horiz-adv-x="1163" d="M129 31v1001q0 29 31 29h174q31 0 31 -29v-418q0 -121 -5 -276h2q59 131 195 354l205 350q16 18 37 19h205q31 0 30 -29v-1001q0 -31 -30 -31h-175q-31 0 -30 31v411q0 121 4 269h-2q-41 -94 -193 -346l-209 -345q-12 -20 -37 -20h-202q-31 0 -31 31z" />
<glyph unicode="&#x439;" horiz-adv-x="1163" d="M129 31v1001q0 29 31 29h174q31 0 31 -29v-418q0 -121 -5 -276h2q59 131 195 354l205 350q16 18 37 19h205q31 0 30 -29v-1001q0 -31 -30 -31h-175q-31 0 -30 31v411q0 121 4 269h-2q-41 -94 -193 -346l-209 -345q-12 -20 -37 -20h-202q-31 0 -31 31zM244 1470 q-4 31 26 35l115 17q27 2 33 -25q29 -123 153.5 -123t153.5 123q6 27 35 25l112 -17q31 -3 29 -30q-16 -127 -101 -202t-228.5 -75t-227.5 74t-100 198z" />
<glyph unicode="&#x43a;" horiz-adv-x="1036" d="M129 31v999q0 31 31 31h170q31 0 30 -31v-395l367 409q12 16 37 17h207q20 0 25 -10.5t-7 -26.5l-387 -420l426 -567q23 -37 -20 -37h-207q-27 0 -37 18l-320 420l-84 -90v-317q0 -31 -30 -31h-170q-31 0 -31 31z" />
<glyph unicode="&#x43b;" horiz-adv-x="1144" d="M29 20v150q0 27 28 33q59 4 93 49t57 162q35 203 51 618q4 29 31 29h696q31 0 31 -29v-1001q0 -31 -31 -31h-176q-31 0 -31 31v821h-299q-10 -293 -49 -504q-39 -195 -119 -273.5t-254 -84.5q-29 0 -28 30z" />
<glyph unicode="&#x43c;" horiz-adv-x="1380" d="M129 31v1001q0 29 31 29h198q27 0 35 -21l295 -583h4l295 583q8 20 35 21h199q31 0 30 -29v-1001q0 -31 -30 -31h-174q-29 0 -29 31v362q0 111 4 307h-2q-76 -172 -109 -237l-133 -264q-8 -20 -35 -21h-106q-27 0 -35 21l-133 264q-47 98 -109 237h-2q6 -295 7 -307v-362 q0 -31 -31 -31h-174q-31 0 -31 31z" />
<glyph unicode="&#x43d;" horiz-adv-x="1130" d="M129 31v1001q0 29 31 29h176q31 0 31 -29v-377h397v377q0 29 31 29h176q31 0 30 -29v-1001q0 -31 -30 -31h-176q-31 0 -31 31v413h-397v-413q0 -31 -31 -31h-176q-31 0 -31 31z" />
<glyph unicode="&#x43e;" horiz-adv-x="1122" d="M94 389v275q0 193 127 307t340 114t340 -114.5t127 -306.5v-275q0 -190 -127 -302t-340 -112t-340 112t-127 302zM334 389q0 -201 227 -201q111 0 169 51.5t58 149.5v275q0 100 -59 154t-168 54q-111 0 -169 -53t-58 -155v-275z" />
<glyph unicode="&#x43f;" horiz-adv-x="1130" d="M129 31v1001q0 29 31 29h811q31 0 30 -29v-1001q0 -31 -30 -31h-176q-31 0 -31 31v821h-397v-821q0 -31 -29 -31h-178q-31 0 -31 31z" />
<glyph unicode="&#x440;" horiz-adv-x="1126" d="M127 -358v1337q0 25 23 33q188 74 413 73q213 0 342 -112.5t129 -335.5v-225q0 -199 -127 -318t-325 -119q-113 0 -217 45v-378q0 -31 -31 -31h-176q-31 0 -31 31zM365 242q83 -58 196 -58q231 0 232 226v229q0 127 -59.5 182.5t-176.5 55.5q-123 0 -192 -29v-606z" />
<glyph unicode="&#x441;" horiz-adv-x="966" d="M94 389v285q0 188 123 299.5t334 111.5q178 0 336 -98q25 -16 8 -43l-80 -123q-16 -23 -43 -8q-102 59 -215 59q-109 0 -167 -51t-58 -147v-287q0 -94 58.5 -146.5t164.5 -52.5q125 0 238 74q29 16 43 -8l86 -123q16 -25 -7 -41q-162 -115 -362 -115q-213 0 -336 113 t-123 301z" />
<glyph unicode="&#x442;" horiz-adv-x="935" d="M33 883v149q0 29 30 29h809q31 0 31 -29v-149q0 -31 -31 -31h-284v-821q0 -31 -31 -31h-176q-31 0 -31 31v821h-287q-31 0 -30 31z" />
<glyph unicode="&#x443;" horiz-adv-x="1140" d="M119 449v583q0 29 31 29h178q29 0 28 -29v-573q0 -111 65.5 -162t168.5 -51q104 -2 184 41v745q0 29 31 29h176q31 0 31 -29v-964q0 -477 -457 -478q-246 0 -401 129q-23 16 -7 41l89 125q16 27 38 11q137 -94 279 -95q115 0 172 60.5t51 206.5q-119 -37 -219 -37 q-176 0 -307 109.5t-131 308.5z" />
<glyph unicode="&#x444;" horiz-adv-x="1546" d="M94 420v223q0 199 123 308.5t311 109.5h127v373q0 31 29 30h176q29 0 29 -30v-373h145q188 0 303 -109.5t115 -308.5v-223q0 -205 -116.5 -312.5t-280.5 -107.5h-166v-358q0 -31 -29 -31h-176q-29 0 -29 31v358h-147q-176 0 -295 106.5t-119 313.5zM328 424 q0 -113 53 -163t168 -50h106v641h-116q-211 0 -211 -215v-213zM889 211h106q115 0 168.5 50t53.5 163v213q0 215 -211 215h-117v-641z" />
<glyph unicode="&#x445;" horiz-adv-x="1028" d="M37 37l330 495l-312 494q-8 14 -2 24.5t23 10.5h207q23 0 36 -21l195 -342l195 342q14 20 36 21h207q16 0 22.5 -10.5t-1.5 -24.5l-311 -494l329 -495q20 -37 -18 -37h-217q-25 0 -37 20l-205 349l-205 -349q-12 -20 -37 -20h-215q-41 0 -20 37z" />
<glyph unicode="&#x446;" horiz-adv-x="1189" d="M129 31v1001q0 29 31 29h176q31 0 31 -29v-819h397v819q0 29 31 29h176q31 0 30 -29v-821h99q31 0 30 -31v-418q1 -30 -30 -30h-160q-29 0 -29 30v238h-751q-31 0 -31 31z" />
<glyph unicode="&#x447;" horiz-adv-x="1079" d="M82 754v278q0 29 29 29h178q31 0 30 -29v-270q0 -127 48.5 -182.5t142.5 -55.5q117 0 203 35v473q0 29 28 29h179q31 0 30 -29v-1001q1 -31 -30 -31h-179q-29 0 -28 31v313q-109 -35 -213 -35q-190 0 -304 108.5t-114 336.5z" />
<glyph unicode="&#x448;" horiz-adv-x="1601" d="M129 31v1001q0 29 31 29h174q29 0 28 -29v-819h322v819q0 29 31 29h172q31 0 31 -29v-819h321v819q0 29 29 29h174q31 0 31 -29v-1001q0 -31 -31 -31h-1282q-31 0 -31 31z" />
<glyph unicode="&#x449;" horiz-adv-x="1660" d="M129 31v1001q0 29 31 29h174q29 0 28 -29v-819h322v819q0 29 31 29h172q31 0 31 -29v-819h321v819q0 29 29 29h174q31 0 31 -29v-821h98q31 0 31 -31v-418q0 -30 -31 -30h-158q-31 0 -31 30v238h-1222q-31 0 -31 31z" />
<glyph unicode="&#x44a;" horiz-adv-x="1202" d="M37 885v147q0 29 31 29h415q29 0 29 -29v-315h217q190 0 305 -96.5t115 -266.5q0 -182 -111.5 -268t-308.5 -86h-424q-31 0 -31 31v825h-206q-31 0 -31 29zM512 197h178q219 0 219 161q2 82 -52 123t-167 41h-178v-325z" />
<glyph unicode="&#x44b;" horiz-adv-x="1482" d="M129 31v1001q0 29 31 29h176q31 0 31 -29v-315h217q188 0 304 -96.5t116 -266.5q0 -182 -111.5 -268t-308.5 -86h-424q-31 0 -31 31zM367 197h176q221 0 221 161q2 84 -53.5 124t-167.5 40h-176v-325zM1116 31v1001q0 29 31 29h176q31 0 31 -29v-1001q0 -31 -31 -31h-176 q-31 0 -31 31z" />
<glyph unicode="&#x44c;" horiz-adv-x="1056" d="M129 31v1001q0 29 31 29h176q31 0 31 -29v-315h217q188 0 304 -96.5t116 -266.5q0 -182 -111.5 -268t-308.5 -86h-424q-31 0 -31 31zM367 197h176q221 0 221 161q2 84 -53.5 124t-167.5 40h-176v-325z" />
<glyph unicode="&#x44d;" horiz-adv-x="985" d="M51 131l84 121q14 25 43 8q117 -74 248 -74q109 0 167 52.5t58 146.5v68h-358q-29 0 -29 28v119q0 31 29 31h358v45q0 94 -59.5 145t-167.5 51q-123 0 -236 -59q-25 -12 -41 10l-79 123q-20 25 8 41q166 98 358 98q205 0 330 -110.5t125 -298.5v-289q0 -190 -124 -301 t-333 -111q-211 0 -375 115q-20 14 -6 41z" />
<glyph unicode="&#x44e;" horiz-adv-x="1523" d="M129 31v1001q0 29 31 29h170q31 0 30 -29v-375h172l3 15q2 186 123.5 299.5t320.5 113.5q205 0 328 -115.5t123 -303.5v-279q0 -186 -123 -299t-328 -113q-199 0 -320.5 112t-123.5 294l-3 63h-172v-413q0 -31 -30 -31h-170q-31 0 -31 31zM770 389q0 -96 54.5 -148.5 t156.5 -52.5t156.5 52.5t54.5 148.5v275q0 98 -54.5 153t-156.5 55t-156.5 -55t-54.5 -153v-275z" />
<glyph unicode="&#x44f;" horiz-adv-x="1077" d="M72 37l262 364q-123 31 -188.5 116t-65.5 204q0 166 112.5 253t299.5 87h426q31 0 30 -29v-1001q0 -31 -30 -31h-177q-31 0 -30 31v350h-125l-250 -361q-12 -20 -37 -20h-211q-39 0 -16 37zM319 721q0 -147 179 -148h213v293h-213q-179 0 -179 -145z" />
<glyph unicode="&#x451;" horiz-adv-x="1073" d="M96 375v291q0 211 131 315t320 104q186 0 314 -104t128 -315v-207q0 -29 -31 -29h-622v-57q0 -92 58.5 -140.5t158.5 -48.5q150 0 289 95q25 16 41 -7l84 -112q20 -23 -6 -43q-178 -141 -416 -142q-188 0 -318.5 103.5t-130.5 296.5zM205 1337q0 59 35.5 93t91 34 t90.5 -34t35 -93q0 -57 -35 -91t-90.5 -34t-91 34t-35.5 91zM336 614h422v54q0 106 -59.5 157.5t-151.5 51.5q-211 0 -211 -209v-54zM625 1337q0 59 34.5 93t92.5 34q55 0 90 -34t35 -93q0 -57 -35 -91t-90.5 -34t-91 34t-35.5 91z" />
<glyph unicode="&#x452;" horiz-adv-x="1157" d="M-25 1208v92q0 31 29 31h127v103q0 31 31 30h178q29 0 29 -30v-103h239q31 0 31 -31v-92q0 -29 -31 -28h-239v-166q104 35 223 35q199 0 322.5 -115t123.5 -350v-586q0 -211 -83 -309.5t-248 -98.5q-47 0 -93 7q-29 2 -28 32v150q0 29 32 28q49 -4 64 -4q119 0 119 201 v574q0 141 -58.5 200.5t-175.5 59.5q-111 0 -198 -39v-768q0 -31 -29 -31h-178q-31 0 -31 31v1149h-127q-29 0 -29 28z" />
<glyph unicode="&#x453;" horiz-adv-x="849" d="M129 29v1003q0 29 31 29h628q29 0 29 -29v-151q0 -29 -29 -29h-421v-823q0 -31 -31 -31h-176q-31 0 -31 31zM309.5 1221.5q-6.5 11.5 3.5 25.5l164 269q12 20 37 20h180q18 0 23.5 -10t-6.5 -27l-205 -270q-12 -19 -37 -19h-135q-18 0 -24.5 11.5z" />
<glyph unicode="&#x454;" horiz-adv-x="983" d="M94 387v289q0 188 125 298.5t330 110.5q193 0 358 -98q29 -16 8 -41l-79 -123q-16 -23 -41 -10q-113 59 -236 59q-109 0 -168 -51t-59 -145v-45h358q29 0 29 -31v-119q0 -29 -29 -28h-358v-68q0 -94 58 -146.5t167 -52.5q131 0 248 74q29 16 43 -8l84 -121q14 -27 -6 -41 q-164 -115 -375 -115q-209 0 -333 111t-124 301z" />
<glyph unicode="&#x455;" horiz-adv-x="991" d="M70 150l77 133q14 27 41 8q143 -104 310 -105q84 0 137 31t53 88q0 55 -50 80t-140 41q-57 10 -102.5 22.5t-108 39t-103.5 60.5t-70.5 90t-29.5 128q0 160 126 240.5t308 80.5t356 -94q27 -14 11 -41l-78 -131q-16 -23 -41 -10q-125 68 -260 68q-88 0 -137.5 -31 t-49.5 -82q0 -57 52.5 -82t175.5 -49q80 -14 133 -30.5t117.5 -51.5t97.5 -94.5t33 -143.5q0 -166 -121 -253t-313 -87q-233 0 -416 134q-25 14 -8 41z" />
<glyph unicode="&#x456;" horiz-adv-x="495" d="M115 1339.5q0 57.5 39 95.5t96 38t95 -38t38 -95.5t-38 -96.5t-95 -39t-96 39t-39 96.5zM129 31v1001q0 29 31 29h178q29 0 29 -29v-1001q0 -31 -29 -31h-178q-31 0 -31 31z" />
<glyph unicode="&#x457;" horiz-adv-x="495" d="M-35 1339.5q0 53.5 35 89t88 35.5q51 0 86 -35.5t35 -89t-35 -88t-86 -34.5t-87 34.5t-36 88zM129 31v1001q0 29 29 29h178q31 0 31 -29v-1001q0 -31 -31 -31h-178q-29 0 -29 31zM283 1339.5q0 53.5 34.5 89t85.5 35.5q53 0 89 -35.5t36 -89t-35.5 -88t-89.5 -34.5 q-51 0 -85.5 34.5t-34.5 88z" />
<glyph unicode="&#x458;" horiz-adv-x="512" d="M-90 -223q0 31 33 30q49 -4 67 -4q70 0 102.5 44t32.5 143v1042q0 29 29 29h178q31 0 31 -29v-1048q0 -188 -89 -293t-253 -105q-57 0 -102 6q-29 4 -29 33v152zM131 1337.5q0 57.5 38 95t95 37.5q59 0 97 -37.5t38 -95t-38.5 -96.5t-96 -39t-95.5 39t-38 96.5z" />
<glyph unicode="&#x459;" horiz-adv-x="1708" d="M29 20v152q0 27 28 31q57 4 91 49t57 162q37 199 53 618q4 29 33 29h696q31 0 31 -29v-315h215q190 0 306 -97.5t116 -265.5q0 -182 -111.5 -268t-310.5 -86h-422q-31 0 -31 31v821h-299q-14 -287 -53 -500q-41 -199 -120 -276.5t-251 -83.5q-29 0 -28 28zM1018 197h176 q217 0 219 161q2 82 -52 123t-167 41h-176v-325z" />
<glyph unicode="&#x45a;" horiz-adv-x="1677" d="M129 31v1001q0 29 31 29h176q31 0 31 -29v-346h391v346q0 29 30 29h177q31 0 30 -29v-344h211q193 0 306.5 -91t113.5 -259t-111.5 -253t-308.5 -85h-418q-31 0 -30 31v444h-391v-444q0 -31 -31 -31h-176q-31 0 -31 31zM995 197h172q219 0 219 153q0 74 -52 108t-167 34 h-172v-295z" />
<glyph unicode="&#x45b;" horiz-adv-x="1157" d="M-25 1208v92q0 31 29 31h127v103q0 31 31 30h178q29 0 29 -30v-103h239q31 0 31 -31v-92q0 -29 -31 -28h-239v-166q104 35 223 35q199 0 322.5 -115t123.5 -350v-553q0 -31 -30 -31h-179q-29 0 -28 31v547q0 141 -58.5 200.5t-175.5 59.5q-111 0 -198 -39v-768 q0 -31 -29 -31h-178q-31 0 -31 31v1149h-127q-29 0 -29 28z" />
<glyph unicode="&#x45c;" horiz-adv-x="1036" d="M129 31v999q0 31 31 31h170q31 0 30 -31v-395l367 409q12 16 37 17h207q20 0 25 -10.5t-7 -26.5l-387 -420l426 -567q23 -37 -20 -37h-207q-27 0 -37 18l-320 420l-84 -90v-317q0 -31 -30 -31h-170q-31 0 -31 31zM399.5 1221.5q-6.5 11.5 3.5 25.5l164 269q12 20 37 20 h180q18 0 23.5 -10t-6.5 -27l-205 -270q-12 -19 -37 -19h-135q-18 0 -24.5 11.5z" />
<glyph unicode="&#x45d;" horiz-adv-x="1163" d="M129 31v1001q0 29 31 29h174q31 0 31 -29v-418q0 -121 -5 -276h2q59 131 195 354l205 350q16 18 37 19h205q31 0 30 -29v-1001q0 -31 -30 -31h-175q-31 0 -30 31v411q0 121 4 269h-2q-41 -94 -193 -346l-209 -345q-12 -20 -37 -20h-202q-31 0 -31 31zM296 1525.5 q5 10.5 23 10.5h181q25 0 37 -20l163 -269q10 -14 4 -25.5t-24 -11.5h-135q-25 0 -37 19l-205 270q-12 16 -7 26.5z" />
<glyph unicode="&#x45e;" horiz-adv-x="1140" d="M119 449v583q0 29 31 29h178q29 0 28 -29v-573q0 -111 65.5 -162t168.5 -51q104 -2 184 41v745q0 29 31 29h176q31 0 31 -29v-964q0 -477 -457 -478q-246 0 -401 129q-23 16 -7 41l89 125q16 27 38 11q137 -94 279 -95q115 0 172 60.5t51 206.5q-119 -37 -219 -37 q-176 0 -307 109.5t-131 308.5zM236 1470q-4 31 26 35l115 17q27 2 33 -25q29 -123 153.5 -123t153.5 123q6 27 35 25l112 -17q31 -3 29 -30q-16 -127 -101 -202t-228.5 -75t-227.5 74t-100 198z" />
<glyph unicode="&#x45f;" horiz-adv-x="1130" d="M129 31v1001q0 29 31 29h176q31 0 31 -29v-819h397v819q0 29 31 29h176q31 0 30 -29v-1001q0 -31 -30 -31h-297v-238q0 -31 -31 -30h-158q-31 0 -30 30v238h-295q-31 0 -31 31z" />
<glyph unicode="&#x490;" horiz-adv-x="1030" d="M168 31v1403q0 31 29 30h573v301q0 29 31 29h174q31 0 31 -29v-499q0 -29 -31 -29h-561v-1206q0 -31 -29 -31h-188q-29 0 -29 31z" />
<glyph unicode="&#x491;" horiz-adv-x="849" d="M129 29v1003q0 29 31 29h442v219q0 31 31 31h155q29 0 29 -31v-399q0 -29 -29 -29h-421v-823q0 -31 -31 -31h-176q-31 0 -31 31z" />
<glyph unicode="&#x2000;" horiz-adv-x="959" />
<glyph unicode="&#x2001;" horiz-adv-x="1919" />
<glyph unicode="&#x2002;" horiz-adv-x="959" />
<glyph unicode="&#x2003;" horiz-adv-x="1919" />
<glyph unicode="&#x2004;" horiz-adv-x="639" />
<glyph unicode="&#x2005;" horiz-adv-x="479" />
<glyph unicode="&#x2006;" horiz-adv-x="319" />
<glyph unicode="&#x2007;" horiz-adv-x="319" />
<glyph unicode="&#x2008;" horiz-adv-x="239" />
<glyph unicode="&#x2009;" horiz-adv-x="383" />
<glyph unicode="&#x200a;" horiz-adv-x="106" />
<glyph unicode="&#x2010;" horiz-adv-x="827" d="M127 530v160q0 31 31 31h512q31 0 30 -31v-160q1 -28 -30 -28h-512q-31 0 -31 28z" />
<glyph unicode="&#x2011;" horiz-adv-x="827" d="M127 530v160q0 31 31 31h512q31 0 30 -31v-160q1 -28 -30 -28h-512q-31 0 -31 28z" />
<glyph unicode="&#x2012;" horiz-adv-x="827" d="M127 530v160q0 31 31 31h512q31 0 30 -31v-160q1 -28 -30 -28h-512q-31 0 -31 28z" />
<glyph unicode="&#x2013;" horiz-adv-x="1226" d="M127 530v160q0 31 31 31h913q29 0 29 -31v-160q0 -29 -29 -28h-913q-31 0 -31 28z" />
<glyph unicode="&#x2014;" horiz-adv-x="2015" d="M127 530v160q0 31 31 31h1700q30 0 30 -31v-160q0 -29 -30 -28h-1700q-31 0 -31 28z" />
<glyph unicode="&#x2018;" horiz-adv-x="499" d="M80 987l151 453q6 25 35 24h142q33 0 26 -34l-117 -451q-6 -27 -30 -27h-181q-36 0 -26 35z" />
<glyph unicode="&#x2019;" horiz-adv-x="497" d="M88 987l115 451q6 27 33 26h180q36 1 26 -34l-151 -453q-6 -25 -35 -25h-143q-35 0 -25 35z" />
<glyph unicode="&#x201a;" horiz-adv-x="487" d="M29 -221l116 450q6 27 33 27h180q35 0 25 -35l-150 -452q-6 -25 -34 -25h-144q-33 0 -26 35z" />
<glyph unicode="&#x201c;" horiz-adv-x="874" d="M80 987l151 451q6 27 35 26h144q37 0 26 -34l-117 -451q-5 -27 -32 -27h-181q-37 0 -26 35zM453 987l151 451q6 27 35 26h143q35 0 25 -34l-115 -451q-6 -27 -33 -27h-180q-37 0 -26 35z" />
<glyph unicode="&#x201d;" horiz-adv-x="868" d="M86 987l117 451q6 27 33 26h180q37 0 26 -34l-151 -451q-6 -27 -35 -27h-143q-33 0 -27 35zM459 987l116 451q6 27 33 26h180q16 0 23.5 -10t1.5 -24l-149 -451q-6 -27 -35 -27h-144q-37 0 -26 35z" />
<glyph unicode="&#x201e;" horiz-adv-x="860" d="M29 -223l116 452q6 27 33 27h180q37 0 27 -35l-152 -452q-5 -25 -34 -25h-144q-33 0 -26 33zM401 -223l117 452q6 27 33 27h180q16 0 23.5 -10t1.5 -25l-150 -452q-6 -25 -35 -25h-143q-37 0 -27 33z" />
<glyph unicode="&#x2026;" horiz-adv-x="1357" d="M94 139q0 68 41 110t109 42q66 0 108.5 -42t42.5 -110q0 -66 -43 -107.5t-108 -41.5q-68 0 -109 42t-41 107zM530 139q0 68 42 110t107.5 42t108.5 -42t43 -110q0 -66 -43 -107.5t-108.5 -41.5t-107.5 42t-42 107zM965 139q0 68 42 110t107.5 42t108.5 -42t43 -110 q0 -66 -43 -107.5t-108.5 -41.5t-107.5 42t-42 107z" />
<glyph unicode="&#x202f;" horiz-adv-x="383" />
<glyph unicode="&#x2039;" horiz-adv-x="679" d="M78 575q-12 20 0 41l276 412q10 18 35 19h186q41 0 19 -37l-281 -414l281 -414q22 -37 -19 -37h-186q-25 0 -35 19z" />
<glyph unicode="&#x203a;" horiz-adv-x="679" d="M86 182l281 414l-281 414q-23 37 18 37h187q25 0 35 -19l276 -412q12 -20 0 -41l-276 -411q-10 -19 -35 -19h-187q-41 0 -18 37z" />
<glyph unicode="&#x205f;" horiz-adv-x="479" />
<glyph unicode="&#x20ac;" horiz-adv-x="1343" d="M80 524v107q0 31 29 31h90v120h-90q-29 0 -29 29v109q0 29 29 28h90v21q2 254 159.5 387t393.5 133q266 0 485 -137q25 -16 8 -43l-96 -140q-14 -20 -43 -8q-164 94 -352 94q-139 0 -217 -75.5t-80 -210.5l2 -21h434q29 0 29 -28v-109q0 -29 -29 -29h-436v-120h436 q29 0 29 -31v-107q0 -31 -29 -30h-434l-2 -5q4 -133 82 -206.5t217 -73.5q203 0 370 110q23 16 41 -8l97 -141q16 -25 -7 -41q-205 -154 -499 -154q-238 0 -396.5 130.5t-162.5 381.5l-2 7h-88q-29 0 -29 30z" />
<glyph unicode="&#x2122;" horiz-adv-x="1327" d="M66 1378v70q0 16 16 16h444q14 0 15 -16v-70q0 -16 -15 -16h-166v-496q0 -16 -16 -16h-82q-14 0 -14 16v496h-166q-16 0 -16 16zM592 866v582q0 16 16 16h86q14 0 23 -14l172 -389l170 389q6 14 22 14h88q14 0 15 -16v-582q0 -16 -15 -16h-75q-16 0 -17 16v207l8 209h-4 l-53 -139l-86 -178q-6 -14 -20 -15h-68q-14 0 -20 15l-86 178l-52 139h-4l8 -209v-207q0 -16 -16 -16h-76q-16 0 -16 16z" />
<glyph unicode="&#x25fc;" horiz-adv-x="1064" d="M0 0v1065h1065v-1065h-1065z" />
</font>
</defs>
</svg>
