<?xml version="1.0" standalone="no"?>
<!DOCTYPE svg PUBLIC "-//W3C//DTD SVG 1.1//EN" "http://www.w3.org/Graphics/SVG/1.1/DTD/svg11.dtd" >
<svg xmlns="http://www.w3.org/2000/svg" xmlns:xlink="http://www.w3.org/1999/xlink" version="1.1">
<metadata></metadata>
<defs>
<font id="uni_neuebook" horiz-adv-x="1148" >
<font-face units-per-em="2048" ascent="1536" descent="-512" />
<missing-glyph horiz-adv-x="475" />
<glyph horiz-adv-x="0" />
<glyph unicode="&#xd;" horiz-adv-x="681" />
<glyph unicode=" "  horiz-adv-x="475" />
<glyph unicode="&#x09;" horiz-adv-x="475" />
<glyph unicode="&#xa0;" horiz-adv-x="475" />
<glyph unicode="!" horiz-adv-x="466" d="M154 71.5q0 34.5 22.5 58.5t57 24t58 -24t23.5 -58.5t-23.5 -58t-58 -23.5t-57 23.5t-22.5 58zM176 1108v340q0 16 19 16h79q16 0 17 -16v-340l-6 -764q-1 -16 -17 -16h-67q-18 0 -19 16z" />
<glyph unicode="&#x22;" horiz-adv-x="593" d="M125 1067l22 381q0 16 19 16h78q14 0 14 -18l-45 -381q0 -16 -18 -16h-54q-16 0 -16 18zM354 1067l23 381q0 16 18 16h76q16 0 16 -18l-45 -381q0 -16 -20 -16h-51q-16 0 -17 18z" />
<glyph unicode="#" horiz-adv-x="1449" d="M68 465l16 53q6 16 18 17h289l111 399h-283q-20 0 -14 20l14 54q6 14 19 14h288l123 428q4 14 17 14h65q18 0 14 -20l-120 -422h364l121 428q8 14 18 14h64q20 0 14 -20l-119 -422h279q20 0 14 -21l-16 -53q-4 -14 -18 -14h-283l-111 -399h279q20 0 14 -21l-16 -55 q-8 -14 -19 -15h-282l-123 -430q-6 -14 -19 -14h-63q-20 0 -14 20l120 424h-364l-123 -430q-4 -14 -18 -14h-64q-18 0 -14 20l121 424h-283q-20 0 -16 21zM489 535h365l111 399h-365z" />
<glyph unicode="$" horiz-adv-x="1181" d="M106 1100q0 176 123 274.5t320 110.5v149q0 18 16 19h62q16 0 16 -19v-149q205 -14 404 -168q14 -10 4 -23l-41 -57q-10 -12 -25 -4q-188 147 -401 149q-164 0 -266.5 -75.5t-102.5 -208.5t94 -195.5t289 -107.5q63 -14 101 -24.5t96.5 -31t94.5 -40t78 -51.5t65.5 -68.5 t40 -89t16.5 -113.5q0 -180 -122 -282.5t-325 -114.5v-162q0 -18 -16 -19h-62q-16 0 -16 19v162q-227 12 -438 198q-12 10 -2 25l41 55q10 14 24 4q211 -178 424 -180q168 0 275.5 77t107.5 218q0 53 -14.5 96t-51 75t-64.5 52.5t-92.5 39.5t-92 26.5t-101.5 25.5 q-102 25 -172.5 50.5t-142.5 71.5t-108 118t-36 168z" />
<glyph unicode="%" horiz-adv-x="1542" d="M109 956v273q0 113 71.5 178.5t179.5 65.5q111 0 182.5 -66t71.5 -178v-273q0 -109 -73.5 -174t-180 -65t-179 65.5t-72.5 173.5zM193 961q0 -74 48 -119t119 -45q74 0 122 45t48 119v262q0 78 -47 125t-123 47q-74 0 -120.5 -47.5t-46.5 -124.5v-262zM205 6q-4 6 0 14 l1001 1420q6 10 21 10h65q25 0 13 -20l-1002 -1420q-4 -10 -20 -10h-66q-8 0 -12 6zM932 221v273q0 113 71.5 178t180.5 65q111 0 181.5 -65.5t70.5 -177.5v-273q0 -109 -73 -174t-179.5 -65t-179 65.5t-72.5 173.5zM1016 225q0 -74 47 -119t120.5 -45t122 45.5t48.5 118.5 v262q0 78 -48.5 125t-122 47t-120.5 -47t-47 -125v-262z" />
<glyph unicode="&#x26;" horiz-adv-x="1214" d="M92 367q0 252 297 428q-178 223 -178 381q0 137 94 224t250 87q152 0 242 -85t90 -220q0 -121 -84 -218.5t-260 -197.5q86 -106 348 -414q47 84 96 215q6 16 21 8l61 -24q16 -8 12 -25q-51 -147 -120 -260l208 -246q16 -20 -10 -20h-94q-12 0 -21 10l-147 170 q-168 -203 -389 -203q-182 0 -299 105.5t-117 284.5zM201 367q0 -131 87 -209t226 -78q186 0 317 182q-231 268 -376 451q-254 -143 -254 -346zM315 1174q0 -127 164 -328q158 88 230.5 167t72.5 169q0 94 -60 150.5t-169 56.5q-113 0 -175.5 -59.5t-62.5 -155.5z" />
<glyph unicode="'" horiz-adv-x="364" d="M125 1067l22 381q0 16 19 16h76q16 0 16 -18l-45 -381q0 -16 -18 -16h-54q-16 0 -16 18z" />
<glyph unicode="(" horiz-adv-x="544" d="M108.5 729.5q0.5 493.5 278.5 953.5q6 12 23 13h75q25 0 13 -21q-283 -449 -283 -946.5t283 -945.5q10 -23 -13 -23h-75q-16 0 -23 13q-279 463 -278.5 956.5z" />
<glyph unicode=")" horiz-adv-x="544" d="M47 -217q283 449 283 946.5t-283 945.5q-12 20 12 21h76q16 0 23 -13q279 -461 278.5 -954t-278.5 -956q-7 -13 -23 -13h-76q-23 0 -12 23z" />
<glyph unicode="*" horiz-adv-x="937" d="M102 1174l19 61q8 18 22 12l277 -90v291q0 16 18 16h64q16 0 16 -16v-291l277 88q16 6 22 -10l21 -59q4 -16 -13 -23l-276 -88l170 -236q10 -10 -2 -24l-51 -39q-12 -12 -25 4l-172 234l-170 -234q-9 -10 -23 -4l-53 37q-14 10 -4 24l170 236l-274 88q-18 8 -13 23z" />
<glyph unicode="+" d="M133 649v68q0 18 17 18h372v373q0 18 17 18h71q16 0 17 -18v-373h372q16 0 17 -18v-68q0 -18 -17 -18h-372v-375q0 -18 -17 -18h-71q-16 0 -17 18v375h-372q-16 0 -17 18z" />
<glyph unicode="," horiz-adv-x="389" d="M51 -209l99 369q4 14 18 14h82q20 0 14 -20l-119 -369q-2 -12 -18 -12h-61q-20 0 -15 18z" />
<glyph unicode="-" horiz-adv-x="835" d="M145 590v67q0 16 19 17h508q18 0 18 -17v-67q0 -17 -18 -17h-508q-18 0 -19 17z" />
<glyph unicode="." horiz-adv-x="387" d="M115 74q0 35 21.5 57.5t56 22.5t57 -22.5t22.5 -57.5t-22.5 -57.5t-57 -22.5t-56 22.5t-21.5 57.5z" />
<glyph unicode="/" horiz-adv-x="825" d="M55 20l611 1430q6 14 20 14h76q18 0 10 -20l-608 -1430q-2 -14 -19 -14h-77q-20 0 -13 20z" />
<glyph unicode="0" horiz-adv-x="1247" d="M145 449v565q0 225 134.5 349t345.5 124q209 0 343 -124t134 -349v-565q0 -223 -134 -347.5t-343 -124.5q-211 0 -345.5 124t-134.5 348zM254 446q0 -176 102.5 -269t268.5 -93q164 0 265 93t101 269v564q0 182 -100 276t-266 94q-168 0 -269.5 -94t-101.5 -276v-564z " />
<glyph unicode="1" horiz-adv-x="690" d="M45 1210q-8 14 6 25l342 221q10 8 27 8h61q16 0 17 -16v-1432q-1 -16 -17 -16h-75q-16 0 -17 16v1315l-285 -182q-14 -10 -22 4z" />
<glyph unicode="2" horiz-adv-x="1120" d="M84 16v52q0 12 8 20l361 379q117 125 175 190.5t124.5 153.5t93 157.5t26.5 139.5q0 113 -75.5 193.5t-227.5 80.5q-215 0 -387 -194q-10 -14 -24 0l-41 55q-8 10 0 25q193 219 452 219q190 0 302 -106.5t112 -270.5q0 -152 -98.5 -296t-335.5 -402q-158 -168 -295 -310 h754q16 0 16 -18v-68q0 -16 -16 -16h-906q-18 0 -18 16z" />
<glyph unicode="3" d="M86 193q-12 12 0 24l45 47q14 12 25 -4q90 -88 180 -133t221 -45q170 0 270.5 96t100.5 262q0 164 -100.5 256t-286.5 92q-70 0 -121 -8q-14 -4 -19 11l-16 32q-6 10 4 25l318 346q152 158 161 168h-704q-18 0 -19 18v68q0 16 19 16h835q16 0 17 -16v-47q0 -10 -8 -23 l-469 -508h26q217 2 345 -114.5t128 -315.5q0 -209 -132 -334.5t-349 -125.5q-154 0 -263.5 54t-207.5 159z" />
<glyph unicode="4" horiz-adv-x="1112" d="M59 393v51q0 14 7 23l559 985q10 12 20 12h88q23 0 12 -20l-550 -967h577v340q0 16 16 17h76q16 0 17 -17v-340h149q18 0 19 -16v-68q0 -16 -19 -16h-149v-361q-1 -16 -17 -16h-76q-16 0 -16 16v361h-696q-16 0 -17 16z" />
<glyph unicode="5" horiz-adv-x="1167" d="M129 190q-8 14 2 25l49 51q12 12 25 -2q162 -178 383 -178q172 0 269 105.5t97 287.5q0 186 -94 276.5t-262 90.5q-201 0 -342 -137q-12 -12 -23 -7l-67 25q-14 4 -14 18l26 703q0 16 17 16h782q18 0 18 -16v-70q0 -16 -18 -16h-694l-19 -535q147 123 342 123 q209 0 334 -120t125 -349q0 -227 -130 -363t-349 -136q-270 0 -457 208z" />
<glyph unicode="6" horiz-adv-x="1189" d="M145 446v578q0 215 135.5 339t331.5 124q233 0 408 -154q12 -12 2 -24l-39 -54q-12 -12 -27 -4q-145 131 -344 131q-154 0 -255 -95t-101 -259v-303q51 94 151.5 145.5t217.5 51.5q213 0 335.5 -121t122.5 -344q0 -217 -129 -348.5t-338 -131.5q-211 0 -341 128t-130 341 zM256 446q0 -170 97.5 -267t263 -97t261 99.5t95.5 273.5q0 178 -91 271t-261 93q-147 0 -256 -88t-109 -256v-29z" />
<glyph unicode="7" horiz-adv-x="1044" d="M53 1376v72q0 16 17 16h913q16 0 16 -16v-43q0 -14 -4 -21l-661 -1372q-7 -12 -21 -12h-88q-23 0 -12 20l647 1338h-790q-16 0 -17 18z" />
<glyph unicode="8" horiz-adv-x="1232" d="M121 412q0 125 73.5 224t208.5 136q-121 39 -181 128t-60 208q0 164 124 271.5t330.5 107.5t331.5 -107.5t125 -271.5q0 -119 -60.5 -208t-181.5 -128q133 -37 207 -136t74 -224q0 -197 -134 -316t-361.5 -119t-361.5 119t-134 316zM231 414q0 -145 101.5 -238.5 t284 -93.5t285 93t102.5 239q0 133 -105.5 218t-282 85t-281 -85t-104.5 -218zM270 1106q0 -129 89.5 -210t257 -81t257 81t89.5 210t-93.5 202.5t-253.5 73.5q-158 0 -252 -73.5t-94 -202.5z" />
<glyph unicode="9" horiz-adv-x="1191" d="M109 1008q0 217 129 348t337 131q211 0 341.5 -127t130.5 -340v-580q0 -215 -135.5 -339t-331.5 -124q-240 0 -416 201q-8 12 0 25l41 53q10 16 24 2q152 -176 351 -176q152 0 254 96t102 258v299q-51 -94 -151.5 -143t-217.5 -49q-215 0 -336.5 120t-121.5 345z M219 1010q0 -178 91 -271.5t263 -93.5q145 0 254 88t109 252v35q0 170 -98.5 266t-264.5 96q-164 0 -259 -99t-95 -273z" />
<glyph unicode=":" horiz-adv-x="444" d="M143 74q0 35 22.5 57.5t57.5 22.5t56.5 -22.5t21.5 -57.5q0 -37 -21.5 -58.5t-56.5 -21.5t-57.5 21.5t-22.5 58.5zM143 967q0 37 22.5 58.5t57.5 21.5t56.5 -21.5t21.5 -58.5q0 -35 -21.5 -57.5t-56.5 -22.5t-57.5 22.5t-22.5 57.5z" />
<glyph unicode=";" horiz-adv-x="491" d="M102 -209l99 377q6 14 18 14h84q20 0 14 -20l-118 -375q-7 -14 -21 -14h-59q-20 0 -17 18zM180 966.5q0 34.5 22.5 57.5t57.5 23t57.5 -23t22.5 -57.5t-22.5 -57t-57.5 -22.5t-57.5 22.5t-22.5 57z" />
<glyph unicode="&#x3c;" d="M106 643v64q0 10 13 20l850 410q8 4 14 1t6 -14v-82q0 -18 -12 -20l-739 -348l739 -346q12 -7 12 -21v-82q0 -10 -6 -14t-14 2l-850 410q-12 6 -13 20z" />
<glyph unicode="=" d="M133 463v67q0 18 17 19h849q16 0 17 -19v-67q-1 -19 -17 -19h-849q-16 0 -17 19zM133 831v68q0 18 17 19h849q16 0 17 -19v-68q-1 -18 -17 -18h-849q-16 0 -17 18z" />
<glyph unicode="&#x3e;" d="M160 225v82q0 14 12 21l739 346l-739 348q-12 2 -12 20v82q0 10 6 13.5t14 -0.5l850 -410q12 -10 12 -20v-64q0 -14 -12 -20l-850 -410q-8 -6 -14 -2t-6 14z" />
<glyph unicode="?" horiz-adv-x="940" d="M59 1296q-6 14 4 25q154 166 388 166q184 0 294.5 -108.5t110.5 -288.5q0 -84 -27.5 -151t-68.5 -107.5t-90 -82.5t-90 -78t-69 -91.5t-28 -122.5v-113q0 -16 -18 -16h-74q-16 0 -16 16v131q0 86 39 153.5t93 112.5t109.5 90.5t94.5 110t39 148.5q0 127 -75 213t-226 86 q-182 0 -326 -148q-12 -16 -23 2zM350 74q0 35 21.5 57.5t56.5 22.5t57.5 -22.5t22.5 -57.5t-22.5 -57.5t-57.5 -22.5t-56.5 22.5t-21.5 57.5z" />
<glyph unicode="@" horiz-adv-x="1916" d="M129 535v223q0 358 195.5 543.5t617.5 185.5q524 0 823 -354q6 -10 7 -23v-604q0 -168 -71 -255t-202 -87q-84 0 -150.5 41t-97.5 114q-39 -76 -116.5 -117.5t-180.5 -41.5q-158 0 -265 106.5t-107 270.5v168q0 164 99 263t267 99q205 0 352 -66q12 -6 13 -18v-516 q0 -100 54 -157.5t138 -57.5q172 2 172 244v602q-287 301 -733 301q-371 0 -545 -160t-174 -481v-223q0 -319 168 -495.5t479 -176.5q258 0 439 98q18 6 22 -10l15 -53q3 -15 -9 -21q-84 -47 -217 -75.5t-256 -28.5q-356 0 -546.5 204.5t-190.5 557.5zM680 539 q0 -133 79 -211t195 -78q102 0 176 53t84 135v498q-96 41 -264 41q-125 0 -197.5 -74t-72.5 -198v-166z" />
<glyph unicode="A" horiz-adv-x="1232" d="M23 20l524 1430q6 14 18 14h103q12 0 18 -14l526 -1430q4 -20 -14 -20h-84q-12 0 -20 14l-150 414h-655l-150 -414q-8 -14 -18 -14h-86q-18 0 -12 20zM324 532h585l-288 801h-7z" />
<glyph unicode="B" horiz-adv-x="1284" d="M193 16v1432q0 16 16 16h463q225 0 333.5 -100t108.5 -266q0 -115 -55 -197t-154 -117q129 -35 200 -132t71 -238q0 -197 -132.5 -305.5t-373.5 -108.5h-461q-16 0 -16 16zM305 102h367q190 0 289.5 80t99.5 232q0 147 -90 231t-273 84h-393v-627zM305 831h393 q141 0 222 70t81 197q0 119 -79.5 191.5t-249.5 72.5h-367v-531z" />
<glyph unicode="C" horiz-adv-x="1185" d="M143 473v518q0 229 139.5 362.5t368.5 133.5q244 0 434 -150q14 -8 5 -22l-41 -60q-10 -14 -25 -2q-168 127 -375 127q-188 0 -290.5 -106.5t-102.5 -282.5v-518q0 -176 103.5 -282.5t293.5 -106.5q229 0 404 145q14 12 24 -4l41 -59q10 -15 -4 -25q-190 -164 -461 -164 q-236 0 -375 133.5t-139 362.5z" />
<glyph unicode="D" horiz-adv-x="1357" d="M193 16v1432q0 16 16 16h491q240 0 378.5 -137t138.5 -379v-438q0 -242 -138.5 -376t-378.5 -134h-491q-16 0 -16 16zM305 106h395q190 0 295 104.5t105 299.5v438q0 197 -104.5 304.5t-295.5 107.5h-395v-1254z" />
<glyph unicode="E" horiz-adv-x="1167" d="M193 16v1432q0 16 16 16h811q18 0 18 -16v-72q0 -16 -18 -16h-715v-561h672q16 0 16 -19v-69q0 -16 -16 -17h-672v-590h746q16 0 16 -16v-72q0 -16 -16 -16h-842q-16 0 -16 16z" />
<glyph unicode="F" horiz-adv-x="1128" d="M193 16v1432q0 16 16 16h833q19 0 19 -16v-72q0 -16 -19 -16h-737v-590h672q16 0 16 -18v-70q0 -16 -16 -16h-672v-650q0 -16 -16 -16h-80q-16 0 -16 16z" />
<glyph unicode="G" horiz-adv-x="1308" d="M141 475v516q0 229 141.5 362.5t374.5 133.5q272 0 478 -156q16 -10 4 -24l-43 -58q-10 -14 -23 -4q-184 135 -416 135q-193 0 -298 -104.5t-105 -286.5v-514q0 -180 109.5 -284.5t304.5 -104.5q236 0 397 143v441h-389q-18 0 -19 16v72q0 16 19 16h483q18 0 19 -16v-557 q-1 -15 -9 -21q-200 -200 -498 -200h-3q-238 0 -382.5 133t-144.5 362z" />
<glyph unicode="H" horiz-adv-x="1386" d="M193 16v1432q0 16 16 16h80q16 0 16 -16v-651h776v651q0 16 17 16h78q18 0 18 -16v-1432q0 -16 -18 -16h-78q-16 0 -17 16v676h-776v-676q0 -16 -16 -16h-80q-16 0 -16 16z" />
<glyph unicode="I" horiz-adv-x="497" d="M193 16v1432q0 16 16 16h80q16 0 16 -16v-1432q0 -16 -16 -16h-80q-16 0 -16 16z" />
<glyph unicode="J" horiz-adv-x="1017" d="M35 166l37 57q10 16 24 4q164 -141 334 -141q293 0 293 352v1010q0 16 16 16h80q16 0 17 -16v-1010q0 -225 -106.5 -341.5t-299.5 -116.5q-211 0 -391 161q-12 8 -4 25z" />
<glyph unicode="K" horiz-adv-x="1245" d="M193 16v1432q0 16 16 16h80q16 0 16 -16v-752l739 758q14 10 23 10h104q10 0 14.5 -6t-3.5 -14l-625 -639l664 -785q16 -20 -11 -20h-104q-16 0 -21 10l-604 715l-176 -174v-535q0 -16 -16 -16h-80q-16 0 -16 16z" />
<glyph unicode="L" horiz-adv-x="1026" d="M193 16v1432q0 16 16 16h80q16 0 16 -16v-1344h680q16 0 16 -16v-72q0 -16 -16 -16h-776q-16 0 -16 16z" />
<glyph unicode="M" horiz-adv-x="1732" d="M193 16v1432q0 16 16 16h100q14 0 21 -12l381 -676q68 -121 153 -289h2q18 35 72.5 136.5t81.5 148.5l383 680q6 12 20 12h99q18 0 18 -16v-1432q0 -16 -18 -16h-78q-18 0 -19 16v818q0 14 7 456l-2 2q-80 -156 -189 -348l-321 -579q-6 -10 -21 -11h-65q-14 0 -21 11 l-324 579l-188 348l-2 -2q6 -442 6 -459v-815q0 -16 -16 -16h-80q-16 0 -16 16z" />
<glyph unicode="N" horiz-adv-x="1435" d="M193 16v1432q0 16 16 16h90q14 0 20 -12l674 -1044q100 -162 142 -234l4 6q-8 340 -9 545v723q0 16 19 16h78q16 0 16 -16v-1432q0 -16 -16 -16h-90q-14 0 -21 10l-680 1045q-55 86 -135 225l-2 -2q6 -455 6 -510v-752q0 -16 -18 -16h-78q-16 0 -16 16z" />
<glyph unicode="O" horiz-adv-x="1370" d="M141 481v490q0 233 147.5 374.5t397.5 141.5q248 0 395.5 -141.5t147.5 -374.5v-490q0 -225 -148.5 -364.5t-394.5 -139.5q-248 0 -396.5 139.5t-148.5 364.5zM254 481q0 -178 116.5 -287.5t315.5 -109.5t314.5 109.5t115.5 287.5v490q0 188 -115.5 298.5t-314.5 110.5 q-201 0 -316.5 -110.5t-115.5 -298.5v-490z" />
<glyph unicode="P" horiz-adv-x="1263" d="M193 16v1432q0 16 18 16h471q240 0 371 -121.5t131 -338.5q0 -219 -131 -340t-371 -121h-377v-527q0 -16 -16 -16h-78q-18 0 -18 16zM305 647h365q401 0 401 357q0 174 -101.5 265t-299.5 91h-365v-713z" />
<glyph unicode="Q" horiz-adv-x="1372" d="M141 485v486q0 233 147.5 374.5t397.5 141.5q248 0 395.5 -141.5t147.5 -374.5v-486q0 -209 -131 -344l135 -143q12 -13 0 -25l-43 -43q-14 -14 -25 0l-141 148q-143 -100 -338 -101q-248 0 -396.5 141.5t-148.5 366.5zM254 485q0 -178 116.5 -289.5t315.5 -111.5 q143 0 260 76l-217 227q-10 14 0 25l43 43q14 14 25 0l221 -232q98 109 98 262v486q0 186 -115.5 297.5t-314.5 111.5q-201 0 -316.5 -111.5t-115.5 -297.5v-486z" />
<glyph unicode="R" horiz-adv-x="1275" d="M193 16v1432q0 16 16 16h455q233 0 366 -114.5t133 -317.5q0 -182 -111.5 -293.5t-310.5 -130.5l449 -588q13 -20 -12 -20h-99q-16 0 -22 10l-445 590h-307v-584q0 -16 -16 -16h-80q-16 0 -16 16zM305 705h361q184 0 283.5 82.5t99.5 242.5t-99.5 245t-283.5 85h-361 v-655z" />
<glyph unicode="S" horiz-adv-x="1226" d="M109 197l43 59q10 12 24 4q213 -174 445 -176q178 0 288.5 76t110.5 219q0 129 -96.5 196.5t-323.5 118.5q-233 53 -360 151.5t-127 272.5q0 180 142 274.5t357 94.5q258 0 478 -164q12 -8 4 -25l-41 -57q-10 -16 -25 -6q-188 141 -428 145q-162 0 -267.5 -68.5 t-105.5 -197.5q0 -123 97.5 -192.5t302.5 -116.5q264 -63 386 -155.5t122 -270.5q0 -195 -142.5 -298.5t-374.5 -103.5q-150 0 -267.5 46.5t-239.5 148.5q-12 12 -2 25z" />
<glyph unicode="T" horiz-adv-x="1116" d="M25 1376v72q0 16 16 16h1032q18 0 19 -16v-72q0 -16 -19 -16h-461v-1344q0 -16 -18 -16h-78q-18 0 -18 16v1344h-457q-16 0 -16 16z" />
<glyph unicode="U" horiz-adv-x="1394" d="M180 496v952q0 16 19 16h80q16 0 16 -16v-946q0 -193 105.5 -305.5t296 -112.5t297 112.5t106.5 305.5v946q0 16 16 16h80q18 0 18 -16v-952q0 -231 -139 -375t-379 -144q-238 0 -377 143.5t-139 375.5z" />
<glyph unicode="V" horiz-adv-x="1257" d="M18 1444q-4 20 15 20h84q16 0 20 -14l490 -1323h6l489 1323q4 14 19 14h86q18 0 12 -20l-534 -1430q-9 -14 -21 -14h-109q-14 0 -20 14z" />
<glyph unicode="W" horiz-adv-x="1927" d="M31 1444q-6 20 14 20h86q14 0 16 -14l248 -885q53 -195 111 -426h2q125 426 129 439l266 845q4 16 19 17h84q14 0 18 -17l266 -845q41 -137 129 -439h2q57 231 111 426l248 885q2 14 18 14h84q20 0 14 -20l-409 -1430q-4 -14 -17 -14h-96q-10 0 -18 14l-269 852 q-88 287 -122 420h-2q-49 -193 -121 -420l-271 -852q-6 -14 -18 -14h-94q-14 0 -19 14z" />
<glyph unicode="X" horiz-adv-x="1185" d="M45 20l481 717l-458 707q-12 20 12 20h96q12 0 19 -12l399 -625l397 625q6 12 21 12h94q25 0 12 -20l-456 -707l479 -717q12 -20 -11 -20h-98q-14 0 -20 12l-418 637l-420 -637q-6 -12 -20 -12h-97q-25 0 -12 20z" />
<glyph unicode="Y" horiz-adv-x="1126" d="M18 1444q-10 20 13 20h90q14 0 20 -12l422 -776l422 776q6 12 21 12h90q23 0 12 -20l-487 -875v-553q-1 -16 -19 -16h-78q-18 0 -18 16v553z" />
<glyph unicode="Z" horiz-adv-x="1165" d="M70 16v47q0 14 8 23l848 1274h-807q-16 0 -17 16v72q0 16 17 16h940q16 0 16 -16v-49q0 -10 -6 -21l-846 -1274h852q16 0 17 -16v-72q-1 -16 -17 -16h-987q-18 0 -18 16z" />
<glyph unicode="[" horiz-adv-x="536" d="M178 -223v1902q0 16 17 17h262q16 0 16 -17v-67q0 -16 -16 -17h-172v-1734h172q16 0 16 -17v-67q0 -16 -16 -17h-262q-16 0 -17 17z" />
<glyph unicode="\" horiz-adv-x="825" d="M53 1444q-8 20 10 20h76q14 0 21 -14l610 -1430q8 -20 -12 -20h-78q-16 0 -18 14z" />
<glyph unicode="]" horiz-adv-x="536" d="M63 -156q0 16 17 17h172v1734h-172q-16 0 -17 17v67q0 16 17 17h262q16 0 16 -17v-1902q0 -16 -16 -17h-262q-16 0 -17 17v67z" />
<glyph unicode="^" d="M100.5 1181q-4.5 7 3.5 15l414 477q10 10 21 10h71q14 0 21 -10l413 -477q8 -8 4 -15t-14 -7h-96q-14 0 -20 10l-343 401l-342 -401q-6 -10 -20 -10h-98q-10 0 -14.5 7z" />
<glyph unicode="_" horiz-adv-x="1179" d="M76 -39q0 16 16 16h995q17 0 17 -16v-67q0 -16 -17 -17h-995q-16 0 -16 17v67z" />
<glyph unicode="`" horiz-adv-x="335" d="M-27 1509q-14 20 11 21h84q14 0 20 -10l168 -273q6 -10 1 -16t-15 -6h-58q-14 0 -20 12z" />
<glyph unicode="a" horiz-adv-x="1036" d="M74 309q0 156 114.5 240t315.5 84q109 0 287 -33v88q0 289 -287 289q-178 0 -314 -84q-12 -10 -22 4l-35 53q-10 15 0 21q152 106 375 106q188 0 289.5 -100t101.5 -287v-622q0 -14 -14 -21q-180 -70 -381 -70q-186 0 -308 86.5t-122 245.5zM184 309q0 -109 88 -171 t231.5 -62t287.5 49v381q-141 31 -287 31q-320 -1 -320 -228z" />
<glyph unicode="b" horiz-adv-x="1099" d="M150 70v1378q0 16 18 16h74q16 0 16 -16v-453q137 82 295 82q203 0 319.5 -112.5t116.5 -325.5v-221q0 -221 -117.5 -331t-324.5 -110q-199 0 -383 74q-14 2 -14 19zM258 125q142 -49 287 -49q334 0 334 342v221q0 340 -334 340q-156 0 -287 -88v-766z" />
<glyph unicode="c" horiz-adv-x="954" d="M113 365v325q0 168 113.5 277.5t305.5 109.5q176 0 330 -106q14 -12 6 -25l-34 -53q-12 -12 -25 -4q-127 88 -277 88q-145 0 -228 -81t-83 -206v-325q0 -127 83 -208t228 -81q160 0 304 104q14 12 24 -2l35 -51q10 -17 -2 -25q-162 -125 -361 -125q-193 0 -306 110 t-113 278z" />
<glyph unicode="d" horiz-adv-x="1099" d="M111 418v221q0 213 116.5 325.5t319.5 112.5q158 0 295 -82v453q0 16 16 16h74q18 0 18 -16v-1378q0 -16 -14 -19q-184 -74 -381 -74q-209 0 -326.5 110t-117.5 331zM221 418q0 -342 336 -342q154 0 285 47v768q-133 88 -287 88q-334 0 -334 -340v-221z" />
<glyph unicode="e" horiz-adv-x="1050" d="M115 356v324q0 190 118.5 293.5t301 103.5t299 -103.5t116.5 -293.5v-193q0 -16 -18 -16h-707v-115q0 -129 88 -204.5t222 -75.5q182 0 333 131q16 10 25 -4l37 -47q12 -12 -2 -25q-176 -154 -396 -154q-172 0 -294.5 102.5t-122.5 276.5zM225 563h619v117q0 141 -85 219 t-224 78q-143 0 -226.5 -77t-83.5 -220v-117z" />
<glyph unicode="f" horiz-adv-x="636" d="M152 16v1119q0 166 89 259t238 93q72 0 123 -8q16 -2 16 -19v-61q0 -17 -16 -17q-55 6 -110 7q-113 0 -172.5 -67t-59.5 -185v-86h328q16 0 16 -19v-63q0 -16 -16 -17h-328v-936q0 -16 -16 -16h-74q-18 0 -18 16z" />
<glyph unicode="g" horiz-adv-x="1097" d="M111 449v215q0 211 119.5 312t324.5 101q203 0 379 -76q14 -6 14 -20v-987q0 -188 -102.5 -296t-310.5 -108q-219 0 -390 154q-12 8 -2 25l37 53q10 14 23 2q156 -135 332 -135q305 0 305 305v8v102q-139 -67 -289 -67h-4q-201 0 -318.5 105.5t-117.5 306.5zM221 449 q0 -313 332 -314q160 0 287 72v725q-129 45 -287 45q-332 0 -332 -313v-215z" />
<glyph unicode="h" horiz-adv-x="1132" d="M152 16v1432q0 16 18 16h74q16 0 16 -16v-438q143 67 291 67h4q205 0 320.5 -107.5t115.5 -322.5v-631q0 -16 -16 -16h-74q-18 0 -18 16v629q0 172 -84 252t-250 80q-154 0 -289 -68v-893q0 -16 -16 -16h-74q-18 0 -18 16z" />
<glyph unicode="i" horiz-adv-x="411" d="M133 1343q0 33 20.5 53.5t53.5 20.5q31 0 51.5 -20.5t20.5 -53.5q0 -31 -20.5 -51t-51.5 -20q-33 0 -53.5 20.5t-20.5 50.5zM152 16v1020q0 18 16 19h76q16 0 16 -19v-1020q0 -16 -16 -16h-76q-16 0 -16 16z" />
<glyph unicode="j" horiz-adv-x="428" d="M-121 -319q0 8 4 13t13 3q43 -8 92 -8q180 0 180 256v1091q0 18 18 19h74q16 0 16 -19v-1091q0 -178 -72.5 -267.5t-205.5 -89.5q-59 0 -102 9q-16 2 -17 20v64zM150 1343q0 33 21.5 53.5t51.5 20.5q33 0 53.5 -20.5t20.5 -53.5q0 -31 -20.5 -51t-53.5 -20 q-31 0 -52 20.5t-21 50.5z" />
<glyph unicode="k" horiz-adv-x="991" d="M152 16v1432q0 16 18 16h74q16 0 16 -16v-911l557 510q6 8 21 8h94q10 0 13 -6.5t-5 -14.5l-467 -434l496 -580q17 -20 -8 -20h-95q-14 0 -22 10l-445 516l-139 -123v-387q0 -16 -16 -16h-74q-18 0 -18 16z" />
<glyph unicode="l" horiz-adv-x="569" d="M143 334v1114q0 16 17 16h73q18 0 19 -16v-1120q0 -250 180 -250q33 0 107 8q16 0 16 -16v-64q0 -18 -14 -20q-70 -8 -117 -9q-133 0 -207 89.5t-74 267.5z" />
<glyph unicode="m" horiz-adv-x="1656" d="M147 16v961q0 16 15 22q172 78 338 78q178 0 284 -102q152 102 322 102q188 0 299 -104.5t111 -296.5v-660q0 -16 -19 -16h-74q-16 0 -16 16v664q0 143 -79 221t-224.5 78t-261.5 -82q49 -94 49 -219v-662q0 -16 -19 -16h-73q-16 0 -17 16v664q0 299 -280 299 q-123 0 -246 -51v-912q0 -16 -16 -16h-74q-18 0 -19 16z" />
<glyph unicode="n" horiz-adv-x="1128" d="M147 16v961q0 14 15 20q182 80 381 80q211 0 327.5 -106.5t116.5 -319.5v-635q0 -16 -16 -16h-74q-18 0 -18 16v631q0 330 -336 330q-150 0 -287 -49v-912q0 -16 -16 -16h-74q-18 0 -19 16z" />
<glyph unicode="o" horiz-adv-x="1097" d="M113 371v311q0 174 116.5 284.5t319.5 110.5t319.5 -110.5t116.5 -284.5v-311q0 -174 -115.5 -284t-320.5 -110q-203 0 -319.5 110t-116.5 284zM223 371q0 -133 85 -214t241 -81q160 0 244 81t84 214v311q0 133 -84 214t-244 81q-156 0 -241 -81t-85 -214v-311z" />
<glyph unicode="p" horiz-adv-x="1097" d="M147 -373v1356q1 15 13 21q185 73 380 73h5q207 0 324.5 -109.5t117.5 -330.5v-221q0 -213 -116.5 -326t-321.5 -113q-160 0 -293 82v-432q0 -16 -16 -16h-74q-18 0 -19 16zM256 166q131 -90 287 -90q334 0 334 340v221q0 342 -334 342q-156 0 -287 -49v-764z" />
<glyph unicode="q" horiz-adv-x="1099" d="M111 416v221q0 221 117.5 330.5t326.5 109.5q197 0 381 -73q14 -2 14 -21v-1356q0 -16 -18 -16h-74q-16 0 -16 16v432q-133 -82 -293 -82q-205 0 -321.5 113t-116.5 326zM221 416q0 -340 334 -340q154 0 287 88v768q-131 47 -285 47q-336 0 -336 -342v-221z" />
<glyph unicode="r" horiz-adv-x="768" d="M147 16v967q0 14 15 21q156 73 341 73h5q84 0 209 -18q16 -2 16 -19v-63q0 -18 -18 -14q-98 16 -195 16q-145 0 -264 -49v-914q0 -16 -16 -16h-74q-18 0 -19 16z" />
<glyph unicode="s" horiz-adv-x="956" d="M80 133l35 57q10 16 24 5q160 -119 344 -119q129 0 208 53t79 152q0 41 -18.5 73.5t-41 52t-69.5 37t-74.5 23.5t-83.5 18q-74 14 -130 32t-120.5 52.5t-100.5 92t-36 135.5q0 133 108.5 206.5t270.5 73.5q182 0 359 -98q14 -8 6 -25l-33 -55q-8 -16 -25 -6 q-145 84 -311 84q-121 0 -194.5 -48t-73.5 -132q0 -51 23.5 -88t71.5 -60.5t91 -37t115 -27.5q70 -14 108.5 -24.5t98 -34t90 -52.5t55.5 -77t25 -111q0 -141 -107.5 -224.5t-292.5 -83.5q-221 0 -395 134q-14 8 -6 22z" />
<glyph unicode="t" horiz-adv-x="634" d="M143 326v974q0 16 17 17h65q14 0 19 -17l6 -249h313q16 0 17 -19v-63q0 -16 -17 -17h-311v-622q0 -119 58.5 -184.5t168.5 -65.5q35 0 113 4q8 2 12 -2t4 -14v-66q0 -16 -16 -18q-55 -6 -117 -7q-154 0 -243 90.5t-89 258.5z" />
<glyph unicode="u" horiz-adv-x="1114" d="M141 403v633q0 18 17 19h73q18 0 19 -19v-630q0 -330 328 -330q139 0 278 51v909q0 19 18 19h74q16 0 17 -19v-958q0 -14 -13 -21q-180 -80 -374 -80q-205 0 -321 106.5t-116 319.5z" />
<glyph unicode="v" horiz-adv-x="993" d="M37 1034q-8 20 14 21h80q14 0 19 -15l237 -639q12 -31 32.5 -88t39 -105t35.5 -89h2q37 104 104 282l238 639q4 14 20 15h80q18 0 14 -21l-391 -1020q-8 -14 -20 -14h-95q-14 0 -18 14z" />
<glyph unicode="w" horiz-adv-x="1527" d="M41 1034q-4 20 14 21h78q16 0 19 -15l202 -659q12 -37 23.5 -79t24 -93t20.5 -80h2q8 25 30.5 110t34.5 123l216 658q4 14 18 14h84q14 0 18 -14l215 -658q12 -39 35 -123.5t31 -109.5h2q0 4 28.5 108.5t39.5 143.5l202 659q2 14 19 15h78q18 0 12 -21l-316 -1020 q-8 -14 -18 -14h-92q-12 0 -19 14l-229 713q-10 29 -25.5 90.5t-21.5 79.5h-2q-6 -18 -21.5 -79.5t-25.5 -90.5l-232 -713q-4 -14 -16 -14h-92q-12 0 -19 14z" />
<glyph unicode="x" horiz-adv-x="972" d="M38 6q-3 6 3 14l379 517l-357 497q-12 20 11 21h90q14 0 20 -13l303 -428l301 428q6 12 21 13h90q10 0 13 -6.5t-3 -14.5l-356 -497l379 -517q6 -8 3 -14t-13 -6h-93q-14 0 -20 10l-322 449l-323 -449q-6 -10 -21 -10h-92q-10 0 -13 6z" />
<glyph unicode="y" horiz-adv-x="1116" d="M141 436v600q0 18 17 19h73q18 0 19 -19v-596q0 -152 89 -227.5t243 -75.5q151 0 274 68v831q0 18 18 19h74q16 0 17 -19v-1042q0 -188 -102.5 -296t-307.5 -108q-215 0 -387 152q-12 12 -2 25l39 53q10 14 22 2q160 -131 328 -133q303 2 303 303v8v100 q-137 -63 -289 -63q-188 0 -308 102.5t-120 296.5z" />
<glyph unicode="z" horiz-adv-x="933" d="M63 16v39q0 14 7 23l635 878h-594q-16 0 -17 17v63q0 18 17 19h727q16 0 16 -19v-35q0 -10 -6 -20l-637 -883h641q18 0 18 -18v-64q0 -16 -18 -16h-772q-16 0 -17 16z" />
<glyph unicode="{" horiz-adv-x="546" d="M80 694v70q0 16 16 18q66 14 93.5 64.5t27.5 152.5v457q0 125 51 182.5t162 59.5h33q16 0 16 -17v-67q0 -16 -16 -17h-27q-61 -2 -89 -36.5t-28 -110.5v-465q0 -106 -37.5 -173t-105.5 -83q68 -16 105.5 -82.5t37.5 -173.5v-465q0 -80 28 -112.5t91 -34.5h25q16 0 16 -17 v-67q0 -17 -16 -17h-31q-113 2 -164 58.5t-51 183.5v457q0 102 -27.5 152.5t-93.5 64.5q-16 2 -16 18z" />
<glyph unicode="|" horiz-adv-x="458" d="M178 -268v2015q0 16 17 16h69q16 0 17 -16v-2015q-1 -17 -17 -17h-69q-16 0 -17 17z" />
<glyph unicode="}" horiz-adv-x="546" d="M68 -156q0 16 16 17h25q63 2 90.5 34.5t27.5 112.5v465q0 106 38 173t106 83q-68 16 -106 83t-38 173v465q0 76 -27.5 110.5t-88.5 36.5h-27q-16 0 -16 17v67q0 16 16 17h33q111 -2 162 -59.5t51 -182.5v-457q0 -102 27.5 -152t93.5 -65q16 -2 16 -18v-70q0 -16 -16 -18 q-66 -14 -93.5 -64.5t-27.5 -152.5v-457q0 -127 -51 -183.5t-164 -58.5h-31q-16 0 -16 17v67z" />
<glyph unicode="~" d="M160 702q88 92 215 93q72 0 211 -50q133 -43 178 -43q92 0 156 60q14 8 24 0l47 -39q14 -15 2 -23q-88 -94 -219 -94q-63 0 -207 49q-125 43 -182 43q-88 0 -152 -57q-14 -12 -26 -2l-45 41q-14 10 -2 22z" />
<glyph unicode="&#xa2;" horiz-adv-x="1021" d="M131 365v325q0 156 99.5 262.5t269.5 120.5v148q0 16 18 16h47q16 0 17 -16v-146q156 -6 299 -104q16 -12 6 -25l-35 -53q-10 -12 -25 -4q-127 88 -276 88q-145 0 -228 -81t-83 -206v-325q0 -127 83 -208t228 -81q160 0 303 106q17 10 25 -4l34 -51q10 -16 -4 -25 q-152 -117 -327 -122v-138q0 -16 -17 -16h-47q-18 0 -18 16v140q-170 14 -269.5 119.5t-99.5 263.5z" />
<glyph unicode="&#xa3;" horiz-adv-x="1114" d="M102 16v62q0 16 17 16q135 12 135 219v418h-135q-16 0 -17 19v59q0 16 17 16h135v287q0 164 103.5 269.5t279.5 105.5q209 0 354 -123q12 -8 2 -25l-35 -47q-10 -16 -22 -4q-143 102 -299 103q-135 0 -210 -78t-75 -199v-289h443q18 0 18 -16v-59q0 -18 -18 -19h-443 v-420q0 -166 -84 -217h729q16 0 17 -16v-62q-1 -16 -17 -16h-878q-16 0 -17 16z" />
<glyph unicode="&#xa5;" horiz-adv-x="1155" d="M55 1444q-10 20 13 20h86q14 0 20 -12l404 -776l401 776q6 12 22 12h86q23 0 13 -20l-432 -807h233q16 0 17 -19v-51q0 -18 -17 -18h-270v-158h270q16 0 17 -16v-53q0 -16 -17 -17h-270v-289q0 -16 -17 -16h-75q-16 0 -17 16v289h-268q-16 0 -16 17v53q0 16 16 16h268 v158h-268q-16 0 -16 18v51q0 18 16 19h233z" />
<glyph unicode="&#xa8;" horiz-adv-x="516" d="M12 1343.5q0 32.5 19.5 52t50.5 19.5q33 0 52.5 -19.5t19.5 -52t-19.5 -51t-52.5 -18.5q-31 0 -50.5 18.5t-19.5 51zM381 1343q0 33 20.5 52.5t51 19.5t50 -19.5t19.5 -52t-19.5 -51t-50 -18.5t-51 19.5t-20.5 49.5z" />
<glyph unicode="&#xa9;" horiz-adv-x="1724" d="M119 725q0 350 213 556t532 206q317 0 529.5 -206t212.5 -556q0 -346 -212 -547t-530 -201q-319 0 -532 201t-213 547zM182 725q0 -324 193.5 -505t488.5 -181q291 0 484.5 181t193.5 505q0 334 -192.5 517t-485.5 183t-487.5 -184t-194.5 -516zM567 584v282 q0 117 82 193t205 78q154 0 256 -107q10 -12 2 -24l-31 -37q-12 -12 -24 -2q-82 88 -201 86q-88 0 -145.5 -53.5t-57.5 -133.5v-282q0 -78 57.5 -132.5t147.5 -54.5q129 0 219 86q12 10 25 -4l24 -37q8 -16 0 -20q-104 -109 -268 -109q-127 2 -209 78t-82 193z" />
<glyph unicode="&#xab;" horiz-adv-x="1005" d="M84 584q-6 12 0 24l289 428q4 10 20 11h82q10 0 13.5 -6.5t-3.5 -14.5l-290 -430l290 -430q6 -8 3 -14.5t-13 -6.5h-82q-16 0 -20 11zM506 584q-6 12 0 24l289 428q4 10 20 11h82q10 0 13 -6.5t-3 -14.5l-291 -430l291 -430q6 -8 3 -14.5t-13 -6.5h-82q-16 0 -20 11z" />
<glyph unicode="&#xad;" horiz-adv-x="835" d="M145 590v67q0 16 19 17h508q18 0 18 -17v-67q0 -17 -18 -17h-508q-18 0 -19 17z" />
<glyph unicode="&#xae;" horiz-adv-x="1077" d="M113 1061q0 195 121.5 310.5t304 115.5t304.5 -115.5t122 -310.5q0 -197 -122 -311.5t-304.5 -114.5t-304 114.5t-121.5 311.5zM166 1061q0 -176 105.5 -275.5t269.5 -99.5q160 0 265 99.5t105 275.5q0 178 -105.5 276.5t-264.5 98.5q-164 0 -269.5 -98.5t-105.5 -276.5z M401 879v378q0 16 17 17h141q68 0 107 -33t39 -94q0 -111 -119 -121l114 -143q14 -20 -10 -21h-22q-16 0 -21 10l-121 152h-75v-145q-1 -17 -17 -17h-16q-16 0 -17 17zM451 1071h106q96 0 96 76q0 78 -96 78h-106v-154z" />
<glyph unicode="&#xb4;" horiz-adv-x="380" d="M7.5 1231q-5.5 6 0.5 16l168 273q6 10 21 10h84q25 0 10 -21l-191 -272q-6 -12 -20 -12h-57q-10 0 -15.5 6z" />
<glyph unicode="&#xb8;" horiz-adv-x="352" d="M10 -344q0 18 21 14q49 -16 104 -16q135 0 135 96q0 88 -151 90q-16 0 -21 10q-6 10 0 19l47 125q6 12 21 12h37q23 0 14 -18l-39 -101q86 -4 134 -39.5t48 -103.5q0 -76 -58 -119t-157 -43q-66 0 -120 19q-14 6 -15 20v35z" />
<glyph unicode="&#xbb;" horiz-adv-x="1005" d="M95 1040.5q3 6.5 14 6.5h81q14 0 21 -11l289 -428q6 -12 0 -24l-289 -428q-7 -11 -21 -11h-81q-10 0 -13.5 6.5t2.5 14.5l291 430l-291 430q-6 8 -3 14.5zM517 151.5q-3 6.5 3 14.5l291 430l-291 430q-6 8 -3 14.5t13 6.5h82q14 0 21 -11l289 -428q6 -12 0 -24l-289 -428 q-7 -11 -21 -11h-82q-10 0 -13 6.5z" />
<glyph unicode="&#x2c6;" horiz-adv-x="647" d="M41 1247l233 273q10 10 21 10h57q14 0 21 -10l231 -273q16 -23 -8 -22h-70q-14 0 -20 10l-182 217l-183 -217q-10 -10 -22 -10h-68q-23 0 -10 22z" />
<glyph unicode="&#x2da;" horiz-adv-x="430" d="M2 1376q0 90 58.5 143.5t150.5 53.5q90 0 147.5 -54.5t57.5 -144.5t-57.5 -143t-147.5 -53q-92 0 -150.5 54t-58.5 144zM76 1374q0 -55 38 -91t97 -36t96 36t37 91q0 57 -37 93t-96 36t-97 -36t-38 -93z" />
<glyph unicode="&#x2dc;" horiz-adv-x="614" d="M12 1329q18 49 59.5 85t96.5 36t145 -49q94 -47 127 -47q53 0 88 73q6 18 23 9l43 -23q14 -10 8 -20q-16 -49 -57 -88t-96 -39q-51 0 -142 49q-86 47 -129 47q-59 0 -92 -72q-6 -12 -23 -8l-43 25q-14 8 -8 22z" />
<glyph unicode="&#x401;" horiz-adv-x="1167" d="M193 16v1432q0 16 16 16h811q18 0 18 -16v-72q0 -16 -18 -16h-715v-561h672q16 0 16 -19v-69q0 -16 -16 -17h-672v-590h746q16 0 16 -16v-72q0 -16 -16 -16h-842q-16 0 -16 16zM344 1767.5q0 32.5 20.5 54t53.5 21.5t53.5 -21.5t20.5 -54t-20.5 -53t-53.5 -20.5 t-53.5 20.5t-20.5 53zM756 1767q0 35 20.5 55.5t53 20.5t53 -21.5t20.5 -54t-20.5 -53t-53 -20.5t-53 20.5t-20.5 52.5z" />
<glyph unicode="&#x402;" horiz-adv-x="1458" d="M25 1376v72q0 16 16 16h1032q16 0 17 -16v-72q0 -16 -17 -16h-461v-359q145 66 293 66q205 0 321.5 -106.5t116.5 -321.5v-305q0 -178 -73.5 -267.5t-206.5 -89.5q-45 0 -102 9q-18 2 -19 20v66q0 20 19 16q49 -6 92 -6q88 0 133 57.5t45 188.5v305q0 332 -332 332 q-145 0 -287 -68v-881q0 -16 -18 -16h-78q-16 0 -16 16v1344h-459q-16 0 -16 16z" />
<glyph unicode="&#x403;" horiz-adv-x="1028" d="M193 16v1432q0 16 18 16h776q16 0 17 -16v-72q0 -16 -17 -16h-680v-1344q0 -16 -18 -16h-78q-18 0 -18 16zM471 1634l217 273q8 10 21 10h92q26 -1 10 -21l-242 -274q-10 -10 -22 -10h-66q-25 0 -10 22z" />
<glyph unicode="&#x404;" horiz-adv-x="1200" d="M143 473v518q0 229 139.5 362.5t368.5 133.5q244 0 434 -150q14 -8 5 -22l-41 -60q-8 -14 -25 -4q-166 129 -375 129q-188 0 -290.5 -106.5t-102.5 -282.5v-207h635q18 0 18 -18v-72q0 -16 -18 -16h-635v-205q0 -176 103.5 -282.5t293.5 -106.5q229 0 404 145 q14 12 24 -4l41 -59q10 -15 -4 -25q-190 -164 -461 -164q-236 0 -375 133.5t-139 362.5z" />
<glyph unicode="&#x405;" horiz-adv-x="1243" d="M117 197l43 59q10 12 24 4q213 -174 445 -176q178 0 288.5 76t110.5 219q0 129 -96 196.5t-324 118.5q-233 53 -360 151.5t-127 272.5q0 180 142.5 274.5t357.5 94.5q258 0 477 -164q12 -8 4 -25l-41 -57q-10 -16 -25 -6q-188 141 -428 145q-162 0 -267 -68.5 t-105 -197.5q0 -123 97 -192.5t302 -116.5q264 -63 386 -155.5t122 -270.5q0 -195 -142.5 -298.5t-373.5 -103.5q-150 0 -267.5 46.5t-240.5 148.5q-12 12 -2 25z" />
<glyph unicode="&#x406;" horiz-adv-x="497" d="M193 16v1432q0 16 16 16h80q16 0 16 -16v-1432q0 -16 -16 -16h-80q-16 0 -16 16z" />
<glyph unicode="&#x407;" horiz-adv-x="497" d="M6 1767.5q0 32.5 19.5 53t52.5 20.5t53.5 -20.5t20.5 -53t-20.5 -52t-53.5 -19.5t-52.5 19.5t-19.5 52zM193 16v1432q0 16 16 16h80q16 0 16 -16v-1432q0 -16 -16 -16h-80q-16 0 -16 16zM348 1767.5q0 32.5 20.5 53t53.5 20.5t53.5 -20.5t20.5 -53t-20.5 -52t-53.5 -19.5 t-53.5 19.5t-20.5 52z" />
<glyph unicode="&#x408;" horiz-adv-x="1017" d="M35 166l37 57q10 16 24 4q164 -141 334 -141q293 0 293 352v1010q0 16 16 16h80q16 0 17 -16v-1010q0 -225 -106.5 -341.5t-299.5 -116.5q-211 0 -391 161q-12 8 -4 25z" />
<glyph unicode="&#x409;" horiz-adv-x="2037" d="M16 10v72q0 16 17 16q98 2 152.5 71t82.5 239q55 299 74 1038q2 18 18 18h744q18 0 18 -16v-539h334q244 0 373 -115.5t129 -336.5t-130 -339t-368 -118h-434q-18 0 -18 16v1344h-555q-19 -719 -78 -995q-41 -203 -121 -287t-221 -84q-16 0 -17 16zM1122 106h338 q383 0 383 351q0 346 -387 346h-334v-697z" />
<glyph unicode="&#x40a;" horiz-adv-x="2027" d="M193 16v1432q0 16 16 16h80q16 0 16 -16v-592h719v592q0 16 18 16h78q18 0 19 -16v-592h299q514 0 514 -424q0 -207 -135.5 -319.5t-368.5 -112.5h-406q-18 0 -18 16v736h-719v-736q0 -16 -16 -16h-80q-16 0 -16 16zM1139 106h309q184 0 285.5 83t101.5 243 q0 317 -397 318h-299v-644z" />
<glyph unicode="&#x40b;" horiz-adv-x="1456" d="M25 1376v72q0 16 16 16h1006q16 0 16 -16v-72q0 -16 -16 -16h-445v-359q145 66 291 66q207 0 323.5 -106.5t116.5 -321.5v-623q0 -16 -16 -16h-78q-14 0 -18 16v617q0 332 -334 332q-145 0 -285 -68v-881q0 -16 -18 -16h-78q-18 0 -19 16v1344h-446q-16 0 -16 16z" />
<glyph unicode="&#x40c;" horiz-adv-x="1245" d="M193 16v1432q0 16 16 16h80q16 0 16 -16v-752l739 758q14 10 23 10h104q10 0 14.5 -6t-3.5 -14l-625 -639l664 -785q16 -20 -11 -20h-104q-16 0 -21 10l-604 715l-176 -174v-535q0 -16 -16 -16h-80q-16 0 -16 16zM532 1634l218 273q8 10 20 10h92q26 -1 10 -21l-241 -274 q-10 -10 -23 -10h-65q-25 0 -11 22z" />
<glyph unicode="&#x40e;" horiz-adv-x="1081" d="M20 1444q-10 20 13 20h88q14 0 20 -14l428 -864l379 864q2 14 19 14h88q10 0 13 -6t-1 -14l-639 -1430q-6 -14 -20 -14h-89q-20 0 -12 20l205 445zM223 1864q-2 14 15 18l55 14q18 2 20 -14q14 -100 72.5 -156.5t157 -56.5t157 56.5t70.5 156.5q6 16 21 14l57 -14 q16 -4 14 -18q-16 -129 -100 -208t-219 -79q-137 0 -220 79t-100 208z" />
<glyph unicode="&#x40f;" horiz-adv-x="1394" d="M193 16v1432q0 16 18 16h78q18 0 18 -16v-1344h780v1344q1 16 19 16h78q18 0 18 -16v-1432q0 -16 -18 -16h-432v-254q0 -18 -17 -18h-73q-16 0 -17 18v254h-434q-18 0 -18 16z" />
<glyph unicode="&#x410;" horiz-adv-x="1232" d="M23 20l524 1430q6 14 18 14h103q12 0 18 -14l526 -1430q4 -20 -14 -20h-84q-12 0 -20 14l-150 414h-655l-150 -414q-8 -14 -18 -14h-86q-18 0 -12 20zM324 532h585l-288 801h-7z" />
<glyph unicode="&#x411;" horiz-adv-x="1282" d="M193 16v1432q0 16 18 16h862q16 0 17 -16v-72q0 -16 -17 -16h-766v-481h387q252 0 372 -106.5t120 -332.5q0 -213 -128 -326.5t-353 -113.5h-494q-18 0 -18 16zM307 104h395q178 0 273.5 84t95.5 252q0 172 -90 253t-285 81h-389v-670z" />
<glyph unicode="&#x412;" horiz-adv-x="1284" d="M193 16v1432q0 16 16 16h463q225 0 333.5 -100t108.5 -266q0 -115 -55 -197t-154 -117q129 -35 200 -132t71 -238q0 -197 -132.5 -305.5t-373.5 -108.5h-461q-16 0 -16 16zM305 102h367q190 0 289.5 80t99.5 232q0 147 -90 231t-273 84h-393v-627zM305 831h393 q141 0 222 70t81 197q0 119 -79.5 191.5t-249.5 72.5h-367v-531z" />
<glyph unicode="&#x413;" horiz-adv-x="1028" d="M193 16v1432q0 16 18 16h776q16 0 17 -16v-72q0 -16 -17 -16h-680v-1344q0 -16 -18 -16h-78q-18 0 -18 16z" />
<glyph unicode="&#x414;" horiz-adv-x="1359" d="M20 88q0 16 19 16h67q119 51 169.5 320.5t76.5 1021.5q0 18 17 18h745q16 0 16 -16v-1344h134q18 0 18 -16v-352q0 -16 -18 -17h-78q-16 0 -17 17v264h-1036v-264q0 -17 -16 -17h-78q-18 0 -19 17v352zM268 104h750v1256h-557q-16 -618 -57.5 -892.5t-135.5 -363.5z" />
<glyph unicode="&#x415;" horiz-adv-x="1167" d="M193 16v1432q0 16 16 16h811q18 0 18 -16v-72q0 -16 -18 -16h-715v-561h672q16 0 16 -19v-69q0 -16 -16 -17h-672v-590h746q16 0 16 -16v-72q0 -16 -16 -16h-842q-16 0 -16 16z" />
<glyph unicode="&#x416;" horiz-adv-x="1851" d="M28 6q-3 6 3 14l602 789l-563 635q-16 20 8 20h102q16 0 23 -10l665 -762v756q0 16 17 16h78q18 0 18 -16v-756l666 762q4 10 20 10h102q25 0 9 -20l-564 -635l605 -789q12 -20 -13 -20h-102q-14 0 -21 10l-540 715l-162 -176v-533q0 -16 -18 -16h-78q-16 0 -17 16v533 l-161 176l-543 -715q-6 -10 -21 -10h-102q-10 0 -13 6z" />
<glyph unicode="&#x417;" horiz-adv-x="1189" d="M74 158q-10 14 0 24l41 60q10 14 24 2q174 -160 428 -160q176 0 281.5 90t105.5 238q0 129 -95 215t-284 86h-217q-18 0 -18 16v70q0 16 18 16h232q158 0 243 80t85 192q0 125 -96.5 209t-258.5 84q-236 0 -397 -147q-14 -12 -25 2l-41 57q-10 12 2 25q180 170 463 170 q205 0 336 -114.5t131 -282.5q-2 -109 -61.5 -195t-173.5 -123q133 -39 202.5 -136t69.5 -224q0 -201 -138 -318t-364 -117q-299 0 -493 181z" />
<glyph unicode="&#x418;" horiz-adv-x="1435" d="M193 16v1432q0 16 16 16h78q18 0 18 -16v-723q0 -205 -8 -545l4 -6q41 70 141 234l674 1044q6 12 21 12h90q16 0 16 -16v-1432q0 -16 -16 -16h-78q-18 0 -19 16v752q0 55 7 510l-2 2q-80 -139 -136 -225l-680 -1045q-6 -10 -20 -10h-90q-16 0 -16 16z" />
<glyph unicode="&#x419;" horiz-adv-x="1435" d="M193 16q0 -16 16 -16h90q14 0 20 10l680 1045q55 86 136 225l2 -2q-6 -455 -7 -510v-752q1 -16 19 -16h78q16 0 16 16v1432q0 16 -16 16h-90q-14 0 -21 -12l-674 -1044q-100 -164 -141 -234l-4 6q8 340 8 545v723q0 16 -18 16h-78q-16 0 -16 -16v-1432zM403 1864 q-2 14 15 18l55 14q18 2 21 -14q14 -100 72.5 -156.5t156.5 -56.5t156.5 56.5t70.5 156.5q6 16 21 14l57 -14q16 -4 14 -18q-16 -129 -100 -208t-219 -79q-137 0 -220 79t-100 208z" />
<glyph unicode="&#x41a;" horiz-adv-x="1245" d="M193 16v1432q0 16 16 16h80q16 0 16 -16v-752l739 758q14 10 23 10h104q10 0 14.5 -6t-3.5 -14l-625 -639l664 -785q16 -20 -11 -20h-104q-16 0 -21 10l-604 715l-176 -174v-535q0 -16 -16 -16h-80q-16 0 -16 16z" />
<glyph unicode="&#x41b;" horiz-adv-x="1325" d="M18 10v72q0 16 17 16q102 4 155.5 83t81.5 278q41 289 60 989q0 16 16 16h766q18 0 19 -16v-1432q0 -16 -19 -16h-78q-18 0 -18 16v1344h-580q-12 -600 -57 -924q-37 -240 -117 -339t-229 -103q-16 0 -17 16z" />
<glyph unicode="&#x41c;" horiz-adv-x="1732" d="M193 16v1432q0 16 16 16h100q14 0 21 -12l381 -676q68 -121 153 -289h2q18 35 72.5 136.5t81.5 148.5l383 680q6 12 20 12h99q18 0 18 -16v-1432q0 -16 -18 -16h-78q-18 0 -19 16v818q0 14 7 456l-2 2q-80 -156 -189 -348l-321 -579q-6 -10 -21 -11h-65q-14 0 -21 11 l-324 579l-188 348l-2 -2q6 -442 6 -459v-815q0 -16 -16 -16h-80q-16 0 -16 16z" />
<glyph unicode="&#x41d;" horiz-adv-x="1386" d="M193 16v1432q0 16 16 16h80q16 0 16 -16v-651h776v651q0 16 17 16h78q18 0 18 -16v-1432q0 -16 -18 -16h-78q-16 0 -17 16v676h-776v-676q0 -16 -16 -16h-80q-16 0 -16 16z" />
<glyph unicode="&#x41e;" horiz-adv-x="1370" d="M141 481v490q0 233 147.5 374.5t397.5 141.5q248 0 395.5 -141.5t147.5 -374.5v-490q0 -225 -148.5 -364.5t-394.5 -139.5q-248 0 -396.5 139.5t-148.5 364.5zM254 481q0 -178 116.5 -287.5t315.5 -109.5t314.5 109.5t115.5 287.5v490q0 188 -115.5 298.5t-314.5 110.5 q-201 0 -316.5 -110.5t-115.5 -298.5v-490z" />
<glyph unicode="&#x41f;" horiz-adv-x="1390" d="M193 16v1432q0 16 18 16h969q18 0 18 -16v-1432q0 -16 -18 -16h-78q-18 0 -19 16v1344h-776v-1344q0 -16 -16 -16h-80q-18 0 -18 16z" />
<glyph unicode="&#x420;" horiz-adv-x="1263" d="M193 16v1432q0 16 18 16h471q240 0 371 -121.5t131 -338.5q0 -219 -131 -340t-371 -121h-377v-527q0 -16 -16 -16h-78q-18 0 -18 16zM305 647h365q401 0 401 357q0 174 -101.5 265t-299.5 91h-365v-713z" />
<glyph unicode="&#x421;" horiz-adv-x="1189" d="M143 473v518q0 229 139.5 362.5t368.5 133.5q244 0 434 -150q14 -8 5 -22l-41 -60q-10 -14 -25 -2q-168 127 -375 127q-188 0 -290.5 -106.5t-102.5 -282.5v-518q0 -176 103.5 -282.5t293.5 -106.5q229 0 404 145q14 12 24 -4l41 -59q10 -15 -4 -25q-190 -164 -461 -164 q-236 0 -375 133.5t-139 362.5z" />
<glyph unicode="&#x422;" horiz-adv-x="1116" d="M25 1376v72q0 16 16 16h1032q18 0 19 -16v-72q0 -16 -19 -16h-461v-1344q0 -16 -18 -16h-78q-18 0 -18 16v1344h-457q-16 0 -16 16z" />
<glyph unicode="&#x423;" horiz-adv-x="1081" d="M20 1444q-10 20 13 20h88q14 0 20 -14l428 -864l379 864q2 14 19 14h88q10 0 13 -6t-1 -14l-639 -1430q-6 -14 -20 -14h-89q-20 0 -12 20l205 445z" />
<glyph unicode="&#x424;" horiz-adv-x="1738" d="M135 610v240q0 139 46 248.5t123 173t169 96.5t195 33h145v158q0 18 16 18h80q16 0 17 -18v-158h143q219 0 377 -139.5t158 -411.5v-240q0 -141 -46.5 -250.5t-123 -173t-170 -96.5t-195.5 -33h-143v-170q-1 -18 -17 -18h-80q-16 0 -16 18v170h-145q-219 0 -376 139.5 t-157 413.5zM250 610q0 -223 123 -334.5t301 -111.5h139v1130h-139q-180 0 -302 -109.5t-122 -334.5v-240zM926 164h139q176 0 300 111.5t124 334.5v240q0 225 -123 334.5t-301 109.5h-139v-1130z" />
<glyph unicode="&#x425;" horiz-adv-x="1185" d="M45 20l481 717l-458 707q-12 20 12 20h96q12 0 19 -12l399 -625l397 625q6 12 21 12h94q25 0 12 -20l-456 -707l479 -717q12 -20 -11 -20h-98q-14 0 -20 12l-418 637l-420 -637q-6 -12 -20 -12h-97q-25 0 -12 20z" />
<glyph unicode="&#x426;" horiz-adv-x="1406" d="M193 16v1432q0 16 16 16h80q16 0 16 -16v-1344h760v1344q0 16 16 16h78q18 0 19 -16v-1344h133q18 0 18 -16v-340q0 -16 -18 -16h-74q-18 0 -18 16v252h-1010q-16 0 -16 16z" />
<glyph unicode="&#x427;" horiz-adv-x="1267" d="M115 983v465q0 16 18 16h80q16 0 16 -16v-461q0 -174 107.5 -268t294.5 -94q156 0 330 84v739q0 16 18 16h80q16 0 16 -16v-1432q0 -16 -16 -16h-80q-18 0 -18 16v584q-180 -82 -338 -82q-236 0 -372 122t-136 343z" />
<glyph unicode="&#x428;" horiz-adv-x="1951" d="M193 16v1432q0 16 16 16h80q16 0 16 -16v-1344h615v1344q0 16 16 16h80q16 0 16 -16v-1344h615v1344q0 16 16 16h80q16 0 16 -16v-1432q0 -16 -16 -16h-1534q-16 0 -16 16z" />
<glyph unicode="&#x429;" horiz-adv-x="1988" d="M193 16v1432q0 16 18 16h80q16 0 16 -16v-1344h613v1344q0 16 18 16h78q18 0 18 -16v-1344h613v1344q0 16 16 16h80q16 0 16 -16v-1344h135q16 0 17 -16v-340q-1 -16 -17 -16h-75q-16 0 -17 16v252h-1591q-18 0 -18 16z" />
<glyph unicode="&#x42a;" horiz-adv-x="1392" d="M31 1376v72q0 16 16 16h391q16 0 17 -16v-535h356q244 0 373 -114.5t129 -333.5q0 -223 -130 -344t-368 -121h-457q-16 0 -16 16v1342h-295q-16 0 -16 18zM455 106h360q383 0 383 359q0 344 -387 344h-356v-703z" />
<glyph unicode="&#x42b;" horiz-adv-x="1761" d="M193 16v1432q0 16 18 16h80q16 0 16 -16v-533h357q242 0 371.5 -118.5t129.5 -333.5q0 -221 -127.5 -342t-369.5 -121h-457q-18 0 -18 16zM307 106h361q383 0 383 357q0 346 -383 346h-361v-703zM1454 16v1432q0 16 16 16h80q18 0 19 -16v-1432q-1 -16 -19 -16h-80 q-16 0 -16 16z" />
<glyph unicode="&#x42c;" horiz-adv-x="1245" d="M193 16v1432q0 16 18 16h80q16 0 16 -16v-533h357q242 0 371.5 -118.5t129.5 -333.5q0 -223 -127.5 -343t-369.5 -120h-457q-18 0 -18 16zM307 106h361q383 0 383 357q0 346 -383 346h-361v-703z" />
<glyph unicode="&#x42d;" horiz-adv-x="1200" d="M78 166l41 59q10 16 24 4q174 -145 404 -145q190 0 293.5 106.5t103.5 282.5v205h-635q-18 0 -18 16v72q0 18 18 18h635v207q0 176 -102.5 282.5t-290.5 106.5q-209 0 -375 -129q-16 -10 -24 4l-41 60q-10 14 4 22q190 150 434 150q229 0 368.5 -133t139.5 -363v-518 q0 -229 -139.5 -362.5t-374.5 -133.5q-271 0 -461 164q-14 10 -4 25z" />
<glyph unicode="&#x42e;" horiz-adv-x="1832" d="M193 16v1432q0 16 18 16h78q16 0 16 -16v-645h330v184q0 231 148.5 365.5t379.5 134.5q229 0 378 -134t149 -366v-520q0 -223 -149.5 -356.5t-377 -133.5t-378 133.5t-150.5 356.5v229h-330v-680q0 -16 -16 -16h-78q-18 0 -18 16zM750 467q0 -172 115.5 -277.5 t297.5 -105.5q180 0 296 105.5t116 277.5v520q0 184 -113.5 288.5t-298 104.5t-299 -104.5t-114.5 -288.5v-520z" />
<glyph unicode="&#x42f;" horiz-adv-x="1296" d="M83 6q-3 6 3 14l442 560q-195 20 -303 132.5t-108 305.5q0 209 132 327.5t365 118.5h471q16 0 17 -16v-1432q0 -16 -17 -16h-77q-18 0 -19 16v555h-334l-436 -561q-6 -10 -20 -10h-103q-10 0 -13 6zM231 1016q0 -166 98.5 -253t286.5 -87h373v682h-373q-186 0 -285.5 -89 t-99.5 -253z" />
<glyph unicode="&#x430;" horiz-adv-x="1036" d="M74 309q0 156 114.5 240t315.5 84q109 0 287 -33v88q0 289 -287 289q-178 0 -314 -84q-12 -10 -22 4l-35 53q-10 15 0 21q152 106 375 106q188 0 289.5 -100t101.5 -287v-622q0 -14 -14 -21q-180 -70 -381 -70q-186 0 -308 86.5t-122 245.5zM184 309q0 -109 88 -171 t231.5 -62t287.5 49v381q-141 31 -287 31q-320 -1 -320 -228z" />
<glyph unicode="&#x431;" horiz-adv-x="1089" d="M141 391v641q0 168 108.5 273.5t272.5 136.5q6 2 61.5 11t92.5 16.5t89 22.5t87 34q16 8 22 -8l31 -56q6 -16 -6 -22q-43 -25 -105.5 -42.5t-143.5 -33.5t-91 -18q-309 -70 -309 -318v-121q135 94 317 94q193 0 303.5 -110.5t110.5 -312.5v-187q0 -193 -118 -303.5 t-302 -110.5t-302 111t-118 303zM250 391q0 -147 86 -231t223 -84q139 0 226 84t87 231v184q0 158 -79.5 244t-229.5 86q-184 0 -313 -98v-416z" />
<glyph unicode="&#x432;" horiz-adv-x="1067" d="M152 16v1020q0 18 18 19h412q168 0 259 -76t91 -191q0 -88 -51.5 -149t-135.5 -84q225 -57 226 -266q0 -129 -102.5 -209t-286.5 -80h-412q-18 0 -18 16zM260 92h318q141 0 212.5 55.5t71.5 151.5q0 98 -75.5 150.5t-208.5 52.5h-318v-410zM260 590h318q111 0 178 50 t67 140q0 82 -61.5 132.5t-183.5 50.5h-318v-373z" />
<glyph unicode="&#x433;" horiz-adv-x="817" d="M152 16v1020q0 18 18 19h598q16 0 16 -19v-63q0 -16 -16 -17h-508v-940q0 -16 -16 -16h-74q-18 0 -18 16z" />
<glyph unicode="&#x434;" horiz-adv-x="1140" d="M35 80q0 18 18 18h45q78 41 120 235.5t67 702.5q0 18 16 19h635q18 0 18 -19v-938h109q16 0 16 -18v-344q0 -16 -16 -17h-70q-18 0 -18 17v264h-836v-264q0 -17 -16 -17h-70q-18 0 -18 17v344zM223 98h623v858h-461q-31 -756 -162 -858z" />
<glyph unicode="&#x435;" horiz-adv-x="1050" d="M115 356v324q0 190 118.5 293.5t301 103.5t299 -103.5t116.5 -293.5v-193q0 -16 -18 -16h-707v-115q0 -129 88 -204.5t222 -75.5q182 0 333 131q16 10 25 -4l37 -47q12 -12 -2 -25q-176 -154 -396 -154q-172 0 -294.5 102.5t-122.5 276.5zM225 563h619v117q0 141 -85 219 t-224 78q-143 0 -226.5 -77t-83.5 -220v-117z" />
<glyph unicode="&#x436;" horiz-adv-x="1476" d="M35 20l436 572l-399 442q-8 8 -5 14.5t13 6.5h92q14 0 21 -11l309 -342l184 -206v540q0 18 16 19h72q18 0 19 -19v-540l184 206l307 342q10 10 23 11h90q10 0 14 -6.5t-4 -14.5l-399 -442l434 -572q6 -8 3 -14t-13 -6h-91q-14 0 -20 10l-385 508l-143 -156v-346 q0 -16 -19 -16h-72q-16 0 -16 16v346l-143 156l-385 -508q-8 -10 -23 -10h-88q-25 0 -12 20z" />
<glyph unicode="&#x437;" horiz-adv-x="974" d="M61 150l41 47q8 14 25 4q160 -125 338 -125q135 0 221 63.5t86 163.5q0 92 -70.5 147.5t-193.5 55.5h-232q-16 0 -16 18v51q0 18 16 19h226q106 0 168.5 54t62.5 140q0 90 -74.5 141.5t-193.5 51.5q-182 0 -318 -107q-14 -10 -24 5l-37 47q-12 16 2 24q154 127 377 127 q164 0 270.5 -80.5t106.5 -205.5q0 -168 -168 -234q98 -27 152.5 -94.5t54.5 -161.5q0 -139 -117 -231.5t-297 -92.5q-229 0 -404 148q-12 12 -2 25z" />
<glyph unicode="&#x438;" d="M152 16v1020q0 18 18 19h74q16 0 16 -19v-663q0 -150 -2 -217h2q63 109 150 239l460 649q10 10 23 11h88q16 0 16 -19v-1020q0 -16 -16 -16h-74q-18 0 -18 16v635q0 35 1 119t1 121q-123 -195 -148 -232l-462 -649q-7 -10 -21 -10h-90q-18 0 -18 16z" />
<glyph unicode="&#x439;" d="M152 16v1020q0 18 18 19h74q16 0 16 -19v-663q0 -150 -2 -217h2q63 109 150 239l460 649q10 10 23 11h88q16 0 16 -19v-1020q0 -16 -16 -16h-74q-18 0 -18 16v635q0 35 1 119t1 121q-123 -195 -148 -232l-462 -649q-7 -10 -21 -10h-90q-18 0 -18 16zM268 1487 q-2 16 15 20l53 6q14 2 20 -14q31 -203 215 -203q92 0 147.5 54.5t69.5 148.5q2 16 21 14l51 -6q21 0 17 -18q-14 -125 -94.5 -202t-211.5 -77q-129 0 -208.5 77t-94.5 200z" />
<glyph unicode="&#x43a;" horiz-adv-x="999" d="M152 16v1020q0 18 18 19h72q16 0 16 -19v-536l567 547q6 8 23 8h92q10 0 13 -6.5t-5 -14.5l-463 -448l492 -566q15 -20 -10 -20h-93q-14 0 -20 10l-442 500l-154 -143v-351q0 -16 -16 -16h-72q-18 0 -18 16z" />
<glyph unicode="&#x43b;" horiz-adv-x="1122" d="M25 10v64q0 18 16 18q82 4 126 66.5t66 242.5q29 203 50 635q4 18 18 19h653q16 0 17 -19v-1020q0 -16 -17 -16h-73q-18 0 -19 16v940h-475q-18 -345 -49 -585q-31 -213 -95.5 -293t-201.5 -84q-16 0 -16 16z" />
<glyph unicode="&#x43c;" horiz-adv-x="1343" d="M152 16v1020q0 18 18 19h84q14 0 20 -13l304 -536q14 -27 45.5 -87.5t48.5 -90.5h2q37 72 94 178l301 536q6 12 21 13h86q16 0 16 -19v-1020q0 -16 -16 -16h-74q-16 0 -17 16v863l-122 -232l-244 -434q-6 -10 -21 -10h-53q-16 0 -18 10l-252 451q-41 72 -115 215h-2 q2 -86 2 -863q0 -16 -16 -16h-74q-18 0 -18 16z" />
<glyph unicode="&#x43d;" horiz-adv-x="1107" d="M152 16v1020q0 18 18 19h74q16 0 16 -19v-440h588v440q0 18 16 19h74q18 0 18 -19v-1020q0 -16 -18 -16h-74q-16 0 -16 16v482h-588v-482q0 -16 -16 -16h-74q-18 0 -18 16z" />
<glyph unicode="&#x43e;" horiz-adv-x="1097" d="M113 371v311q0 174 116.5 284.5t319.5 110.5t319.5 -110.5t116.5 -284.5v-311q0 -174 -115.5 -284t-320.5 -110q-203 0 -319.5 110t-116.5 284zM223 371q0 -133 85 -214t241 -81q160 0 244 81t84 214v311q0 133 -84 214t-244 81q-156 0 -241 -81t-85 -214v-311z" />
<glyph unicode="&#x43f;" horiz-adv-x="1105" d="M152 16v1020q0 19 16 19h770q16 0 16 -19v-1020q0 -16 -16 -16h-74q-18 0 -18 16v940h-586v-940q0 -16 -18 -16h-74q-16 0 -16 16z" />
<glyph unicode="&#x440;" horiz-adv-x="1097" d="M147 -373v1356q1 15 13 21q188 74 385 73q207 0 324.5 -109.5t117.5 -330.5v-221q0 -213 -116.5 -326t-321.5 -113q-160 0 -293 82v-432q0 -16 -16 -16h-74q-18 0 -19 16zM256 166q131 -90 287 -90q334 0 334 340v221q0 342 -334 342q-156 0 -287 -49v-764z" />
<glyph unicode="&#x441;" horiz-adv-x="954" d="M113 365v325q0 168 113.5 277.5t305.5 109.5q176 0 330 -106q14 -12 6 -25l-34 -53q-12 -12 -25 -4q-127 88 -277 88q-145 0 -228 -81t-83 -206v-325q0 -127 83 -208t228 -81q160 0 304 104q14 12 24 -2l35 -51q10 -17 -2 -25q-162 -125 -361 -125q-193 0 -306 110 t-113 278z" />
<glyph unicode="&#x442;" horiz-adv-x="905" d="M33 973v63q0 18 18 19h803q18 0 18 -19v-63q0 -16 -18 -17h-346v-940q-1 -16 -19 -16h-73q-16 0 -17 16v940h-348q-18 0 -18 17z" />
<glyph unicode="&#x443;" horiz-adv-x="1116" d="M141 436v600q0 18 17 19h73q18 0 19 -19v-596q0 -152 89 -227.5t243 -75.5q151 0 274 68v831q0 18 18 19h74q16 0 17 -19v-1042q0 -188 -102.5 -296t-307.5 -108q-215 0 -387 152q-12 12 -2 25l39 53q10 14 22 2q160 -131 328 -133q307 2 303 311v100q-137 -63 -289 -63 q-188 0 -308 102.5t-120 296.5z" />
<glyph unicode="&#x444;" horiz-adv-x="1474" d="M111 403v248q0 186 111.5 295t291.5 109h170v393q0 16 16 16h74q18 0 19 -16v-393h176q180 0 287.5 -108.5t107.5 -295.5v-248q0 -190 -108.5 -296.5t-278.5 -106.5h-184v-373q-1 -16 -19 -16h-74q-16 0 -16 16v373h-178q-176 0 -285.5 106.5t-109.5 296.5zM219 406 q0 -147 79 -227.5t222 -80.5h164v858h-168q-139 0 -218 -80.5t-79 -226.5v-243zM793 98h163q143 0 222 80t79 228v243q0 145 -78.5 226t-217.5 81h-168v-858z" />
<glyph unicode="&#x445;" horiz-adv-x="972" d="M38 6q-3 6 3 14l379 517l-357 497q-12 20 11 21h90q14 0 20 -13l303 -428l301 428q6 12 21 13h90q10 0 13 -6.5t-3 -14.5l-356 -497l379 -517q6 -8 3 -14t-13 -6h-93q-14 0 -20 10l-322 449l-323 -449q-6 -10 -21 -10h-92q-10 0 -13 6z" />
<glyph unicode="&#x446;" horiz-adv-x="1140" d="M152 16v1020q0 18 16 19h74q18 0 18 -19v-938h586v938q0 18 18 19h74q16 0 16 -19v-938h109q16 0 16 -18v-332q0 -16 -16 -16h-68q-18 0 -18 16v252h-809q-16 0 -16 16z" />
<glyph unicode="&#x447;" horiz-adv-x="1044" d="M96 768v268q0 18 17 19h73q18 0 19 -19v-266q0 -319 289 -319q145 0 290 61v524q0 18 17 19h76q16 0 16 -19v-1020q0 -16 -16 -16h-76q-16 0 -17 16v396q-145 -59 -292 -60q-186 0 -291 104.5t-105 311.5z" />
<glyph unicode="&#x448;" horiz-adv-x="1597" d="M152 16v1020q0 18 18 19h74q16 0 16 -19v-938h485v938q0 18 17 19h74q16 0 16 -19v-938h485v938q0 18 19 19h71q18 0 19 -19v-1020q-1 -16 -19 -16h-1257q-18 0 -18 16z" />
<glyph unicode="&#x449;" horiz-adv-x="1632" d="M152 16v1020q0 18 18 19h74q16 0 16 -19v-938h485v938q0 18 17 19h74q16 0 16 -19v-938h485v938q0 18 19 19h71q18 0 19 -19v-938h108q16 0 17 -18v-332q-1 -16 -17 -16h-69q-16 0 -17 16v252h-1298q-18 0 -18 16z" />
<glyph unicode="&#x44a;" horiz-adv-x="1167" d="M35 975v61q0 18 16 19h334q16 0 16 -19v-344h301q182 0 288 -95t106 -257q0 -170 -103 -255t-291 -85h-391q-18 0 -18 16v940h-242q-16 0 -16 19zM401 94h289q297 0 297 248q0 123 -75.5 189.5t-221.5 66.5h-289v-504z" />
<glyph unicode="&#x44b;" horiz-adv-x="1361" d="M152 16v1020q0 18 18 19h74q16 0 16 -19v-344h303q182 0 287.5 -95t105.5 -257q0 -170 -102.5 -255t-290.5 -85h-393q-18 0 -18 16zM260 94h289q297 0 297 248q2 123 -75 189.5t-222 66.5h-289v-504zM1102 16v1020q0 18 18 19h74q16 0 16 -19v-1020q0 -16 -16 -16h-74 q-18 0 -18 16z" />
<glyph unicode="&#x44c;" horiz-adv-x="1028" d="M152 16v1020q0 18 18 19h74q16 0 16 -19v-344h303q182 0 287.5 -95t105.5 -257q0 -170 -102.5 -255t-290.5 -85h-393q-18 0 -18 16zM260 94h289q297 0 297 248q2 123 -75 189.5t-222 66.5h-289v-504z" />
<glyph unicode="&#x44d;" horiz-adv-x="972" d="M63 127l35 51q8 14 25 4q149 -106 317 -106q141 0 225.5 80t84.5 198v146h-492q-16 0 -16 18v55q0 16 16 17h492v108q0 119 -84 199t-228 80q-160 0 -299 -88q-12 -8 -24 4l-33 53q-10 14 4 23q168 109 354 108q190 0 304 -107.5t114 -271.5v-342q0 -162 -114.5 -270.5 t-303.5 -108.5q-207 0 -372 125q-14 8 -5 25z" />
<glyph unicode="&#x44e;" horiz-adv-x="1452" d="M152 16v1020q0 18 18 19h72q16 0 16 -19v-438h250v94q0 166 111.5 275.5t304 109.5t304 -109.5t111.5 -275.5v-332q0 -166 -111.5 -274.5t-304 -108.5t-304 109t-111.5 274v140h-250v-484q0 -16 -16 -16h-72q-18 0 -18 16zM616 360q0 -123 80 -202.5t227.5 -79.5 t227.5 80t80 202v332q0 125 -80 206t-227.5 81t-227.5 -81t-80 -206v-332z" />
<glyph unicode="&#x44f;" horiz-adv-x="1034" d="M78 20l334 390q-152 12 -237 97t-85 222q0 160 104.5 243t288.5 83h383q16 0 17 -19v-1020q0 -16 -17 -16h-73q-18 0 -19 16v385h-242l-329 -391q-11 -10 -21 -10h-94q-25 0 -10 20zM199 729q0 -113 72.5 -173t211.5 -60h291v465h-291q-284 -1 -284 -232z" />
<glyph unicode="&#x451;" horiz-adv-x="1050" d="M115 356v324q0 190 118.5 293.5t301 103.5t299 -103.5t116.5 -293.5v-193q0 -16 -18 -16h-707v-115q0 -129 88 -204.5t222 -75.5q182 0 333 131q16 10 25 -4l37 -47q12 -12 -2 -25q-176 -154 -396 -154q-172 0 -294.5 102.5t-122.5 276.5zM225 563h619v117q0 141 -85 219 t-224 78q-143 0 -226.5 -77t-83.5 -220v-117zM279 1343.5q0 32.5 19 52t50 19.5q33 0 52.5 -19.5t19.5 -52t-19.5 -51t-52.5 -18.5q-31 0 -50 18.5t-19 51zM647 1343q0 33 20.5 52.5t51.5 19.5t50 -19.5t19 -52t-19 -51t-50 -18.5t-51.5 19.5t-20.5 49.5z" />
<glyph unicode="&#x452;" horiz-adv-x="1132" d="M-14 1239v43q0 18 18 18h148v148q0 16 18 16h74q16 0 16 -16v-148h332q16 0 16 -18v-43q0 -18 -16 -18h-332v-224q147 66 295 66q205 0 320.5 -106.5t115.5 -321.5v-684q0 -358 -274 -359q-45 0 -92 7q-16 4 -17 18v64q0 20 19 16q61 -4 82 -4q174 0 174 254v684 q0 334 -334 334q-150 0 -289 -70v-879q0 -16 -16 -16h-74q-18 0 -18 16v1205h-148q-18 0 -18 18z" />
<glyph unicode="&#x453;" horiz-adv-x="817" d="M152 16v1020q0 18 18 19h598q16 0 16 -19v-63q0 -16 -16 -17h-508v-940q0 -16 -16 -16h-74q-18 0 -18 16zM374 1231q-5 6 1 16l168 273q6 10 20 10h84q25 0 10 -21l-190 -272q-7 -12 -21 -12h-57q-10 0 -15 6z" />
<glyph unicode="&#x454;" horiz-adv-x="972" d="M115 356v342q0 164 113.5 271.5t303.5 107.5q186 0 355 -108q14 -8 4 -23l-33 -53q-12 -12 -24 -4q-139 88 -299 88q-143 0 -227.5 -80t-84.5 -199v-108h492q16 0 16 -17v-55q0 -18 -16 -18h-492v-146q0 -119 84 -198.5t225 -79.5q168 0 318 106q16 10 24 -4l35 -51 q10 -16 -4 -25q-166 -125 -373 -125q-188 0 -302.5 109t-114.5 270z" />
<glyph unicode="&#x455;" horiz-adv-x="956" d="M80 133l35 57q10 16 24 5q160 -119 344 -119q129 0 208 53t79 152q0 41 -18.5 73.5t-41 52t-69.5 37t-74.5 23.5t-83.5 18q-74 14 -130 32t-120.5 52.5t-100.5 92t-36 135.5q0 133 108.5 206.5t270.5 73.5q182 0 359 -98q14 -8 6 -25l-33 -55q-8 -16 -25 -6 q-145 84 -311 84q-121 0 -194.5 -48t-73.5 -132q0 -51 23.5 -88t71.5 -60.5t91 -37t115 -27.5q70 -14 108.5 -24.5t98 -34t90 -52.5t55.5 -77t25 -111q0 -141 -107.5 -224.5t-292.5 -83.5q-221 0 -395 134q-14 8 -6 22z" />
<glyph unicode="&#x456;" horiz-adv-x="411" d="M133 1343q0 33 20.5 53.5t53.5 20.5q31 0 51.5 -20.5t20.5 -53.5q0 -31 -20.5 -51t-51.5 -20q-33 0 -53.5 20.5t-20.5 50.5zM152 16v1020q0 18 16 19h76q16 0 16 -19v-1020q0 -16 -16 -16h-76q-16 0 -16 16z" />
<glyph unicode="&#x457;" horiz-adv-x="411" d="M0 1343q0 31 19.5 51.5t50 20.5t50 -20.5t19.5 -51.5q0 -29 -19.5 -49t-50 -20t-50 20.5t-19.5 48.5zM152 16v1020q0 18 16 19h74q18 0 18 -19v-1020q0 -16 -18 -16h-74q-16 0 -16 16zM270 1343.5q0 30.5 18.5 51t49.5 20.5t51.5 -20.5t20.5 -51.5q0 -29 -20.5 -49 t-51.5 -20t-49.5 19.5t-18.5 50z" />
<glyph unicode="&#x458;" horiz-adv-x="428" d="M-121 -319q0 8 4 13t13 3q43 -8 92 -8q180 0 180 256v1091q0 18 18 19h74q16 0 16 -19v-1091q0 -178 -72.5 -267.5t-205.5 -89.5q-59 0 -102 9q-16 2 -17 20v64zM150 1343q0 33 21.5 53.5t51.5 20.5q33 0 53.5 -20.5t20.5 -53.5q0 -31 -20.5 -51t-53.5 -20 q-31 0 -52 20.5t-21 50.5z" />
<glyph unicode="&#x459;" horiz-adv-x="1724" d="M25 10v64q0 18 16 18q82 2 123 64.5t67 244.5q31 193 52 635q4 18 18 19h647q16 0 17 -19v-344h297q182 0 286.5 -95t104.5 -257q0 -170 -102.5 -255t-288.5 -85h-388q-18 0 -18 16v940h-469q-20 -366 -51 -585q-33 -215 -96.5 -295t-198.5 -82q-16 0 -16 16zM965 94h282 q297 0 297 248q0 123 -75.5 189.5t-221.5 66.5h-282v-504z" />
<glyph unicode="&#x45a;" horiz-adv-x="1675" d="M152 16v1020q0 18 18 19h74q16 0 16 -19v-393h563v393q0 18 19 19h73q16 0 17 -19v-395h287q182 0 285.5 -86t103.5 -238q0 -156 -101.5 -236.5t-287.5 -80.5h-377q-18 0 -19 16v529h-563v-529q0 -16 -16 -16h-74q-18 0 -18 16zM932 94h272q295 0 295 228q0 225 -295 225 h-272v-453z" />
<glyph unicode="&#x45b;" horiz-adv-x="1132" d="M-14 1239v45q0 16 16 16h150v148q0 16 16 16h76q16 0 16 -16v-148h332q16 0 16 -16v-45q0 -18 -16 -18h-332v-224q145 66 293 66q205 0 321.5 -106.5t116.5 -321.5v-619q0 -16 -16 -16h-76q-16 0 -16 16v615q0 334 -334 334q-150 0 -289 -70v-879q0 -16 -16 -16h-76 q-16 0 -16 16v1205h-150q-16 0 -16 18z" />
<glyph unicode="&#x45c;" horiz-adv-x="999" d="M152 16v1020q0 18 18 19h72q16 0 16 -19v-536l567 547q6 8 23 8h92q10 0 13 -6.5t-5 -14.5l-463 -448l492 -566q15 -20 -10 -20h-93q-14 0 -20 10l-442 500l-154 -143v-351q0 -16 -16 -16h-72q-18 0 -18 16zM427 1231q-5 6 1 16l168 273q6 10 20 10h84q25 0 11 -21 l-191 -272q-6 -12 -20 -12h-58q-10 0 -15 6z" />
<glyph unicode="&#x45d;" d="M152 16v1020q0 18 18 19h74q16 0 16 -19v-663q0 -150 -2 -217h2q63 109 150 239l460 649q10 10 23 11h88q16 0 16 -19v-1020q0 -16 -16 -16h-74q-18 0 -18 16v635q0 35 1 119t1 121q-123 -195 -148 -232l-462 -649q-7 -10 -21 -10h-90q-18 0 -18 16zM379 1516 q-14 20 10 20h84q14 0 21 -10l168 -273q6 -8 0.5 -15t-15.5 -7h-57q-14 0 -21 12z" />
<glyph unicode="&#x45e;" horiz-adv-x="1116" d="M141 436v600q0 18 17 19h73q18 0 19 -19v-596q0 -152 89 -227.5t243 -75.5q151 0 274 68v831q0 18 18 19h74q16 0 17 -19v-1042q0 -188 -102.5 -296t-307.5 -108q-215 0 -387 152q-12 12 -2 25l39 53q10 14 22 2q160 -131 328 -133q307 2 303 311v100q-137 -63 -289 -63 q-188 0 -308 102.5t-120 296.5zM256 1481q-2 16 14 20l54 6q14 2 20 -14q31 -203 215 -203q92 0 147.5 54.5t69.5 148.5q2 16 21 14l51 -6q20 0 16 -18q-14 -125 -94 -202t-211 -77q-129 0 -209 77t-94 200z" />
<glyph unicode="&#x45f;" horiz-adv-x="1107" d="M152 16v1020q0 18 16 19h74q18 0 18 -19v-938h588v938q0 19 16 19h74q18 0 18 -19v-1020q0 -16 -18 -16h-334v-252q0 -16 -18 -16h-66q-16 0 -16 16v252h-336q-16 0 -16 16z" />
<glyph unicode="&#x490;" horiz-adv-x="989" d="M193 16v1432q0 16 18 16h647v285q0 18 16 18h74q16 0 17 -18v-373q0 -16 -17 -16h-641v-1344q0 -16 -18 -16h-78q-18 0 -18 16z" />
<glyph unicode="&#x491;" horiz-adv-x="817" d="M152 16v1020q0 18 18 19h514v223q0 18 18 18h66q16 0 16 -18v-305q0 -16 -16 -17h-508v-940q0 -16 -16 -16h-74q-18 0 -18 16z" />
<glyph unicode="&#x2000;" horiz-adv-x="958" />
<glyph unicode="&#x2001;" horiz-adv-x="1917" />
<glyph unicode="&#x2002;" horiz-adv-x="958" />
<glyph unicode="&#x2003;" horiz-adv-x="1917" />
<glyph unicode="&#x2004;" horiz-adv-x="639" />
<glyph unicode="&#x2005;" horiz-adv-x="479" />
<glyph unicode="&#x2006;" horiz-adv-x="319" />
<glyph unicode="&#x2007;" horiz-adv-x="319" />
<glyph unicode="&#x2008;" horiz-adv-x="239" />
<glyph unicode="&#x2009;" horiz-adv-x="383" />
<glyph unicode="&#x200a;" horiz-adv-x="106" />
<glyph unicode="&#x2010;" horiz-adv-x="835" d="M145 590v67q0 16 19 17h508q18 0 18 -17v-67q0 -17 -18 -17h-508q-18 0 -19 17z" />
<glyph unicode="&#x2011;" horiz-adv-x="835" d="M145 590v67q0 16 19 17h508q18 0 18 -17v-67q0 -17 -18 -17h-508q-18 0 -19 17z" />
<glyph unicode="&#x2012;" horiz-adv-x="835" d="M145 590v67q0 16 19 17h508q18 0 18 -17v-67q0 -17 -18 -17h-508q-18 0 -19 17z" />
<glyph unicode="&#x2013;" horiz-adv-x="1206" d="M145 590v67q0 16 19 17h878q19 -1 19 -17v-67q0 -16 -19 -17h-878q-18 0 -19 17z" />
<glyph unicode="&#x2014;" horiz-adv-x="1935" d="M145 590v67q0 16 17 17h1612q16 -1 16 -17v-67q0 -16 -16 -17h-1612q-16 0 -17 17z" />
<glyph unicode="&#x2018;" horiz-adv-x="403" d="M102 1081l121 369q6 14 19 14h61q20 0 14 -20l-98 -369q-6 -14 -18 -14h-84q-21 0 -15 20z" />
<glyph unicode="&#x2019;" horiz-adv-x="399" d="M106 1081l99 369q8 14 18 14h84q21 0 15 -20l-121 -369q-4 -14 -19 -14h-59q-20 0 -17 20z" />
<glyph unicode="&#x201a;" horiz-adv-x="389" d="M51 -209l99 369q4 14 18 14h82q20 0 14 -20l-119 -369q-2 -12 -18 -12h-61q-20 0 -15 18z" />
<glyph unicode="&#x201c;" horiz-adv-x="655" d="M102 1081l121 369q6 14 21 14h59q20 0 16 -20l-100 -369q-4 -14 -18 -14h-84q-18 0 -15 20zM354 1081l121 369q4 14 19 14h61q20 0 14 -20l-98 -369q-8 -14 -18 -14h-84q-20 0 -15 20z" />
<glyph unicode="&#x201d;" horiz-adv-x="649" d="M106 1081l99 369q2 14 18 14h82q20 0 14 -20l-118 -369q-5 -14 -19 -14h-59q-23 0 -17 20zM356 1081l99 369q6 14 18 14h84q20 0 14 -20l-118 -369q-7 -14 -19 -14h-61q-20 0 -17 20z" />
<glyph unicode="&#x201e;" horiz-adv-x="641" d="M51 -207l99 369q4 14 16 14h84q20 0 14 -20l-119 -369q-6 -14 -18 -14h-61q-20 0 -15 20zM301 -207l98 369q6 14 19 14h84q20 0 14 -20l-121 -369q-4 -14 -18 -14h-60q-23 0 -16 20z" />
<glyph unicode="&#x2026;" horiz-adv-x="1138" d="M115 74q0 35 22.5 57.5t57 22.5t56 -22.5t21.5 -57.5t-21.5 -57.5t-56 -22.5t-57 22.5t-22.5 57.5zM492 74q0 35 21.5 57.5t56 22.5t57 -22.5t22.5 -57.5t-22.5 -57.5t-57 -22.5t-56 22.5t-21.5 57.5zM866 74q0 35 21.5 57.5t56.5 22.5t57.5 -22.5t22.5 -57.5 t-22.5 -57.5t-57.5 -22.5t-56.5 22.5t-21.5 57.5z" />
<glyph unicode="&#x202f;" horiz-adv-x="383" />
<glyph unicode="&#x2039;" horiz-adv-x="583" d="M84 584q-6 12 0 24l289 428q4 10 20 11h82q10 0 13.5 -6.5t-3.5 -14.5l-290 -430l290 -430q6 -8 3 -14.5t-13 -6.5h-82q-16 0 -20 11z" />
<glyph unicode="&#x203a;" horiz-adv-x="583" d="M95 1040.5q3 6.5 14 6.5h81q14 0 21 -11l289 -428q6 -12 0 -24l-289 -428q-7 -11 -21 -11h-81q-10 0 -13.5 6.5t2.5 14.5l291 430l-291 430q-6 8 -3 14.5z" />
<glyph unicode="&#x205f;" horiz-adv-x="479" />
<glyph unicode="&#x20ac;" horiz-adv-x="1308" d="M92 565v51q0 18 19 19h98v194h-98q-18 0 -19 17v53q0 16 19 16h98v76q0 229 138 362.5t366 133.5q262 0 471 -150q10 -6 4 -24l-41 -58q-10 -12 -25 -4q-178 129 -411 129q-186 0 -286.5 -106.5t-100.5 -282.5v-76h581q16 0 17 -16v-53q0 -16 -17 -17h-581v-194h581 q16 0 17 -19v-51q0 -18 -17 -18h-581v-76q0 -176 102.5 -281.5t288.5 -105.5q244 0 426 145q14 8 24 -4l41 -57q10 -16 -4 -25q-199 -166 -483 -166q-231 0 -369.5 133.5t-140.5 360.5v76h-98q-18 0 -19 18z" />
<glyph unicode="&#x2122;" horiz-adv-x="1306" d="M72 1419v33q0 12 12 12h422q12 0 12 -12v-33q0 -12 -12 -12h-180v-545q-1 -12 -13 -12h-37q-12 0 -12 12v545h-180q-12 0 -12 12zM604 862v590q0 12 10 12h45q12 0 15 -10l200 -405l197 405q2 10 14 10h45q12 0 13 -12v-590q0 -12 -13 -12h-34q-12 0 -13 12v324l2 174 l-57 -123l-125 -248q-6 -10 -14 -10h-29q-10 0 -16 10l-127 252l-55 119h-3l3 -170v-328q-1 -12 -11 -12h-37q-10 0 -10 12z" />
<glyph unicode="&#x25fc;" horiz-adv-x="1054" d="M0 0v1055h1055v-1055h-1055z" />
</font>
</defs>
</svg>
