<?xml version="1.0" standalone="no"?>
<!DOCTYPE svg PUBLIC "-//W3C//DTD SVG 1.1//EN" "http://www.w3.org/Graphics/SVG/1.1/DTD/svg11.dtd" >
<svg xmlns="http://www.w3.org/2000/svg" xmlns:xlink="http://www.w3.org/1999/xlink" version="1.1">
<metadata></metadata>
<defs>
<font id="uni_neueblack" horiz-adv-x="1146" >
<font-face units-per-em="2048" ascent="1536" descent="-512" />
<missing-glyph horiz-adv-x="401" />
<glyph horiz-adv-x="0" />
<glyph unicode="&#xd;" horiz-adv-x="681" />
<glyph unicode=" "  horiz-adv-x="401" />
<glyph unicode="&#x09;" horiz-adv-x="401" />
<glyph unicode="&#xa0;" horiz-adv-x="401" />
<glyph unicode="!" horiz-adv-x="595" d="M88 178q0 90 58.5 147.5t152.5 57.5t152.5 -57.5t58.5 -147.5q0 -88 -59.5 -146.5t-151.5 -58.5t-151.5 58.5t-59.5 146.5zM115 1069v354q0 41 41 41h284q41 0 41 -41v-354l-22 -541q0 -41 -41 -41h-240q-41 0 -41 41z" />
<glyph unicode="&#x22;" horiz-adv-x="882" d="M94 872l21 551q0 41 43 41h225q45 0 39 -43l-66 -551q-2 -39 -43 -39h-180q-39 0 -39 41zM485 872l21 551q0 41 43 41h225q45 0 39 -43l-65 -551q-2 -39 -43 -39h-181q-39 0 -39 41z" />
<glyph unicode="#" horiz-adv-x="1685" d="M51 393l53 187q8 35 48 34h239l66 236h-230q-23 0 -32 12t-2 33l53 186q8 35 47 35h239l89 314q8 35 47 34h221q23 0 32 -12t3 -33l-86 -303h227l88 314q8 35 47 34h221q23 0 32 -12t3 -33l-86 -303h229q23 0 32 -12t3 -33l-53 -186q-8 -35 -47 -35h-240l-65 -236h227 q23 0 32 -12t3 -33l-51 -186q-8 -35 -47 -35h-240l-88 -313q-8 -35 -47 -35h-221q-23 0 -32 12.5t-3 32.5l86 303h-227l-89 -313q-8 -35 -47 -35h-221q-23 0 -32 12.5t-3 32.5l86 303h-229q-23 0 -32 12.5t-3 32.5zM696 614h228l65 236h-227z" />
<glyph unicode="$" horiz-adv-x="1327" d="M66 236l172 243q23 35 55 10q203 -133 393 -133q66 0 110 25t44 63q0 35 -48.5 56.5t-162.5 48.5q-88 23 -145.5 40t-140.5 58t-132 89t-86 128t-37 178q0 184 105.5 293t291.5 142v151q0 41 41 41h226q41 0 41 -41v-141q203 -25 407 -150q35 -23 12 -57l-161 -246 q-23 -31 -58 -12q-158 92 -346 92q-133 0 -133 -86q0 -35 48 -57t163 -51q68 -16 105.5 -26.5t98 -29t94.5 -36t79 -44t70.5 -57.5t51 -71t36 -90t10.5 -109q0 -113 -40 -201t-110.5 -142.5t-151.5 -86t-175 -45.5v-158q0 -41 -41 -41h-226q-41 0 -41 41v162 q-207 35 -411 192q-31 25 -8 58z" />
<glyph unicode="%" horiz-adv-x="1798" d="M57 967v202q0 143 86 224.5t240 81.5t240 -81t86 -225v-202q0 -145 -86 -226.5t-240 -81.5t-240 81t-86 227zM313 961q0 -72 70 -72t70 72v215q0 70 -70 69.5t-70 -69.5v-215zM318 14.5q-7 14.5 6 34.5l860 1389q16 27 49 26h207q25 0 32 -14t-6 -35l-860 -1388 q-16 -27 -49 -27h-207q-25 0 -32 14.5zM1090 297v203q0 143 86 224t239.5 81t239.5 -81t86 -224v-203q0 -145 -86 -226t-239.5 -81t-239.5 81t-86 226zM1346 291q0 -72 69.5 -72t69.5 72v215q0 70 -69.5 69.5t-69.5 -69.5v-215z" />
<glyph unicode="&#x26;" horiz-adv-x="1304" d="M63 416q0 248 256 411q-123 162 -122 310q0 152 114.5 254t282.5 102q174 0 284.5 -103.5t110.5 -263.5q-2 -219 -241 -389q20 -25 60 -74t60 -73q41 55 68 121q16 41 53 22l201 -92q37 -16 22 -53q-43 -111 -135 -262q35 -47 105.5 -139.5t107.5 -137.5q16 -20 9 -34.5 t-33 -14.5h-297q-33 0 -49 25q-8 10 -26 34.5t-26 34.5q-156 -115 -348 -114q-190 0 -323.5 119.5t-133.5 316.5zM399 418q0 -59 39 -94t99 -35q86 0 145 53q-31 39 -91.5 116t-90.5 115q-101 -83 -101 -155zM516 1139q0 -74 59 -158q96 72 97 158q0 33 -20.5 56.5 t-57.5 23.5q-35 0 -56.5 -23.5t-21.5 -56.5z" />
<glyph unicode="'" horiz-adv-x="491" d="M94 870l21 553q0 41 43 41h225q45 0 39 -43l-66 -553q-2 -39 -43 -39h-180q-39 0 -39 41z" />
<glyph unicode="(" horiz-adv-x="677" d="M69.5 729q0.5 475 249.5 938q16 29 50 29h264q25 0 33 -14.5t-7 -34.5q-262 -446 -262 -917.5t262 -917.5q14 -20 6.5 -35t-32.5 -15h-264q-33 0 -50 29q-250 463 -249.5 938z" />
<glyph unicode=")" horiz-adv-x="677" d="M12 -223.5q-8 14.5 6 35.5q262 446 262.5 917t-262.5 918q-14 20 -6 34.5t33 14.5h264q33 0 49 -29q250 -463 250 -938t-250 -938q-16 -29 -49 -29h-264q-25 0 -33 14.5z" />
<glyph unicode="*" horiz-adv-x="954" d="M59 1085l64 195q12 39 51 27l160 -52v168q0 41 41 41h205q41 0 41 -41v-168l159 52q39 12 51 -27l64 -195q12 -39 -27 -51l-159 -51l98 -137q25 -35 -8 -58l-166 -118q-35 -25 -58 8l-98 137l-98 -137q-22 -33 -57 -8l-166 118q-33 23 -9 58l99 135l-160 53 q-39 12 -27 51z" />
<glyph unicode="+" horiz-adv-x="1331" d="M145 551v270q0 41 41 41h299v303q0 41 41 41h279q41 0 41 -41v-303h299q41 0 41 -41v-270q0 -41 -41 -41h-299v-303q0 -41 -41 -41h-279q-41 0 -41 41v303h-299q-41 0 -41 41z" />
<glyph unicode="," horiz-adv-x="540" d="M0 -258l127 557q10 37 45 37h258q23 0 32 -13.5t3 -33.5l-174 -557q-10 -35 -45 -35h-209q-47 0 -37 45z" />
<glyph unicode="-" horiz-adv-x="819" d="M104 492v245q0 41 41 41h529q41 0 41 -41v-245q0 -41 -41 -41h-529q-41 0 -41 41z" />
<glyph unicode="." horiz-adv-x="557" d="M68 178q0 90 58 147.5t152.5 57.5t152.5 -57.5t58 -147.5q0 -88 -59 -146.5t-151.5 -58.5t-151.5 58.5t-59 146.5z" />
<glyph unicode="/" horiz-adv-x="1036" d="M51 47l578 1387q10 31 47 30h280q51 0 31 -47l-573 -1386q-10 -31 -47 -31h-285q-51 0 -31 47z" />
<glyph unicode="0" horiz-adv-x="1298" d="M98 532v408q0 260 145.5 406.5t405.5 146.5t405.5 -146.5t145.5 -406.5v-408q0 -266 -145.5 -413.5t-405.5 -147.5t-405.5 147.5t-145.5 413.5zM481 514q0 -178 168 -178t168 178v442q0 176 -168 176.5t-168 -176.5v-442z" />
<glyph unicode="1" horiz-adv-x="870" d="M6 1124q-20 29 12 56l363 268q23 16 51 16h266q41 0 41 -41v-1382q0 -41 -41 -41h-303q-41 0 -41 41v967l-149 -113q-35 -29 -58 10z" />
<glyph unicode="2" horiz-adv-x="1202" d="M61 41v227q0 31 21 51l266 259q227 221 295 304t68 152q0 106 -138 107q-125 0 -256 -121q-33 -33 -57 2l-154 205q-23 31 5 57q213 209 485 209q236 0 369 -118t133 -328q0 -106 -43 -195.5t-146 -208.5q-125 -147 -301 -299h473q41 0 41 -41v-262q0 -41 -41 -41h-979 q-41 0 -41 41z" />
<glyph unicode="3" horiz-adv-x="1202" d="M51 137q-23 20 0 58l142 219q14 27 57 0q143 -86 303 -86q184 0 184 170q0 152 -192 151q-63 0 -142 -22q-35 -12 -51 24l-59 137q-12 33 12 58l123 115q123 123 162 155h-434q-41 0 -41 41v266q0 41 41 41h870q41 0 41 -41v-217q0 -29 -23 -51l-299 -278v-5 q164 8 273.5 -109.5t109.5 -287.5q0 -248 -147 -376t-428 -128q-303 0 -502 166z" />
<glyph unicode="4" horiz-adv-x="1271" d="M41 264v217q0 23 12 51l453 902q14 31 47 30h334q23 0 31 -13t-3 -36l-421 -856h198l45 242q6 37 43 37h254q41 0 41 -41v-238h113q41 0 41 -41v-254q0 -41 -41 -41h-113v-182q0 -41 -41 -41h-301q-41 0 -41 41v182h-610q-41 0 -41 41z" />
<glyph unicode="5" horiz-adv-x="1226" d="M76 143q-25 27 0 58l139 209q20 25 59 4q145 -88 310 -88q203 0 202 180q0 143 -190 143q-111 0 -211 -53q-31 -16 -55 -8l-174 55q-33 12 -33 47l27 733q0 41 43 41h831q41 0 41 -41v-270q0 -41 -41 -41h-520l-10 -215q25 18 85 35.5t119 17.5q219 0 344 -127t125 -336 q0 -240 -152.5 -378t-412.5 -138q-340 0 -526 172z" />
<glyph unicode="6" horiz-adv-x="1251" d="M98 475v471q0 246 155 396.5t402 150.5q274 0 469 -135q31 -20 11 -55l-138 -222q-20 -35 -57 -12q-109 72 -274 72q-180 0 -181 -189v-73q92 49 220 49q223 0 355 -121t132 -326q0 -231 -146.5 -370.5t-398.5 -139.5q-250 0 -399.5 139.5t-149.5 364.5zM485 475 q0 -70 41 -109.5t115 -39.5q78 0 120 43t42 120q0 68 -43 107t-119 39q-74 0 -115 -39t-41 -107v-14z" />
<glyph unicode="7" horiz-adv-x="1103" d="M41 1151v272q0 41 41 41h940q41 0 41 -41v-227q0 -20 -10 -51l-449 -1112q-12 -33 -47 -33h-334q-51 0 -30 47l438 1063h-549q-41 0 -41 41z" />
<glyph unicode="8" horiz-adv-x="1298" d="M78 451q0 233 190 335q-145 123 -145 293q0 184 142.5 299t384 115t384 -113.5t142.5 -300.5q0 -170 -144 -295q189 -102 189 -333q0 -225 -150.5 -352.5t-421 -127.5t-421 127t-150.5 353zM471 457q0 -70 47 -109t131 -39t131 39t47 109q0 66 -47 101.5t-131 35.5 t-131 -35.5t-47 -101.5zM487 1042q0 -63 43 -98t119 -35t119 35t43 98q0 59 -43 92t-119 33t-119 -33t-43 -92z" />
<glyph unicode="9" horiz-adv-x="1261" d="M70 987q0 227 146 366.5t398 139.5q250 0 399.5 -139.5t149.5 -360.5v-475q0 -246 -154.5 -396.5t-402.5 -150.5q-285 0 -495 140q-33 20 -13 57l140 238q23 35 57 10q131 -88 301 -88q180 0 180 196v66q-92 -49 -219 -49q-223 0 -355 120.5t-132 325.5zM459 987 q0 -74 42 -113.5t120 -39.5q74 0 114.5 39.5t40.5 111.5v14q0 68 -41 107t-114 39q-78 0 -120 -41t-42 -117z" />
<glyph unicode=":" horiz-adv-x="600" d="M94 180q0 94 56.5 150.5t148.5 56.5q94 0 150.5 -56.5t56.5 -150.5t-56.5 -150.5t-150.5 -56.5q-92 0 -148.5 56.5t-56.5 150.5zM94 891q0 94 56.5 150.5t148.5 56.5q94 0 150.5 -56.5t56.5 -150.5t-56.5 -150.5t-150.5 -56.5q-92 0 -148.5 56.5t-56.5 150.5z" />
<glyph unicode=";" horiz-adv-x="598" d="M18 -258l127 557q10 37 45 37h259q23 0 31.5 -13.5t2.5 -33.5l-174 -557q-10 -35 -45 -35h-209q-47 0 -37 45zM104 891q0 94 56.5 150.5t148.5 56.5q94 0 150.5 -56.5t56.5 -150.5t-56.5 -150.5t-150.5 -56.5q-92 0 -148.5 56.5t-56.5 150.5z" />
<glyph unicode="&#x3c;" horiz-adv-x="1331" d="M111 594v162q0 31 30 47l961 448q20 10 34.5 1t14.5 -31v-308q0 -35 -33 -47l-516 -190l516 -193q33 -12 33 -47v-305q0 -23 -14.5 -32t-34.5 1l-961 447q-31 14 -30 47z" />
<glyph unicode="=" horiz-adv-x="1331" d="M145 305v270q0 41 41 41h959q41 0 41 -41v-270q0 -41 -41 -41h-959q-41 0 -41 41zM145 780v271q0 41 41 41h959q41 0 41 -41v-271q0 -41 -41 -41h-959q-41 0 -41 41z" />
<glyph unicode="&#x3e;" horiz-adv-x="1331" d="M180 131v305q0 35 33 47l516 193l-516 190q-33 12 -33 47v308q0 23 14.5 32t34.5 -2l961 -448q31 -16 31 -47v-162q0 -33 -31 -47l-961 -447q-20 -10 -34.5 -0.5t-14.5 31.5z" />
<glyph unicode="?" horiz-adv-x="1083" d="M57 1286q-18 33 6 57q80 72 203 113t252 36t242.5 -46t187.5 -143.5t74 -245.5q0 -84 -25.5 -147.5t-63.5 -97.5t-82 -65.5t-82 -55t-63.5 -66.5t-25.5 -99v-26q0 -29 -41 -29h-274q-41 0 -41 41v55q0 92 32.5 158t79.5 99.5t95.5 62t81 65.5t32.5 90q0 119 -147 119 q-143 0 -248 -88q-35 -29 -57 6zM295 176q0 90 58.5 147.5t152.5 57.5t152.5 -57.5t58.5 -147.5q0 -88 -59.5 -146.5t-151.5 -58.5t-151.5 58.5t-59.5 146.5z" />
<glyph unicode="@" horiz-adv-x="1835" d="M86 504v270q0 340 223 529.5t623 189.5q553 0 788 -338q14 -23 15 -51v-514q0 -201 -99.5 -314.5t-232.5 -113.5q-150 0 -221 71q-55 -45 -124 -60t-184 -15q-137 0 -230 95t-93 228v236q0 156 92 252t270 96q197 0 365 -84q29 -16 29 -49v-426q0 -82 71 -82q78 0 78 86 v534q-53 70 -195.5 129.5t-302.5 59.5q-285 0 -434 -123t-149 -358v-248q0 -240 117.5 -377t341.5 -137q197 0 358 67q41 16 51 -26l37 -162q10 -35 -29 -53q-80 -35 -190.5 -59.5t-179.5 -24.5q-391 0 -593 195.5t-202 576.5zM842 543q0 -121 90 -121q45 0 88 14v348 q-25 14 -72 15q-106 0 -106 -107v-149z" />
<glyph unicode="A" horiz-adv-x="1404" d="M6 47l463 1385q12 33 45 32h377q33 0 45 -32l463 -1385q4 -12 4 -20q0 -27 -37 -27h-338q-39 0 -47 35l-55 201h-445l-57 -201q-8 -35 -47 -35h-338q-37 0 -37 27q0 8 4 20zM578 573h251l-122 457h-9z" />
<glyph unicode="B" horiz-adv-x="1339" d="M137 41v1382q0 41 41 41h582q213 0 331.5 -111.5t118.5 -312.5q0 -168 -143 -256q205 -80 205 -317q0 -221 -131 -344t-371 -123h-592q-41 0 -41 41zM537 350h196q59 0 94 34t35 97q0 123 -143 123h-182v-254zM537 909h149q117 0 117 109q0 106 -117 106h-149v-215z" />
<glyph unicode="C" horiz-adv-x="1220" d="M94 535v397q0 264 165 412.5t460 148.5q252 0 438 -125q20 -13 20 -30q0 -12 -10 -25l-157 -244q-12 -20 -31 -20q-12 0 -27 8q-96 57 -219 57q-109 0 -170 -57.5t-61 -147.5v-350q0 -100 59.5 -154.5t163.5 -54.5q137 0 250 70q14 9 26 9q17 0 29 -19l160 -244 q25 -33 2 -49q-203 -145 -473 -146q-303 0 -464 148.5t-161 415.5z" />
<glyph unicode="D" horiz-adv-x="1378" d="M137 41v1382q0 41 41 41h502q604 0 604 -596v-272q0 -141 -33.5 -248.5t-88 -172t-134.5 -105.5t-163 -55.5t-185 -14.5h-502q-41 0 -41 41zM537 375h151q186 0 186 196v324q0 195 -186 195h-151v-715z" />
<glyph unicode="E" horiz-adv-x="1222" d="M137 41v1382q0 41 41 41h889q41 0 41 -41v-276q0 -41 -41 -41h-530v-191h450q41 0 41 -41v-268q0 -41 -41 -41h-450v-207h565q41 0 41 -41v-276q0 -41 -41 -41h-924q-41 0 -41 41z" />
<glyph unicode="F" horiz-adv-x="1175" d="M137 41v1382q0 41 41 41h903q41 0 41 -41v-290q0 -41 -41 -41h-544v-232h458q41 0 41 -41v-274q0 -41 -41 -41h-458v-463q0 -41 -41 -41h-318q-41 0 -41 41z" />
<glyph unicode="G" horiz-adv-x="1347" d="M94 539v395q0 262 162 410.5t455 148.5q276 0 493 -131q20 -13 20 -31q0 -12 -10 -26l-170 -244q-12 -19 -29 -19q-12 0 -26 9q-111 63 -278 63q-102 0 -155.5 -51t-53.5 -143v-367q0 -201 200 -201q94 0 177 35v170h-170q-41 0 -41 41v236q0 40 39 40h2h505q41 0 41 -40 v-603q0 -29 -18 -47q-100 -98 -241.5 -155.5t-293.5 -57.5q-291 0 -449.5 149.5t-158.5 418.5z" />
<glyph unicode="H" horiz-adv-x="1435" d="M137 41v1382q0 41 41 41h318q41 0 41 -41v-499h362v499q0 41 41 41h317q41 0 41 -41v-1382q0 -41 -41 -41h-317q-41 0 -41 41v510h-362v-510q0 -41 -41 -41h-318q-41 0 -41 41z" />
<glyph unicode="I" horiz-adv-x="673" d="M137 41v1382q0 41 41 41h318q41 0 41 -41v-1382q0 -41 -41 -41h-318q-41 0 -41 41z" />
<glyph unicode="J" horiz-adv-x="1110" d="M4 164l154 239q12 22 29 22q13 0 28 -11q94 -66 209 -66q84 0 122 45t38 146v884q0 41 41 41h319q41 0 41 -41v-878q0 -274 -143.5 -424t-403.5 -150q-227 0 -424 138q-20 13 -20 30q0 12 10 25z" />
<glyph unicode="K" horiz-adv-x="1361" d="M137 41v1382q0 41 41 41h318q41 0 41 -41v-450l292 465q16 27 50 26h399q25 0 32 -13t-7 -36l-441 -579l510 -787q14 -20 6 -34.5t-32 -14.5h-381q-33 0 -50 29l-297 491l-81 -94v-385q0 -41 -41 -41h-318q-41 0 -41 41z" />
<glyph unicode="L" horiz-adv-x="1120" d="M137 41v1382q0 41 41 41h318q41 0 41 -41v-1050h520q41 0 41 -41v-291q0 -41 -41 -41h-879q-41 0 -41 41z" />
<glyph unicode="M" horiz-adv-x="1802" d="M137 41v1382q0 41 41 41h350q33 0 47 -30l132 -265q92 -184 190 -436h8q98 252 191 436l131 265q14 31 47 30h350q41 0 41 -41v-1382q0 -41 -41 -41h-311q-41 0 -41 41v149q0 311 22 666l-10 2q-57 -156 -186 -440l-35 -76q-14 -31 -47 -31h-230q-33 0 -47 31l-34 76 q-129 285 -187 440l-10 -2q22 -339 22 -640v-26v-149q0 -41 -41 -41h-311q-41 0 -41 41z" />
<glyph unicode="N" horiz-adv-x="1464" d="M137 41v1382q0 41 41 41h330q33 0 47 -28l164 -312q178 -342 231 -495l8 2q-26 269 -26 521v19v252q0 41 41 41h313q41 0 41 -41v-1382q0 -41 -41 -41h-328q-33 0 -49 29l-161 270q-72 121 -146 283.5t-106 259.5l-9 -2q45 -336 45 -602v-197q1 -41 -40 -41h-314 q-41 0 -41 41z" />
<glyph unicode="O" horiz-adv-x="1413" d="M92 567v334q0 281 162 436.5t452.5 155.5t452.5 -155.5t162 -436.5v-334q0 -281 -162 -438.5t-452.5 -157.5t-452.5 158t-162 438zM502 578q0 -228 204 -228h1q204 0 204 228v313q0 223 -204.5 223t-204.5 -223v-313z" />
<glyph unicode="P" horiz-adv-x="1333" d="M137 41v1382q0 41 41 41h565q240 0 385.5 -146.5t145.5 -388t-146.5 -388t-384.5 -146.5h-206v-354q0 -41 -41 -41h-318q-41 0 -41 41zM537 764h145q182 0 182 166t-182 166h-145v-332z" />
<glyph unicode="Q" horiz-adv-x="1423" d="M92 567v334q0 281 162 436.5t452.5 155.5t452.5 -155.5t162 -436.5v-334q0 -207 -90 -346l147 -151q13 -15 13 -29q0 -16 -15 -31l-211 -190q-16 -14 -30 -14q-16 0 -29 16l-168 180q-102 -31 -231 -31q-291 0 -453 158t-162 438zM502 578q0 -227 204 -228h1 q204 0 204 228v313q0 223 -204.5 223t-204.5 -223v-313z" />
<glyph unicode="R" horiz-adv-x="1339" d="M137 41v1382q0 41 41 41h520q264 0 409.5 -139t145.5 -377q0 -307 -258 -430l287 -469q12 -20 5 -34.5t-32 -14.5h-362q-33 0 -47 29l-221 424h-88v-412q0 -41 -41 -41h-318q-41 0 -41 41zM537 795h141q88 0 126 35.5t38 115.5q0 76 -39 113t-125 37h-141v-301z" />
<glyph unicode="S" horiz-adv-x="1304" d="M78 236l170 243q14 20 30 20q13 0 27 -12q193 -133 369 -133q164 0 164 82q0 76 -205 117q-90 18 -169 48t-166 85t-138 150.5t-51 220.5q0 207 162.5 321.5t416.5 114.5q272 0 510 -154q21 -14 21 -32q0 -12 -9 -25l-161 -244q-15 -20 -34 -20q-12 0 -24 8 q-147 88 -317 88q-158 0 -158 -70q0 -41 42 -63.5t175 -54.5q262 -66 389 -170t127 -307q0 -211 -156.5 -344.5t-451.5 -133.5q-160 0 -289 48.5t-266 158.5q-18 14 -18 31q0 13 10 27z" />
<glyph unicode="T" horiz-adv-x="1214" d="M25 1133v290q0 41 41 41h1083q41 0 41 -41v-290q0 -41 -41 -41h-342v-1051q0 -41 -41 -41h-317q-41 0 -41 41v1051h-342q-41 0 -41 41z" />
<glyph unicode="U" horiz-adv-x="1413" d="M125 561v862q0 41 41 41h321q41 0 41 -41v-870q0 -203 178.5 -203t178.5 203v870q0 41 41 41h321q41 0 41 -41v-862q0 -289 -148.5 -439.5t-433 -150.5t-433 150.5t-148.5 439.5z" />
<glyph unicode="V" horiz-adv-x="1409" d="M4 1417q-4 12 -4 20q0 27 37 27h342q35 0 45 -34l168 -556q49 -164 106 -419h13q57 256 106 419l168 556q10 35 45 34h342q37 0 37 -27q0 -9 -4 -20l-465 -1384q-12 -33 -45 -33h-381q-33 0 -45 33z" />
<glyph unicode="W" horiz-adv-x="2097" d="M8 1419q-6 20 3 32.5t32 12.5h336q39 0 45 -37l61 -284q84 -367 131 -684h11q45 309 137 671l72 279q10 35 45 35h336q35 0 45 -35l71 -279q82 -319 137 -671h11q47 317 131 684l61 284q6 37 45 37h336q23 0 32 -12t3 -33l-389 -1384q-8 -35 -47 -35h-361q-37 0 -47 35 l-84 315q-76 291 -108 592h-9q-33 -301 -108 -592l-84 -315q-10 -35 -47 -35h-361q-39 0 -47 35z" />
<glyph unicode="X" horiz-adv-x="1323" d="M15 14.5q-9 14.5 3 34.5l385 688l-346 678q-10 23 -0.5 36t31.5 13h348q37 0 47 -30l179 -424l178 424q10 31 47 30h348q23 0 32 -13t-1 -36l-346 -678l385 -688q12 -20 2.5 -34.5t-31.5 -14.5h-365q-31 0 -47 31l-202 411l-203 -411q-16 -31 -47 -31h-365 q-23 0 -32 14.5z" />
<glyph unicode="Y" horiz-adv-x="1294" d="M5 1451q9 13 32 13h350q35 0 47 -32l213 -537l213 537q12 33 47 32h350q23 0 32 -13t-1 -36l-440 -909v-465q0 -41 -41 -41h-320q-41 0 -41 41v465l-440 909q-10 23 -1 36z" />
<glyph unicode="Z" horiz-adv-x="1284" d="M66 41v197q0 25 16 51l565 805h-495q-41 0 -41 41v288q0 41 41 41h999q41 0 41 -41v-188q0 -25 -16 -51l-555 -811h548q41 0 41 -41v-291q0 -41 -41 -41h-1063q-41 0 -40 41z" />
<glyph unicode="[" horiz-adv-x="675" d="M121 -197v1852q0 41 41 41h418q41 0 41 -41v-209q0 -41 -41 -41h-131v-1352h131q41 0 41 -41v-209q0 -41 -41 -41h-418q-41 0 -41 41z" />
<glyph unicode="\" horiz-adv-x="1036" d="M49 1417q-20 47 31 47h280q37 0 48 -30l577 -1387q20 -47 -31 -47h-284q-37 0 -47 31z" />
<glyph unicode="]" horiz-adv-x="675" d="M55 12q0 41 41 41h131v1352h-131q-41 0 -41 41v209q0 41 41 41h418q41 0 41 -41v-1852q0 -41 -41 -41h-418q-41 0 -41 41v209z" />
<glyph unicode="^" horiz-adv-x="1331" d="M88 1121.5q-8 13.5 6 35.5l381 502q18 25 49 24h283q31 0 49 -24l379 -502q14 -23 7 -36t-32 -13h-278q-29 0 -49 27l-217 305l-217 -305q-21 -27 -50 -27h-278q-25 0 -33 13.5z" />
<glyph unicode="_" horiz-adv-x="1110" d="M41 -70q0 41 41 41h946q41 0 41 -41v-215q0 -41 -41 -41h-946q-41 0 -41 41v215z" />
<glyph unicode="`" horiz-adv-x="526" d="M-39 1540.5q6 15.5 33 15.5h274q31 0 49 -26l172 -264q14 -20 6.5 -34.5t-32.5 -14.5h-213q-31 0 -51 22l-228 266q-16 20 -10 35.5z" />
<glyph unicode="a" horiz-adv-x="1093" d="M37 334q0 311 444 311q80 0 146 -10v4q0 66 -31 100.5t-113 34.5q-137 0 -231 -47q-14 -7 -25 -7q-19 0 -30 21l-95 199q-20 35 0 49q182 109 437 109q467 0 467 -494v-532q0 -37 -35 -45q-188 -55 -430 -56q-504 0 -504 363zM422 348q0 -84 117 -84q43 0 88 8v140 q-47 10 -90 10q-115 0 -115 -74z" />
<glyph unicode="b" d="M98 94v1329q0 41 41 41h297q41 0 41 -41v-350q70 25 164 25q199 0 317.5 -126t118.5 -341v-182q0 -211 -137 -344.5t-360 -133.5q-244 0 -449 76q-33 12 -33 47zM477 324q45 -17 96 -17q119 0 119 131v203q0 131 -117 131q-53 0 -98 -16v-432z" />
<glyph unicode="c" horiz-adv-x="974" d="M70 449v184q0 217 131 341t374 124q182 0 338 -92q21 -14 21 -33q0 -12 -8 -25l-133 -200q-12 -20 -33 -20q-11 0 -25 5q-66 33 -141 33q-63 0 -101 -35t-38 -98v-184q0 -74 38.5 -110t100.5 -36q82 0 156 45q13 8 25 8q18 0 32 -20l133 -201q23 -32 -6 -55 q-154 -109 -359 -109q-244 0 -374.5 126t-130.5 352z" />
<glyph unicode="d" d="M70 449v182q0 215 118.5 341t317.5 126q94 0 164 -25v350q0 41 41 41h297q41 0 41 -41v-1329q0 -35 -33 -47q-205 -76 -449 -76q-223 0 -360 133.5t-137 344.5zM455 438q0 -131 118 -131q51 0 97 17v432q-45 16 -99 16q-117 0 -116 -131v-203z" />
<glyph unicode="e" horiz-adv-x="1097" d="M72 422v229q0 223 133 335t360 112q219 0 344 -110t125 -337v-188q0 -41 -41 -41h-540v-10q0 -131 139 -131q131 0 233 57q33 20 56 -10l123 -168q10 -14 10 -27q0 -17 -17 -31q-170 -131 -419 -131q-227 0 -366.5 118t-139.5 333zM453 641h219v33q0 123 -111 123 q-109 0 -108 -123v-33z" />
<glyph unicode="f" horiz-adv-x="710" d="M100 41v1036q0 201 109.5 308.5t308.5 107.5q78 0 144 -10q35 -6 34 -45v-234q0 -20 -8 -30.5t-22 -8.5q-45 4 -78 4q-109 0 -109 -114v-23h154q41 0 41 -41v-235q0 -41 -41 -41h-154v-674q0 -41 -41 -41h-297q-41 0 -41 41z" />
<glyph unicode="g" horiz-adv-x="1142" d="M68 473v150q0 229 138 352t365 123q225 0 441 -82q33 -12 32 -47v-838q0 -291 -121.5 -420t-394.5 -129q-250 0 -409 99q-21 16 -21 34q0 11 8 23l127 201q13 21 32 21q11 0 24 -7q102 -49 217 -49q84 0 125 31.5t41 107.5q-70 -18 -158 -18q-209 0 -327.5 121.5 t-118.5 326.5zM451 467q0 -125 120 -125q61 0 95 23v383q-33 16 -95 16q-121 0 -120 -129v-168z" />
<glyph unicode="h" horiz-adv-x="1163" d="M100 41v1382q0 41 41 41h297q41 0 41 -41v-352q72 27 193 27q190 0 296.5 -130t106.5 -350v-577q0 -41 -41 -41h-299q-41 0 -41 41v584q0 72 -27.5 106.5t-95.5 34.5q-47 0 -92 -16v-709q0 -41 -41 -41h-297q-41 0 -41 41z" />
<glyph unicode="i" horiz-adv-x="579" d="M82 1397q0 90 57.5 147.5t151.5 57.5q90 0 147.5 -57.5t57.5 -147.5q0 -88 -57.5 -146.5t-147.5 -58.5q-92 0 -150.5 58.5t-58.5 146.5zM100 41v987q0 41 41 41h297q41 0 41 -41v-987q0 -41 -41 -41h-297q-41 0 -41 41z" />
<glyph unicode="j" horiz-adv-x="595" d="M-76 -113q0 39 36 39h7q14 -2 43 -2q106 0 107 119v985q0 41 41 41h297q41 0 41 -41v-1046q0 -188 -107.5 -294t-300.5 -106q-68 0 -129 12q-35 8 -35 46v247zM100 1397q0 90 57.5 147.5t151.5 57.5q90 0 147.5 -57.5t57.5 -147.5q0 -88 -57.5 -146.5t-147.5 -58.5 q-92 0 -150.5 58.5t-58.5 146.5z" />
<glyph unicode="k" horiz-adv-x="1107" d="M100 41v1382q0 41 41 41h291q41 0 41 -41v-675l176 292q16 29 49 29h344q27 0 34 -14.5t-9 -34.5l-305 -393l350 -578q12 -20 5 -34.5t-32 -14.5h-350q-35 0 -49 29l-168 321l-45 -47v-262q0 -41 -41 -41h-291q-41 0 -41 41z" />
<glyph unicode="l" horiz-adv-x="688" d="M92 371v1052q0 41 41 41h297q41 0 41 -41v-987q0 -119 107 -119q37 0 53 2h7q36 0 36 -38v-250q-1 -37 -19 -43q-74 -16 -155 -17q-193 0 -300.5 105.5t-107.5 294.5z" />
<glyph unicode="m" horiz-adv-x="1681" d="M98 41v926q0 33 31 49q205 82 424 82q141 0 262 -80q178 80 307 80q215 0 343 -122t128 -337v-598q0 -41 -41 -41h-290q-41 0 -41 41v608q0 115 -113 115q-47 0 -90 -16q14 -49 14 -105v-602q0 -41 -41 -41h-291q-41 0 -41 41v608q0 115 -102 115q-49 0 -86 -14v-709 q0 -41 -41 -41h-291q-41 0 -41 41z" />
<glyph unicode="n" horiz-adv-x="1161" d="M98 41v926q0 35 31 47q211 84 446 84q246 0 372 -130t126 -358v-569q0 -41 -41 -41h-299q-41 0 -41 41v575q0 82 -28.5 115t-88.5 33q-57 0 -98 -12v-711q0 -41 -41 -41h-297q-41 0 -41 41z" />
<glyph unicode="o" d="M72 424v219q0 215 132 335t369.5 120t369.5 -120t132 -335v-219q0 -215 -132 -334t-369.5 -119t-369.5 119t-132 334zM457 424q0 -119 116.5 -119t116.5 119v219q0 121 -116.5 121t-116.5 -121v-219z" />
<glyph unicode="p" d="M98 -348v1323q0 37 29 45q213 78 453 78q223 0 360 -133.5t137 -343.5v-183q0 -215 -118.5 -341t-317.5 -126q-94 0 -164 25v-344q0 -41 -41 -41h-297q-41 0 -41 41zM477 313q45 -16 98 -16q117 0 117 131v203q0 131 -119 131q-51 0 -96 -17v-432z" />
<glyph unicode="q" d="M70 438v183q0 211 137 344t360 133q244 0 449 -76q33 -12 33 -47v-1323q0 -41 -41 -41h-297q-41 0 -41 41v344q-70 -25 -164 -25q-199 0 -317.5 126t-118.5 341zM455 428q0 -131 116 -131q53 0 99 16v432q-45 16 -97 17q-119 0 -118 -131v-203z" />
<glyph unicode="r" horiz-adv-x="776" d="M98 41v920q0 33 29 49q176 88 395 88q72 0 189 -21q37 -8 37 -45v-227q0 -38 -33 -38q-5 0 -10 1q-45 6 -95 6q-80 0 -133 -22v-711q0 -41 -41 -41h-297q-41 0 -41 41z" />
<glyph unicode="s" horiz-adv-x="1038" d="M53 164l115 192q13 23 31 23q11 0 24 -8q131 -82 277 -82q106 0 106 51q0 39 -108 55q-416 63 -416 353q0 168 120 259t349 91q195 0 377 -92q23 -11 23 -31q0 -12 -9 -27l-117 -186q-13 -21 -31 -21q-11 0 -24 7q-102 51 -221 51q-90 0 -90 -45q0 -25 26.5 -37 t116.5 -27q190 -31 288.5 -118t98.5 -226q0 -375 -489 -375q-238 0 -434 135q-21 12 -21 32q0 12 8 26z" />
<glyph unicode="t" horiz-adv-x="737" d="M92 377v905q0 41 41 41h264q41 0 43 -39l27 -246h156q41 0 41 -41v-235q0 -41 -41 -41h-152v-285q0 -131 115 -131q18 0 51 4q6 1 11 1q34 0 34 -36v-239q0 -39 -33 -47q-55 -16 -143 -17q-195 0 -304.5 106.5t-109.5 299.5z" />
<glyph unicode="u" horiz-adv-x="1150" d="M88 459v569q0 41 41 41h299q41 0 41 -41v-575q0 -82 27.5 -115t85.5 -33q59 0 92 14v709q0 41 41 41h297q41 0 41 -41v-926q0 -35 -31 -47q-209 -84 -440 -84q-246 0 -370 130t-124 358z" />
<glyph unicode="v" horiz-adv-x="1128" d="M12 1022q-4 12 -4 20q0 27 37 27h317q35 0 46 -35l90 -387q4 -16 16 -67.5t24.5 -103.5t20.5 -93h8q35 156 64 264l94 387q10 35 45 35h317q37 0 37 -27q0 -9 -4 -20l-338 -989q-12 -33 -47 -33h-346q-33 0 -45 33z" />
<glyph unicode="w" horiz-adv-x="1601" d="M14 1024q-6 20 3.5 32.5t31.5 12.5h299q37 0 43 -37l55 -340q27 -193 41 -309h9q23 199 47 317l61 318q6 37 43 37h307q37 0 43 -37l62 -318q25 -119 47 -317h8q14 117 41 309l55 340q6 37 43 37h299q23 0 32 -12.5t3 -32.5l-260 -989q-10 -35 -45 -35h-319q-39 0 -45 37 l-72 334q-4 20 -13.5 69t-16.5 89t-13 65h-4q-6 -25 -13.5 -65t-16.5 -89t-13 -69l-72 -334q-6 -37 -45 -37h-320q-35 0 -45 35z" />
<glyph unicode="x" horiz-adv-x="1093" d="M26 14.5q-8 14.5 3 34.5l268 490l-252 481q-10 20 -2 34.5t31 14.5h334q35 0 47 -33l92 -268l92 268q12 33 47 33h338q23 0 31 -14.5t-2 -34.5l-256 -481l268 -490q10 -20 2 -34.5t-31 -14.5h-342q-37 0 -47 31l-102 245l-99 -243q-12 -33 -47 -33h-342q-23 0 -31 14.5z " />
<glyph unicode="y" horiz-adv-x="1153" d="M90 479v549q0 41 41 41h297q41 0 41 -41v-547q0 -70 25.5 -104.5t87.5 -34.5q55 0 92 18v668q0 41 41 41h297q41 0 41 -41v-897q0 -291 -122 -420t-392 -129q-254 0 -412 99q-23 14 -23 33q0 11 9 24l127 201q13 21 31 21q11 0 24 -7q102 -49 221 -49q82 0 123 31.5 t41 107.5q-74 -18 -156 -18q-207 0 -320.5 122.5t-113.5 331.5z" />
<glyph unicode="z" horiz-adv-x="1044" d="M59 41v166q0 27 19 51l375 479h-322q-41 0 -41 41v250q0 41 41 41h793q41 0 41 -41v-158q0 -29 -17 -51l-362 -487h352q41 0 41 -41v-250q0 -41 -41 -41h-838q-41 0 -41 41z" />
<glyph unicode="{" horiz-adv-x="739" d="M49 645v168q0 33 39 43q109 27 109 197v305q0 174 76.5 256t240.5 82h127q41 0 41 -41v-217q0 -41 -41 -41h-33q-84 0 -84 -92v-291q0 -98 -51 -178t-125 -107q74 -27 125 -106.5t51 -178.5v-290q0 -92 84 -93h33q41 0 41 -41v-217q0 -41 -41 -41h-127q-164 0 -240.5 82 t-76.5 256v306q0 170 -109 196q-39 10 -39 43z" />
<glyph unicode="|" horiz-adv-x="589" d="M121 -244v1966q0 41 41 41h266q41 0 41 -41v-1966q0 -41 -41 -41h-266q-41 0 -41 41z" />
<glyph unicode="}" horiz-adv-x="739" d="M57 20q0 41 41 41h33q84 0 84 93v290q0 98 51 178t125 107q-74 27 -125 106.5t-51 178.5v291q0 92 -84 92h-33q-41 0 -41 41v217q0 41 41 41h127q164 0 241 -82t77 -256v-305q0 -170 108 -197q39 -10 39 -43v-168q0 -33 -39 -43q-109 -27 -108 -196v-306q0 -174 -77 -256 t-241 -82h-127q-41 0 -41 41v217z" />
<glyph unicode="~" horiz-adv-x="1331" d="M127 723q111 162 313 162q92 0 224 -56q111 -47 170 -47q76 0 124 47q33 29 58 5l176 -162q29 -29 4 -64q-113 -156 -299 -155q-96 0 -223 55q-111 47 -168 47q-80 0 -135 -49q-31 -29 -58 -2l-178 162q-27 25 -8 57z" />
<glyph unicode="&#xa2;" horiz-adv-x="1030" d="M88 449v184q0 168 80 281.5t231 158.5v146q0 41 41 41h205q41 0 41 -41v-127q125 -18 242 -86q35 -23 12 -58l-133 -200q-18 -31 -57 -15q-66 33 -138 33q-63 0 -101 -35t-38 -98v-184q0 -74 38 -109t101 -35q86 0 160 45q34 23 57 -12l134 -201q23 -33 -9 -57 q-119 -86 -268 -100v-144q0 -41 -41 -41h-205q-41 0 -41 41v162q-152 45 -231.5 160.5t-79.5 290.5z" />
<glyph unicode="&#xa3;" horiz-adv-x="1183" d="M82 41v233q0 33 39 43q117 27 112 205v76h-110q-41 0 -41 41v231q0 41 41 41h110v133q0 215 120 332t347 117q231 0 392 -109q33 -23 8 -57l-133 -184q-20 -29 -58 -13q-94 45 -184 46q-145 0 -145 -150v-115h258q41 0 41 -41v-231q0 -41 -41 -41h-260v-76 q0 -147 -86 -209h581q41 0 41 -41v-231q0 -41 -41 -41h-950q-41 0 -41 41z" />
<glyph unicode="&#xa5;" horiz-adv-x="1329" d="M54 1451q9 13 32 13h330q35 0 47 -32l201 -502l200 502q12 32 47 32h332q23 0 32 -13t-1 -36l-320 -645h131q41 0 41 -41v-172q0 -41 -41 -41h-231v-74h231q41 0 41 -41v-159q0 -41 -41 -41h-231v-160q0 -41 -41 -41h-297q-41 0 -41 41v160h-239q-41 0 -41 41v159 q0 41 41 41h239v74h-239q-41 0 -41 41v172q0 41 41 41h139l-320 645q-10 23 -1 36z" />
<glyph unicode="&#xa8;" horiz-adv-x="602" d="M0 1384.5q0 81.5 49 129t127 47.5t125 -46.5t47 -128t-47 -128t-125 -46.5t-127 45.5t-49 127zM477 1386.5q0 81.5 48 128t128 46.5q78 0 125 -46.5t47 -128t-47 -128t-125 -46.5t-127 46.5t-49 128z" />
<glyph unicode="&#xa9;" horiz-adv-x="1622" d="M76 733q0 348 211 554t526 206q313 0 523 -206t210 -554q0 -352 -210 -557t-523 -205q-315 0 -526 205t-211 557zM262 733.5q0 -274.5 155.5 -427t395.5 -152.5q238 0 392.5 152.5t154.5 427t-154.5 425t-392.5 150.5q-240 0 -395.5 -150.5t-155.5 -425zM457 662v133 q0 176 108.5 264t268.5 88q141 0 256 -74q33 -23 10 -57l-99 -139q-18 -31 -57 -15q-49 25 -104 25q-90 0 -90 -99v-112q0 -102 94 -103q55 0 108 33q35 25 58 -6l104 -145q23 -34 -2 -54q-109 -90 -278 -90q-162 0 -269.5 87t-107.5 264z" />
<glyph unicode="&#xab;" horiz-adv-x="1220" d="M59 567q-16 29 0 58l267 395q18 27 49 27h272q25 0 32 -13.5t-7 -36.5l-273 -401l273 -401q14 -23 7 -36.5t-32 -13.5h-272q-31 0 -49 27zM543 567q-16 29 0 58l266 395q18 27 49 27h272q25 0 32 -13.5t-7 -36.5l-272 -401l272 -401q14 -23 7 -36.5t-32 -13.5h-272 q-31 0 -49 27z" />
<glyph unicode="&#xad;" horiz-adv-x="819" d="M104 492v245q0 41 41 41h529q41 0 41 -41v-245q0 -41 -41 -41h-529q-41 0 -41 41z" />
<glyph unicode="&#xae;" horiz-adv-x="991" d="M70 1067q0 195 121.5 310.5t304 115.5t304.5 -115.5t122 -310.5q0 -197 -122 -311.5t-304.5 -114.5t-304 114.5t-121.5 311.5zM174 1067q0 -154 91 -239t233 -85q137 0 228 85t91 239t-90 239t-229 85q-141 0 -232.5 -85t-91.5 -239zM340 893v358q0 31 27 31h147 q74 0 119 -35t45 -104q0 -106 -96 -127l92 -119q14 -20 9 -28.5t-30 -8.5h-55q-20 0 -37 25l-86 119h-35v-111q0 -20 -3 -26.5t-19 -6.5h-53q-25 0 -25 33zM440 1090h68q66 0 65 53q0 49 -65 49h-68v-102z" />
<glyph unicode="&#xb4;" horiz-adv-x="583" d="M26 1231q-8 14 7 35l172 264q18 27 49 26h274q27 0 33 -15t-10 -36l-227 -266q-21 -22 -52 -22h-213q-25 0 -33 14z" />
<glyph unicode="&#xb8;" horiz-adv-x="380" d="M0 -309q0 41 45 30q29 -4 47 -4q98 0 98 52q0 47 -94 55q-25 2 -27.5 11t5.5 28l43 114q12 33 47 33h82q51 0 30 -47l-22 -55q180 -12 180 -162q0 -88 -76.5 -135t-216.5 -47q-57 0 -108 14q-33 8 -33 47v66z" />
<glyph unicode="&#xbb;" horiz-adv-x="1220" d="M60 158.5q-7 13.5 8 36.5l272 401l-272 401q-14 23 -7 36.5t31 13.5h273q31 0 49 -27l266 -395q16 -29 0 -58l-266 -395q-18 -27 -49 -27h-273q-25 0 -32 13.5zM543.5 158.5q-6.5 13.5 7.5 36.5l272 401l-272 401q-14 23 -7 36.5t31 13.5h273q31 0 49 -27l266 -395 q16 -29 0 -58l-266 -395q-18 -27 -49 -27h-273q-25 0 -31.5 13.5z" />
<glyph unicode="&#x2c6;" horiz-adv-x="718" d="M43 1232q-6 15 10 36l230 266q20 23 51 22h180q31 0 51 -22l226 -266q16 -20 10 -35.5t-33 -15.5h-211q-31 0 -49 24l-84 111l-88 -111q-18 -24 -49 -24h-211q-27 0 -33 15z" />
<glyph unicode="&#x2da;" horiz-adv-x="491" d="M-14 1468q0 119 76.5 193t201.5 74t201 -74t76 -193q0 -121 -76 -194.5t-201 -73.5t-201.5 74t-76.5 194zM174 1468q0 -39 25.5 -64.5t64.5 -25.5q43 0 65.5 24.5t22.5 65.5q0 88 -88 88q-41 0 -65.5 -22.5t-24.5 -65.5z" />
<glyph unicode="&#x2dc;" horiz-adv-x="733" d="M12 1348q31 84 93.5 151.5t146.5 67.5q53 0 172 -58q86 -45 115 -45q35 0 69 62q25 33 56 16l151 -78q33 -18 25 -45q-33 -88 -95.5 -157.5t-146.5 -69.5q-49 0 -172 59q-82 43 -109 43q-39 0 -77 -61q-23 -35 -56 -16l-151 77q-35 20 -21 54z" />
<glyph unicode="&#x401;" horiz-adv-x="1222" d="M137 41v1382q0 41 41 41h889q41 0 41 -41v-276q0 -41 -41 -41h-530v-191h450q41 0 41 -41v-268q0 -41 -41 -41h-450v-207h565q41 0 41 -41v-276q0 -41 -41 -41h-924q-41 0 -41 41zM205 1753q0 76 50 126t128 50t128 -50t50 -126t-50 -126t-128 -50t-128 50t-50 126z M672 1753q0 78 50 127t130 49q78 0 129 -50t51 -126t-51 -126t-129 -50q-80 0 -130 49t-50 127z" />
<glyph unicode="&#x402;" horiz-adv-x="1470" d="M23 1147v276q0 41 40 41h1084q41 0 41 -41v-276q0 -41 -41 -41h-352v-139q80 29 202 28q195 0 303.5 -130t108.5 -349v-145q0 -188 -110.5 -294t-307.5 -106q-49 0 -90 11q-33 8 -33 47v247q0 20 6.5 30.5t18.5 8.5q8 -2 27 -2q100 0 100 119v90q0 72 -27.5 107t-95.5 35 q-57 0 -102 -21v-602q0 -41 -41 -41h-308q-41 0 -40 41v1065h-343q-41 0 -40 41z" />
<glyph unicode="&#x403;" horiz-adv-x="1075" d="M137 41v1382q0 41 41 41h834q41 0 41 -41v-290q0 -41 -41 -41h-475v-1051q0 -41 -41 -41h-318q-41 0 -41 41zM349 1597.5q-7 14.5 7 34.5l203 266q18 25 49 25h301q27 0 33 -15.5t-12 -35.5l-258 -268q-18 -20 -51 -21h-240q-25 0 -32 14.5z" />
<glyph unicode="&#x404;" horiz-adv-x="1232" d="M94 535v397q0 264 161 412.5t456 148.5q248 0 434 -125q35 -23 10 -55l-158 -244q-20 -33 -57 -12q-96 57 -215 57q-109 0 -166 -56.5t-57 -148.5v-14h325q41 0 41 -41v-236q0 -41 -41 -40h-325v-19q0 -100 59.5 -154.5t163.5 -54.5q137 0 250 70q35 23 55 -10l160 -244 q25 -33 2 -49q-203 -145 -473 -146q-303 0 -464 148.5t-161 415.5z" />
<glyph unicode="&#x405;" horiz-adv-x="1304" d="M78 236l170 243q25 35 57 8q193 -133 369 -133q164 0 164 82q0 76 -205 117q-90 18 -169 48t-166 85t-138 150.5t-51 220.5q0 207 162.5 321.5t416.5 114.5q272 0 510 -154q35 -23 12 -57l-161 -244q-25 -33 -58 -12q-147 88 -317 88q-158 0 -158 -70q0 -41 42 -63.5 t175 -54.5q262 -66 389 -170t127 -307q0 -211 -156.5 -344.5t-451.5 -133.5q-160 0 -289 48.5t-266 158.5q-31 25 -8 58z" />
<glyph unicode="&#x406;" horiz-adv-x="673" d="M137 41v1382q0 41 41 41h318q41 0 41 -41v-1382q0 -41 -41 -41h-318q-41 0 -41 41z" />
<glyph unicode="&#x407;" horiz-adv-x="673" d="M-49 1732.5q0 73.5 48 121t120 47.5q74 0 122 -47.5t48 -121t-48 -120.5t-122 -47q-72 0 -120 47t-48 120.5zM137 41v1382q0 41 41 41h318q41 0 41 -41v-1382q0 -41 -41 -41h-318q-41 0 -41 41zM383 1732.5q0 73.5 47 121t125 47.5q74 0 122 -47.5t48 -121t-48 -120.5 t-122 -47q-78 0 -125 47t-47 120.5z" />
<glyph unicode="&#x408;" horiz-adv-x="1110" d="M4 164l154 239q20 37 57 11q94 -66 209 -66q84 0 122 45t38 146v884q0 41 41 41h319q41 0 41 -41v-878q0 -274 -143.5 -424t-403.5 -150q-227 0 -424 138q-35 23 -10 55z" />
<glyph unicode="&#x409;" horiz-adv-x="2097" d="M27 41v289q0 37 39 41q123 14 176 170q68 193 110 880q4 43 41 43h920q41 0 41 -41v-465h196q238 0 373 -123.5t135 -345.5q0 -229 -129 -359t-358 -130h-570q-41 0 -40 41v1049h-234q-29 -581 -154 -814q-74 -139 -196.5 -204.5t-308.5 -71.5q-41 0 -41 41zM1354 373 h180q117 0 117 106q0 111 -117 111h-180v-217z" />
<glyph unicode="&#x40a;" horiz-adv-x="2037" d="M137 41v1382q0 41 41 41h318q41 0 41 -41v-483h350v483q0 41 41 41h317q41 0 41 -41v-475h189q248 0 386 -117.5t138 -330.5q0 -236 -132 -368t-372 -132h-567q-41 0 -41 41v516h-350v-516q0 -41 -41 -41h-318q-41 0 -41 41zM1286 365h187q119 0 118 118q0 100 -118 101 h-187v-219z" />
<glyph unicode="&#x40b;" horiz-adv-x="1474" d="M23 1147v276q0 41 40 41h1084q41 0 41 -41v-276q0 -41 -41 -41h-352v-137q72 27 192 26q195 0 303.5 -130t108.5 -349v-475q0 -41 -41 -41h-307q-41 0 -41 41v481q0 72 -28 107t-95 35q-47 0 -92 -17v-606q0 -41 -41 -41h-308q-41 0 -40 41v1065h-343q-41 0 -40 41z" />
<glyph unicode="&#x40c;" horiz-adv-x="1361" d="M137 41v1382q0 41 41 41h318q41 0 41 -41v-450l292 465q16 27 50 26h399q25 0 32 -13t-7 -36l-441 -579l510 -787q14 -20 6 -34.5t-32 -14.5h-381q-33 0 -50 29l-297 491l-81 -94v-385q0 -41 -41 -41h-318q-41 0 -41 41zM511 1597.5q-7 14.5 7 34.5l203 266q18 25 49 25 h301q27 0 33 -15.5t-12 -35.5l-258 -268q-18 -20 -52 -21h-239q-25 0 -32 14.5z" />
<glyph unicode="&#x40e;" horiz-adv-x="1261" d="M2 1417q-20 47 31 47h348q35 0 47 -32l205 -531l188 531q12 33 47 32h346q49 0 33 -47l-555 -1384q-12 -33 -47 -33h-348q-51 0 -31 47l176 416zM238 1823q-8 37 32 47l201 45q33 8 49 -29q29 -53 104.5 -53t104.5 53q16 37 49 29l201 -45q41 -10 35 -41 q-25 -125 -129.5 -199t-260 -74t-258 73t-128.5 194z" />
<glyph unicode="&#x40f;" horiz-adv-x="1435" d="M137 41v1382q0 41 41 41h318q41 0 41 -41v-1050h362v1050q0 41 41 41h317q41 0 41 -41v-1382q0 -41 -41 -41h-350v-227q0 -41 -41 -41h-297q-41 0 -41 41v227h-350q-41 0 -41 41z" />
<glyph unicode="&#x410;" horiz-adv-x="1404" d="M6 47l463 1385q12 33 45 32h377q33 0 45 -32l463 -1385q16 -47 -33 -47h-338q-39 0 -47 35l-55 201h-445l-57 -201q-8 -35 -47 -35h-338q-49 0 -33 47zM578 573h251l-122 457h-9z" />
<glyph unicode="&#x411;" horiz-adv-x="1337" d="M137 41v1382q0 41 41 41h950q41 0 41 -41v-262q0 -41 -41 -41h-591v-190h206q537 0 537 -453q0 -477 -526 -477h-576q-41 0 -41 41zM537 352h221q113 0 112 131q0 119 -112 119h-221v-250z" />
<glyph unicode="&#x412;" horiz-adv-x="1339" d="M137 41v1382q0 41 41 41h582q213 0 331.5 -111.5t118.5 -312.5q0 -168 -143 -256q205 -80 205 -317q0 -221 -131 -344t-371 -123h-592q-41 0 -41 41zM537 350h196q59 0 94 34t35 97q0 123 -143 123h-182v-254zM537 909h149q117 0 117 109q0 106 -117 106h-149v-215z" />
<glyph unicode="&#x413;" horiz-adv-x="1075" d="M137 41v1382q0 41 41 41h834q41 0 41 -41v-290q0 -41 -41 -41h-475v-1051q0 -41 -41 -41h-318q-41 0 -41 41z" />
<glyph unicode="&#x414;" horiz-adv-x="1564" d="M27 -227v555q0 41 41 41h55q94 59 146.5 285.5t82.5 766.5q4 43 41 43h918q41 0 41 -41v-1052h92q41 0 41 -41v-557q0 -41 -41 -41h-311q-41 0 -41 41v227h-672v-227q0 -41 -41 -41h-311q-41 0 -41 41zM567 369h385v725h-225q-35 -592 -160 -725z" />
<glyph unicode="&#x415;" horiz-adv-x="1222" d="M137 41v1382q0 41 41 41h889q41 0 41 -41v-276q0 -41 -41 -41h-530v-191h450q41 0 41 -41v-268q0 -41 -41 -41h-450v-207h565q41 0 41 -41v-276q0 -41 -41 -41h-924q-41 0 -41 41z" />
<glyph unicode="&#x416;" horiz-adv-x="1961" d="M-3 14.5q-7 14.5 5 34.5l475 774l-416 592q-14 20 -6 34.5t33 14.5h375q35 0 49 -28l119 -211q90 -156 155 -285v483q0 41 41 41h308q41 0 41 -41v-483q66 129 155 285l119 211q14 29 49 28h375q25 0 33 -14t-6 -35l-416 -592l475 -774q12 -20 5 -34.5t-32 -14.5h-374 q-33 0 -50 29l-268 495l-65 -92v-391q0 -41 -41 -41h-308q-41 0 -41 41v391l-65 92l-268 -495q-16 -29 -50 -29h-374q-25 0 -32 14.5z" />
<glyph unicode="&#x417;" horiz-adv-x="1280" d="M37 219l151 219q23 35 58 11q166 -117 350 -117q92 0 143.5 39t51.5 96q0 70 -52.5 97.5t-177.5 27.5h-131q-41 0 -41 41v223q0 41 41 41h113q211 0 211 125q0 123 -170 123q-172 0 -303 -86q-35 -23 -56 12l-141 203q-20 33 6 57q199 162 500 162q272 0 420.5 -124 t148.5 -304q0 -92 -45 -169t-110 -118q201 -100 200 -336q0 -229 -169 -350t-431 -121q-334 0 -561 193q-27 23 -6 55z" />
<glyph unicode="&#x418;" horiz-adv-x="1464" d="M137 41v1382q0 41 41 41h314q41 0 40 -41v-252q0 -262 -26 -540l8 -2q53 154 231 495l164 312q14 29 47 28h330q41 0 41 -41v-1382q0 -41 -41 -41h-313q-41 0 -41 41v197q0 266 45 602l-8 2q-33 -96 -107 -259t-145 -284l-162 -270q-16 -29 -49 -29h-328q-41 0 -41 41z " />
<glyph unicode="&#x419;" horiz-adv-x="1464" d="M137 41q0 -41 41 -41h328q33 0 49 29l162 270q72 121 145.5 283.5t106.5 259.5l8 -2q-45 -336 -45 -602v-197q0 -41 41 -41h313q41 0 41 41v1382q0 41 -41 41h-330q-33 0 -47 -28l-164 -312q-178 -342 -231 -495l-8 2q27 279 26 540v252q0 41 -40 41h-314q-41 0 -41 -41 v-1382zM352 1843q-8 37 33 47l201 45q33 8 49 -28q29 -53 104.5 -53.5t104.5 53.5q16 37 49 28l201 -45q40 -10 34 -41q-25 -125 -129 -198.5t-260 -73.5q-154 0 -257 72.5t-130 193.5z" />
<glyph unicode="&#x41a;" horiz-adv-x="1361" d="M137 41v1382q0 41 41 41h318q41 0 41 -41v-450l292 465q16 27 50 26h399q25 0 32 -13t-7 -36l-441 -579l510 -787q14 -20 6 -34.5t-32 -14.5h-381q-33 0 -50 29l-297 491l-81 -94v-385q0 -41 -41 -41h-318q-41 0 -41 41z" />
<glyph unicode="&#x41b;" horiz-adv-x="1490" d="M29 27v292q0 37 39 41q70 10 111.5 56.5t68.5 144.5q59 236 84 862q4 41 43 41h938q41 0 41 -41v-1382q0 -41 -41 -41h-318q-41 0 -41 41v1051h-239q-24 -430 -94 -682q-68 -223 -200 -319.5t-351 -104.5q-41 0 -41 41z" />
<glyph unicode="&#x41c;" horiz-adv-x="1802" d="M137 41v1382q0 41 41 41h350q33 0 47 -30l132 -265q92 -184 190 -436h8q98 252 191 436l131 265q14 31 47 30h350q41 0 41 -41v-1382q0 -41 -41 -41h-311q-41 0 -41 41v149q0 311 22 666l-10 2q-57 -156 -186 -440l-35 -76q-14 -31 -47 -31h-230q-33 0 -47 31l-34 76 q-129 285 -187 440l-10 -2q23 -354 22 -666v-149q0 -41 -41 -41h-311q-41 0 -41 41z" />
<glyph unicode="&#x41d;" horiz-adv-x="1435" d="M137 41v1382q0 41 41 41h318q41 0 41 -41v-499h362v499q0 41 41 41h317q41 0 41 -41v-1382q0 -41 -41 -41h-317q-41 0 -41 41v510h-362v-510q0 -41 -41 -41h-318q-41 0 -41 41z" />
<glyph unicode="&#x41e;" horiz-adv-x="1413" d="M92 567v334q0 281 162 436.5t452.5 155.5t452.5 -155.5t162 -436.5v-334q0 -281 -162 -438.5t-452.5 -157.5t-452.5 158t-162 438zM502 578q0 -227 204.5 -227.5t204.5 227.5v313q0 223 -204.5 223t-204.5 -223v-313z" />
<glyph unicode="&#x41f;" horiz-adv-x="1435" d="M137 41v1382q0 41 41 41h1079q41 0 41 -41v-1382q0 -41 -41 -41h-317q-41 0 -41 41v1051h-362v-1051q0 -41 -41 -41h-318q-41 0 -41 41z" />
<glyph unicode="&#x420;" horiz-adv-x="1333" d="M137 41v1382q0 41 41 41h565q240 0 385.5 -146.5t145.5 -388t-146.5 -388t-384.5 -146.5h-206v-354q0 -41 -41 -41h-318q-41 0 -41 41zM537 764h145q182 0 182 166t-182 166h-145v-332z" />
<glyph unicode="&#x421;" horiz-adv-x="1220" d="M94 535v397q0 264 165 412.5t460 148.5q252 0 438 -125q35 -23 10 -55l-157 -244q-20 -33 -58 -12q-96 57 -219 57q-109 0 -170 -57.5t-61 -147.5v-350q0 -100 59.5 -154.5t163.5 -54.5q137 0 250 70q35 23 55 -10l160 -244q25 -33 2 -49q-203 -145 -473 -146 q-303 0 -464 148.5t-161 415.5z" />
<glyph unicode="&#x422;" horiz-adv-x="1214" d="M25 1133v290q0 41 41 41h1083q41 0 41 -41v-290q0 -41 -41 -41h-342v-1051q0 -41 -41 -41h-317q-41 0 -41 41v1051h-342q-41 0 -41 41z" />
<glyph unicode="&#x423;" horiz-adv-x="1261" d="M2 1417q-20 47 31 47h348q35 0 47 -32l205 -531l188 531q12 33 47 32h346q49 0 33 -47l-555 -1384q-12 -33 -47 -33h-348q-51 0 -31 47l176 416z" />
<glyph unicode="&#x424;" horiz-adv-x="1839" d="M90 621v223q0 268 149.5 422.5t419.5 154.5h62v127q0 41 41 41h315q41 0 41 -41v-127h64q268 0 417.5 -154.5t149.5 -422.5v-223q0 -270 -148.5 -425t-418.5 -155h-64v-135q0 -41 -41 -41h-315q-41 0 -41 41v135h-62q-270 0 -419.5 154.5t-149.5 425.5zM500 592 q0 -172 168 -172h53v622h-53q-168 0 -168 -170v-280zM1118 420h56q166 0 165 172v280q0 170 -165 170h-56v-622z" />
<glyph unicode="&#x425;" horiz-adv-x="1323" d="M15 14.5q-9 14.5 3 34.5l385 688l-346 678q-10 23 -0.5 36t31.5 13h348q37 0 47 -30l179 -424l178 424q10 31 47 30h348q23 0 32 -13t-1 -36l-346 -678l385 -688q12 -20 2.5 -34.5t-31.5 -14.5h-365q-31 0 -47 31l-202 411l-203 -411q-16 -31 -47 -31h-365 q-23 0 -32 14.5z" />
<glyph unicode="&#x426;" horiz-adv-x="1492" d="M137 41v1382q0 41 41 41h318q41 0 41 -41v-1044h344v1044q0 41 41 41h317q41 0 41 -41v-1044h92q41 0 41 -41v-565q0 -41 -41 -41h-297q-41 0 -41 41v227h-856q-41 0 -41 41z" />
<glyph unicode="&#x427;" horiz-adv-x="1349" d="M78 989v434q0 41 41 41h319q41 0 41 -41v-434q0 -188 152 -188q113 0 182 57v565q0 41 41 41h317q41 0 41 -41v-1382q0 -41 -41 -41h-317q-41 0 -41 41v440q-92 -49 -233 -49q-98 0 -183.5 28.5t-159 89t-116.5 173.5t-43 266z" />
<glyph unicode="&#x428;" horiz-adv-x="2015" d="M137 41v1382q0 41 41 41h311q41 0 41 -41v-1044h281v1044q0 41 41 41h311q41 0 41 -41v-1044h281v1044q0 41 41 41h311q41 0 41 -41v-1382q0 -41 -41 -41h-1659q-41 0 -41 41z" />
<glyph unicode="&#x429;" horiz-adv-x="2097" d="M137 41v1382q0 41 41 41h314q41 0 40 -41v-1044h281v1044q0 41 41 41h313q41 0 41 -41v-1044h281v1044q0 41 41 41h313q41 0 41 -41v-1044h92q41 0 41 -41v-565q0 -41 -41 -41h-297q-41 0 -41 41v227h-1460q-41 0 -41 41z" />
<glyph unicode="&#x42a;" horiz-adv-x="1513" d="M29 1137v286q0 41 41 41h618q41 0 41 -41v-419h205q254 0 396.5 -130.5t142.5 -361.5q0 -242 -137.5 -377t-381.5 -135h-583q-41 0 -41 41v1055h-260q-41 0 -41 41zM729 369h189q145 0 145 143q0 123 -145 123h-189v-266z" />
<glyph unicode="&#x42b;" horiz-adv-x="1964" d="M137 41v1382q0 41 41 41h318q41 0 41 -41v-419h204q254 0 396.5 -130.5t142.5 -361.5q0 -242 -137 -377t-381 -135h-584q-41 0 -41 41zM537 369h188q145 0 145 143q0 123 -145 123h-188v-266zM1427 41v1382q0 41 41 41h318q41 0 41 -41v-1382q0 -41 -41 -41h-318 q-41 0 -41 41z" />
<glyph unicode="&#x42c;" horiz-adv-x="1320" d="M137 41v1382q0 41 41 41h318q41 0 41 -41v-419h204q254 0 396.5 -130.5t142.5 -361.5q0 -242 -137 -377t-381 -135h-584q-41 0 -41 41zM537 369h188q145 0 145 143q0 123 -145 123h-188v-266z" />
<glyph unicode="&#x42d;" horiz-adv-x="1232" d="M39 117q-23 16 2 49l160 244q20 33 55 10q113 -70 250 -70q104 0 163.5 54.5t59.5 154.5v19h-326q-41 0 -41 40v236q0 41 41 41h326v14q0 92 -57.5 148.5t-165.5 56.5q-119 0 -215 -57q-37 -20 -58 12l-157 244q-25 33 10 55q186 125 434 125q295 0 456 -148.5 t161 -412.5v-397q0 -266 -161 -415t-464 -149q-270 1 -473 146z" />
<glyph unicode="&#x42e;" horiz-adv-x="1927" d="M137 41v1382q0 41 41 41h314q41 0 40 -41v-497h138q0 262 154.5 413.5t427 151.5t427 -148.5t154.5 -404.5v-395q0 -264 -154.5 -418t-427 -154t-427 157t-154.5 425h-138v-512q0 -41 -40 -41h-314q-41 0 -41 41zM1075 551q0 -92 45 -144.5t131 -52.5t131 52.5t45 144.5 v371q0 90 -45 140t-131 50t-131 -50t-45 -140v-371z" />
<glyph unicode="&#x42f;" horiz-adv-x="1351" d="M30.5 14.5q-7.5 14.5 6.5 34.5l307 459q-248 135 -248 446q0 238 148.5 374t410.5 136h519q41 0 40 -41v-1382q0 -41 -40 -41h-318q-41 0 -41 41v412h-82l-231 -424q-14 -29 -49 -29h-390q-25 0 -32.5 14.5zM508 944q0 -70 45 -111.5t123 -41.5h139v301h-139 q-80 0 -124 -39t-44 -109z" />
<glyph unicode="&#x430;" horiz-adv-x="1093" d="M37 334q0 311 444 311q80 0 146 -10v4q0 66 -31 100.5t-113 34.5q-137 0 -231 -47q-37 -20 -55 14l-95 199q-20 35 0 49q182 109 437 109q467 0 467 -494v-532q0 -37 -35 -45q-188 -55 -430 -56q-504 0 -504 363zM422 348q0 -84 117 -84q43 0 88 8v140q-47 10 -90 10 q-115 0 -115 -74z" />
<glyph unicode="&#x431;" horiz-adv-x="1140" d="M90 418v602q0 115 45 206t119 143t148.5 83t152.5 41q160 20 268 66q35 16 56 -17l127 -211q23 -37 -15 -55q-129 -70 -329 -109q-96 -20 -143.5 -54t-47.5 -118v-20q92 31 203 31q180 0 288.5 -119t108.5 -305v-164q0 -221 -141.5 -334t-358.5 -113q-213 0 -347 113 t-134 334zM471 406q0 -49 26.5 -75t71.5 -26q49 0 83 26.5t34 74.5v194q0 121 -117 121q-57 0 -98 -25v-290z" />
<glyph unicode="&#x432;" horiz-adv-x="1132" d="M100 41v987q0 41 41 41h461q209 0 322.5 -78t113.5 -227q0 -131 -118 -201q152 -61 151 -239q0 -154 -116.5 -239t-327.5 -85h-486q-41 0 -41 41zM473 272h121q94 0 94 76q0 74 -94 74h-121v-150zM473 657h105q86 0 86 68q0 72 -86 72h-105v-140z" />
<glyph unicode="&#x433;" horiz-adv-x="884" d="M100 41v987q0 41 41 41h674q41 0 41 -41v-252q0 -41 -41 -41h-336v-694q0 -41 -41 -41h-297q-41 0 -41 41z" />
<glyph unicode="&#x434;" horiz-adv-x="1327" d="M33 -227v510q0 41 41 41h57q68 51 105.5 211.5t54.5 490.5q4 43 43 43h770q41 0 41 -41v-706h86q41 0 41 -41v-508q0 -41 -41 -41h-281q-41 0 -41 41v227h-514v-227q0 -41 -41 -41h-280q-41 0 -41 41zM524 322h252v426h-143q-14 -293 -109 -426z" />
<glyph unicode="&#x435;" horiz-adv-x="1097" d="M72 422v229q0 223 133 335t360 112q219 0 344 -110t125 -337v-188q0 -41 -41 -41h-540v-10q0 -131 139 -131q131 0 233 57q33 20 56 -10l123 -168q23 -33 -7 -58q-170 -131 -419 -131q-227 0 -366.5 118t-139.5 333zM453 641h219v33q0 123 -111 123q-109 0 -108 -123v-33 z" />
<glyph unicode="&#x436;" horiz-adv-x="1605" d="M14 14.5q-8 14.5 2 34.5l312 572l-277 399q-14 20 -6 34.5t33 14.5h330q31 0 47 -31l10 -18q78 -141 156 -318v326q0 41 41 41h282q41 0 41 -41v-326q78 176 156 318l10 18q16 31 47 31h330q25 0 33 -14.5t-7 -34.5l-276 -399l311 -572q10 -20 2.5 -34.5t-30.5 -14.5 h-340q-37 0 -47 31l-138 327l-51 -61v-256q0 -41 -41 -41h-282q-41 0 -41 41v256l-52 61l-137 -327q-10 -31 -47 -31h-340q-23 0 -31 14.5z" />
<glyph unicode="&#x437;" horiz-adv-x="1056" d="M41 180l129 164q25 33 57 6q106 -82 250 -82q139 0 139 80q0 78 -147 78h-115q-41 0 -41 41v154q0 41 41 41h99q139 0 139 77q0 70 -123 70q-127 0 -231 -74q-33 -25 -58 6l-119 162q-23 33 9 58q182 137 440 137q207 0 331 -87t124 -232.5t-125 -215.5q158 -72 157 -252 q0 -158 -124.5 -249t-368.5 -91q-299 0 -461 152q-27 25 -2 57z" />
<glyph unicode="&#x438;" horiz-adv-x="1208" d="M100 41v987q0 41 41 41h289q41 0 41 -41v-240q0 -82 -4 -245h4l129 258l123 239q14 29 47 29h297q41 0 41 -41v-987q0 -41 -41 -41h-289q-41 0 -41 41v244q0 39 6 247h-4q-53 -131 -133 -274l-125 -229q-14 -29 -49 -29h-291q-41 0 -41 41z" />
<glyph unicode="&#x439;" horiz-adv-x="1208" d="M100 41v987q0 41 41 41h289q41 0 41 -41v-240q0 -82 -4 -245h4l129 258l123 239q14 29 47 29h297q41 0 41 -41v-987q0 -41 -41 -41h-289q-41 0 -41 41v244q0 39 6 247h-4q-53 -131 -133 -274l-125 -229q-14 -29 -49 -29h-291q-41 0 -41 41zM248 1452q-6 39 35 45l182 33 q35 6 47 -33q20 -63 94 -63t94 63q12 39 48 33l182 -33q41 -6 35 -41q-16 -133 -109.5 -206.5t-249.5 -73.5q-154 0 -247 72.5t-111 203.5z" />
<glyph unicode="&#x43a;" horiz-adv-x="1099" d="M100 41v987q0 41 41 41h291q41 0 41 -41v-338l180 350q14 29 47 29h326q25 0 33 -14.5t-6 -34.5l-283 -424l330 -547q12 -20 5 -34.5t-32 -14.5h-342q-33 0 -47 29l-160 313l-51 -68v-233q0 -41 -41 -41h-291q-41 0 -41 41z" />
<glyph unicode="&#x43b;" horiz-adv-x="1189" d="M29 31v248q0 33 39 43q76 18 108 120q43 139 55 586q0 41 41 41h777q41 0 41 -41v-987q0 -41 -41 -41h-293q-41 0 -41 41v700h-144q-8 -289 -69 -477q-45 -135 -147.5 -200.5t-282.5 -73.5q-43 0 -43 41z" />
<glyph unicode="&#x43c;" horiz-adv-x="1449" d="M100 41v987q0 41 41 41h320q37 0 49 -31l211 -481h8q37 90 211 481q12 31 49 31h320q41 0 41 -41v-987q0 -41 -41 -41h-285q-41 0 -41 41v131q0 141 16 350h-6l-92 -227l-43 -105q-10 -31 -49 -30h-168q-39 0 -49 30l-43 105l-92 227h-6q16 -209 16 -350v-131 q0 -41 -41 -41h-285q-41 0 -41 41z" />
<glyph unicode="&#x43d;" d="M100 41v987q0 41 41 41h297q41 0 41 -41v-321h189v321q0 41 41 41h297q41 0 41 -41v-987q0 -41 -41 -41h-297q-41 0 -41 41v330h-189v-330q0 -41 -41 -41h-297q-41 0 -41 41z" />
<glyph unicode="&#x43e;" d="M72 424v219q0 215 132 335t369.5 120t369.5 -120t132 -335v-219q0 -215 -132 -334t-369.5 -119t-369.5 119t-132 334zM457 424q0 -119 116.5 -119t116.5 119v219q0 121 -116.5 121t-116.5 -121v-219z" />
<glyph unicode="&#x43f;" d="M100 41v987q0 41 41 41h865q41 0 41 -41v-987q0 -41 -41 -41h-297q-41 0 -41 41v700h-189v-700q0 -41 -41 -41h-297q-41 0 -41 41z" />
<glyph unicode="&#x440;" d="M98 -348v1323q0 37 29 45q213 78 453 78q223 0 360 -133.5t137 -343.5v-183q0 -215 -118.5 -341t-317.5 -126q-94 0 -164 25v-344q0 -41 -41 -41h-297q-41 0 -41 41zM477 313q45 -16 98 -16q117 0 117 131v203q0 131 -119 131q-51 0 -96 -17v-432z" />
<glyph unicode="&#x441;" horiz-adv-x="974" d="M70 449v184q0 217 131 341t374 124q182 0 338 -92q35 -23 13 -58l-133 -200q-18 -31 -58 -15q-66 33 -141 33q-63 0 -101 -35t-38 -98v-184q0 -74 38.5 -110t100.5 -36q82 0 156 45q35 20 57 -12l133 -201q23 -32 -6 -55q-154 -109 -359 -109q-244 0 -374.5 126 t-130.5 352z" />
<glyph unicode="&#x442;" horiz-adv-x="970" d="M31 782v246q0 41 41 41h827q41 0 41 -41v-246q0 -41 -41 -41h-223v-700q0 -41 -41 -41h-297q-41 0 -41 41v700h-225q-41 0 -41 41z" />
<glyph unicode="&#x443;" horiz-adv-x="1153" d="M90 479v549q0 41 41 41h297q41 0 41 -41v-547q0 -70 25.5 -104.5t87.5 -34.5q55 0 92 18v668q0 41 41 41h297q41 0 41 -41v-897q0 -291 -122 -420t-392 -129q-254 0 -412 99q-37 23 -14 57l127 201q20 33 55 14q102 -49 221 -49q82 0 123 31.5t41 107.5q-74 -18 -156 -18 q-207 0 -320.5 122.5t-113.5 331.5z" />
<glyph unicode="&#x444;" horiz-adv-x="1634" d="M68 479v109q0 238 136 359.5t331 121.5h98v354q0 41 41 41h287q41 0 40 -41v-354h99q195 0 331 -122t136 -359v-109q0 -238 -136.5 -358.5t-330.5 -120.5h-99v-348q1 -41 -40 -41h-287q-41 0 -41 41v348h-98q-195 0 -331 121t-136 358zM438 473q0 -145 133 -145h62v413 h-66q-129 0 -129 -141v-127zM1001 328h62q133 0 133 145v127q0 141 -129 141h-66v-413z" />
<glyph unicode="&#x445;" horiz-adv-x="1093" d="M26 14.5q-8 14.5 3 34.5l268 490l-252 481q-10 20 -2 34.5t31 14.5h334q35 0 47 -33l92 -268l92 268q12 33 47 33h338q23 0 31 -14.5t-2 -34.5l-256 -481l268 -490q10 -20 2 -34.5t-31 -14.5h-342q-37 0 -47 31l-102 245l-99 -243q-12 -33 -47 -33h-342q-23 0 -31 14.5z " />
<glyph unicode="&#x446;" horiz-adv-x="1228" d="M100 41v987q0 41 41 41h297q41 0 41 -41v-696h189v696q0 41 41 41h297q41 0 41 -41v-696h86q41 0 41 -41v-518q0 -41 -41 -41h-267q-41 0 -41 41v227h-684q-41 0 -41 41z" />
<glyph unicode="&#x447;" horiz-adv-x="1112" d="M66 739v289q0 41 40 41h297q41 0 41 -41v-260q0 -135 97 -135q57 0 92 14v381q0 41 41 41h297q41 0 41 -41v-987q0 -41 -41 -41h-297q-41 0 -41 41v266q-57 -18 -160 -18q-160 0 -283.5 110.5t-123.5 339.5z" />
<glyph unicode="&#x448;" horiz-adv-x="1638" d="M100 41v987q0 41 41 41h283q41 0 41 -41v-696h174v696q0 41 41 41h278q41 0 41 -41v-696h175v696q0 41 40 41h283q41 0 41 -41v-987q0 -41 -41 -41h-1356q-41 0 -41 41z" />
<glyph unicode="&#x449;" horiz-adv-x="1722" d="M100 41v987q0 41 41 41h283q41 0 41 -41v-696h174v696q0 41 41 41h278q41 0 41 -41v-696h175v696q0 41 40 41h283q41 0 41 -41v-696h88q41 0 41 -41v-518q0 -41 -41 -41h-266q-41 0 -41 41v227h-1178q-41 0 -41 41z" />
<glyph unicode="&#x44a;" horiz-adv-x="1249" d="M29 797v231q0 41 41 41h536q41 0 41 -41v-293h148q182 0 302 -93t120 -275q0 -180 -120 -273.5t-302 -93.5h-484q-41 0 -41 41v715h-200q-41 0 -41 41zM647 293h88q100 0 101 80q0 78 -101 78h-88v-158z" />
<glyph unicode="&#x44b;" horiz-adv-x="1652" d="M100 41v987q0 41 41 41h295q41 0 41 -41v-293h148q182 0 302 -93t120 -275q0 -180 -120 -273.5t-302 -93.5h-484q-41 0 -41 41zM477 293h88q100 0 101 80q0 78 -101 78h-88v-158zM1174 41v987q0 41 40 41h297q41 0 41 -41v-987q0 -41 -41 -41h-297q-41 0 -40 41z" />
<glyph unicode="&#x44c;" horiz-adv-x="1079" d="M100 41v987q0 41 41 41h295q41 0 41 -41v-293h148q182 0 302 -93t120 -275q0 -180 -120 -273.5t-302 -93.5h-484q-41 0 -41 41zM477 293h88q100 0 101 80q0 78 -101 78h-88v-158z" />
<glyph unicode="&#x44d;" horiz-adv-x="991" d="M41 125l133 192q18 31 57 15q74 -35 172 -35q57 0 95.5 35t40.5 100h-246q-41 0 -41 41v135q0 41 41 41h246q-2 55 -40 89t-96 34q-90 0 -163 -27q-35 -12 -56 17l-131 194q-25 37 13 56q170 86 380 86q201 0 338.5 -116t137.5 -343v-199q0 -233 -135.5 -351t-340.5 -118 q-240 0 -393 97q-35 23 -12 57z" />
<glyph unicode="&#x44e;" horiz-adv-x="1628" d="M100 41v987q0 41 41 41h287q41 0 41 -41v-321h94h15q18 186 145 288.5t342 102.5q233 0 362 -119t129 -336v-217q0 -215 -130 -335t-361 -120q-213 0 -340 101.5t-147 285.5h-17h-92v-317q0 -41 -41 -41h-287q-41 0 -41 41zM950 432q0 -129 115 -129t115 129v205 q0 129 -115 129t-115 -129v-205z" />
<glyph unicode="&#x44f;" horiz-adv-x="1134" d="M52 14.5q-7 14.5 5 34.5l205 330q-84 41 -136 128t-52 191q0 166 114.5 268.5t300.5 102.5h504q41 0 41 -41v-987q0 -41 -41 -41h-295q-41 0 -41 41v295h-34l-160 -307q-14 -29 -47 -29h-332q-25 0 -32 14.5zM457 700q0 -84 94 -84h106v164h-106q-94 0 -94 -80z" />
<glyph unicode="&#x451;" horiz-adv-x="1097" d="M72 422v229q0 223 133 335t360 112q219 0 344 -110t125 -337v-188q0 -41 -41 -41h-540v-10q0 -131 139 -131q131 0 233 57q33 20 56 -10l123 -168q23 -33 -7 -58q-170 -131 -419 -131q-227 0 -366.5 118t-139.5 333zM141 1364q0 82 49.5 129t127 47t124.5 -46t47 -128 t-47 -128t-124.5 -46t-127 45t-49.5 127zM453 641h219v33q0 123 -111 123q-109 0 -108 -123v-33zM618 1366q0 82 48.5 128t128.5 46q78 0 125 -46t47 -128t-47.5 -128t-125 -46t-127 46t-49.5 128z" />
<glyph unicode="&#x452;" horiz-adv-x="1163" d="M-37 1198v102q0 41 41 41h96v82q0 41 41 41h297q41 0 41 -41v-82h185q41 0 41 -41v-102q0 -41 -41 -41h-185v-147q72 27 193 26q190 0 296.5 -130t106.5 -349v-575q0 -188 -107.5 -294t-299.5 -106q-68 0 -129 12q-35 8 -35 46v229q0 43 43 39q14 -2 43 -2q104 0 104 121 v536q0 72 -27.5 107t-95.5 35q-47 0 -92 -17v-647q0 -41 -41 -41h-297q-41 0 -41 41v1116h-96q-41 0 -41 41z" />
<glyph unicode="&#x453;" horiz-adv-x="884" d="M100 41v987q0 41 41 41h674q41 0 41 -41v-252q0 -41 -41 -41h-336v-694q0 -41 -41 -41h-297q-41 0 -41 41zM307 1190q-8 14 6 35l172 264q18 27 50 27h274q27 0 33 -15.5t-11 -36.5l-227 -266q-20 -22 -51 -22h-213q-25 0 -33 14z" />
<glyph unicode="&#x454;" horiz-adv-x="991" d="M70 440v199q0 227 137 343t338 116q213 0 381 -86q37 -18 12 -56l-131 -194q-20 -29 -55 -17q-74 27 -164 27q-57 0 -95 -33.5t-40 -89.5h245q41 0 41 -41v-135q0 -41 -41 -41h-245q2 -66 40 -100.5t95 -34.5q98 0 172 35q39 16 57 -15l133 -192q23 -35 -12 -57 q-154 -96 -393 -97q-205 0 -340 118t-135 351z" />
<glyph unicode="&#x455;" horiz-adv-x="1038" d="M53 164l115 192q20 37 55 15q131 -82 277 -82q106 0 106 51q0 39 -108 55q-416 63 -416 353q0 168 120 259t349 91q195 0 377 -92q37 -18 14 -58l-117 -186q-20 -33 -55 -14q-102 51 -221 51q-90 0 -90 -45q0 -25 26.5 -37t116.5 -27q190 -31 288.5 -118t98.5 -226 q0 -375 -489 -375q-238 0 -434 135q-33 20 -13 58z" />
<glyph unicode="&#x456;" horiz-adv-x="579" d="M82 1397q0 90 57.5 147.5t151.5 57.5q90 0 147.5 -57.5t57.5 -147.5q0 -88 -57.5 -146.5t-147.5 -58.5q-92 0 -150.5 58.5t-58.5 146.5zM100 41v987q0 41 41 41h297q41 0 41 -41v-987q0 -41 -41 -41h-297q-41 0 -41 41z" />
<glyph unicode="&#x457;" horiz-adv-x="579" d="M-90 1343q0 80 46 124t122 44q74 0 119 -44t45 -121.5t-45 -121.5t-119 -44q-76 0 -122 43t-46 120zM100 41v987q0 41 41 41h297q41 0 41 -41v-987q0 -41 -41 -41h-297q-41 0 -41 41zM342 1345.5q0 77.5 47 121.5t121 44q76 0 121 -44t45 -121.5t-45 -121.5t-121 -44 q-74 0 -121 44t-47 121.5z" />
<glyph unicode="&#x458;" horiz-adv-x="595" d="M-76 -113q0 43 43 39q14 -2 43 -2q106 0 107 119v985q0 41 41 41h297q41 0 41 -41v-1046q0 -188 -107.5 -294t-300.5 -106q-68 0 -129 12q-35 8 -35 46v247zM100 1397q0 90 57.5 147.5t151.5 57.5q90 0 147.5 -57.5t57.5 -147.5q0 -88 -57.5 -146.5t-147.5 -58.5 q-92 0 -150.5 58.5t-58.5 146.5z" />
<glyph unicode="&#x459;" horiz-adv-x="1701" d="M27 41v248q0 35 39 41q90 12 122 123q43 137 52 573q0 43 41 43h780q41 0 41 -41v-293h145q188 0 305 -96t117 -272q0 -178 -115.5 -272.5t-306.5 -94.5h-477q-41 0 -41 41v709h-154q-12 -304 -61 -451q-49 -150 -153.5 -220.5t-290.5 -78.5q-43 0 -43 41zM1102 297h88 q94 0 94 78q0 76 -94 76h-88v-154z" />
<glyph unicode="&#x45a;" horiz-adv-x="1646" d="M100 41v987q0 41 41 41h297q41 0 41 -41v-321h189v321q0 41 41 41h297q41 0 41 -41v-293h145q188 0 305 -96t117 -272q0 -178 -116 -272.5t-306 -94.5h-483q-41 0 -41 41v330h-189v-330q0 -41 -41 -41h-297q-41 0 -41 41zM1047 297h88q94 0 94 78q0 76 -94 76h-88v-154z " />
<glyph unicode="&#x45b;" horiz-adv-x="1163" d="M-37 1198v102q0 41 41 41h96v82q0 41 41 41h297q41 0 41 -41v-82h185q41 0 41 -41v-102q0 -41 -41 -41h-185v-147q72 27 193 26q190 0 296.5 -130t106.5 -349v-516q0 -41 -41 -41h-299q-41 0 -41 41v522q0 72 -27.5 107t-95.5 35q-47 0 -92 -17v-647q0 -41 -41 -41h-297 q-41 0 -41 41v1116h-96q-41 0 -41 41z" />
<glyph unicode="&#x45c;" horiz-adv-x="1099" d="M100 41v987q0 41 41 41h291q41 0 41 -41v-338l180 350q14 29 47 29h326q25 0 33 -14.5t-6 -34.5l-283 -424l330 -547q12 -20 5 -34.5t-32 -14.5h-342q-33 0 -47 29l-160 313l-51 -68v-233q0 -41 -41 -41h-291q-41 0 -41 41zM379 1202.5q-8 14.5 6 34.5l172 264 q18 27 49 27h275q27 0 33 -15.5t-11 -35.5l-227 -267q-20 -22 -51 -22h-213q-25 0 -33 14.5z" />
<glyph unicode="&#x45d;" horiz-adv-x="1208" d="M100 41v987q0 41 41 41h289q41 0 41 -41v-240q0 -82 -4 -245h4l129 258l123 239q14 29 47 29h297q41 0 41 -41v-987q0 -41 -41 -41h-289q-41 0 -41 41v244q0 39 6 247h-4q-53 -131 -133 -274l-125 -229q-14 -29 -49 -29h-291q-41 0 -41 41zM264 1495.5q6 15.5 33 15.5 h274q31 0 50 -26l172 -264q14 -20 6 -35t-33 -15h-213q-31 0 -51 23l-228 266q-16 20 -10 35.5z" />
<glyph unicode="&#x45e;" horiz-adv-x="1153" d="M90 479v549q0 41 41 41h297q41 0 41 -41v-547q0 -70 25.5 -104.5t87.5 -34.5q55 0 92 18v668q0 41 41 41h297q41 0 41 -41v-897q0 -291 -122 -420t-392 -129q-254 0 -412 99q-37 23 -14 57l127 201q20 33 55 14q102 -49 221 -49q82 0 123 31.5t41 107.5q-74 -18 -156 -18 q-207 0 -320.5 122.5t-113.5 331.5zM223 1440q-6 39 35 45l182 33q35 6 47 -33q20 -63 94 -63.5t95 63.5q12 39 47 33l182 -33q41 -6 35 -41q-16 -133 -109.5 -207t-248.5 -74q-154 0 -247 73t-112 204z" />
<glyph unicode="&#x45f;" d="M100 41v987q0 41 41 41h297q41 0 41 -41v-694h189v694q0 41 41 41h297q41 0 41 -41v-987q0 -41 -41 -41h-258v-227q0 -41 -41 -41h-267q-41 0 -41 41v227h-258q-41 0 -41 41z" />
<glyph unicode="&#x490;" horiz-adv-x="1075" d="M137 41v1382q0 41 41 41h506v310q0 41 41 41h287q41 0 41 -41v-641q0 -41 -41 -41h-475v-1051q0 -41 -41 -41h-318q-41 0 -41 41z" />
<glyph unicode="&#x491;" horiz-adv-x="884" d="M100 41v987q0 41 41 41h383v217q0 41 41 41h250q41 0 41 -41v-510q0 -41 -41 -41h-336v-694q0 -41 -41 -41h-297q-41 0 -41 41z" />
<glyph unicode="&#x2000;" horiz-adv-x="968" />
<glyph unicode="&#x2001;" horiz-adv-x="1936" />
<glyph unicode="&#x2002;" horiz-adv-x="968" />
<glyph unicode="&#x2003;" horiz-adv-x="1936" />
<glyph unicode="&#x2004;" horiz-adv-x="645" />
<glyph unicode="&#x2005;" horiz-adv-x="484" />
<glyph unicode="&#x2006;" horiz-adv-x="322" />
<glyph unicode="&#x2007;" horiz-adv-x="322" />
<glyph unicode="&#x2008;" horiz-adv-x="242" />
<glyph unicode="&#x2009;" horiz-adv-x="387" />
<glyph unicode="&#x200a;" horiz-adv-x="107" />
<glyph unicode="&#x2010;" horiz-adv-x="819" d="M104 492v245q0 41 41 41h529q41 0 41 -41v-245q0 -41 -41 -41h-529q-41 0 -41 41z" />
<glyph unicode="&#x2011;" horiz-adv-x="819" d="M104 492v245q0 41 41 41h529q41 0 41 -41v-245q0 -41 -41 -41h-529q-41 0 -41 41z" />
<glyph unicode="&#x2012;" horiz-adv-x="819" d="M104 492v245q0 41 41 41h529q41 0 41 -41v-245q0 -41 -41 -41h-529q-41 0 -41 41z" />
<glyph unicode="&#x2013;" horiz-adv-x="1255" d="M104 492v245q0 41 41 41h965q41 0 41 -41v-245q0 -41 -41 -41h-965q-41 0 -41 41z" />
<glyph unicode="&#x2014;" horiz-adv-x="2078" d="M104 492v245q0 41 41 41h1788q41 0 41 -41v-245q0 -41 -41 -41h-1788q-41 0 -41 41z" />
<glyph unicode="&#x2018;" horiz-adv-x="559" d="M53 872l183 560q8 33 45 32h196q45 0 35 -45l-121 -557q-6 -37 -45 -37h-258q-23 0 -32 13.5t-3 33.5z" />
<glyph unicode="&#x2019;" horiz-adv-x="559" d="M63 870l127 557q10 37 46 37h258q23 0 31.5 -13.5t2.5 -33.5l-174 -557q-10 -35 -45 -35h-209q-47 0 -37 45z" />
<glyph unicode="&#x201a;" horiz-adv-x="540" d="M0 -258l127 557q10 37 45 37h258q23 0 32 -13.5t3 -33.5l-174 -557q-10 -35 -45 -35h-209q-47 0 -37 45z" />
<glyph unicode="&#x201c;" horiz-adv-x="1030" d="M55 872l174 558q12 35 45 34h209q47 0 37 -45l-127 -557q-6 -37 -45 -37h-258q-23 0 -32 13.5t-3 33.5zM520 872l174 558q12 35 45 34h209q47 0 37 -45l-127 -557q-6 -37 -45 -37h-258q-23 0 -32 13.5t-3 33.5z" />
<glyph unicode="&#x201d;" horiz-adv-x="1024" d="M63 870l127 557q6 37 46 37h258q23 0 32 -13t2 -34l-174 -557q-12 -35 -45 -35h-209q-47 0 -37 45zM528 870l127 557q6 37 45 37h258q23 0 32 -13t3 -34l-174 -557q-12 -35 -45 -35h-209q-47 0 -37 45z" />
<glyph unicode="&#x201e;" horiz-adv-x="1007" d="M0 -264l127 557q6 37 45 37h258q23 0 32 -13.5t3 -33.5l-174 -557q-12 -35 -45 -35h-209q-47 0 -37 45zM465 -264l127 557q6 37 45 37h258q23 0 32 -13.5t3 -33.5l-174 -557q-12 -35 -45 -35h-209q-47 0 -37 45z" />
<glyph unicode="&#x2026;" horiz-adv-x="1681" d="M68 178q0 90 58 147.5t152.5 57.5t152.5 -57.5t58 -147.5q0 -88 -59 -146.5t-151.5 -58.5t-151.5 58.5t-59 146.5zM631 178q0 90 58.5 147.5t152.5 57.5t152.5 -57.5t58.5 -147.5q0 -88 -59.5 -146.5t-151.5 -58.5t-151.5 58.5t-59.5 146.5zM1192 178q0 90 58.5 147.5 t152.5 57.5t152.5 -57.5t58.5 -147.5q0 -88 -59.5 -146.5t-151.5 -58.5t-151.5 58.5t-59.5 146.5z" />
<glyph unicode="&#x202f;" horiz-adv-x="387" />
<glyph unicode="&#x2039;" horiz-adv-x="737" d="M59 567q-16 29 0 58l267 395q18 27 49 27h272q25 0 32 -13.5t-7 -36.5l-273 -401l273 -401q14 -23 7 -36.5t-32 -13.5h-272q-31 0 -49 27z" />
<glyph unicode="&#x203a;" horiz-adv-x="737" d="M60 158.5q-7 13.5 8 36.5l272 401l-272 401q-14 23 -7 36.5t31 13.5h273q31 0 49 -27l266 -395q16 -29 0 -58l-266 -395q-18 -27 -49 -27h-273q-25 0 -32 13.5z" />
<glyph unicode="&#x205f;" horiz-adv-x="484" />
<glyph unicode="&#x20ac;" horiz-adv-x="1409" d="M61 526v113q0 41 41 41h105v96h-105q-41 0 -41 41v113q0 41 41 41h105q12 246 173 384t445 138q283 0 492 -125q35 -23 12 -57l-158 -248q-20 -31 -57 -12q-115 59 -266 59q-190 0 -211 -139h256q41 0 41 -41v-113q0 -41 -41 -41h-260v-96h260q41 0 41 -41v-113 q0 -41 -41 -41h-256q27 -129 211 -129q158 0 276 70q37 20 58 -12l161 -248q25 -33 -10 -55q-211 -139 -499.5 -139.5t-448.5 134t-176 379.5h-107q-41 0 -41 41z" />
<glyph unicode="&#x2122;" horiz-adv-x="1400" d="M57 1348v92q0 25 25 24h463q25 0 24 -24v-92q0 -25 -24 -25h-154v-449q1 -24 -24 -24h-107q-25 0 -24 24v449h-154q-25 0 -25 25zM623 874v566q0 25 24 24h141q25 0 31 -20l92 -230l39 -112l39 112l92 230q6 20 31 20h141q25 0 25 -24v-566q0 -25 -25 -24h-98 q-25 0 -25 24v199l17 203h-4l-49 -133l-84 -176q-10 -23 -31 -23h-57q-20 0 -31 23l-84 176l-49 133h-4l16 -203v-199q0 -24 -25 -24h-98q-25 0 -24 24z" />
<glyph unicode="&#x25fc;" horiz-adv-x="1064" d="M0 0v1065h1065v-1065h-1065z" />
</font>
</defs>
</svg>
