<?xml version="1.0" standalone="no"?>
<!DOCTYPE svg PUBLIC "-//W3C//DTD SVG 1.1//EN" "http://www.w3.org/Graphics/SVG/1.1/DTD/svg11.dtd" >
<svg xmlns="http://www.w3.org/2000/svg" xmlns:xlink="http://www.w3.org/1999/xlink" version="1.1">
<metadata></metadata>
<defs>
<font id="uni_neuelight" horiz-adv-x="1122" >
<font-face units-per-em="2048" ascent="1536" descent="-512" />
<missing-glyph horiz-adv-x="485" />
<glyph horiz-adv-x="0" />
<glyph unicode="&#xd;" horiz-adv-x="681" />
<glyph unicode=" "  horiz-adv-x="485" />
<glyph unicode="&#x09;" horiz-adv-x="485" />
<glyph unicode="&#xa0;" horiz-adv-x="485" />
<glyph unicode="!" horiz-adv-x="436" d="M164 49.5q0 24.5 15.5 40.5t40 16t39.5 -16t15 -40.5t-15 -40t-39.5 -15.5t-40 15.5t-15.5 40zM184 1126v326q0 12 13 12h43q12 0 12 -12v-326l-2 -811q0 -12 -12 -12h-37q-14 0 -15 12z" />
<glyph unicode="&#x22;" horiz-adv-x="536" d="M127 1094l27 358q0 12 12 12h47q10 0 10 -12l-41 -360q0 -12 -14 -13h-29q-12 0 -12 15zM328 1094l24 358q0 12 15 12h45q12 0 12 -12l-41 -360q0 -12 -16 -13h-27q-12 0 -12 15z" />
<glyph unicode="#" horiz-adv-x="1419" d="M74 475l10 31q4 12 12 12h297l123 438h-293q-16 0 -10 15l8 33q4 10 15 10h296l125 440q4 10 13 10h37q14 0 10 -14l-123 -436h393l125 440q4 10 12 10h37q14 0 10 -14l-122 -436h284q16 0 13 -17l-11 -30q-4 -10 -12 -11h-291l-123 -438h287q16 0 10 -16l-8 -31 q-6 -10 -14 -10h-289l-129 -451q-4 -10 -12 -10h-37q-14 0 -10 14l127 447h-394l-129 -451q-4 -10 -12 -10h-37q-14 0 -10 14l127 447h-293q-14 0 -12 14zM455 518h393l123 438h-393z" />
<glyph unicode="$" horiz-adv-x="1181" d="M111 1112q0 172 125.5 269.5t324.5 103.5v151q0 14 12 15h35q14 0 15 -15v-151q213 -10 409 -170q8 -6 2 -17l-20 -30q-8 -8 -19 -2q-193 156 -417 157q-176 0 -289 -83t-113 -228q0 -150 101.5 -220.5t310.5 -119.5q92 -23 143 -38t127 -48t116 -72t70.5 -102t30.5 -145 q0 -176 -122 -277.5t-330 -109.5v-164q0 -14 -15 -15h-35q-12 0 -12 15v164q-231 8 -442 200q-14 8 -2 17l20 30q8 8 19 2q215 -188 442 -188q184 0 298 85t114 239q0 70 -27 124t-63.5 85.5t-100 59.5t-112 41t-123.5 32q-12 2 -19 4q-106 25 -178 51t-140.5 71.5t-102 115 t-33.5 163.5z" />
<glyph unicode="%" horiz-adv-x="1540" d="M117 946v289q0 106 68.5 172t177 66t177 -66t68.5 -172v-289q0 -98 -69.5 -162.5t-176 -64.5t-176 64.5t-69.5 162.5zM170 948q0 -76 54.5 -127t138 -51t137 51t53.5 127v285q0 84 -52 136t-138.5 52t-139.5 -52t-53 -136v-285zM201 16l1036 1426q6 8 16 8h37q16 0 8 -16 l-1036 -1426q-6 -8 -16 -8h-35q-18 0 -10 16zM936 211v289q0 106 68.5 171.5t177.5 65.5q111 0 178 -65.5t67 -171.5v-289q0 -98 -69.5 -162.5t-175.5 -64.5q-104 0 -175 64.5t-71 162.5zM991 213q0 -76 53.5 -127t137.5 -51t138 51t54 127v285q0 84 -53 136t-139 52 t-138.5 -52t-52.5 -136v-285z" />
<glyph unicode="&#x26;" horiz-adv-x="1198" d="M98 352q0 258 308 434q-197 242 -197 402q0 133 90 215t244 82q150 0 235.5 -79t85.5 -208q0 -119 -88 -220t-278 -208q109 -129 401 -469q53 98 98 234q2 14 17 8l33 -13q14 -6 10 -18q-51 -158 -115 -262q23 -27 96.5 -109t110.5 -125q14 -16 -6 -16h-51q-12 0 -17 8 l-170 189q-84 -109 -176 -163t-225 -54q-182 0 -294 99t-112 273zM164 352q0 -147 93 -228t251 -81q113 0 196.5 48t159.5 155q-260 297 -420 491q-280 -156 -280 -385zM274 1188q0 -80 44 -164t143 -205q178 98 258 187.5t80 191.5t-66.5 163.5t-191.5 61.5 q-127 0 -197 -64.5t-70 -170.5z" />
<glyph unicode="'" horiz-adv-x="333" d="M127 1094l25 358q0 12 12 12h47q10 0 10 -12l-41 -360q0 -12 -14 -13h-27q-12 0 -12 15z" />
<glyph unicode="(" horiz-adv-x="516" d="M115 729q0 500 282 959q2 8 17 8h43q16 0 8 -17q-285 -446 -285 -950q0 -506 285 -952q8 -17 -8 -17h-43q-14 0 -17 9q-283 463 -282 960z" />
<glyph unicode=")" horiz-adv-x="514" d="M47 -223q285 446 285 952q0 504 -285 950q-8 16 8 17h43q14 0 17 -8q283 -459 282 -959q0 -498 -282 -960q-3 -9 -17 -9h-43q-16 0 -8 17z" />
<glyph unicode="*" horiz-adv-x="940" d="M109 1190l12 33q4 14 16 10l303 -98v317q0 12 13 12h34q14 0 15 -12v-319l301 98q12 4 18 -8l10 -31q4 -14 -8 -18l-303 -97l187 -258q8 -8 -2 -18l-29 -23q-8 -8 -17 4l-188 256l-186 -256q-9 -8 -19 -4l-28 21q-12 8 -5 18l187 258l-301 96q-14 4 -10 19z" />
<glyph unicode="+" d="M127 664v36q0 14 12 15h389v391q0 12 15 12h39q12 0 12 -12v-391h389q12 0 12 -15v-36q0 -12 -12 -13h-389v-393q0 -14 -12 -14h-39q-14 0 -15 14v393h-389q-12 0 -12 13z" />
<glyph unicode="," horiz-adv-x="364" d="M63 -205l93 342q4 10 14 10h49q14 0 10 -16l-108 -340q-4 -10 -15 -10h-30q-14 0 -13 14z" />
<glyph unicode="-" horiz-adv-x="819" d="M143 610v37q0 12 13 12h508q12 0 12 -12v-37q0 -12 -12 -12h-508q-12 0 -13 12z" />
<glyph unicode="." horiz-adv-x="344" d="M117 51.5q0 24.5 15 39.5t40 15t40 -15t15 -39.5t-15 -40t-40 -15.5t-40 15.5t-15 40z" />
<glyph unicode="/" horiz-adv-x="811" d="M59 14l629 1440q4 10 14 10h41q13 0 9 -14l-627 -1440q-4 -10 -14 -10h-43q-12 0 -9 14z" />
<glyph unicode="0" horiz-adv-x="1243" d="M152 440v578q0 219 128 343t343 124t342 -124t127 -343v-578q0 -213 -128 -336.5t-341 -123.5t-342 123.5t-129 336.5zM217 440q0 -186 108.5 -291.5t297.5 -105.5q186 0 294.5 105.5t108.5 291.5v576q0 193 -107.5 299t-296 106t-297 -106.5t-108.5 -298.5v-576z" />
<glyph unicode="1" horiz-adv-x="661" d="M51 1231q2 6 6 8l340 219q12 6 23 6h29q14 0 14 -12v-1440q0 -12 -14 -12h-39q-14 0 -15 12v1370l-305 -194q-10 -6 -18 2l-19 33q-4 2 -2 8z" />
<glyph unicode="2" horiz-adv-x="1112" d="M88 12v27q0 12 6 16l330 351q113 119 165 176t125.5 146t106.5 144.5t57.5 122t24.5 127.5q0 121 -85 211t-249 90q-227 0 -407 -204q-8 -10 -19 0l-22 28q-6 8 0 19q190 219 448 219q190 0 295 -105.5t105 -257.5q0 -68 -24.5 -138.5t-56.5 -127.5t-109 -149.5 t-130 -151.5t-170 -184l-291 -310h816q12 0 12 -12v-37q0 -12 -12 -12h-904q-12 0 -12 12z" />
<glyph unicode="3" horiz-adv-x="1144" d="M94 201q-8 8 0 18l25 25q10 6 20 -4q90 -98 183.5 -148.5t232.5 -50.5q188 0 298 105.5t110 283.5t-110 279.5t-312 101.5q-63 0 -119 -6q-10 0 -12 8l-9 14q-4 8 2 19l517 557h-758q-12 0 -12 12v37q0 12 12 12h837q14 0 15 -12v-25q0 -4 -6 -16l-506 -547h37 q236 2 362.5 -115.5t126.5 -318.5q0 -203 -129 -326.5t-344 -123.5q-152 0 -258.5 55t-202.5 166z" />
<glyph unicode="4" horiz-adv-x="1087" d="M59 414v24q0 10 7 17l579 1001q6 8 17 8h47q14 0 8 -16l-574 -985h643v358q0 12 13 13h41q12 0 12 -13v-358h158q14 0 14 -12v-37q0 -12 -14 -13h-158v-389q0 -12 -12 -12h-41q-12 0 -13 12v389h-712q-14 0 -15 13z" />
<glyph unicode="5" horiz-adv-x="1159" d="M133 201q-6 10 2 16l27 27q10 10 18 -2q82 -98 175.5 -147.5t222.5 -49.5q188 0 296.5 115.5t108.5 316.5q0 205 -105.5 304.5t-283.5 99.5q-217 0 -371 -154q-10 -10 -18 -4l-41 14q-10 4 -10 13l26 702q0 12 13 12h774q14 0 14 -12v-37q0 -12 -14 -12h-723l-23 -602 q162 143 377 143q203 0 327 -118t124 -347q0 -225 -128 -360t-343 -135q-270 0 -445 217z" />
<glyph unicode="6" horiz-adv-x="1177" d="M152 440v594q0 205 132 328t322 123q229 0 400 -156q6 -8 0 -18l-21 -27q-10 -10 -20 -2q-152 141 -357 141q-168 0 -278.5 -106.5t-110.5 -282.5v-356q47 113 157.5 173t235.5 60q211 0 332 -119.5t121 -342.5q0 -215 -124 -342t-331 -127t-332.5 124.5t-125.5 335.5z M219 440q0 -186 105.5 -292.5t286 -106.5t283.5 108.5t103 299.5q0 195 -101 298t-284 103q-156 0 -274.5 -96.5t-118.5 -278.5v-35z" />
<glyph unicode="7" horiz-adv-x="1024" d="M51 1413v39q0 12 15 12h901q14 0 14 -12v-22q0 -10 -4 -15l-678 -1405q-4 -10 -16 -10h-45q-16 0 -11 16l672 1385h-833q-14 0 -15 12z" />
<glyph unicode="8" horiz-adv-x="1222" d="M127 406q0 131 83 232t230 134q-135 35 -202.5 127t-67.5 217q0 162 120 265.5t322.5 103.5t321.5 -103.5t119 -265.5q0 -125 -66.5 -217t-202.5 -127q147 -33 229.5 -134t82.5 -232q0 -188 -130 -307t-354 -119q-225 0 -355 117.5t-130 308.5zM195 410 q0 -162 109.5 -265.5t308 -103.5t308 104.5t109.5 264.5q0 143 -113.5 236t-304 93t-304 -93t-113.5 -236zM236 1116q0 -139 96 -228t280.5 -89t279.5 89t95 228q0 143 -101.5 225t-273.5 82t-274 -82t-102 -225z" />
<glyph unicode="9" horiz-adv-x="1177" d="M115 1016q0 215 122.5 342t331.5 127q207 0 332 -125t125 -336v-594q0 -207 -132 -328.5t-323 -121.5q-240 0 -405 215q-6 10 0 16l24 29q8 10 19 0q150 -199 362 -199q166 0 278 106.5t112 282.5v350q-49 -111 -161 -169t-235 -58q-213 0 -331.5 119t-118.5 344z M180 1016q0 -195 101.5 -298.5t285.5 -103.5q154 0 274 96.5t120 274.5v39q0 186 -106.5 292.5t-287.5 106.5q-178 0 -282.5 -108.5t-104.5 -298.5z" />
<glyph unicode=":" horiz-adv-x="407" d="M150 49q0 55 55 55q53 0 53 -55q0 -53 -53 -53q-55 0 -55 53zM150 976.5q0 24.5 15 40t40 15.5q53 0 53 -55t-53 -55q-25 0 -40 15t-15 39.5z" />
<glyph unicode=";" horiz-adv-x="468" d="M121 -205l92 344q4 10 12 11h51q14 0 11 -15l-109 -344q-4 -10 -14 -10h-31q-14 0 -12 14zM197 976.5q0 24.5 15 40t39.5 15.5t40 -15.5t15.5 -40t-15.5 -39.5t-40 -15t-39.5 15t-15 39.5z" />
<glyph unicode="&#x3c;" d="M100 651v45q0 10 11 17l841 405q16 8 17 -10v-45q0 -10 -11 -14l-784 -375l784 -373q11 -6 11 -16v-43q0 -6 -5.5 -10.5t-11.5 -0.5l-841 404q-10 6 -11 16z" />
<glyph unicode="=" d="M127 479v39q0 12 12 12h844q12 0 12 -12v-39q0 -12 -12 -12h-844q-12 0 -12 12zM127 844v39q0 12 12 12h844q12 0 12 -12v-39q0 -13 -12 -13h-844q-12 0 -12 13z" />
<glyph unicode="&#x3e;" d="M154 242v43q0 10 10 16l784 373l-784 375q-10 4 -10 14v45q0 18 16 10l842 -405q10 -6 10 -17v-45q0 -10 -10 -16l-842 -404q-6 -4 -11 0.5t-5 10.5z" />
<glyph unicode="?" horiz-adv-x="915" d="M61 1298q-6 10 2 17q152 170 379 170q182 0 283.5 -105.5t101.5 -277.5q0 -98 -38.5 -174t-94 -125t-110 -95t-93 -112t-38.5 -150v-131q-1 -12 -13 -12h-39q-14 0 -14 12v138q0 90 39 159.5t93 117.5t109.5 95t94.5 118t39 159q0 135 -79 229t-241 94q-193 0 -342 -157 q-10 -14 -16 2zM367 51q0 55 53 55q25 0 40 -15t15 -39.5t-15.5 -40t-39.5 -15.5q-53 0 -53 55z" />
<glyph unicode="@" horiz-adv-x="1929" d="M133 541v196q0 383 197.5 565.5t617.5 182.5q502 0 821 -346q6 -6 7 -17v-630q0 -328 -250 -328q-86 0 -156 49t-96 139q-37 -92 -122 -142t-194 -50q-156 0 -263 104.5t-107 265.5v181q0 162 98 259t262 97q199 0 352 -59q10 -2 11 -13v-524q0 -115 63.5 -182.5 t151.5 -67.5q188 2 188 266v629q-150 145 -331 228t-433 83q-391 0 -573 -165.5t-182 -524.5v-196q0 -338 175 -523.5t504 -185.5q283 0 476 109q14 8 16 -7l10 -32q4 -11 -6 -15q-90 -51 -227 -82.5t-273 -31.5q-354 0 -545.5 203.5t-191.5 564.5zM651 532q0 -141 90 -227 t217 -86q119 0 203 67.5t86 170.5v508q-123 43 -297 43q-137 0 -218 -80t-81 -217v-179z" />
<glyph unicode="A" horiz-adv-x="1206" d="M23 14l538 1440q4 10 12 10h58q10 0 14 -10l539 -1440q4 -14 -10 -14h-48q-8 0 -14 10l-166 449h-686l-168 -449q-4 -10 -12 -10h-47q-14 0 -10 14zM283 522h641l-318 858h-6z" />
<glyph unicode="B" horiz-adv-x="1269" d="M199 12v1440q0 12 14 12h436q233 0 340 -98t107 -256q0 -123 -64.5 -207t-179.5 -117q147 -29 225 -128t78 -252q0 -193 -131 -299.5t-375 -106.5h-436q-14 0 -14 12zM268 63h381q217 0 327.5 89.5t110.5 253t-99 256t-302 92.5h-418v-691zM268 817h418q160 0 250 77 t90 216q0 129 -87 210t-290 81h-381v-584z" />
<glyph unicode="C" horiz-adv-x="1175" d="M150 465v534q0 219 131 352.5t360 133.5q244 0 432 -152q14 -8 2 -16l-22 -33q-6 -10 -19 -2q-174 139 -395 139q-205 0 -313.5 -115.5t-108.5 -306.5v-534q0 -190 110.5 -306t315.5 -116q242 0 424 158q8 8 16 -2l25 -33q6 -11 -4 -19q-187 -167 -456 -167h-3 q-233 0 -364 133t-131 352z" />
<glyph unicode="D" horiz-adv-x="1347" d="M199 12v1440q0 12 14 12h485q231 0 366.5 -136t135.5 -374v-450q0 -238 -135.5 -371t-366.5 -133h-485q-14 0 -14 12zM268 66h428q205 0 319.5 113.5t114.5 324.5v450q0 211 -115.5 329t-318.5 118h-428v-1335z" />
<glyph unicode="E" horiz-adv-x="1153" d="M199 12v1440q0 12 14 12h799q12 0 12 -12v-39q0 -12 -12 -12h-744v-623h701q14 0 14 -12v-39q0 -12 -14 -12h-701v-652h774q12 0 13 -12v-39q0 -12 -13 -12h-829q-14 0 -14 12z" />
<glyph unicode="F" horiz-adv-x="1116" d="M199 12v1440q0 12 14 12h819q15 0 15 -12v-39q0 -12 -15 -12h-764v-645h707q12 0 12 -13v-38q0 -12 -12 -13h-707v-680q0 -12 -12 -12h-43q-14 0 -14 12z" />
<glyph unicode="G" horiz-adv-x="1298" d="M147 467v532q0 219 134.5 352.5t369.5 133.5q268 0 471 -160q14 -6 2 -18l-22 -31q-6 -10 -19 -4q-183 149 -429 149h-3q-209 0 -322.5 -115.5t-113.5 -306.5v-532q0 -190 114.5 -306t327.5 -116q254 0 437 164v483h-430q-12 0 -13 13v38q0 12 13 13h485q12 0 12 -13 v-550q0 -11 -6 -17q-204 -196 -495 -196h-3q-238 0 -374 134t-136 353z" />
<glyph unicode="H" horiz-adv-x="1378" d="M199 12v1440q0 12 14 12h43q12 0 12 -12v-674h842v674q0 12 14 12h41q14 0 15 -12v-1440q0 -12 -15 -12h-41q-14 0 -14 12v703h-842v-703q0 -12 -12 -12h-43q-14 0 -14 12z" />
<glyph unicode="I" horiz-adv-x="466" d="M199 12v1440q0 12 14 12h43q12 0 12 -12v-1440q0 -12 -12 -12h-43q-14 0 -14 12z" />
<glyph unicode="J" horiz-adv-x="1003" d="M41 164l22 31q6 12 19 2q164 -152 346 -152q162 0 241 90t79 283v1034q0 12 12 12h43q12 0 12 -12v-1034q0 -438 -387 -438q-207 0 -385 165q-10 6 -2 19z" />
<glyph unicode="K" horiz-adv-x="1234" d="M199 12v1440q0 12 14 12h43q12 0 12 -12v-805l817 809q8 8 19 8h57q8 0 11.5 -5t-3.5 -11l-651 -645l690 -787q12 -16 -8 -16h-57q-10 0 -17 8l-655 748l-203 -199v-545q0 -12 -12 -12h-43q-14 0 -14 12z" />
<glyph unicode="L" horiz-adv-x="1011" d="M199 12v1440q0 12 14 12h43q12 0 12 -12v-1389h705q12 0 12 -12v-39q0 -12 -12 -12h-760q-14 0 -14 12z" />
<glyph unicode="M" horiz-adv-x="1720" d="M199 12v1440q0 12 14 12h57q10 0 17 -8l573 -1014l576 1014q2 8 14 8h57q14 0 15 -12v-1440q0 -12 -15 -12h-43q-12 0 -12 12l2 1346v2l-561 -993q-4 -8 -16 -9h-33q-8 0 -17 9l-561 993v-2l2 -1346q0 -12 -12 -12h-43q-14 0 -14 12z" />
<glyph unicode="N" horiz-adv-x="1431" d="M199 12v1440q0 12 14 12h51q12 0 15 -8l886 -1350l-2 1346q0 12 15 12h41q14 0 14 -12v-1440q0 -12 -14 -12h-50q-14 0 -16 8l-887 1346l2 -1342q0 -12 -12 -12h-43q-14 0 -14 12z" />
<glyph unicode="O" horiz-adv-x="1361" d="M147 459v530q0 221 146.5 358.5t388.5 137.5q240 0 386 -137.5t146 -358.5v-530q0 -209 -147 -344t-385 -135q-240 0 -387.5 135t-147.5 344zM215 459q0 -182 128 -298t339 -116q209 0 337 115.5t128 298.5v530q0 195 -126 313.5t-339 118.5t-340 -118.5t-127 -313.5 v-530z" />
<glyph unicode="P" horiz-adv-x="1251" d="M199 12v1440q0 12 12 12h455q240 0 369.5 -118.5t129.5 -329.5q0 -213 -130 -330t-369 -117h-400v-557q0 -12 -12 -12h-43q-12 0 -12 12zM266 635h393q215 0 327 98t112 283q0 186 -112 285.5t-327 99.5h-393v-766z" />
<glyph unicode="Q" horiz-adv-x="1363" d="M147 463v526q0 219 146.5 357.5t388.5 138.5q240 0 386 -138.5t146 -357.5v-526q0 -205 -141 -336l144 -152q8 -8 0 -18l-25 -25q-8 -8 -18 2l-146 152q-152 -106 -346 -106q-238 0 -386.5 138t-148.5 345zM215 463q0 -180 129 -300t338 -120q166 0 299 94l-240 250 q-6 10 0 19l25 24q8 8 18 0l242 -254q121 117 121 287v526q0 193 -127 312.5t-338 119.5q-213 0 -340 -119.5t-127 -312.5v-526z" />
<glyph unicode="R" horiz-adv-x="1265" d="M199 12v1440q0 12 14 12h449q227 0 357 -111.5t130 -310.5q0 -186 -119 -296.5t-332 -120.5l473 -609q8 -16 -8 -16h-55q-14 0 -16 8l-474 615h-350v-611q0 -12 -12 -12h-43q-14 0 -14 12zM268 686h394q201 0 310 92t109 264t-110 265.5t-309 93.5h-394v-715z" />
<glyph unicode="S" horiz-adv-x="1214" d="M111 190l24 31q10 10 19 4q217 -180 462 -180q197 0 315 83t118 239q0 139 -98.5 214.5t-348.5 133.5q-244 55 -364.5 154.5t-120.5 260.5q0 174 136 264.5t345 90.5q270 0 477 -164q12 -6 2 -16l-20 -33q-8 -10 -19 -4q-186 150 -448 153q-174 0 -289 -75.5t-115 -219.5 q0 -135 103.5 -213.5t326.5 -132.5q274 -66 388 -157.5t114 -255.5q0 -184 -136 -285.5t-366 -101.5q-152 0 -267.5 45t-235.5 147q-8 8 -2 18z" />
<glyph unicode="T" horiz-adv-x="1093" d="M25 1413v39q0 12 12 12h1018q14 0 14 -12v-39q0 -12 -14 -12h-477v-1389q0 -12 -13 -12h-43q-14 0 -14 12v1389h-471q-12 0 -12 12z" />
<glyph unicode="U" horiz-adv-x="1378" d="M186 494v958q0 12 15 12h43q12 0 12 -12v-956q0 -207 112.5 -328t319.5 -121t320.5 121t113.5 328v956q0 12 13 12h43q14 0 14 -12v-958q0 -231 -134 -370.5t-369.5 -139.5t-369 139t-133.5 371z" />
<glyph unicode="V" horiz-adv-x="1232" d="M20 1450q-4 14 11 14h45q10 0 16 -10l522 -1376h4l525 1376q4 10 14 10h45q14 0 10 -14l-548 -1440q-5 -10 -15 -10h-63q-10 0 -17 10z" />
<glyph unicode="W" horiz-adv-x="1908" d="M31 1450q-4 14 10 14h47q8 0 12 -10l389 -1368h3q217 690 426 1339q4 12 12 13h47q6 0 14 -13l426 -1339q123 438 389 1368q4 10 15 10h45q16 0 12 -14l-420 -1440q-4 -10 -12 -10h-55q-10 0 -15 10l-422 1327h-2q-49 -170 -422 -1327q-4 -10 -12 -10h-55q-8 0 -14 10z " />
<glyph unicode="X" horiz-adv-x="1171" d="M49 16l496 723l-473 709q-12 16 8 16h53q12 0 14 -8l441 -663l436 663q6 8 16 8h54q18 0 6 -16l-471 -709l493 -723q12 -16 -6 -16h-55q-12 0 -14 8l-459 678l-463 -678q-2 -8 -14 -8h-54q-20 0 -8 16z" />
<glyph unicode="Y" horiz-adv-x="1097" d="M20 1448q-6 16 11 16h49q12 0 14 -8l455 -809l455 809q2 8 16 8h47q16 0 10 -16l-493 -868v-568q-1 -12 -15 -12h-43q-12 0 -12 12v568z" />
<glyph unicode="Z" horiz-adv-x="1132" d="M66 12v25q0 8 6 14l886 1350h-849q-12 0 -13 12v39q0 12 13 12h927q12 0 13 -12v-27q0 -4 -5 -16l-884 -1346h891q12 0 12 -12v-39q0 -12 -12 -12h-973q-12 0 -12 12z" />
<glyph unicode="[" horiz-adv-x="507" d="M186 -227v1910q0 12 15 13h233q12 0 12 -13v-36q0 -12 -12 -13h-182v-1812h182q12 0 12 -12v-37q0 -12 -12 -13h-233q-14 0 -15 13z" />
<glyph unicode="\" horiz-adv-x="811" d="M59 1450q-4 14 9 14h41q10 0 14 -10l629 -1440q4 -14 -9 -14h-43q-10 0 -14 10z" />
<glyph unicode="]" horiz-adv-x="507" d="M61 -190q0 12 13 12h182v1812h-182q-12 0 -13 13v36q0 12 13 13h233q14 0 15 -13v-1910q0 -12 -15 -13h-233q-12 0 -13 13v37z" />
<glyph unicode="^" d="M115 1200l409 475q6 8 17 8h41q10 0 16 -8l410 -475q12 -16 -7 -16h-57q-10 0 -14 8l-369 432l-368 -432q-5 -8 -15 -8h-57q-18 0 -6 16z" />
<glyph unicode="_" horiz-adv-x="1134" d="M53 -35q0 14 13 15h1003q12 -1 12 -15v-35q0 -12 -12 -12h-1003q-12 0 -13 12v35z" />
<glyph unicode="`" horiz-adv-x="262" d="M-37 1509q-10 16 6 17h51q10 0 15 -8l170 -275q10 -16 -10 -16h-31q-8 0 -17 8z" />
<glyph unicode="a" horiz-adv-x="1024" d="M80 307q0 154 110.5 237t309.5 83q143 0 315 -39v106q0 317 -315 318q-184 0 -328 -90q-10 -6 -18 2l-19 28q-4 13 0 17q150 104 367 104q188 0 283.5 -99.5t95.5 -277.5v-630q0 -12 -11 -15q-166 -71 -364 -71h-6q-184 0 -302 88t-118 239zM145 307q0 -121 98.5 -194.5 t256.5 -73.5q164 0 315 57v434q-160 37 -315 37q-172 0 -263.5 -67.5t-91.5 -192.5z" />
<glyph unicode="b" horiz-adv-x="1089" d="M156 66v1386q0 12 12 12h41q12 0 12 -12v-473q145 94 320 94q207 0 319.5 -109.5t112.5 -328.5v-219q0 -219 -114 -327.5t-320 -108.5q-197 0 -373 71q-10 4 -10 15zM221 94q156 -55 318 -55q367 0 366 377v219q0 377 -366 377q-174 0 -318 -99v-819z" />
<glyph unicode="c" horiz-adv-x="948" d="M119 358v336q0 164 110.5 271.5t296.5 107.5q176 0 328 -108q10 -8 4 -19l-18 -28q-10 -8 -19 -3q-135 96 -297 97q-160 0 -250 -90.5t-90 -227.5v-336q0 -137 91.5 -228t248.5 -91q168 0 324 115q12 8 18 -2l21 -27q8 -13 -4 -19q-161 -126 -354 -126h-3 q-186 0 -296.5 107.5t-110.5 270.5z" />
<glyph unicode="d" horiz-adv-x="1089" d="M117 416v219q0 219 112.5 328.5t319.5 109.5q174 0 319 -94v473q0 12 13 12h39q14 0 14 -12v-1386q0 -10 -10 -15q-174 -71 -368 -71h-5q-207 0 -320.5 108.5t-113.5 327.5zM182 416q0 -377 369 -377q162 0 317 55v819q-143 98 -317 99q-369 0 -369 -377v-219z" />
<glyph unicode="e" horiz-adv-x="1038" d="M119 352v332q0 182 111.5 285.5t296 103.5t296 -103.5t111.5 -285.5v-184q0 -12 -12 -13h-738v-135q0 -143 99.5 -228t244.5 -85q188 0 349 143q10 6 16 -2l22 -26q10 -10 -2 -17q-169 -157 -384 -157h-3q-170 0 -288.5 101t-118.5 271zM184 545h684v139q0 154 -93 241 t-249 87q-158 0 -250 -86t-92 -242v-139z" />
<glyph unicode="f" horiz-adv-x="626" d="M158 12v1139q0 156 84 245t229 89q63 0 125 -6q12 -4 12 -15v-34q0 -15 -16 -11q-57 6 -117 6q-123 0 -187.5 -71.5t-64.5 -202.5v-100h359q12 0 12 -13v-34q0 -14 -12 -15h-359v-977q0 -12 -12 -12h-41q-12 0 -12 12z" />
<glyph unicode="g" horiz-adv-x="1085" d="M117 446v222q0 205 114.5 305t317.5 100t371 -74q10 -2 10 -14v-1016q0 -174 -100.5 -276.5t-301.5 -102.5q-215 0 -385 164q-6 6 0 17l21 28q8 10 16 2q159 -149 346 -149h2q172 0 255 85q81 83 81 227v7v144q-147 -76 -315 -76q-203 0 -317.5 104.5t-114.5 302.5z M182 446q0 -346 369 -346q168 0 313 78v780q-154 53 -317 54q-365 0 -365 -344v-222z" />
<glyph unicode="h" d="M158 12v1440q0 12 12 12h41q12 0 12 -12v-457q160 78 322 78q205 0 317.5 -104.5t112.5 -311.5v-645q0 -12 -12 -12h-39q-14 0 -15 12v645q0 354 -366 355q-170 0 -320 -80v-920q0 -12 -12 -12h-41q-12 0 -12 12z" />
<glyph unicode="i" horiz-adv-x="380" d="M137 1335q0 25 15.5 39.5t38 14.5t38 -14.5t15.5 -39.5q0 -23 -15.5 -37t-38 -14t-38 14.5t-15.5 36.5zM158 12v1026q0 14 12 15h41q12 0 12 -15v-1026q0 -12 -12 -12h-41q-12 0 -12 12z" />
<glyph unicode="j" horiz-adv-x="397" d="M-135 -352q0 12 8 12h4q47 -8 100 -8q197 0 197 276v1110q0 14 12 15h41q12 0 13 -15v-1110q0 -338 -258 -338q-61 0 -105 9q-12 4 -12 16v33zM154 1335q0 25 15 39.5t37.5 14.5t38 -14.5t15.5 -39.5q0 -23 -15.5 -37t-38 -14t-37.5 14.5t-15 36.5z" />
<glyph unicode="k" horiz-adv-x="974" d="M158 12v1440q0 12 12 12h41q12 0 12 -12v-956l623 551q4 6 16 6h56q18 0 6 -17l-492 -438l514 -582q12 -16 -6 -16h-53q-10 0 -17 8l-485 547l-162 -141v-402q0 -12 -12 -12h-41q-12 0 -12 12z" />
<glyph unicode="l" horiz-adv-x="552" d="M150 317v1135q0 12 12 12h41q12 0 12 -12v-1141q0 -270 197 -270q61 0 116 8q12 0 13 -10v-35q-1 -12 -13 -16q-70 -8 -118 -8q-260 0 -260 337z" />
<glyph unicode="m" horiz-adv-x="1644" d="M156 12v969q0 10 10 16q164 76 328 76q180 0 278 -102q150 102 328 102q184 0 290.5 -101.5t106.5 -285.5v-674q0 -12 -14 -12h-39q-12 0 -12 12v676q0 156 -88.5 240t-245.5 84q-164 0 -291 -88q57 -96 57 -236v-676q0 -12 -12 -12h-41q-12 0 -12 12v676q0 324 -303 324 q-133 0 -275 -58v-942q0 -12 -12 -12h-41q-12 0 -12 12z" />
<glyph unicode="n" horiz-adv-x="1120" d="M156 12v967q0 10 10 16q174 78 373 78q207 0 320.5 -104.5t113.5 -309.5v-647q0 -12 -12 -12h-39q-14 0 -15 12v645q0 176 -95 265.5t-273 89.5q-164 0 -318 -60v-940q0 -12 -12 -12h-41q-12 0 -12 12z" />
<glyph unicode="o" horiz-adv-x="1089" d="M119 365v323q0 168 112.5 276.5t313.5 108.5q203 0 314.5 -108.5t111.5 -276.5v-323q0 -170 -111.5 -277.5t-314.5 -107.5q-201 0 -313.5 108.5t-112.5 276.5zM184 365q0 -143 93.5 -234.5t267.5 -91.5t267 91t93 235v323q0 141 -93 232.5t-267 91.5q-172 0 -266.5 -91.5 t-94.5 -232.5v-323z" />
<glyph unicode="p" horiz-adv-x="1089" d="M156 -377v1362q0 10 8 14q176 74 375 74q207 0 320.5 -108.5t113.5 -329.5v-217q0 -219 -112.5 -328.5t-319.5 -109.5q-180 0 -320 92v-449q0 -12 -12 -12h-41q-12 0 -12 12zM221 139q148 -100 318 -100q367 0 366 379v217q0 379 -366 379q-166 0 -318 -58v-817z" />
<glyph unicode="q" horiz-adv-x="1089" d="M117 418v217q0 221 113.5 329.5t320.5 108.5q197 0 373 -72q10 -4 10 -16v-1362q0 -12 -14 -12h-39q-12 0 -13 12v449q-147 -92 -319 -92q-207 0 -319.5 109.5t-112.5 328.5zM182 418q0 -379 369 -379q168 0 317 98v821q-156 55 -317 56q-369 0 -369 -379v-217z" />
<glyph unicode="r" horiz-adv-x="763" d="M156 12v975q0 10 10 14q150 72 344 72q88 0 207 -18q12 -2 12 -15v-34q0 -14 -12 -11q-102 16 -203 17q-158 0 -293 -54v-946q0 -12 -12 -12h-41q-12 0 -12 12z" />
<glyph unicode="s" horiz-adv-x="944" d="M84 129l20 31q8 10 17 2q164 -123 356 -123q145 0 233.5 61.5t88.5 171.5q0 49 -20.5 86t-47 59.5t-78 41t-83 27t-93.5 20.5q-59 12 -104 24.5t-99.5 37t-89 55t-59.5 78t-25 106.5q0 123 101.5 194.5t259.5 71.5q188 0 360 -100q10 -6 4 -17l-18 -30q-4 -12 -16 -4 q-160 90 -332 90q-131 0 -213 -55.5t-82 -149.5q0 -57 26.5 -99t79 -69t100.5 -42t119 -30q70 -14 112 -25.5t98.5 -35t88 -51t54 -75t22.5 -106.5q0 -133 -101 -213.5t-286 -80.5q-221 0 -389 131q-12 6 -4 18z" />
<glyph unicode="t" horiz-adv-x="620" d="M150 315v990q0 12 12 12h39q12 0 14 -12v-254h346q12 0 12 -13v-34q0 -14 -12 -15h-346v-672q0 -131 64.5 -201.5t185.5 -70.5q61 0 123 6q12 0 12 -12v-35q0 -12 -12 -14q-59 -6 -123 -6q-147 0 -231 87t-84 244z" />
<glyph unicode="u" horiz-adv-x="1105" d="M150 393v645q0 14 12 15h41q12 0 12 -15v-645q0 -176 93 -265t267 -89q150 0 310 61v938q0 15 14 15h39q12 0 12 -15v-964q0 -14 -10 -17q-166 -77 -360 -77h-5q-201 0 -313 105t-112 308z" />
<glyph unicode="v" horiz-adv-x="970" d="M41 1036q-8 16 10 17h43q8 0 15 -11l374 -964l373 964q4 10 16 11h43q14 0 11 -17l-402 -1026q-6 -10 -16 -10h-51q-10 0 -15 10z" />
<glyph unicode="w" horiz-adv-x="1515" d="M45 1036q-4 16 10 17h43q10 0 15 -11l299 -958h2l307 934q4 10 12 10h49q10 0 15 -10l307 -934l301 958q4 10 12 11h43q16 0 10 -17l-325 -1026q-4 -10 -15 -10h-51q-10 0 -14 10l-305 932h-2l-307 -932q-5 -10 -13 -10h-53q-8 0 -12 10z" />
<glyph unicode="x" horiz-adv-x="960" d="M43 16l395 523l-370 497q-8 16 8 17h49q10 0 14 -9l340 -458l340 458q4 8 15 9h49q20 0 8 -17l-371 -497l395 -523q12 -16 -8 -16h-51q-12 0 -14 8l-363 481l-362 -481q-2 -8 -15 -8h-51q-16 0 -8 16z" />
<glyph unicode="y" horiz-adv-x="1105" d="M147 434v604q0 14 13 15h39q14 0 14 -15v-602q0 -168 96.5 -252t268.5 -84q160 0 305 76v862q0 14 12 15h41q12 0 12 -15v-1069q0 -174 -99 -276.5t-296 -102.5q-207 0 -383 160q-8 8 0 19l23 26q8 10 16 2q168 -145 344 -145q166 0 249 85q81 83 81 227v7v142 q-141 -74 -312 -74q-195 0 -309.5 100.5t-114.5 294.5z" />
<glyph unicode="z" horiz-adv-x="915" d="M59 12v25q0 8 7 14l679 940h-643q-12 0 -12 13v34q0 14 12 15h721q12 0 13 -15v-20q0 -6 -5 -14l-681 -945h692q12 0 12 -12v-35q0 -12 -12 -12h-770q-12 0 -13 12z" />
<glyph unicode="{" horiz-adv-x="503" d="M84 709v41q0 12 10 14q68 14 93.5 60t25.5 157v489q0 115 47 170.5t148 57.5h16q12 0 12 -12v-37q0 -12 -12 -13h-12q-72 -2 -104 -42t-32 -126v-493q0 -221 -135 -246q135 -25 135 -246v-493q0 -90 32 -128t106 -40h10q12 0 12 -12v-37q0 -13 -12 -13h-12 q-104 2 -151.5 56.5t-47.5 171.5v489q0 111 -25.5 157t-93.5 60q-10 2 -10 15z" />
<glyph unicode="|" horiz-adv-x="438" d="M186 -272v2023q0 12 15 12h37q14 0 14 -12v-2023q0 -13 -14 -13h-37q-14 0 -15 13z" />
<glyph unicode="}" horiz-adv-x="503" d="M68 -190q0 12 12 12h10q74 2 105.5 40t31.5 128v493q0 221 135 246q-135 25 -135 246v493q0 86 -31.5 126t-103.5 42h-12q-12 0 -12 13v37q0 12 12 12h16q100 -2 147.5 -57.5t47.5 -170.5v-489q0 -111 25.5 -157t93.5 -60q10 -2 10 -14v-41q0 -12 -10 -15 q-68 -14 -93.5 -60t-25.5 -157v-489q0 -117 -47.5 -171.5t-151.5 -56.5h-12q-12 0 -12 13v37z" />
<glyph unicode="~" d="M166 688q-10 10 0 17q86 80 194 79q78 0 215 -47q129 -43 187 -43q92 0 158 60q10 8 18 0l27 -23q12 -8 2 -18q-94 -80 -203 -80q-61 0 -205 49q-139 43 -194 43q-88 0 -154 -61q-10 -8 -18 0z" />
<glyph unicode="&#xa2;" horiz-adv-x="1024" d="M139 358v336q0 156 102.5 262.5t276.5 114.5v146q0 12 12 12h29q12 0 12 -12v-144q164 -6 303 -108q10 -8 5 -19l-19 -31q-10 -6 -18 -2q-133 98 -297 99q-160 0 -250 -90.5t-90 -227.5v-336q0 -137 91 -228t249 -91q170 0 323 117q13 8 19 -2l20 -29q8 -12 -4 -19 q-150 -121 -332 -126v-130q0 -12 -12 -12h-29q-12 0 -12 12v130q-174 8 -276.5 115.5t-102.5 262.5z" />
<glyph unicode="&#xa3;" horiz-adv-x="1112" d="M104 12v35q0 12 13 12q139 8 139 220v477h-139q-12 0 -13 12v35q0 12 13 12h139v309q0 156 99.5 258.5t273.5 102.5q203 0 350 -123q8 -8 2 -19l-18 -26q-8 -8 -19 -2q-156 111 -317 110q-150 0 -230 -86t-80 -215v-309h474q12 0 12 -12v-35q0 -12 -12 -12h-474v-477 q0 -172 -84 -220h756q14 0 15 -12v-35q-1 -12 -15 -12h-872q-12 0 -13 12z" />
<glyph unicode="&#xa5;" horiz-adv-x="1126" d="M57 1448q-6 16 11 16h47q10 0 16 -10l432 -809l434 809q5 10 17 10h47q18 0 8 -16l-451 -827h252q14 0 15 -15v-31q0 -12 -15 -12h-274v-174h274q14 0 15 -12v-31q0 -12 -15 -12h-274v-322q0 -12 -12 -12h-41q-12 0 -13 12v322h-272q-12 0 -12 12v31q0 12 12 12h272v174 h-272q-12 0 -12 12v31q0 14 12 15h250z" />
<glyph unicode="&#xa8;" horiz-adv-x="481" d="M16 1335q0 53 51.5 53t51.5 -53q0 -51 -51.5 -51t-51.5 51zM369 1335q0 25 15 39.5t38 14.5q51 -1 51 -54q0 -51 -51 -51q-23 0 -38 14.5t-15 36.5z" />
<glyph unicode="&#xa9;" horiz-adv-x="1736" d="M123 723q0 350 214 556t533 206q317 0 530.5 -206t213.5 -556q0 -344 -212 -543.5t-531.5 -199.5t-533.5 199.5t-214 543.5zM172 723q0 -330 198.5 -513t499.5 -183q299 0 497 183t198 513q0 340 -198 527.5t-497 187.5q-297 0 -497.5 -188.5t-200.5 -526.5zM578 573v295 q0 109 78.5 185.5t201.5 76.5q147 2 248 -102q6 -10 2 -18l-21 -21q-8 -10 -18 -2q-86 90 -211 88q-98 -2 -160.5 -63.5t-62.5 -143.5v-295q0 -84 62.5 -145t164.5 -61q135 0 228 92q10 8 18 -2l16 -23q6 -10 0 -16q-106 -111 -262 -109q-127 2 -205.5 79t-78.5 185z" />
<glyph unicode="&#xab;" horiz-adv-x="968" d="M82 588q-2 8 0 16l295 434q2 8 14 9h47q18 0 6 -17l-294 -434l294 -434q12 -17 -6 -17h-47q-12 0 -14 9zM504 588q-2 8 0 16l295 434q2 8 14 9h47q18 0 6 -17l-295 -434l295 -434q12 -17 -6 -17h-47q-12 0 -14 9z" />
<glyph unicode="&#xad;" horiz-adv-x="819" d="M143 610v37q0 12 13 12h508q12 0 12 -12v-37q0 -12 -12 -12h-508q-12 0 -13 12z" />
<glyph unicode="&#xae;" horiz-adv-x="1089" d="M119 1059q0 195 121.5 310.5t304 115.5t304.5 -115.5t122 -310.5q0 -197 -122 -311.5t-304.5 -114.5t-304 114.5t-121.5 311.5zM160 1059q0 -182 109.5 -283.5t277.5 -101.5q166 0 274.5 101.5t108.5 283.5q0 184 -108.5 285.5t-274.5 101.5q-168 0 -277.5 -101.5 t-109.5 -285.5zM410 874v388q0 14 12 14h141q68 0 107 -34t39 -93q0 -113 -129 -119l125 -153q10 -14 -7 -15h-22q-12 0 -14 8l-132 158h-81v-154q-1 -12 -13 -12h-14q-12 0 -12 12zM449 1067h114q104 0 105 82q0 86 -105 86h-114v-168z" />
<glyph unicode="&#xb4;" horiz-adv-x="303" d="M4 1243l170 275q4 8 14 8h52q16 0 6 -17l-185 -274q-8 -8 -16 -8h-31q-20 0 -10 16z" />
<glyph unicode="&#xb8;" horiz-adv-x="339" d="M4 -358q0 12 14 10q57 -18 113 -19q145 0 145 109q0 51 -38.5 74.5t-128.5 25.5q-10 0 -17 8q-4 4 0 15l49 131q4 10 13 10h26q16 0 10 -14l-40 -113q88 0 137 -35.5t49 -103.5q0 -70 -54.5 -113t-146.5 -43q-61 0 -121 19q-10 4 -10 16v23z" />
<glyph unicode="&#xbb;" horiz-adv-x="968" d="M102 162l295 434l-295 434q-12 16 7 17h47q12 0 14 -9l295 -434q2 -8 0 -16l-295 -434q-2 -9 -14 -9h-47q-18 0 -7 17zM524 162l295 434l-295 434q-12 16 6 17h48q12 0 14 -9l295 -434q2 -8 0 -16l-295 -434q-2 -9 -14 -9h-48q-18 0 -6 17z" />
<glyph unicode="&#x2c6;" horiz-adv-x="618" d="M43 1243l233 275q8 8 17 8h33q8 0 16 -8l231 -275q12 -16 -6 -16h-43q-10 0 -14 8l-201 240l-200 -240q-9 -8 -17 -8h-41q-18 0 -8 16z" />
<glyph unicode="&#x2da;" horiz-adv-x="407" d="M4 1391q0 86 55.5 137t143.5 51q86 0 141 -51t55 -137t-54 -137.5t-142 -51.5t-143.5 51.5t-55.5 137.5zM55 1390.5q0 -61.5 41 -100.5t107 -39q63 0 104 39t41 100.5t-41 100.5t-104 39q-66 0 -107 -39t-41 -100.5z" />
<glyph unicode="&#x2dc;" horiz-adv-x="569" d="M8 1327q16 43 54 74t88 31q43 0 145 -50q90 -45 125 -45q61 0 96 76q4 12 14 6l25 -12q10 -6 8 -16q-14 -45 -52 -77t-87 -32q-45 0 -139 47q-86 47 -133 47q-66 0 -97 -73q-4 -10 -16 -7l-25 13q-10 8 -6 18z" />
<glyph unicode="&#x401;" horiz-adv-x="1153" d="M199 12v1440q0 12 14 12h799q12 0 12 -12v-39q0 -12 -12 -12h-744v-623h701q14 0 14 -12v-39q0 -12 -14 -12h-701v-652h774q12 0 13 -12v-39q0 -12 -13 -12h-829q-14 0 -14 12zM369 1763q0 53 53 54q55 -1 55 -54q0 -55 -55 -55q-53 0 -53 55zM776 1763q0 53 53 54 q56 -1 56 -54q0 -55 -56 -55q-53 0 -53 55z" />
<glyph unicode="&#x402;" horiz-adv-x="1449" d="M25 1413v39q0 12 12 12h1016q12 0 12 -12v-39q0 -12 -12 -12h-475v-408q162 76 317 76q207 0 319.5 -103.5t112.5 -310.5v-338q0 -338 -258 -337q-47 0 -104 8q-14 4 -15 16v35q0 16 15 12q70 -8 100 -8q195 0 195 268v340q0 354 -367 355q-164 0 -315 -78v-916 q0 -12 -15 -12h-43q-12 0 -12 12v1389h-471q-12 0 -12 12z" />
<glyph unicode="&#x403;" horiz-adv-x="1015" d="M199 12v1440q0 12 14 12h766q12 0 12 -12v-39q0 -12 -12 -12h-711v-1389q0 -12 -12 -12h-43q-14 0 -14 12zM459 1632l219 273q2 8 14 8h58q20 -1 6 -15l-238 -274q-6 -8 -16 -8h-37q-18 0 -6 16z" />
<glyph unicode="&#x404;" horiz-adv-x="1191" d="M150 465v534q0 219 131 352.5t360 133.5q244 0 432 -152q14 -8 2 -16l-22 -35q-6 -8 -19 -2q-172 141 -395 141q-205 0 -313.5 -115.5t-108.5 -306.5v-235h692q12 0 13 -12v-39q0 -12 -13 -13h-692v-235q0 -190 110.5 -306t315.5 -116q242 0 424 158q8 8 16 -2l25 -33 q6 -11 -4 -19q-188 -168 -459 -167q-233 0 -364 132t-131 353z" />
<glyph unicode="&#x405;" horiz-adv-x="1230" d="M119 190l24 31q10 10 19 4q217 -180 463 -180q197 0 314.5 83t117.5 239q0 139 -98.5 214.5t-348.5 133.5q-244 55 -364.5 154.5t-120.5 260.5q0 174 136 264.5t345 90.5q270 0 477 -164q12 -6 2 -16l-20 -33q-8 -10 -18 -4q-186 150 -449 153q-174 0 -288.5 -75.5 t-114.5 -219.5q0 -135 103 -213.5t327 -132.5q274 -66 387.5 -157.5t113.5 -255.5q0 -184 -136 -285.5t-365 -101.5q-152 0 -267.5 45t-236.5 147q-8 8 -2 18z" />
<glyph unicode="&#x406;" horiz-adv-x="466" d="M199 12v1440q0 12 14 12h43q12 0 12 -12v-1440q0 -12 -12 -12h-43q-14 0 -14 12z" />
<glyph unicode="&#x407;" horiz-adv-x="464" d="M16 1763q0 51 52 52q53 -1 53 -52q0 -53 -53 -53q-51 0 -52 53zM199 12v1440q0 12 12 12h43q12 0 12 -12v-1440q0 -12 -12 -12h-43q-12 0 -12 12zM346 1763q0 23 15.5 37.5t38 14.5t38 -14.5t15.5 -37.5q0 -25 -15.5 -39t-38 -14t-38 14.5t-15.5 38.5z" />
<glyph unicode="&#x408;" horiz-adv-x="1003" d="M41 164l22 31q6 12 19 2q164 -152 346 -152q162 0 241 90t79 283v1034q0 12 12 12h43q12 0 12 -12v-1034q0 -438 -387 -438q-207 0 -385 165q-10 6 -2 19z" />
<glyph unicode="&#x409;" horiz-adv-x="2039" d="M14 6v39q0 12 13 12q104 2 161.5 82t83.5 279q53 360 62 1034q0 12 12 12h729q12 0 12 -12v-553h367q244 0 371 -115.5t127 -330.5q0 -219 -128 -336t-370 -117h-422q-12 0 -12 12v1389h-621q-16 -717 -61 -1002q-35 -221 -107.5 -313t-203.5 -92q-12 0 -13 12zM1087 66 h367q428 0 428 387q0 184 -106.5 282.5t-321.5 98.5h-367v-768z" />
<glyph unicode="&#x40a;" horiz-adv-x="2027" d="M199 12v1440q0 12 14 12h43q12 0 12 -12v-610h779v610q0 12 12 12h43q12 0 12 -12v-610h318q514 0 514 -420q0 -201 -135.5 -311.5t-368.5 -110.5h-383q-12 0 -12 12v766h-779v-766q0 -12 -12 -12h-43q-14 0 -14 12zM1114 66h328q207 0 320.5 91t113.5 265 q0 354 -444 354h-318v-710z" />
<glyph unicode="&#x40b;" horiz-adv-x="1447" d="M25 1413v39q0 12 12 12h985q14 0 14 -12v-39q0 -12 -14 -12h-457v-408q162 76 318 76q207 0 320.5 -103.5t113.5 -310.5v-643q0 -12 -12 -12h-43q-12 0 -13 12v639q0 354 -368 355q-164 0 -316 -78v-916q0 -12 -12 -12h-43q-14 0 -14 12v1389h-459q-12 0 -12 12z" />
<glyph unicode="&#x40c;" horiz-adv-x="1234" d="M199 12v1440q0 12 14 12h43q12 0 12 -12v-805l817 809q8 8 19 8h57q8 0 11.5 -5t-3.5 -11l-651 -645l690 -787q12 -16 -8 -16h-57q-10 0 -17 8l-655 748l-203 -199v-545q0 -12 -12 -12h-43q-14 0 -14 12zM553 1632l219 273q2 8 14 8h58q20 -1 6 -15l-238 -274 q-6 -8 -16 -8h-37q-18 0 -6 16z" />
<glyph unicode="&#x40e;" horiz-adv-x="1050" d="M20 1450q-8 14 11 14h47q12 0 14 -10l467 -913l408 913q4 10 14 10h49q6 0 9 -5t-1 -9l-647 -1440q-6 -10 -16 -10h-49q-12 0 -9 14l207 453zM215 1903q-4 10 12 14l31 8q12 4 16 -10q12 -113 77 -179.5t173.5 -66.5t174 66.5t77.5 179.5q4 14 15 10l32 -8q13 -4 13 -14 q-16 -129 -98.5 -210t-213.5 -81q-129 0 -211 81t-98 210z" />
<glyph unicode="&#x40f;" horiz-adv-x="1386" d="M199 12v1440q0 12 14 12h43q12 0 12 -12v-1389h850v1389q1 12 15 12h43q12 0 12 -12v-1440q0 -12 -12 -12h-449v-256q0 -14 -12 -14h-41q-12 0 -12 14v256h-449q-14 0 -14 12z" />
<glyph unicode="&#x410;" horiz-adv-x="1206" d="M23 14l538 1440q4 10 12 10h58q10 0 14 -10l539 -1440q4 -14 -10 -14h-48q-8 0 -14 10l-166 449h-686l-168 -449q-4 -10 -12 -10h-47q-14 0 -10 14zM283 522h641l-318 858h-6z" />
<glyph unicode="&#x411;" horiz-adv-x="1267" d="M199 12v1440q0 12 14 12h852q12 0 12 -12v-39q0 -12 -12 -12h-797v-529h414q248 0 365.5 -106.5t117.5 -329.5q0 -209 -125 -322.5t-348 -113.5h-479q-14 0 -14 12zM268 63h424q195 0 299.5 96.5t104.5 276.5q0 193 -98.5 283t-313.5 90h-416v-746z" />
<glyph unicode="&#x412;" horiz-adv-x="1269" d="M199 12v1440q0 12 14 12h436q233 0 340 -98t107 -256q0 -123 -64.5 -207t-179.5 -117q147 -29 225 -128t78 -252q0 -193 -131 -299.5t-375 -106.5h-436q-14 0 -14 12zM268 63h381q217 0 327.5 89.5t110.5 253t-99 256t-302 92.5h-418v-691zM268 817h418q160 0 250 77 t90 216q0 129 -87 210t-290 81h-381v-584z" />
<glyph unicode="&#x413;" horiz-adv-x="1015" d="M199 12v1440q0 12 14 12h766q12 0 12 -12v-39q0 -12 -12 -12h-711v-1389q0 -12 -12 -12h-43q-14 0 -14 12z" />
<glyph unicode="&#x414;" horiz-adv-x="1323" d="M18 51q0 12 13 12h73q84 41 130.5 170t71 407t38.5 812q0 12 12 12h723q14 0 15 -12v-1389h139q14 0 14 -12v-319q0 -14 -14 -15h-41q-14 0 -14 15v268h-1092v-268q0 -15 -12 -15h-43q-12 0 -13 15v319zM205 63h819v1338h-614q-14 -688 -58.5 -977t-146.5 -361z" />
<glyph unicode="&#x415;" horiz-adv-x="1153" d="M199 12v1440q0 12 14 12h799q12 0 12 -12v-39q0 -12 -12 -12h-744v-623h701q14 0 14 -12v-39q0 -12 -14 -12h-701v-652h774q12 0 13 -12v-39q0 -12 -13 -12h-829q-14 0 -14 12z" />
<glyph unicode="&#x416;" horiz-adv-x="1835" d="M39 16l614 791l-579 641q-12 16 6 16h59q12 0 15 -8l729 -809v805q0 12 14 12h43q12 0 12 -12v-805l729 809q2 8 17 8h59q16 0 4 -16l-579 -641l616 -791q8 -16 -8 -16h-57q-12 0 -15 8l-581 748l-185 -199v-545q0 -12 -12 -12h-43q-14 0 -14 12v545l-185 199l-579 -748 q-6 -8 -17 -8h-55q-20 0 -8 16z" />
<glyph unicode="&#x417;" horiz-adv-x="1171" d="M76 160q-8 10 0 18l24 33q8 12 17 0q184 -168 440 -168q190 0 304 99.5t114 258.5q0 141 -98.5 237.5t-296.5 96.5h-234q-12 0 -12 13v38q0 12 12 13h252q164 0 252 87t88 208q0 139 -106.5 233t-278.5 94q-244 0 -410 -157q-10 -6 -18 2l-23 30q-6 10 0 19 q184 170 453 170q197 0 325 -110.5t128 -278.5q0 -111 -64.5 -200t-189.5 -126q145 -39 217.5 -137t72.5 -232q0 -190 -134 -305.5t-353 -115.5q-291 0 -481 180z" />
<glyph unicode="&#x418;" horiz-adv-x="1431" d="M199 12v1440q0 12 14 12h41q14 0 14 -12l-2 -1346l887 1350q2 8 14 8h52q14 0 14 -12v-1440q0 -12 -14 -12h-43q-12 0 -13 12l2 1342l-886 -1346q-2 -8 -17 -8h-49q-14 0 -14 12z" />
<glyph unicode="&#x419;" horiz-adv-x="1431" d="M199 12q0 -12 14 -12h49q14 0 17 8l886 1346l-2 -1342q1 -12 13 -12h43q14 0 14 12v1440q0 12 -14 12h-52q-12 0 -14 -8l-887 -1350l2 1346q0 12 -14 12h-41q-14 0 -14 -12v-1440zM406 1903q-4 10 12 14l31 8q12 4 16 -10q12 -113 76.5 -179.5t173 -66.5t174 66.5 t78.5 179.5q4 14 14 10l33 -8q12 -4 12 -14q-16 -129 -98 -210t-213 -81q-129 0 -211 81t-98 210z" />
<glyph unicode="&#x41a;" horiz-adv-x="1234" d="M199 12v1440q0 12 14 12h43q12 0 12 -12v-805l817 809q8 8 19 8h57q8 0 11.5 -5t-3.5 -11l-651 -645l690 -787q12 -16 -8 -16h-57q-10 0 -17 8l-655 748l-203 -199v-545q0 -12 -12 -12h-43q-14 0 -14 12z" />
<glyph unicode="&#x41b;" horiz-adv-x="1296" d="M14 6v39q0 12 13 12q106 4 162.5 87t82.5 292q41 322 56 1016q0 12 12 12h745q12 0 13 -12v-1440q0 -12 -13 -12h-43q-14 0 -14 12v1389h-635q-12 -641 -53 -977q-33 -236 -105.5 -331t-207.5 -99q-12 0 -13 12z" />
<glyph unicode="&#x41c;" horiz-adv-x="1720" d="M199 12v1440q0 12 14 12h57q10 0 17 -8l573 -1014l576 1014q2 8 14 8h57q14 0 15 -12v-1440q0 -12 -15 -12h-43q-12 0 -12 12l2 1346v2l-561 -993q-4 -8 -16 -9h-33q-8 0 -17 9l-561 993v-2l2 -1346q0 -12 -12 -12h-43q-14 0 -14 12z" />
<glyph unicode="&#x41d;" horiz-adv-x="1378" d="M199 12v1440q0 12 14 12h43q12 0 12 -12v-674h842v674q0 12 14 12h41q14 0 15 -12v-1440q0 -12 -15 -12h-41q-14 0 -14 12v703h-842v-703q0 -12 -12 -12h-43q-14 0 -14 12z" />
<glyph unicode="&#x41e;" horiz-adv-x="1361" d="M147 459v530q0 221 146.5 358.5t388.5 137.5q240 0 386 -137.5t146 -358.5v-530q0 -209 -147 -344t-385 -135q-240 0 -387.5 135t-147.5 344zM215 459q0 -182 128 -298t339 -116q209 0 337 115.5t128 298.5v530q0 195 -126 313.5t-339 118.5t-340 -118.5t-127 -313.5 v-530z" />
<glyph unicode="&#x41f;" horiz-adv-x="1378" d="M199 12v1440q0 12 14 12h954q12 0 13 -12v-1440q0 -12 -13 -12h-43q-14 0 -14 12v1389h-842v-1389q0 -12 -12 -12h-43q-14 0 -14 12z" />
<glyph unicode="&#x420;" horiz-adv-x="1251" d="M199 12v1440q0 12 12 12h455q240 0 369.5 -118.5t129.5 -329.5q0 -213 -130 -330t-369 -117h-400v-557q0 -12 -12 -12h-43q-12 0 -12 12zM266 635h393q215 0 327 98t112 283q0 186 -112 285.5t-327 99.5h-393v-766z" />
<glyph unicode="&#x421;" horiz-adv-x="1179" d="M150 465v534q0 219 131 352.5t360 133.5q244 0 432 -152q14 -8 2 -16l-22 -33q-6 -10 -19 -2q-174 139 -395 139q-205 0 -313.5 -115.5t-108.5 -306.5v-534q0 -190 110.5 -306t315.5 -116q242 0 424 158q8 8 16 -2l25 -33q6 -11 -4 -19q-188 -168 -459 -167 q-233 0 -364 133t-131 352z" />
<glyph unicode="&#x422;" horiz-adv-x="1093" d="M25 1413v39q0 12 12 12h1018q14 0 14 -12v-39q0 -12 -14 -12h-477v-1389q0 -12 -13 -12h-43q-14 0 -14 12v1389h-471q-12 0 -12 12z" />
<glyph unicode="&#x423;" horiz-adv-x="1050" d="M20 1450q-8 14 11 14h47q12 0 14 -10l467 -913l408 913q4 10 14 10h49q6 0 9 -5t-1 -9l-647 -1440q-6 -10 -16 -10h-49q-12 0 -9 14l207 453z" />
<glyph unicode="&#x424;" horiz-adv-x="1726" d="M139 618v226q0 139 46 247.5t123 172t168 96.5t192 33h161v168q0 14 13 14h43q14 0 14 -14v-168h160q100 0 191 -33t168 -96.5t123 -172t46 -247.5v-226q0 -139 -46 -248.5t-123 -173t-168 -96t-191 -32.5h-160v-183q0 -12 -14 -12h-43q-12 0 -13 12v183h-161 q-100 0 -191.5 32.5t-168.5 96t-123 173t-46 248.5zM209 618q0 -242 135 -364.5t326 -122.5h159v1196h-159q-190 0 -325.5 -121t-135.5 -362v-226zM899 131h158q190 0 326.5 123t136.5 364v226q0 242 -136.5 362.5t-326.5 120.5h-158v-1196z" />
<glyph unicode="&#x425;" horiz-adv-x="1171" d="M49 16l496 723l-473 709q-12 16 8 16h53q12 0 14 -8l441 -663l436 663q6 8 16 8h54q18 0 6 -16l-471 -709l493 -723q12 -16 -6 -16h-55q-12 0 -14 8l-459 678l-463 -678q-2 -8 -14 -8h-54q-20 0 -8 16z" />
<glyph unicode="&#x426;" horiz-adv-x="1388" d="M199 12v1440q0 12 14 12h43q12 0 12 -12v-1389h824v1389q0 12 12 12h43q12 0 12 -12v-1389h141q14 0 15 -12v-307q-1 -12 -15 -12h-40q-12 0 -13 12v256h-1034q-14 0 -14 12z" />
<glyph unicode="&#x427;" horiz-adv-x="1251" d="M123 981v471q0 12 12 12h43q12 0 12 -12v-469q0 -184 117 -286.5t326 -102.5q162 0 350 88v770q0 12 14 12h43q12 0 13 -12v-1440q-1 -12 -13 -12h-43q-14 0 -14 12v604q-186 -88 -352 -88q-240 0 -374 121t-134 332z" />
<glyph unicode="&#x428;" horiz-adv-x="1949" d="M199 12v1440q0 12 12 12h43q14 0 14 -12v-1389h672v1389q0 12 12 12h43q14 0 15 -12v-1389h671v1389q0 12 13 12h43q14 0 14 -12v-1440q0 -12 -14 -12h-1526q-12 0 -12 12z" />
<glyph unicode="&#x429;" horiz-adv-x="1980" d="M199 12v1440q0 12 14 12h43q12 0 12 -12v-1389h672v1389q0 12 14 12h43q12 0 13 -12v-1389h671v1389q0 12 13 12h43q14 0 14 -12v-1389h141q12 0 13 -12v-307q-1 -12 -13 -12h-43q-12 0 -12 12v256h-1624q-14 0 -14 12z" />
<glyph unicode="&#x42a;" horiz-adv-x="1378" d="M29 1413v39q0 12 12 12h360q12 0 13 -12v-553h379q244 0 370.5 -113.5t126.5 -326.5q0 -221 -126.5 -340t-368.5 -119h-437q-14 0 -14 12v1387h-303q-12 0 -12 14zM414 66h381q426 0 426 393q0 182 -106.5 279.5t-321.5 97.5h-379v-770z" />
<glyph unicode="&#x42b;" horiz-adv-x="1736" d="M199 12v1440q0 12 14 12h43q12 0 12 -12v-551h379q244 0 372 -115.5t128 -326.5q0 -219 -128 -339t-370 -120h-436q-14 0 -14 12zM268 66h381q428 0 428 393q0 377 -428 377h-381v-770zM1468 12v1440q0 12 13 12h43q14 0 14 -12v-1440q0 -12 -14 -12h-43q-12 0 -13 12z " />
<glyph unicode="&#x42c;" horiz-adv-x="1234" d="M199 12v1440q0 12 14 12h43q12 0 12 -12v-551h379q244 0 372 -116.5t128 -329.5q0 -219 -127 -337t-371 -118h-436q-14 0 -14 12zM268 66h381q428 0 428 389q0 381 -428 381h-381v-770z" />
<glyph unicode="&#x42d;" horiz-adv-x="1191" d="M84 166l25 33q8 10 16 2q182 -158 424 -158q205 0 315.5 115.5t110.5 306.5v235h-692q-12 0 -13 13v39q0 12 13 12h692v235q0 190 -108.5 306t-313.5 116q-223 0 -395 -141q-12 -6 -19 2l-22 35q-12 8 2 16q188 152 432 152q229 0 360 -133t131 -353v-534 q0 -221 -131 -353t-364 -132q-271 -1 -459 167q-10 8 -4 19z" />
<glyph unicode="&#x42e;" horiz-adv-x="1814" d="M199 12v1440q0 12 12 12h43q12 0 12 -12v-672h359v215q0 219 145 354.5t377 135.5q229 0 374.5 -135.5t145.5 -354.5v-540q0 -209 -146.5 -342t-373.5 -133q-229 0 -375.5 133t-146.5 342v262h-359v-705q0 -12 -12 -12h-43q-12 0 -12 12zM694 455q0 -180 126 -296 t327 -116q199 0 324.5 115.5t125.5 296.5v540q0 193 -123.5 309.5t-326.5 116.5t-328 -116.5t-125 -309.5v-540z" />
<glyph unicode="&#x42f;" horiz-adv-x="1280" d="M96 16l465 572q-209 12 -325.5 125.5t-116.5 312.5q0 205 131 321.5t364 116.5h453q12 0 12 -12v-1440q0 -12 -12 -12h-43q-12 0 -12 12v572h-371l-465 -576q-6 -8 -16 -8h-56q-20 0 -8 16zM188 1026q0 -184 109.5 -280.5t316.5 -96.5h398v750h-398q-205 0 -315.5 -98.5 t-110.5 -274.5z" />
<glyph unicode="&#x430;" horiz-adv-x="1024" d="M80 307q0 154 110.5 237t309.5 83q143 0 315 -39v106q0 317 -315 318q-184 0 -328 -90q-10 -6 -18 2l-19 28q-4 13 0 17q150 104 367 104q188 0 283.5 -99.5t95.5 -277.5v-630q0 -12 -11 -15q-168 -72 -370 -71q-184 0 -302 88t-118 239zM145 307q0 -121 98.5 -194.5 t256.5 -73.5q164 0 315 57v434q-160 37 -315 37q-172 0 -263.5 -67.5t-91.5 -192.5z" />
<glyph unicode="&#x431;" horiz-adv-x="1079" d="M147 385v647q0 160 103.5 264.5t265.5 137.5q10 2 60.5 11t92.5 17t95 23.5t88 34.5q12 4 16 -7l17 -32q8 -12 -4 -15q-45 -25 -109.5 -42t-145.5 -32.5t-89 -17.5q-324 -72 -324 -344v-143q147 113 348 112q190 0 297 -111.5t107 -314.5v-188q0 -184 -113 -294.5 t-295 -110.5t-296 110.5t-114 294.5zM213 385q0 -158 94 -252t250 -94q154 0 248 94t94 252v188q0 174 -89 269.5t-251 95.5q-199 0 -346 -115v-438z" />
<glyph unicode="&#x432;" horiz-adv-x="1058" d="M158 12v1026q0 14 12 15h408q168 0 254 -75t86 -185q0 -92 -57.5 -158t-151.5 -82q250 -51 249 -266q0 -129 -97 -208t-281 -79h-410q-12 0 -12 12zM223 57h355q158 0 236.5 63.5t78.5 168.5q0 111 -85 170t-230 59h-355v-461zM223 575h352q125 0 201 57.5t76 158.5 q0 90 -68.5 146t-208.5 56h-352v-418z" />
<glyph unicode="&#x433;" horiz-adv-x="802" d="M158 12v1026q0 14 12 15h590q12 0 12 -15v-34q0 -12 -12 -13h-537v-979q0 -12 -12 -12h-41q-12 0 -12 12z" />
<glyph unicode="&#x434;" horiz-adv-x="1101" d="M23 47q0 12 12 12h47q84 39 127 245t61 734q0 14 13 15h622q12 0 13 -15v-979h110q12 0 12 -12v-315q0 -14 -12 -15h-39q-12 0 -12 15v268h-891v-268q0 -15 -12 -15h-39q-12 0 -12 15v315zM164 59h688v932h-520q-27 -846 -168 -932z" />
<glyph unicode="&#x435;" horiz-adv-x="1038" d="M119 352v332q0 182 111.5 285.5t296 103.5t296 -103.5t111.5 -285.5v-184q0 -12 -12 -13h-738v-135q0 -143 99.5 -228t244.5 -85q188 0 349 143q10 6 16 -2l22 -26q10 -10 -2 -17q-170 -158 -387 -157q-170 0 -288.5 101t-118.5 271zM184 545h684v139q0 154 -93 241 t-249 87q-158 0 -250 -86t-92 -242v-139z" />
<glyph unicode="&#x436;" horiz-adv-x="1468" d="M39 16l457 572l-422 448q-6 6 -4 11.5t10 5.5h51q8 0 16 -9l555 -589v583q0 14 13 15h39q12 0 12 -15v-583l555 589q8 8 16 9h52q8 0 10 -5.5t-4 -11.5l-422 -448l457 -572q7 -16 -9 -16h-49q-10 0 -16 8l-428 535l-162 -170v-361q0 -12 -12 -12h-39q-12 0 -13 12v361 l-161 170l-428 -535q-6 -8 -17 -8h-49q-16 0 -8 16z" />
<glyph unicode="&#x437;" horiz-adv-x="968" d="M68 139l22 27q8 8 19 2q170 -129 352 -129q147 0 244.5 72.5t97.5 183.5q0 100 -78 164.5t-209 64.5h-250q-12 0 -12 13v30q0 14 12 15h240q119 0 188.5 62.5t69.5 156.5q0 98 -85 155.5t-216 57.5q-199 0 -336 -109q-8 -8 -16 2l-21 27q-10 10 2 18q143 121 371 121 q158 0 262 -75.5t104 -196.5q0 -180 -186 -244q106 -27 165.5 -95.5t59.5 -166.5q0 -137 -114.5 -226t-292.5 -89q-217 0 -391 141q-8 8 -2 18z" />
<glyph unicode="&#x438;" horiz-adv-x="1142" d="M158 12v1026q0 14 12 15h41q12 0 12 -15v-942l686 948q8 8 17 9h47q12 0 12 -15v-1026q0 -12 -12 -12h-39q-14 0 -14 12l2 940h-2q-154 -221 -684 -944q-3 -8 -15 -8h-51q-12 0 -12 12z" />
<glyph unicode="&#x439;" horiz-adv-x="1142" d="M158 12v1026q0 14 12 15h41q12 0 12 -15v-942l686 948q8 8 17 9h47q12 0 12 -15v-1026q0 -12 -12 -12h-39q-14 0 -14 12l2 940h-2q-154 -221 -684 -944q-3 -8 -15 -8h-51q-12 0 -12 12zM276 1513q-2 10 11 15l32 4q12 0 15 -10q14 -106 74.5 -169t163 -63t163 62.5 t74.5 169.5q4 12 16 10l31 -4q16 -1 12 -15q-14 -123 -93 -200.5t-204 -77.5t-202.5 78t-92.5 200z" />
<glyph unicode="&#x43a;" horiz-adv-x="985" d="M158 12v1026q0 14 12 15h41q12 0 12 -15v-587l635 596q4 6 16 6h54q8 0 10 -5.5t-4 -11.5l-488 -458l512 -562q10 -16 -6 -16h-55q-8 0 -14 8l-482 527l-178 -166v-357q0 -12 -12 -12h-41q-12 0 -12 12z" />
<glyph unicode="&#x43b;" horiz-adv-x="1107" d="M16 8v35q0 12 13 12q92 4 138 73t69 269q31 250 49 641q0 14 14 15h639q12 0 12 -15v-1026q0 -12 -12 -12h-39q-14 0 -14 12v979h-537q-18 -348 -49 -614q-27 -217 -87 -297t-183 -84q-12 0 -13 12z" />
<glyph unicode="&#x43c;" horiz-adv-x="1329" d="M158 12v1026q0 14 12 15h47q8 0 16 -9l433 -761l432 761q4 8 14 9h47q12 0 12 -15v-1026q0 -12 -12 -12h-39q-12 0 -12 12v928l-410 -721q-6 -8 -16 -8h-35q-12 0 -14 8l-410 721v-928q0 -12 -12 -12h-41q-12 0 -12 12z" />
<glyph unicode="&#x43d;" horiz-adv-x="1097" d="M158 12v1026q0 14 12 15h41q12 0 12 -15v-463h651v463q0 14 13 15h39q14 0 14 -15v-1026q0 -12 -14 -12h-39q-12 0 -13 12v502h-651v-502q0 -12 -12 -12h-41q-12 0 -12 12z" />
<glyph unicode="&#x43e;" horiz-adv-x="1089" d="M119 365v323q0 168 112.5 276.5t313.5 108.5q203 0 314.5 -108.5t111.5 -276.5v-323q0 -170 -111.5 -277.5t-314.5 -107.5q-201 0 -313.5 108.5t-112.5 276.5zM184 365q0 -143 93.5 -234.5t267.5 -91.5t267 91t93 235v323q0 141 -93 232.5t-267 91.5q-172 0 -266.5 -91.5 t-94.5 -232.5v-323z" />
<glyph unicode="&#x43f;" horiz-adv-x="1095" d="M158 12v1026q0 15 12 15h756q12 0 12 -15v-1026q0 -12 -12 -12h-39q-14 0 -15 12v979h-649v-979q0 -12 -12 -12h-41q-12 0 -12 12z" />
<glyph unicode="&#x440;" horiz-adv-x="1089" d="M156 -377v1362q0 10 8 14q176 74 375 74q207 0 320.5 -108.5t113.5 -329.5v-217q0 -219 -112.5 -328.5t-319.5 -109.5q-180 0 -320 92v-449q0 -12 -12 -12h-41q-12 0 -12 12zM221 139q148 -100 318 -100q367 0 366 379v217q0 379 -366 379q-166 0 -318 -58v-817z" />
<glyph unicode="&#x441;" horiz-adv-x="948" d="M119 358v336q0 164 110.5 271.5t296.5 107.5q176 0 328 -108q10 -8 4 -19l-18 -28q-10 -8 -19 -3q-135 96 -297 97q-160 0 -250 -90.5t-90 -227.5v-336q0 -137 91.5 -228t248.5 -91q168 0 324 115q12 8 18 -2l21 -27q8 -13 -4 -19q-162 -127 -357 -126 q-186 0 -296.5 107.5t-110.5 270.5z" />
<glyph unicode="&#x442;" horiz-adv-x="890" d="M31 1004v34q0 14 14 15h803q12 0 12 -15v-34q0 -12 -12 -13h-369v-979q0 -12 -12 -12h-41q-12 0 -12 12v979h-369q-14 0 -14 13z" />
<glyph unicode="&#x443;" horiz-adv-x="1105" d="M147 434v604q0 14 13 15h39q14 0 14 -15v-602q0 -168 96.5 -252t268.5 -84q160 0 305 76v862q0 14 12 15h41q12 0 12 -15v-1069q0 -174 -99 -276.5t-296 -102.5q-207 0 -383 160q-8 8 0 19l23 26q8 10 16 2q168 -145 344 -145q166 0 249 85t81 234v142q-141 -74 -312 -74 q-195 0 -309.5 100.5t-114.5 294.5z" />
<glyph unicode="&#x444;" horiz-adv-x="1454" d="M117 399v254q0 182 107.5 291t285.5 109h184v399q0 12 13 12h41q12 0 12 -12v-399h186q178 0 284.5 -108.5t106.5 -291.5v-254q0 -184 -106.5 -291.5t-280.5 -107.5h-190v-377q0 -12 -12 -12h-41q-12 0 -13 12v377h-186q-176 0 -283.5 107.5t-107.5 291.5zM182 399 q0 -158 88 -248t240 -90h184v930h-186q-150 0 -238 -90t-88 -250v-252zM760 61h184q152 0 240 90.5t88 247.5v252q0 160 -88 250t-238 90h-186v-930z" />
<glyph unicode="&#x445;" horiz-adv-x="960" d="M43 16l395 523l-370 497q-8 16 8 17h49q10 0 14 -9l340 -458l340 458q4 8 15 9h49q20 0 8 -17l-371 -497l395 -523q12 -16 -8 -16h-51q-12 0 -14 8l-363 481l-362 -481q-2 -8 -15 -8h-51q-16 0 -8 16z" />
<glyph unicode="&#x446;" horiz-adv-x="1124" d="M158 12v1026q0 14 14 15h39q12 0 12 -15v-977h651v977q0 14 13 15h39q14 0 14 -15v-979h111q12 0 12 -12v-303q0 -12 -12 -12h-39q-12 0 -13 12v256h-827q-14 0 -14 12z" />
<glyph unicode="&#x447;" horiz-adv-x="1032" d="M100 772v266q0 14 13 15h41q12 0 12 -15v-266q0 -344 321 -344q156 0 322 70v540q0 14 12 15h41q12 0 12 -15v-1026q0 -12 -12 -12h-41q-12 0 -12 12v424q-160 -70 -322 -69q-182 0 -284.5 103t-102.5 302z" />
<glyph unicode="&#x448;" horiz-adv-x="1593" d="M158 12v1026q0 14 12 15h41q12 0 12 -15v-977h541v977q0 14 14 15h39q12 0 12 -15v-977h543v977q0 14 12 15h39q12 0 13 -15v-1026q-1 -12 -13 -12h-1253q-12 0 -12 12z" />
<glyph unicode="&#x449;" horiz-adv-x="1619" d="M158 12v1026q0 14 12 15h41q12 0 12 -15v-977h541v977q0 14 14 15h39q12 0 12 -15v-977h543v977q0 14 12 15h39q12 0 13 -15v-979h112q12 0 13 -12v-303q-1 -12 -13 -12h-39q-12 0 -12 12v256h-1327q-12 0 -12 12z" />
<glyph unicode="&#x44a;" horiz-adv-x="1155" d="M33 1006v32q0 14 12 15h307q14 0 15 -15v-356h329q180 0 281.5 -94t101.5 -254q0 -164 -99.5 -249t-283.5 -85h-383q-12 0 -12 12v979h-256q-12 0 -12 15zM367 59h325q322 0 322 277q0 135 -83 212t-239 77h-325v-566z" />
<glyph unicode="&#x44b;" horiz-adv-x="1323" d="M158 12v1026q0 14 12 15h41q12 0 12 -15v-356h332q180 0 281.5 -94t101.5 -254q0 -164 -99.5 -249t-283.5 -85h-385q-12 0 -12 12zM223 59h326q324 0 323 277q0 135 -82.5 212t-240.5 77h-326v-566zM1100 12v1026q0 14 12 15h41q12 0 12 -15v-1026q0 -12 -12 -12h-41 q-12 0 -12 12z" />
<glyph unicode="&#x44c;" horiz-adv-x="1013" d="M158 12v1026q0 14 12 15h41q12 0 12 -15v-356h332q180 0 281.5 -94t101.5 -254q0 -164 -99.5 -249t-283.5 -85h-385q-12 0 -12 12zM223 59h326q324 0 323 277q0 135 -82.5 212t-240.5 77h-326v-566z" />
<glyph unicode="&#x44d;" horiz-adv-x="968" d="M68 125l20 29q6 10 18 2q160 -117 338 -117q154 0 246 89t92 218v172h-536q-12 0 -13 12v33q0 12 13 12h536v132q0 127 -91 216t-247 89q-172 0 -321 -97q-8 -6 -17 3l-18 28q-6 10 4 19q164 109 352 108q182 0 293 -106.5t111 -259.5v-361q0 -154 -110.5 -260 t-293.5 -106q-205 0 -372 126q-12 6 -4 19z" />
<glyph unicode="&#x44e;" horiz-adv-x="1427" d="M158 12v1026q0 14 12 15h39q12 0 12 -15v-460h277v124q0 158 108.5 264.5t296.5 106.5q190 0 298 -106.5t108 -264.5v-352q0 -156 -107.5 -261t-298.5 -105q-188 0 -296.5 105.5t-108.5 260.5v166h-277v-504q0 -12 -12 -12h-39q-12 0 -12 12zM563 350q0 -131 89 -219 t251 -88t251 88t89 219v352q0 133 -89 221.5t-251 88.5t-251 -88t-89 -222v-352z" />
<glyph unicode="&#x44f;" horiz-adv-x="1024" d="M84 16l356 396q-158 6 -251 91t-93 228q0 160 102.5 242t286.5 82h367q14 0 14 -15v-1028q0 -12 -14 -12h-39q-12 0 -12 12v396h-283l-358 -400q-7 -8 -15 -8h-55q-16 0 -6 16zM162 731q0 -127 84 -195.5t239 -68.5h316v528h-316q-323 0 -323 -264z" />
<glyph unicode="&#x451;" horiz-adv-x="1038" d="M119 352v332q0 182 111.5 285.5t296 103.5t296 -103.5t111.5 -285.5v-184q0 -12 -12 -13h-738v-135q0 -143 99.5 -228t244.5 -85q188 0 349 143q10 6 16 -2l22 -26q10 -10 -2 -17q-170 -158 -387 -157q-170 0 -288.5 101t-118.5 271zM184 545h684v139q0 154 -93 241 t-249 87q-158 0 -250 -86t-92 -242v-139zM299 1335q0 53 51 53t51 -53q0 -51 -51 -51t-51 51zM651 1335q0 25 15.5 39.5t38.5 14.5q51 -1 51 -54q0 -51 -51 -51q-23 0 -38.5 14.5t-15.5 36.5z" />
<glyph unicode="&#x452;" d="M-10 1249v27q0 12 12 12h156v164q0 12 12 12h41q12 0 12 -12v-164h365q12 0 12 -12v-27q0 -12 -12 -12h-365v-246q160 78 322 78q205 0 317.5 -104.5t112.5 -311.5v-721q0 -340 -256 -340q-2 0 -94 7q-12 4 -13 14v35q0 12 13 12q49 -6 88 -6q96 0 146 63.5t50 208.5v725 q0 356 -366 357q-164 0 -320 -80v-916q0 -12 -12 -12h-41q-12 0 -12 12v1225h-156q-12 0 -12 12z" />
<glyph unicode="&#x453;" horiz-adv-x="802" d="M158 12v1026q0 14 12 15h590q12 0 12 -15v-34q0 -12 -12 -13h-537v-979q0 -12 -12 -12h-41q-12 0 -12 12zM397 1243l170 275q4 8 15 8h51q16 0 6 -17l-184 -274q-9 -8 -17 -8h-30q-20 0 -11 16z" />
<glyph unicode="&#x454;" horiz-adv-x="968" d="M121 346v361q0 154 110.5 260t292.5 106q188 0 353 -108q10 -8 4 -19l-19 -28q-8 -8 -16 -3q-150 96 -322 97q-156 0 -247 -89t-91 -216v-132h537q12 0 12 -12v-33q0 -12 -12 -12h-537v-172q0 -129 92 -218t246 -89q178 0 338 117q12 8 19 -2l20 -29q8 -12 -4 -19 q-168 -127 -373 -126q-182 0 -292.5 106.5t-110.5 259.5z" />
<glyph unicode="&#x455;" horiz-adv-x="944" d="M84 129l20 31q8 10 17 2q164 -123 356 -123q145 0 233.5 61.5t88.5 171.5q0 49 -20.5 86t-47 59.5t-78 41t-83 27t-93.5 20.5q-59 12 -104 24.5t-99.5 37t-89 55t-59.5 78t-25 106.5q0 123 101.5 194.5t259.5 71.5q188 0 360 -100q10 -6 4 -17l-18 -30q-4 -12 -16 -4 q-160 90 -332 90q-131 0 -213 -55.5t-82 -149.5q0 -57 26.5 -99t79 -69t100.5 -42t119 -30q70 -14 112 -25.5t98.5 -35t88 -51t54 -75t22.5 -106.5q0 -133 -101 -213.5t-286 -80.5q-221 0 -389 131q-12 6 -4 18z" />
<glyph unicode="&#x456;" horiz-adv-x="380" d="M137 1335q0 25 15.5 39.5t38 14.5t38 -14.5t15.5 -39.5q0 -23 -15.5 -37t-38 -14t-38 14.5t-15.5 36.5zM158 12v1026q0 14 12 15h41q12 0 12 -15v-1026q0 -12 -12 -12h-41q-12 0 -12 12z" />
<glyph unicode="&#x457;" horiz-adv-x="380" d="M8 1335.5q0 22.5 14.5 38t37 15.5t37 -15.5t14.5 -38t-14.5 -37t-37 -14.5t-37 14.5t-14.5 37zM158 12v1026q0 14 12 15h39q14 0 14 -15v-1026q0 -12 -14 -12h-39q-12 0 -12 12zM268 1335.5q0 22.5 14.5 38t37 15.5t37 -15.5t14.5 -38t-14.5 -37t-37 -14.5t-37 14.5 t-14.5 37z" />
<glyph unicode="&#x458;" horiz-adv-x="397" d="M-135 -352q0 12 8 12h4q47 -8 100 -8q197 0 197 276v1110q0 14 12 15h41q12 0 13 -15v-1110q0 -338 -258 -338q-61 0 -105 9q-12 4 -12 16v33zM154 1335q0 25 15 39.5t37.5 14.5t38 -14.5t15.5 -39.5q0 -23 -15.5 -37t-38 -14t-37.5 14.5t-15 36.5z" />
<glyph unicode="&#x459;" horiz-adv-x="1722" d="M16 8v35q0 12 13 12q90 2 134 71t73 271q23 170 49 641q0 14 14 15h631q12 0 12 -15v-356h324q180 0 280.5 -94t100.5 -254q0 -164 -99.5 -249t-281.5 -85h-377q-12 0 -12 12v979h-529q-20 -372 -51 -614q-29 -219 -88 -300t-180 -81q-12 0 -13 12zM942 59h318 q322 0 321 277q0 135 -83 212t-238 77h-318v-566z" />
<glyph unicode="&#x45a;" horiz-adv-x="1671" d="M158 12v1026q0 14 12 15h41q12 0 12 -15v-411h621v411q0 14 12 15h39q14 0 14 -15v-413h312q178 0 278 -84t100 -230q0 -152 -98 -231.5t-280 -79.5h-365q-12 0 -12 12v553h-621v-553q0 -12 -12 -12h-41q-12 0 -12 12zM909 59h308q315 0 315 254q0 119 -81 186.5 t-234 67.5h-308v-508z" />
<glyph unicode="&#x45b;" d="M-10 1249v29q0 12 12 12h156v162q0 12 12 12h41q12 0 12 -12v-162h365q12 0 12 -12v-29q0 -12 -12 -12h-365v-246q160 78 320 78q205 0 318.5 -104.5t113.5 -311.5v-641q0 -12 -12 -12h-41q-12 0 -13 12v639q0 356 -368 357q-162 0 -318 -80v-916q0 -12 -12 -12h-41 q-12 0 -12 12v1225h-156q-12 0 -12 12z" />
<glyph unicode="&#x45c;" horiz-adv-x="985" d="M158 12v1026q0 14 12 15h41q12 0 12 -15v-587l635 596q4 6 16 6h54q8 0 10 -5.5t-4 -11.5l-488 -458l512 -562q10 -16 -6 -16h-55q-8 0 -14 8l-482 527l-178 -166v-357q0 -12 -12 -12h-41q-12 0 -12 12zM436 1243l170 275q4 8 15 8h51q16 0 6 -17l-184 -274q-9 -8 -17 -8 h-31q-20 0 -10 16z" />
<glyph unicode="&#x45d;" horiz-adv-x="1142" d="M158 12v1026q0 14 12 15h41q12 0 12 -15v-942l686 948q8 8 17 9h47q12 0 12 -15v-1026q0 -12 -12 -12h-39q-14 0 -14 12l2 940h-2q-154 -221 -684 -944q-3 -8 -15 -8h-51q-12 0 -12 12zM389 1518q-10 16 6 16h51q10 0 15 -8l170 -275q10 -16 -10 -16h-31q-8 0 -17 8z" />
<glyph unicode="&#x45e;" horiz-adv-x="1105" d="M147 434v604q0 14 13 15h39q14 0 14 -15v-602q0 -168 96.5 -252t268.5 -84q160 0 305 76v862q0 14 12 15h41q12 0 12 -15v-1069q0 -174 -99 -276.5t-296 -102.5q-207 0 -383 160q-8 8 0 19l23 26q8 10 16 2q168 -145 344 -145q166 0 249 85t81 234v142q-141 -74 -312 -74 q-195 0 -309.5 100.5t-114.5 294.5zM260 1505q-2 10 10 15l33 4q12 0 14 -11q14 -106 75 -168.5t163 -62.5t162.5 62.5t75.5 168.5q4 12 16 11l31 -4q16 -1 12 -15q-14 -123 -93 -200.5t-204 -77.5t-203 77.5t-92 200.5z" />
<glyph unicode="&#x45f;" horiz-adv-x="1097" d="M158 12v1026q0 14 12 15h41q12 0 12 -15v-977h651v977q1 15 13 15h41q12 0 12 -15v-1026q0 -12 -12 -12h-348v-256q0 -12 -13 -12h-35q-14 0 -14 12v256h-348q-12 0 -12 12z" />
<glyph unicode="&#x490;" horiz-adv-x="972" d="M199 12v1440q0 12 14 12h672v281q0 12 12 12h39q12 0 12 -12v-332q0 -12 -12 -12h-668v-1389q0 -12 -12 -12h-43q-14 0 -14 12z" />
<glyph unicode="&#x491;" horiz-adv-x="802" d="M158 12v1026q0 14 12 15h541v225q0 12 14 12h35q12 0 12 -12v-274q0 -12 -12 -13h-537v-979q0 -12 -12 -12h-41q-12 0 -12 12z" />
<glyph unicode="&#x2000;" horiz-adv-x="962" />
<glyph unicode="&#x2001;" horiz-adv-x="1925" />
<glyph unicode="&#x2002;" horiz-adv-x="962" />
<glyph unicode="&#x2003;" horiz-adv-x="1925" />
<glyph unicode="&#x2004;" horiz-adv-x="641" />
<glyph unicode="&#x2005;" horiz-adv-x="481" />
<glyph unicode="&#x2006;" horiz-adv-x="320" />
<glyph unicode="&#x2007;" horiz-adv-x="320" />
<glyph unicode="&#x2008;" horiz-adv-x="240" />
<glyph unicode="&#x2009;" horiz-adv-x="385" />
<glyph unicode="&#x200a;" horiz-adv-x="106" />
<glyph unicode="&#x2010;" horiz-adv-x="819" d="M143 610v37q0 12 13 12h508q12 0 12 -12v-37q0 -12 -12 -12h-508q-12 0 -13 12z" />
<glyph unicode="&#x2011;" horiz-adv-x="819" d="M143 610v37q0 12 13 12h508q12 0 12 -12v-37q0 -12 -12 -12h-508q-12 0 -13 12z" />
<glyph unicode="&#x2012;" horiz-adv-x="819" d="M143 610v37q0 12 13 12h508q12 0 12 -12v-37q0 -12 -12 -12h-508q-12 0 -13 12z" />
<glyph unicode="&#x2013;" horiz-adv-x="1181" d="M143 610v37q0 12 13 12h870q12 0 12 -12v-37q0 -12 -12 -12h-870q-12 0 -13 12z" />
<glyph unicode="&#x2014;" horiz-adv-x="1894" d="M143 610v37q0 12 15 12h1579q14 0 14 -12v-37q0 -12 -14 -12h-1579q-14 0 -15 12z" />
<glyph unicode="&#x2018;" horiz-adv-x="366" d="M109 1112l110 342q4 10 12 10h31q16 0 12 -14l-92 -342q-6 -10 -14 -10h-49q-16 0 -10 14z" />
<glyph unicode="&#x2019;" horiz-adv-x="360" d="M113 1112l90 342q6 10 14 10h49q16 0 10 -14l-108 -342q-4 -10 -12 -10h-31q-18 0 -12 14z" />
<glyph unicode="&#x201a;" horiz-adv-x="364" d="M63 -205l93 342q4 10 14 10h49q14 0 10 -16l-108 -340q-4 -10 -15 -10h-30q-14 0 -13 14z" />
<glyph unicode="&#x201c;" horiz-adv-x="577" d="M111 1112l110 342q4 10 15 10h30q16 0 13 -14l-95 -342q-4 -10 -12 -10h-51q-14 0 -10 14zM319 1112l111 342q4 10 14 10h31q16 0 12 -14l-94 -342q-4 -10 -12 -10h-51q-14 0 -11 14z" />
<glyph unicode="&#x201d;" horiz-adv-x="569" d="M113 1112l90 342q6 10 14 10h49q16 0 10 -14l-108 -342q-4 -10 -12 -10h-31q-18 0 -12 14zM319 1112l93 342q4 10 14 10h49q14 0 10 -14l-108 -342q-4 -10 -12 -10h-33q-14 0 -13 14z" />
<glyph unicode="&#x201e;" horiz-adv-x="571" d="M63 -203l93 340q4 12 12 13h49q16 0 10 -17l-108 -340q-5 -10 -13 -10h-30q-18 0 -13 14zM272 -203l90 340q8 12 15 13h49q16 0 10 -17l-108 -340q-5 -10 -13 -10h-30q-18 0 -13 14z" />
<glyph unicode="&#x2026;" horiz-adv-x="1060" d="M117 51.5q0 24.5 15 39.5t40 15q53 0 53 -55t-53 -55q-25 0 -40 15.5t-15 40zM475 51.5q0 24.5 15.5 39.5t40 15t40 -15t15.5 -39.5t-15.5 -40t-40 -15.5t-40 15.5t-15.5 40zM834 51.5q0 24.5 15 39.5t39.5 15t40 -15t15.5 -39.5t-15.5 -40t-40 -15.5t-39.5 15.5t-15 40z " />
<glyph unicode="&#x202f;" horiz-adv-x="385" />
<glyph unicode="&#x2039;" horiz-adv-x="546" d="M82 588q-2 8 0 16l295 434q2 8 14 9h47q18 0 6 -17l-294 -434l294 -434q12 -17 -6 -17h-47q-12 0 -14 9z" />
<glyph unicode="&#x203a;" horiz-adv-x="546" d="M102 162l295 434l-295 434q-12 16 7 17h47q12 0 14 -9l295 -434q2 -8 0 -16l-295 -434q-2 -9 -14 -9h-47q-18 0 -7 17z" />
<glyph unicode="&#x205f;" horiz-adv-x="481" />
<glyph unicode="&#x20ac;" horiz-adv-x="1300" d="M98 582v30q0 12 13 13h102v223h-102q-12 0 -13 12v31q0 12 13 12h102v96q0 219 130 352.5t359 133.5q262 0 465 -152q10 -6 2 -18l-20 -31q-6 -10 -19 -2q-186 139 -430 139q-203 0 -311 -115.5t-108 -306.5v-96h630q12 0 13 -12v-31q0 -12 -13 -12h-630v-223h630 q12 0 13 -13v-30q0 -14 -13 -15h-630v-102q2 -190 110.5 -306t313.5 -116q254 0 444 156q8 8 16 -2l23 -31q10 -10 -2 -16q-193 -170 -477 -170q-231 0 -362.5 133t-133.5 352v102h-102q-12 0 -13 15z" />
<glyph unicode="&#x2122;" horiz-adv-x="1300" d="M76 1434v20q0 10 10 10h414q10 0 10 -10v-20q0 -10 -10 -11h-187v-563q0 -10 -10 -10h-20q-10 0 -11 10v563h-186q-10 0 -10 11zM610 860v594q0 10 11 10h30q10 0 13 -8l167 -330l41 -79l39 79l166 330q2 8 13 8h30q10 0 10 -10v-594q0 -10 -10 -10h-20q-10 0 -10 10v531 l-58 -117l-141 -275q-2 -8 -12 -8h-13q-12 0 -14 8l-143 279l-58 113v-531q0 -10 -10 -10h-20q-10 0 -11 10z" />
<glyph unicode="&#x25fc;" horiz-adv-x="1054" d="M0 0v1055h1055v-1055h-1055z" />
</font>
</defs>
</svg>
