<?xml version="1.0" standalone="no"?>
<!DOCTYPE svg PUBLIC "-//W3C//DTD SVG 1.1//EN" "http://www.w3.org/Graphics/SVG/1.1/DTD/svg11.dtd" >
<svg xmlns="http://www.w3.org/2000/svg" xmlns:xlink="http://www.w3.org/1999/xlink" version="1.1">
<metadata></metadata>
<defs>
<font id="uni_neuethin" horiz-adv-x="802" >
<font-face units-per-em="2048" ascent="1536" descent="-512" />
<missing-glyph horiz-adv-x="495" />
<glyph horiz-adv-x="0" />
<glyph unicode="&#xd;" horiz-adv-x="681" />
<glyph unicode=" "  horiz-adv-x="495" />
<glyph unicode="&#x09;" horiz-adv-x="495" />
<glyph unicode="&#xa0;" horiz-adv-x="495" />
<glyph unicode="!" horiz-adv-x="417" d="M168 37q0 41 41 41t41 -41t-41 -41t-41 41zM188 299v1155q0 10 11 10h20q10 0 10 -10v-1155q0 -10 -10 -10h-20q-10 0 -11 10z" />
<glyph unicode="&#x22;" horiz-adv-x="507" d="M131 1108l27 346q0 10 10 10h29q8 0 8 -10l-39 -346q0 -10 -12 -10h-13q-10 0 -10 10zM315 1108l27 346q0 10 10 10h29q8 0 8 -10l-39 -346q0 -10 -12 -10h-12q-10 0 -11 10z" />
<glyph unicode="#" horiz-adv-x="1406" d="M82 481l6 19q4 8 10 8h301l129 461h-297q-14 0 -10 12l6 18q4 8 11 9h301l127 448q4 8 10 8h20q12 0 9 -12l-125 -444h409l127 448q4 8 10 8h21q12 0 8 -12l-125 -444h289q12 0 10 -13l-6 -18q-4 -8 -10 -8h-293l-129 -461h289q12 0 10 -12l-6 -19q-4 -8 -10 -8h-293 l-131 -461q-4 -8 -11 -8h-20q-10 0 -8 12l129 457h-410l-131 -461q-4 -8 -10 -8h-21q-10 0 -8 12l129 457h-297q-14 0 -10 12zM440 508h410l129 461h-410z" />
<glyph unicode="$" horiz-adv-x="1193" d="M131 1120q0 170 128 265.5t327 99.5v153q0 10 10 11h20q10 0 11 -11v-153q119 -4 213 -44t200 -126q10 -6 2 -15l-10 -14q-6 -6 -14 -2q-199 162 -426 162q-184 0 -302 -86t-118 -240q0 -158 105.5 -233.5t320.5 -126.5q92 -23 144.5 -38t127 -48t114.5 -71t69.5 -100.5 t29.5 -142.5q0 -176 -121.5 -276t-334.5 -104v-166q0 -10 -11 -11h-20q-10 0 -10 11v166q-233 6 -447 200q-10 6 -2 15l10 14q6 6 15 2q219 -195 452 -195q193 0 310.5 90.5t117.5 251.5q0 72 -29.5 130.5t-60 90t-108.5 64.5t-111 42t-129 32q-6 2 -11 3t-11 3 q-223 53 -337 137t-114 260z" />
<glyph unicode="%" horiz-adv-x="1542" d="M123 942v297q0 102 66.5 168t175 66t175 -66t66.5 -168v-297q0 -94 -67.5 -158.5t-174 -64.5t-174 64.5t-67.5 158.5zM160 942q0 -78 57 -132t147.5 -54t147.5 54t57 132v297q0 86 -56 141.5t-148.5 55.5t-148.5 -55.5t-56 -141.5v-297zM201 12l1056 1432q4 6 13 6h20 q14 0 6 -12l-1056 -1432q-3 -6 -13 -6h-18q-16 0 -8 12zM942 207v297q0 102 66.5 167.5t175 65.5t175 -65.5t66.5 -167.5v-297q0 -94 -67.5 -158.5t-174 -64.5t-174 64.5t-67.5 158.5zM979 207q0 -78 57.5 -132.5t147.5 -54.5t147.5 54.5t57.5 132.5v297q0 86 -56.5 141 t-148.5 55t-148.5 -55t-56.5 -141v-297z" />
<glyph unicode="&#x26;" horiz-adv-x="1189" d="M102 344q0 262 314 438q-205 254 -205 414q0 129 87 209t239 80q150 0 233.5 -76t83.5 -201q0 -117 -89 -220t-290 -216q131 -154 432 -500q47 88 99 244q2 12 12 8l18 -6q12 -2 8 -14q-51 -166 -110 -262l207 -230q10 -12 -4 -12h-29q-8 0 -12 6l-183 201 q-86 -115 -179 -171t-230 -56q-182 0 -292 97t-110 267zM145 344q0 -154 97.5 -239t263.5 -85q121 0 210 51.5t169 166.5q-311 354 -445 514q-295 -164 -295 -408zM254 1196q0 -84 46 -174t153 -219q190 106 274 202.5t84 203t-71.5 171t-202.5 64.5q-135 0 -209 -67.5 t-74 -180.5z" />
<glyph unicode="'" horiz-adv-x="323" d="M131 1108l27 346q0 10 10 10h29q8 0 8 -10l-39 -346q0 -10 -12 -10h-13q-10 0 -10 10z" />
<glyph unicode="(" horiz-adv-x="499" d="M119 729q0 500 284 961q2 6 13 6h24q14 0 6 -13q-287 -449 -286 -954q0 -508 286 -956q8 -13 -6 -13h-24q-10 0 -13 7q-285 461 -284 962z" />
<glyph unicode=")" horiz-adv-x="499" d="M51 -227q287 449 287 956q0 506 -287 954q-8 12 6 13h25q8 0 12 -6q285 -461 285 -961q0 -502 -285 -962q-4 -7 -12 -7h-25q-14 0 -6 13z" />
<glyph unicode="*" horiz-adv-x="944" d="M115 1198l6 19q4 12 14 8l318 -103v332q0 10 10 10h18q10 0 11 -10v-334l317 103q10 4 14 -6l6 -17q4 -10 -8 -14l-317 -103l196 -270q6 -6 -2 -14l-14 -13q-6 -6 -14 2l-197 271l-197 -271q-6 -6 -14 -2l-16 11q-10 6 -2 14l194 270l-315 103q-12 4 -8 14z" />
<glyph unicode="+" horiz-adv-x="1105" d="M123 672v20q0 10 10 10h399v402q0 10 11 10h20q10 0 10 -10v-402h400q10 0 10 -10v-20q0 -10 -10 -10h-400v-404q0 -10 -10 -10h-20q-10 0 -11 10v404h-399q-10 0 -10 10z" />
<glyph unicode="," horiz-adv-x="323" d="M72 -203l88 326q4 8 10 8h31q12 0 8 -12l-103 -326q-4 -8 -10 -8h-14q-12 0 -10 12z" />
<glyph unicode="-" d="M137 623v18q0 10 10 10h508q10 0 11 -10v-18q-1 -11 -11 -11h-508q-10 0 -10 11z" />
<glyph unicode="." horiz-adv-x="290" d="M104 37q0 41 41 41t41 -41t-41 -41t-41 41z" />
<glyph unicode="/" d="M63 12l637 1444q4 8 13 8h20q10 0 6 -12l-635 -1444q-4 -8 -12 -8h-22q-10 0 -7 12z" />
<glyph unicode="0" horiz-adv-x="1241" d="M156 436v584q0 215 123.5 340t341 125t341 -125t123.5 -340v-584q0 -209 -124.5 -332.5t-339.5 -123.5t-340 123.5t-125 332.5zM197 436q0 -193 112.5 -305.5t311 -112.5t311 113t112.5 305v584q0 201 -111.5 313.5t-312 112.5t-312 -112.5t-111.5 -313.5v-584z" />
<glyph unicode="1" horiz-adv-x="649" d="M59 1229q-4 10 4 14l340 215q8 6 19 6h12q10 0 10 -10v-1444q0 -10 -10 -10h-20q-10 0 -11 10v1401l-319 -201q-2 -2 -7 -1t-7 3z" />
<glyph unicode="2" horiz-adv-x="1107" d="M90 10v13q0 10 4 14l314 332q152 160 219 235.5t149 183t113 185.5t31 157q0 127 -89.5 221.5t-261.5 94.5q-238 0 -419 -211q-6 -8 -15 0l-12 14q-4 8 0 15q190 221 446 221q188 0 290 -105.5t102 -249.5q0 -70 -28 -144.5t-57.5 -128.5t-117.5 -158.5t-135.5 -155.5 t-182.5 -197l-288 -307h849q10 0 11 -10v-19q-1 -10 -11 -10h-901q-10 0 -10 10z" />
<glyph unicode="3" horiz-adv-x="1142" d="M98 205q-6 8 0 14l15 12q10 6 16 -4q88 -102 184.5 -155.5t239.5 -53.5q199 0 313.5 111t114.5 295q0 186 -113.5 292.5t-326.5 106.5q-47 0 -117 -4q-6 0 -10 6l-2 4q-4 8 2 15l536 581h-788q-10 0 -10 11v18q0 10 10 10h839q10 0 11 -10v-10q0 -6 -4 -14l-527 -570 l43 2q246 2 372 -117.5t126 -320.5t-127 -322.5t-342 -121.5q-150 0 -254 56t-201 169z" />
<glyph unicode="4" horiz-adv-x="1075" d="M61 426v8q0 6 5 15l591 1009q2 6 13 6h24q12 0 6 -12l-585 -997h680v368q0 10 10 11h20q10 0 11 -11v-368h163q10 0 11 -11v-18q0 -10 -11 -10h-163v-406q-1 -10 -11 -10h-20q-10 0 -10 10v406h-723q-10 0 -11 10z" />
<glyph unicode="5" horiz-adv-x="1157" d="M139 205q-4 8 2 14l15 12q8 8 14 -2q82 -104 177 -155t231 -51q197 0 311.5 121.5t114.5 332.5q0 215 -112 319.5t-296 104.5q-227 0 -387 -164q-8 -8 -14 -4l-27 10q-8 4 -8 11l26 700q0 10 11 10h770q10 0 10 -10v-18q0 -10 -10 -11h-742l-24 -641q168 156 397 156 q201 0 323.5 -116t122.5 -347q0 -223 -126.5 -358t-339.5 -135q-266 0 -439 221z" />
<glyph unicode="6" horiz-adv-x="1171" d="M156 438v600q0 203 131 325t317 122q229 0 391 -158q6 -6 0 -14l-10 -13q-8 -8 -16 -2q-152 147 -365 148q-176 0 -291.5 -112.5t-115.5 -295.5v-387q47 123 164.5 189.5t244.5 66.5q209 0 328 -119.5t119 -343.5q0 -215 -121 -339.5t-326 -124.5t-327.5 122.5 t-122.5 335.5zM197 438q0 -197 110.5 -308.5t299 -111.5t297 114t108.5 312q0 207 -106.5 315.5t-299.5 108.5q-158 0 -283.5 -102t-125.5 -291v-37z" />
<glyph unicode="7" horiz-adv-x="1013" d="M53 1436v18q0 10 10 10h898q10 0 10 -10v-10q0 -8 -2 -12l-688 -1424q-5 -8 -13 -8h-22q-14 0 -8 12l684 1413h-859q-10 0 -10 11z" />
<glyph unicode="8" horiz-adv-x="1212" d="M129 401q0 135 88 237.5t242 133.5q-143 33 -215 127t-72 221q0 162 115.5 263.5t318.5 101.5t318.5 -101.5t115.5 -263.5q0 -127 -70.5 -221t-213.5 -127q154 -31 240.5 -133.5t86.5 -237.5q0 -184 -128 -302.5t-349 -118.5t-349 118.5t-128 302.5zM170 406 q0 -168 113.5 -278t322.5 -110t322.5 110t113.5 278q0 152 -118.5 249t-317 97t-317.5 -97t-119 -249zM213 1122q0 -145 100.5 -238t293 -93t292.5 93t100 238q0 152 -107.5 238t-285.5 86t-285.5 -86t-107.5 -238z" />
<glyph unicode="9" horiz-adv-x="1171" d="M119 1020q0 215 120.5 340t325.5 125t328 -123t123 -334v-602q0 -203 -131 -324.5t-318 -121.5q-242 0 -399 223q-6 8 0 14l14 12q6 8 15 0q150 -211 370 -211q176 0 292 113t116 295v381q-47 -121 -166 -185.5t-244 -64.5q-211 0 -328.5 119t-117.5 344zM160 1020 q0 -207 106.5 -315.5t298.5 -108.5q158 0 284 101.5t126 287.5v43q0 197 -110.5 307.5t-299 110.5t-297 -113.5t-108.5 -312.5z" />
<glyph unicode=":" horiz-adv-x="385" d="M152 37q0 41 40.5 41t40.5 -41t-40.5 -41t-40.5 41zM152 983q0 41 40.5 41t40.5 -41t-40.5 -41t-40.5 41z" />
<glyph unicode=";" horiz-adv-x="456" d="M133 -203l88 326q4 8 10 8h31q12 0 8 -12l-102 -326q-4 -8 -10 -8h-15q-12 0 -10 12zM209 983q0 41 41 41t41 -41t-41 -41t-41 41z" />
<glyph unicode="&#x3c;" horiz-adv-x="1105" d="M94 655v37q0 8 8 13l840 401q12 8 12 -8v-23q0 -8 -8 -12l-811 -389l811 -389q8 -5 8 -13v-22q0 -4 -4 -7t-8 -1l-840 401q-8 4 -8 12z" />
<glyph unicode="=" horiz-adv-x="1105" d="M123 489v21q0 10 10 10h840q10 0 10 -10v-21q0 -10 -10 -10h-840q-10 0 -10 10zM123 852v20q0 10 10 11h840q10 0 10 -11v-20q0 -10 -10 -10h-840q-10 0 -10 10z" />
<glyph unicode="&#x3e;" horiz-adv-x="1105" d="M152 250v22q0 8 8 13l811 389l-811 389q-8 4 -8 12v23q0 4 4 7t8 1l840 -401q8 -4 8 -13v-37q0 -8 -8 -12l-840 -401q-12 -8 -12 8z" />
<glyph unicode="?" horiz-adv-x="907" d="M66 1298q-4 8 2 15q154 172 374 172q180 0 276.5 -105.5t96.5 -271.5q0 -98 -39 -174t-94 -126t-109.5 -98t-93.5 -116t-39 -154v-141q0 -10 -10 -10h-20q-10 0 -11 10v141q0 92 39 164t93.5 121t109.5 98t94 121t39 164q0 141 -82 239.5t-250 98.5q-201 0 -350 -164 q-8 -8 -14 2zM379 37q0 41 41 41t41 -41t-41 -41t-41 41z" />
<glyph unicode="@" horiz-adv-x="1937" d="M137 543v182q0 397 200 578.5t619 181.5q481 0 820 -342q4 -8 4 -15v-645q0 -319 -238 -319q-86 0 -156.5 54t-95.5 153q-35 -100 -124 -155.5t-201 -55.5q-154 0 -262.5 104.5t-108.5 263.5v185q0 162 97 258t259 96q197 0 355 -55q8 -2 8 -11v-526q0 -123 68.5 -196.5 t160.5 -73.5q102 0 148.5 67.5t46.5 210.5v643q-158 150 -341.5 234t-439.5 84q-401 0 -588.5 -170t-187.5 -549v-182q0 -348 179.5 -538.5t519.5 -190.5q135 0 271 31.5t224 82.5q12 8 15 -4l6 -20q4 -9 -4 -13q-207 -119 -517 -118q-354 0 -545.5 202.5t-191.5 567.5z M637 528q0 -145 96 -236t230 -91q127 0 217 76.5t90 189.5v514q-135 45 -318 45q-145 0 -230 -85t-85 -228v-185z" />
<glyph unicode="A" horiz-adv-x="1191" d="M25 12l544 1444q4 8 11 8h32q6 0 11 -8l544 -1444q4 -12 -8 -12h-24q-6 0 -11 8l-176 469h-704l-176 -469q-5 -8 -11 -8h-24q-12 0 -8 12zM260 518h672l-334 889h-4z" />
<glyph unicode="B" horiz-adv-x="1265" d="M205 10v1444q0 10 10 10h422q238 0 343 -97t105 -249q0 -129 -71.5 -214t-196.5 -116q158 -25 243 -125t85 -262q0 -193 -131 -297t-377 -104h-422q-10 0 -10 10zM248 41h389q231 0 348 94t117 266t-104.5 269.5t-317.5 97.5h-432v-727zM248 809h432q172 0 267 82t95 227 q0 133 -92 219t-313 86h-389v-614z" />
<glyph unicode="C" horiz-adv-x="1173" d="M154 461v543q0 213 126 347t355 134q246 0 432 -154q10 -6 2 -14l-12 -17q-6 -6 -15 -2q-180 145 -409 146q-211 0 -323.5 -122t-112.5 -318v-543q0 -197 114.5 -319t327.5 -122q248 0 434 164q8 8 14 0l13 -18q8 -8 -2 -14q-190 -172 -457 -172q-233 0 -360 134 t-127 347z" />
<glyph unicode="D" horiz-adv-x="1345" d="M205 10v1444q0 10 10 10h481q227 0 361.5 -136t134.5 -370v-458q0 -233 -134.5 -366.5t-361.5 -133.5h-481q-10 0 -10 10zM248 41h448q211 0 332 121t121 338v458q0 219 -121 342t-332 123h-448v-1382z" />
<glyph unicode="E" horiz-adv-x="1144" d="M205 10v1444q0 10 10 10h793q10 0 10 -10v-20q0 -10 -10 -11h-760v-655h719q10 0 10 -10v-21q0 -10 -10 -10h-719v-686h790q10 0 11 -10v-21q0 -10 -11 -10h-823q-10 0 -10 10z" />
<glyph unicode="F" horiz-adv-x="1110" d="M205 10v1444q0 10 10 10h813q10 0 10 -10v-20q0 -10 -10 -11h-780v-675h727q10 0 10 -11v-20q0 -10 -10 -10h-727v-697q0 -10 -10 -10h-23q-10 0 -10 10z" />
<glyph unicode="G" horiz-adv-x="1296" d="M154 463v541q0 215 130 348t367 133q270 0 467 -164q10 -6 2 -14l-12 -17q-6 -6 -14 -2q-188 156 -443 156q-221 0 -337.5 -121t-116.5 -319v-541q0 -199 117.5 -321t340.5 -122q262 0 457 177v508h-453q-10 0 -10 10v20q0 10 10 10h486q10 0 10 -10v-547q0 -8 -6 -14 q-202 -194 -491 -194h-3q-240 0 -370.5 134t-130.5 349z" />
<glyph unicode="H" horiz-adv-x="1376" d="M205 10v1444q0 10 10 10h23q10 0 10 -10v-686h880v686q0 10 11 10h22q10 0 10 -10v-1444q0 -10 -10 -10h-22q-10 0 -11 10v717h-880v-717q0 -10 -10 -10h-23q-10 0 -10 10z" />
<glyph unicode="I" horiz-adv-x="452" d="M205 10v1444q0 10 10 10h23q10 0 10 -10v-1444q0 -10 -10 -10h-23q-10 0 -10 10z" />
<glyph unicode="J" horiz-adv-x="997" d="M43 162l14 16q6 8 15 0q168 -158 354 -158q172 0 253 92.5t81 293.5v1048q0 10 10 10h23q10 0 10 -10v-1048q0 -217 -93.5 -321.5t-283.5 -104.5q-203 0 -381 167q-6 6 -2 15z" />
<glyph unicode="K" horiz-adv-x="1232" d="M205 10v1444q0 10 10 10h23q10 0 10 -10v-836l862 840q6 6 14 6h33q18 0 6 -12l-665 -649l704 -791q10 -12 -6 -12h-33q-8 0 -12 6l-684 768l-219 -213v-551q0 -10 -10 -10h-23q-10 0 -10 10z" />
<glyph unicode="L" horiz-adv-x="1001" d="M205 10v1444q0 10 10 10h23q10 0 10 -10v-1413h719q10 0 10 -10v-21q0 -10 -10 -10h-752q-10 0 -10 10z" />
<glyph unicode="M" horiz-adv-x="1716" d="M205 10v1444q0 10 10 10h35q8 0 12 -6l453 -788l143 -252l141 246l455 794q4 6 12 6h35q10 0 10 -10v-1444q0 -10 -10 -10h-22q-10 0 -11 10v1389l-190 -332l-399 -698q-2 -6 -13 -7h-16q-10 0 -12 7l-400 698l-190 332v-1389q0 -10 -10 -10h-23q-10 0 -10 10z" />
<glyph unicode="N" horiz-adv-x="1431" d="M205 10v1444q0 10 10 10h29q10 0 12 -6l928 -1388v1384q0 10 10 10h23q10 0 10 -10v-1444q0 -10 -10 -10h-29q-8 0 -12 6l-928 1389v-1385q0 -10 -10 -10h-23q-10 0 -10 10z" />
<glyph unicode="O" horiz-adv-x="1363" d="M154 446v553q0 215 145 350.5t383 135.5t383 -135.5t145 -350.5v-553q0 -201 -147.5 -333.5t-380.5 -132.5t-380.5 133t-147.5 333zM197 446q0 -184 134 -305t351 -121t351 121t134 305v553q0 199 -133 322t-352 123t-352 -123t-133 -322v-553z" />
<glyph unicode="P" horiz-adv-x="1247" d="M205 10v1444q0 10 10 10h447q240 0 368.5 -116.5t128.5 -323.5q0 -209 -130 -323.5t-367 -114.5h-414v-576q0 -10 -10 -10h-23q-10 0 -10 10zM248 627h409q225 0 342 102t117 295t-117.5 296t-341.5 103h-409v-796z" />
<glyph unicode="Q" horiz-adv-x="1366" d="M154 451v548q0 213 146 349.5t382 136.5t382 -136.5t146 -349.5v-548q0 -201 -147 -332l147 -156q6 -8 0 -14l-14 -15q-6 -6 -14 3l-150 155q-144 -108 -346 -108h-4q-233 0 -380.5 134t-147.5 333zM197 451q0 -182 135 -304t350 -122q190 0 322 98l-252 264q-6 8 0 14 l14 15q8 6 14 0l254 -269q133 123 133 304v548q0 197 -133 321t-352 124t-352 -124t-133 -321v-548z" />
<glyph unicode="R" horiz-adv-x="1261" d="M205 10v1444q0 10 10 10h447q223 0 352 -110.5t129 -304.5q0 -190 -124 -300t-343 -114l485 -623q8 -12 -6 -12h-31q-10 0 -12 6l-489 629h-375v-625q0 -10 -10 -10h-23q-10 0 -10 10zM248 676h414q207 0 322.5 97t115.5 275.5t-116.5 276.5t-321.5 98h-414v-747z" />
<glyph unicode="S" horiz-adv-x="1206" d="M113 186l14 17q6 6 14 2q115 -96 225.5 -140.5t247.5 -44.5q209 0 330 87.5t121 252.5q0 145 -100.5 225.5t-362.5 141.5q-248 57 -365.5 155.5t-117.5 254.5q0 170 134 259t337 89q272 0 477 -164q6 -4 2 -14l-10 -17q-8 -10 -15 -4q-190 158 -460 158q-180 0 -301 -79 t-121 -230q0 -141 107.5 -226.5t340.5 -140.5q281 -68 389.5 -160t108.5 -248q0 -180 -132 -280t-362 -100q-152 0 -266.5 45t-232.5 147q-10 6 -2 14z" />
<glyph unicode="T" horiz-adv-x="1079" d="M25 1434v20q0 10 10 10h1009q10 0 11 -10v-20q0 -10 -11 -11h-487v-1413q0 -10 -10 -10h-23q-10 0 -10 10v1413h-479q-10 0 -10 11z" />
<glyph unicode="U" horiz-adv-x="1372" d="M193 492v962q0 10 10 10h22q10 0 11 -10v-962q0 -213 117.5 -340t332.5 -127t333 127t118 340v962q0 10 10 10h22q10 0 11 -10v-962q0 -229 -130 -368.5t-363.5 -139.5t-363.5 139t-130 369z" />
<glyph unicode="V" horiz-adv-x="1220" d="M23 1452q-2 12 8 12h22q8 0 13 -8l340 -876l202 -529h4q33 86 100.5 261t100.5 261l342 883q4 8 12 8h23q10 0 8 -12l-557 -1444q-4 -8 -12 -8h-37q-8 0 -12 8z" />
<glyph unicode="W" horiz-adv-x="1900" d="M33 1452q-4 12 8 12h25q6 0 10 -8l407 -1399l445 1370q4 8 10 9h25q6 0 10 -9l444 -1370l408 1399q4 8 10 8h25q12 0 8 -12l-424 -1444q-4 -8 -10 -8h-33q-6 0 -10 8l-441 1356l-440 -1356q-4 -8 -10 -8h-33q-6 0 -10 8z" />
<glyph unicode="X" horiz-adv-x="1165" d="M51 12l504 727l-481 713q-8 12 6 12h29q10 0 12 -6l463 -686l460 686q4 6 13 6h28q14 0 7 -12l-480 -713l502 -727q8 -12 -6 -12h-29q-10 0 -12 6l-483 701l-486 -701q-4 -6 -12 -6h-29q-14 0 -6 12z" />
<glyph unicode="Y" horiz-adv-x="1083" d="M25 1452q-6 12 8 12h24q8 0 13 -6l473 -827l473 827q4 6 12 6h25q14 0 8 -12l-498 -866v-576q0 -10 -10 -10h-23q-10 0 -10 10v576z" />
<glyph unicode="Z" horiz-adv-x="1118" d="M66 10v10q0 4 4 13l909 1390h-875q-10 0 -10 11v20q0 10 10 10h922q10 0 10 -10v-14q0 -4 -4 -13l-907 -1386h913q10 0 11 -10v-21q-1 -10 -11 -10h-962q-10 0 -10 10z" />
<glyph unicode="[" horiz-adv-x="487" d="M190 -229v1915q0 10 11 10h217q10 0 10 -10v-19q0 -10 -10 -10h-187v-1858h187q10 0 10 -10v-18q0 -10 -10 -11h-217q-10 0 -11 11z" />
<glyph unicode="\" d="M63 1452q-4 12 7 12h20q8 0 12 -8l637 -1444q4 -12 -6 -12h-22q-9 0 -13 8z" />
<glyph unicode="]" horiz-adv-x="487" d="M59 -211q0 10 11 10h186v1858h-186q-10 0 -11 10v19q0 10 11 10h217q10 0 10 -10v-1915q0 -10 -10 -11h-217q-10 0 -11 11v18z" />
<glyph unicode="^" horiz-adv-x="1105" d="M119 1202l409 475q4 6 13 6h24q8 0 13 -6l409 -475q8 -12 -6 -12h-33q-10 0 -12 6l-383 449l-383 -449q-2 -6 -12 -6h-33q-16 0 -6 12z" />
<glyph unicode="_" horiz-adv-x="1110" d="M41 -31q0 10 10 11h1008q10 -1 10 -11v-18q0 -10 -10 -10h-1008q-10 0 -10 10v18z" />
<glyph unicode="`" horiz-adv-x="219" d="M-45 1509q-6 12 6 13h31q8 0 12 -6l170 -275q10 -12 -8 -12h-16q-10 0 -13 6z" />
<glyph unicode="a" horiz-adv-x="1017" d="M82 305q0 152 108.5 236t307.5 84q152 0 331 -43v116q0 334 -331 334q-190 0 -338 -94q-8 -4 -15 2l-8 14q-4 11 0 13q145 104 361 104q188 0 280 -99.5t92 -273.5v-632q0 -10 -8 -13q-166 -73 -359 -73h-5q-184 0 -300 89t-116 236zM123 305q0 -129 104.5 -208 t270.5 -79q172 0 331 62v465q-168 41 -331 41q-180 0 -277.5 -73t-97.5 -208z" />
<glyph unicode="b" horiz-adv-x="1083" d="M160 63v1391q0 10 10 10h20q10 0 11 -10v-483q147 100 334 100q428 0 428 -440v-215q0 -436 -428 -436q-195 0 -367 71q-8 2 -8 12zM201 78q168 -60 334 -60q387 0 387 398v215q0 401 -387 401q-176 0 -334 -104v-850z" />
<glyph unicode="c" horiz-adv-x="946" d="M123 354v342q0 160 108.5 267.5t290.5 107.5q178 0 328 -110q10 -6 2 -15l-10 -14q-6 -6 -15 -2q-141 102 -307 102q-168 0 -262 -96t-94 -240v-342q0 -143 96 -239.5t260 -96.5q178 0 336 121q8 4 14 -2l11 -14q8 -8 -2 -14q-160 -129 -357 -129q-182 0 -290.5 107.5 t-108.5 266.5z" />
<glyph unicode="d" horiz-adv-x="1083" d="M121 416v215q0 440 428 440q187 0 334 -100v483q0 10 10 10h20q10 0 11 -10v-1391q0 -10 -9 -12q-170 -71 -361 -71h-5q-428 0 -428 436zM162 416q0 -397 387 -398q166 0 334 60v850q-158 104 -334 104q-387 0 -387 -401v-215z" />
<glyph unicode="e" horiz-adv-x="1034" d="M123 350v336q0 178 108.5 281.5t292.5 103.5q182 0 292 -103.5t110 -281.5v-180q0 -10 -11 -10h-751v-146q0 -152 104.5 -242t255.5 -90q195 0 357 150q8 6 14 -2l12 -12q8 -8 0 -15q-171 -159 -380 -159h-3q-168 0 -284.5 102t-116.5 268zM164 535h721v151 q0 162 -98.5 254t-262.5 92q-168 0 -264 -91t-96 -255v-151z" />
<glyph unicode="f" horiz-adv-x="618" d="M162 10v1149q0 152 80 239t225 87q63 0 125 -6q10 -4 10 -13v-18q0 -12 -14 -8q-61 6 -121 6q-129 0 -196.5 -75t-67.5 -212v-108h375q10 0 10 -11v-18q0 -10 -10 -10h-375v-1002q0 -10 -10 -10h-21q-10 0 -10 10z" />
<glyph unicode="g" horiz-adv-x="1079" d="M121 444v228q0 201 112.5 300t313.5 99t364 -72q8 -2 9 -12v-1032q0 -164 -99.5 -264.5t-294.5 -100.5q-211 0 -383 168q-6 6 0 15l11 14q6 8 14 0q164 -158 358 -158q178 0 265.5 88t87.5 238v166q-156 -80 -328 -80q-207 0 -318.5 102.5t-111.5 300.5zM162 444 q0 -364 387 -364h2q168 0 328 82v811q-160 59 -336 59q-184 0 -282.5 -91t-98.5 -269v-228z" />
<glyph unicode="h" horiz-adv-x="1118" d="M162 10v1444q0 10 10 10h21q10 0 10 -10v-467q168 84 336 84q205 0 316.5 -103.5t111.5 -303.5v-654q0 -10 -11 -10h-20q-10 0 -10 10v654q0 368 -385 368h-2q-170 0 -336 -86v-936q0 -10 -10 -10h-21q-10 0 -10 10z" />
<glyph unicode="i" horiz-adv-x="364" d="M141 1331q0 41 41 41t41 -41t-41 -41t-41 41zM162 10v1030q0 10 10 11h21q10 0 10 -11v-1030q0 -10 -10 -10h-21q-10 0 -10 10z" />
<glyph unicode="j" horiz-adv-x="380" d="M-143 -371q0 6 2 9.5t8 1.5q45 -10 106 -11q205 0 205 291v1120q0 10 10 11h21q10 0 10 -11v-1120q0 -330 -246 -330q-63 0 -106 11q-10 4 -10 12v16zM158 1331q0 41 41 41t41 -41t-41 -41t-41 41z" />
<glyph unicode="k" horiz-adv-x="964" d="M162 10v1444q0 10 10 10h21q10 0 10 -10v-983l659 576q4 4 15 4h32q16 0 4 -13l-503 -440l524 -586q8 -12 -6 -12h-29q-10 0 -12 6l-508 565l-176 -151v-410q0 -10 -10 -10h-21q-10 0 -10 10z" />
<glyph unicode="l" horiz-adv-x="544" d="M154 309v1145q0 10 10 10h20q10 0 11 -10v-1153q0 -283 206 -283q49 0 121 11q10 0 10 -9v-18q0 -8 -10 -12q-57 -10 -121 -10q-248 0 -247 329z" />
<glyph unicode="m" horiz-adv-x="1636" d="M160 10v973q0 10 8 12q162 76 321 76q179 0 275 -102q152 102 330 102q182 0 286.5 -99.5t104.5 -279.5v-682q0 -10 -10 -10h-21q-10 0 -10 10v682q0 164 -92 252t-258 88q-170 0 -308 -94q61 -94 62 -246v-682q0 -10 -10 -10h-21q-10 0 -10 10v682q0 340 -318 340 q-139 0 -288 -63v-959q0 -10 -11 -10h-20q-10 0 -10 10z" />
<glyph unicode="n" horiz-adv-x="1116" d="M160 10v971q0 10 8 12q172 78 369 78q205 0 316.5 -104.5t111.5 -302.5v-654q0 -10 -11 -10h-20q-10 0 -10 10v654q0 182 -100.5 275t-286.5 93q-174 0 -336 -65v-957q-1 -10 -11 -10h-20q-10 0 -10 10z" />
<glyph unicode="o" horiz-adv-x="1085" d="M123 360v332q0 164 110.5 271.5t309.5 107.5q201 0 310.5 -107.5t109.5 -271.5v-332q0 -166 -110 -273t-310.5 -107t-310 107.5t-109.5 272.5zM164 360q0 -150 98 -246t281 -96q184 0 281.5 96.5t97.5 245.5v332q0 147 -97.5 243.5t-281.5 96.5q-182 0 -280.5 -96 t-98.5 -244v-332z" />
<glyph unicode="p" horiz-adv-x="1083" d="M160 -379v1366q0 8 6 10q174 74 369 74q428 0 428 -436v-215q0 -440 -428 -440q-186 0 -334 100v-459q0 -10 -11 -10h-20q-10 0 -10 10zM201 125q156 -107 334 -107q387 0 387 402v215q0 397 -387 397q-170 0 -334 -61v-846z" />
<glyph unicode="q" horiz-adv-x="1083" d="M121 420v215q0 436 428 436q195 0 366 -72q8 -2 9 -12v-1366q0 -10 -11 -10h-20q-10 0 -10 10v459q-152 -100 -334 -100q-428 0 -428 440zM162 420q0 -401 387 -402q176 0 334 105v850q-168 59 -334 59q-387 0 -387 -397v-215z" />
<glyph unicode="r" horiz-adv-x="761" d="M160 10v979q0 10 8 12q152 70 342 70q92 0 207 -18q10 -2 10 -13v-18q0 -12 -10 -8q-119 18 -207 18q-162 0 -309 -57v-965q-1 -10 -11 -10h-20q-10 0 -10 10z" />
<glyph unicode="s" horiz-adv-x="940" d="M88 125l10 16q6 6 15 2q166 -125 362 -125q156 0 248 66t92 184q0 51 -22.5 92t-49 65t-81 43t-88 28.5t-99.5 21.5q-76 14 -133 33.5t-116.5 52.5t-91.5 86t-32 123q0 117 97.5 187.5t253.5 70.5q186 0 362 -100q8 -8 2 -15l-8 -16q-4 -8 -14 -2q-164 94 -342 94 q-135 0 -222.5 -58.5t-87.5 -160.5q0 -49 20.5 -89t51.5 -64.5t79 -46t90 -33t99 -23.5q70 -14 113 -26.5t98.5 -35t86 -50t53 -74t22.5 -103.5q0 -129 -99.5 -208.5t-281.5 -79.5q-215 0 -385 131q-10 6 -2 14z" />
<glyph unicode="t" horiz-adv-x="610" d="M154 309v998q0 10 10 10h20q10 0 11 -10v-256h364q10 0 10 -11v-18q0 -10 -10 -10h-364v-703q0 -137 67.5 -211.5t196.5 -74.5q66 0 127 6q10 4 10 -9v-18q0 -8 -10 -12q-61 -6 -127 -6q-145 0 -225 87t-80 238z" />
<glyph unicode="u" horiz-adv-x="1099" d="M152 387v653q0 10 10 11h20q10 0 11 -11v-653q0 -180 98 -274.5t280 -94.5q156 0 328 66v956q0 11 10 11h21q10 0 10 -11v-970q0 -10 -8 -13q-166 -77 -356 -77h-5q-201 0 -310 104t-109 303z" />
<glyph unicode="v" horiz-adv-x="962" d="M47 1038q-4 12 8 13h23q8 0 12 -9l391 -989l391 989q4 8 13 9h22q12 0 8 -13l-407 -1030q-4 -8 -12 -8h-29q-8 0 -12 8z" />
<glyph unicode="w" horiz-adv-x="1511" d="M49 1038q-4 12 8 13h23q6 0 10 -9l318 -985l323 961q4 8 10 8h29q6 0 10 -8l324 -961l317 985q4 8 11 9h22q12 0 8 -13l-332 -1030q-4 -8 -10 -8h-30q-6 0 -11 8l-323 961l-324 -961q-4 -8 -10 -8h-31q-6 0 -10 8z" />
<glyph unicode="x" horiz-adv-x="950" d="M43 12l403 527l-378 499q-8 12 6 13h26q10 0 13 -7l360 -475l361 475q2 6 12 7h26q14 0 7 -13l-379 -499l403 -527q8 -12 -6 -12h-27q-10 0 -12 6l-385 502l-385 -502q-2 -6 -12 -6h-27q-14 0 -6 12z" />
<glyph unicode="y" horiz-adv-x="1101" d="M152 432v608q0 10 10 11h20q10 0 11 -11v-608q0 -176 100 -264t282 -88q174 0 324 80v880q0 10 10 11h21q10 0 10 -11v-1085q0 -164 -97.5 -264.5t-289.5 -100.5q-201 0 -379 164q-6 8 0 15l12 14q6 8 15 0q168 -154 352 -154q176 0 261 88t85 238v164q-143 -78 -326 -78 q-199 0 -310 99.5t-111 291.5z" />
<glyph unicode="z" horiz-adv-x="905" d="M59 10v15q0 4 4 12l707 975h-670q-10 0 -10 10v18q0 10 10 11h717q10 0 10 -11v-12q0 -4 -4 -12l-708 -977h721q10 0 10 -10v-19q0 -10 -10 -10h-766q-10 0 -11 10z" />
<glyph unicode="{" horiz-adv-x="479" d="M86 717v24q0 10 8 13q68 14 93.5 58t25.5 157v510q0 217 184 219h6q8 0 9 -10v-19q0 -10 -9 -10h-6q-78 -2 -110.5 -45t-32.5 -135v-510q0 -219 -133 -240q133 -20 133 -240v-509q0 -96 34 -137.5t113 -43.5h2q8 0 9 -10v-18q-1 -11 -9 -11h-2q-100 2 -144 54.5 t-44 165.5v509q0 113 -25.5 157t-93.5 59q-8 2 -8 12z" />
<glyph unicode="|" horiz-adv-x="421" d="M190 -274v2027q0 10 11 10h20q10 0 10 -10v-2027q0 -11 -10 -11h-20q-10 0 -11 11z" />
<glyph unicode="}" horiz-adv-x="479" d="M68 -211q0 10 8 10h2q80 2 113.5 43t33.5 138v509q0 219 133 240q-133 20 -133 240v510q0 92 -32.5 135t-110.5 45h-6q-8 0 -8 10v19q0 10 8 10h6q184 -2 184 -219v-510q0 -113 25.5 -157t93.5 -58q8 -2 8 -13v-24q0 -10 -8 -12q-68 -14 -93.5 -58.5t-25.5 -157.5v-509 q0 -113 -44 -165.5t-144 -54.5h-2q-8 0 -8 11v18z" />
<glyph unicode="~" horiz-adv-x="1105" d="M164 692q-8 8 0 15q88 72 184 71q76 0 217 -47q133 -43 191 -43q88 0 159 62q8 6 15 0l16 -15q8 -8 0 -14q-94 -72 -192 -72q-53 0 -205 47q-135 43 -201 43q-86 0 -153 -61q-10 -6 -17 0z" />
<glyph unicode="&#xa2;" horiz-adv-x="1026" d="M143 354v342q0 156 103.5 262.5t279.5 112.5v143q0 10 11 11h18q10 0 10 -11v-143q164 -6 305 -110q10 -6 2 -15l-10 -16q-6 -6 -14 -2q-139 104 -307 104t-262.5 -96t-94.5 -240v-342q0 -143 96.5 -239.5t260.5 -96.5q180 0 336 123q8 4 14 -2l10 -16q8 -8 -2 -14 q-152 -123 -334 -129v-125q0 -10 -10 -11h-18q-10 0 -11 11v125q-176 6 -279.5 112.5t-103.5 261.5z" />
<glyph unicode="&#xa3;" horiz-adv-x="1107" d="M104 10v19q0 10 11 10q141 6 141 221v510h-141q-10 0 -11 10v19q0 10 11 10h141v321q0 152 96.5 253.5t270.5 101.5q197 0 348 -125q6 -4 2 -14l-10 -15q-6 -6 -15 -2q-166 117 -327 117q-156 0 -240 -90t-84 -226v-321h489q10 0 11 -10v-19q0 -10 -11 -10h-489v-512 q0 -172 -84 -219h772q10 0 10 -10v-19q0 -10 -10 -10h-870q-10 0 -11 10z" />
<glyph unicode="&#xa5;" horiz-adv-x="1103" d="M55 1452q-6 12 8 12h25q8 0 12 -8l451 -827l453 827q4 8 12 8h24q14 0 9 -12l-461 -842h262q10 0 10 -10v-18q0 -10 -10 -11h-279v-182h279q10 0 10 -10v-19q0 -10 -10 -10h-279v-340q0 -10 -10 -10h-20q-10 0 -11 10v340h-274q-10 0 -10 10v19q0 10 10 10h274v182h-274 q-10 0 -10 11v18q0 10 10 10h260z" />
<glyph unicode="&#xa8;" horiz-adv-x="462" d="M18 1331q0 41 41 41t41 -41t-41 -41t-41 41zM362 1331q0 41 41 41t41 -41t-41 -41t-41 41z" />
<glyph unicode="&#xa9;" horiz-adv-x="1744" d="M127 721q0 352 214 558t533 206q317 0 530.5 -206t213.5 -558q0 -342 -212 -541.5t-531.5 -199.5t-533.5 199.5t-214 541.5zM168 721q0 -332 201.5 -517.5t504.5 -185.5q301 0 502 185.5t201 517.5q0 344 -199.5 534.5t-503.5 190.5q-301 0 -503.5 -191.5t-202.5 -533.5z M586 567v301q0 104 75.5 181t198.5 79q147 2 244 -102q6 -6 2 -14l-14 -13q-6 -8 -15 -2q-84 92 -217 90q-104 -2 -168.5 -66.5t-64.5 -152.5v-301q0 -86 65.5 -152.5t171.5 -66.5q139 0 234 98q8 6 14 -2l12 -16q2 -10 0 -12q-106 -111 -260 -109q-125 2 -201.5 79 t-76.5 181z" />
<glyph unicode="&#xab;" horiz-adv-x="956" d="M86 590q-4 6 0 12l297 438q2 6 12 7h25q14 0 6 -13l-297 -438l297 -438q8 -13 -6 -13h-25q-10 0 -12 7zM508 590q-4 6 0 12l297 438q2 6 12 7h25q14 0 6 -13l-297 -438l297 -438q8 -13 -6 -13h-25q-10 0 -12 7z" />
<glyph unicode="&#xad;" d="M137 623v18q0 10 10 10h508q10 0 11 -10v-18q-1 -11 -11 -11h-508q-10 0 -10 11z" />
<glyph unicode="&#xae;" horiz-adv-x="1097" d="M123 1059q0 195 122 310.5t304 115.5t304 -115.5t122 -310.5q0 -197 -122 -311.5t-304 -114.5t-304 114.5t-122 311.5zM158 1058.5q0 -186.5 110.5 -289.5t282.5 -103q168 0 278.5 104t110.5 289q0 186 -110.5 289.5t-278.5 103.5q-172 0 -282.5 -103.5t-110.5 -290z M414 872v394q0 10 10 10h143q68 0 106 -34t38 -93q0 -111 -133 -117l131 -158q8 -12 -7 -12h-20q-10 0 -12 6l-138 164h-83v-160q-1 -10 -11 -10h-14q-10 0 -10 10zM449 1065h118q109 0 109 84q0 92 -109 92h-118v-176z" />
<glyph unicode="&#xb4;" horiz-adv-x="258" d="M2 1241l170 275q4 6 12 6h31q12 0 6 -13l-182 -274q-2 -6 -12 -6h-17q-16 0 -8 12z" />
<glyph unicode="&#xb8;" horiz-adv-x="333" d="M0 -367q0 10 12 9q61 -18 117 -19q74 0 113 31t39 84q0 55 -41 79.5t-138 26.5q-8 0 -12 6q-6 6 -2 13l49 135q4 8 10 8h21q12 0 8 -12l-43 -119q189 0 189 -137q0 -68 -51.5 -110t-141.5 -42q-63 0 -121 19q-8 2 -8 12v16z" />
<glyph unicode="&#xbb;" horiz-adv-x="954" d="M104 158l297 438l-297 438q-8 12 7 13h24q8 0 12 -7l297 -438q2 -6 0 -12l-297 -438q-4 -7 -12 -7h-24q-14 0 -7 13zM526 158l297 438l-297 438q-8 12 6 13h25q8 0 12 -7l297 -438q2 -6 0 -12l-297 -438q-4 -7 -12 -7h-25q-14 0 -6 13z" />
<glyph unicode="&#x2c6;" horiz-adv-x="602" d="M45 1241l234 275q4 6 12 6h20q8 0 13 -6l233 -275q8 -12 -6 -12h-27q-8 0 -12 6l-211 252l-211 -252q-4 -6 -12 -6h-27q-14 0 -6 12z" />
<glyph unicode="&#x2da;" horiz-adv-x="393" d="M4 1386.5q0 79.5 53.5 134t139.5 54.5t139 -54.5t53 -134t-53 -133t-139 -53.5t-139.5 53.5t-53.5 133zM43 1386.5q0 -67.5 42 -108.5t113.5 -41t111.5 41t40 108.5t-40 109.5t-111.5 42t-113.5 -42t-42 -109.5z" />
<glyph unicode="&#x2dc;" horiz-adv-x="542" d="M4 1325q41 96 135 96q45 0 144 -49q94 -45 125 -45q68 0 100 78q4 8 12 4l15 -6q8 -4 6 -12q-14 -41 -50 -71t-81 -30q-43 0 -138 47q-86 47 -135 47q-70 0 -100 -75q-4 -6 -12 -4l-15 6q-8 6 -6 14z" />
<glyph unicode="&#x401;" horiz-adv-x="1144" d="M205 10v1444q0 10 10 10h793q10 0 10 -10v-20q0 -10 -10 -11h-760v-655h719q10 0 10 -10v-21q0 -10 -10 -10h-719v-686h790q10 0 11 -10v-21q0 -10 -11 -10h-823q-10 0 -10 10zM365 1759q0 43 43 43t43 -43t-43 -43t-43 43zM770 1759q0 43 43 43t43 -43t-43 -43t-43 43z " />
<glyph unicode="&#x402;" horiz-adv-x="1445" d="M25 1434v20q0 10 10 10h1007q10 0 11 -10v-20q0 -10 -11 -11h-485v-434q170 82 334 82q205 0 316.5 -103.5t111.5 -303.5v-355q0 -330 -246 -329q-35 0 -106 10q-10 0 -11 12v18q0 4 3.5 8.5t7.5 2.5q61 -10 106 -11q203 0 203 281v363q0 367 -385 366q-166 0 -334 -84 v-936q0 -10 -10 -10h-23q-10 0 -10 10v1413h-479q-10 0 -10 11z" />
<glyph unicode="&#x403;" horiz-adv-x="1011" d="M205 10v1444q0 10 10 10h762q10 0 10 -10v-20q0 -10 -10 -11h-729v-1413q0 -10 -10 -10h-23q-10 0 -10 10zM465 1630l221 275q2 6 12 6h35q16 -1 6 -13l-235 -274q-4 -6 -12 -6h-21q-14 0 -6 12z" />
<glyph unicode="&#x404;" horiz-adv-x="1189" d="M154 461v543q0 215 126 348t355 133q246 0 432 -154q10 -6 2 -14l-12 -19q-6 -6 -15 -2q-178 147 -409 148q-211 0 -323.5 -122t-112.5 -318v-250h723q10 0 10 -11v-20q0 -10 -10 -10h-723v-252q0 -197 114.5 -319t327.5 -122q248 0 434 164q8 8 14 0l13 -18q8 -8 -2 -14 q-190 -172 -457 -172q-233 0 -360 133t-127 348z" />
<glyph unicode="&#x405;" horiz-adv-x="1226" d="M123 186l14 17q6 6 15 2q115 -96 225 -140.5t248 -44.5q209 0 329.5 87.5t120.5 252.5q0 145 -100.5 225.5t-362.5 141.5q-248 57 -365.5 155.5t-117.5 254.5q0 170 134 259t337 89q272 0 477 -164q6 -4 2 -14l-10 -17q-8 -10 -14 -4q-190 158 -461 158q-180 0 -301 -79 t-121 -230q0 -141 107.5 -226.5t341.5 -140.5q281 -68 389 -160t108 -248q0 -180 -132 -280t-361 -100q-152 0 -266.5 45t-233.5 147q-10 6 -2 14z" />
<glyph unicode="&#x406;" horiz-adv-x="452" d="M205 10v1444q0 10 10 10h23q10 0 10 -10v-1444q0 -10 -10 -10h-23q-10 0 -10 10z" />
<glyph unicode="&#x407;" horiz-adv-x="452" d="M25 1759q0 41 40.5 41t40.5 -41t-40.5 -41t-40.5 41zM205 10v1444q0 10 10 10h23q10 0 10 -10v-1444q0 -10 -10 -10h-23q-10 0 -10 10zM348 1759q0 41 41 41t41 -41t-41 -41t-41 41z" />
<glyph unicode="&#x408;" horiz-adv-x="997" d="M43 162l14 16q6 8 15 0q168 -158 354 -158q172 0 253 92.5t81 293.5v1048q0 10 10 10h23q10 0 10 -10v-1048q0 -217 -93.5 -321.5t-283.5 -104.5q-203 0 -381 167q-6 6 -2 15z" />
<glyph unicode="&#x409;" horiz-adv-x="2035" d="M10 4v21q0 10 10 10q106 0 165 87t85 302q53 430 54 1030q0 10 10 10h721q10 0 10 -10v-561h383q244 0 370 -115.5t126 -326.5q0 -219 -126 -335t-370 -116h-416q-10 0 -10 10v1413h-657q-13 -706 -52 -1005q-31 -231 -99.5 -327.5t-193.5 -96.5q-10 0 -10 10zM1065 41 h383q453 0 453 410q0 195 -113 298t-340 103h-383v-811z" />
<glyph unicode="&#x40a;" horiz-adv-x="2029" d="M205 10v1444q0 10 10 10h23q10 0 10 -10v-620h811v620q0 10 10 10h23q10 0 10 -10v-620h328q252 0 383 -105.5t131 -312.5q0 -197 -134.5 -306.5t-369.5 -109.5h-371q-10 0 -10 10v783h-811v-783q0 -10 -10 -10h-23q-10 0 -10 10zM1102 41h338q219 0 340 97.5t121 277.5 q0 377 -471 377h-328v-752z" />
<glyph unicode="&#x40b;" horiz-adv-x="1443" d="M25 1434v20q0 10 10 10h975q10 0 10 -10v-20q0 -10 -10 -11h-465v-434q170 82 334 82q207 0 318.5 -103.5t111.5 -303.5v-654q0 -10 -11 -10h-22q-10 0 -10 10v654q0 367 -387 366q-166 0 -334 -84v-936q0 -10 -10 -10h-23q-10 0 -10 10v1413h-467q-10 0 -10 11z" />
<glyph unicode="&#x40c;" horiz-adv-x="1232" d="M205 10v1444q0 10 10 10h23q10 0 10 -10v-836l862 840q6 6 14 6h33q18 0 6 -12l-665 -649l704 -791q10 -12 -6 -12h-33q-8 0 -12 6l-684 768l-219 -213v-551q0 -10 -10 -10h-23q-10 0 -10 10zM559 1630l221 275q2 6 13 6h34q17 -1 7 -13l-236 -274q-4 -6 -12 -6h-21 q-14 0 -6 12z" />
<glyph unicode="&#x40e;" horiz-adv-x="1038" d="M23 1452q-6 12 8 12h24q10 0 13 -8l487 -942l424 942q4 8 12 8h27q10 0 6 -12l-653 -1444q-5 -8 -13 -8h-26q-10 0 -6 12l206 455zM217 1907q-2 8 8 12l19 4q8 2 12 -8q12 -119 81 -190.5t183.5 -71.5t183 71.5t80.5 190.5q4 10 13 8l18 -4q10 -4 10 -12 q-16 -129 -97 -211t-208 -82t-208 82t-95 211z" />
<glyph unicode="&#x40f;" horiz-adv-x="1386" d="M205 10v1444q0 10 10 10h23q10 0 10 -10v-1413h891v1413q0 10 10 10h22q10 0 11 -10v-1444q0 -10 -11 -10h-456v-258q0 -10 -10 -10h-21q-10 0 -10 10v258h-459q-10 0 -10 10z" />
<glyph unicode="&#x410;" horiz-adv-x="1191" d="M25 12l544 1444q4 8 11 8h32q6 0 11 -8l544 -1444q4 -12 -8 -12h-24q-6 0 -11 8l-176 469h-704l-176 -469q-5 -8 -11 -8h-24q-12 0 -8 12zM260 518h672l-334 889h-4z" />
<glyph unicode="&#x411;" horiz-adv-x="1261" d="M205 10v1444q0 10 10 10h848q10 0 10 -10v-20q0 -10 -10 -11h-815v-553h430q244 0 360.5 -107.5t116.5 -328.5q0 -207 -122 -320.5t-345 -113.5h-473q-10 0 -10 10zM248 41h440q205 0 314.5 102.5t109.5 290.5q0 205 -104.5 300t-329.5 95h-430v-788z" />
<glyph unicode="&#x412;" horiz-adv-x="1265" d="M205 10v1444q0 10 10 10h422q238 0 343 -97t105 -249q0 -129 -71.5 -214t-196.5 -116q158 -25 243 -125t85 -262q0 -193 -131 -297t-377 -104h-422q-10 0 -10 10zM248 41h389q231 0 348 94t117 266t-104.5 269.5t-317.5 97.5h-432v-727zM248 809h432q172 0 267 82t95 227 q0 133 -92 219t-313 86h-389v-614z" />
<glyph unicode="&#x413;" horiz-adv-x="1011" d="M205 10v1444q0 10 10 10h762q10 0 10 -10v-20q0 -10 -10 -11h-729v-1413q0 -10 -10 -10h-23q-10 0 -10 10z" />
<glyph unicode="&#x414;" horiz-adv-x="1302" d="M16 31q0 10 11 10h77q86 43 131.5 176t69 414.5t35.5 822.5q0 10 10 10h711q10 0 10 -10v-1413h146q10 0 10 -10v-303q0 -10 -10 -11h-23q-10 0 -10 11v272h-1125v-272q0 -11 -10 -11h-22q-10 0 -11 11v303zM168 41h860v1382h-647q-14 -729 -60.5 -1025t-152.5 -357z" />
<glyph unicode="&#x415;" horiz-adv-x="1144" d="M205 10v1444q0 10 10 10h793q10 0 10 -10v-20q0 -10 -10 -11h-760v-655h719q10 0 10 -10v-21q0 -10 -10 -10h-719v-686h790q10 0 11 -10v-21q0 -10 -11 -10h-823q-10 0 -10 10z" />
<glyph unicode="&#x416;" horiz-adv-x="1824" d="M41 12l623 795l-590 645q-8 12 4 12h35q10 0 12 -6l496 -543l270 -294v833q0 10 10 10h23q10 0 10 -10v-833l270 294l496 543q4 6 12 6h35q14 0 4 -12l-590 -645l623 -795q8 -12 -6 -12h-31q-10 0 -12 6l-602 768l-199 -213v-551q0 -10 -10 -10h-23q-10 0 -10 10v551 l-199 213l-602 -768q-4 -6 -12 -6h-31q-14 0 -6 12z" />
<glyph unicode="&#x417;" horiz-adv-x="1167" d="M82 162q-6 6 0 14l14 17q6 8 15 0q184 -172 446 -173q199 0 317.5 104.5t118.5 272.5q0 147 -101 249t-306 102h-242q-10 0 -10 10v20q0 10 10 10h264q168 0 258 92.5t90 217.5q0 145 -112.5 245.5t-290.5 100.5q-248 0 -418 -162q-8 -8 -14 0l-12 16q-6 8 0 15 q182 172 446 172q193 0 318.5 -109.5t125.5 -277.5q0 -113 -66.5 -202t-199.5 -128q152 -37 227.5 -136.5t75.5 -234.5q0 -188 -132 -302.5t-347 -114.5q-287 0 -475 182z" />
<glyph unicode="&#x418;" horiz-adv-x="1431" d="M205 10v1444q0 10 10 10h23q10 0 10 -10v-1384l928 1388q4 6 12 6h29q10 0 10 -10v-1444q0 -10 -10 -10h-23q-10 0 -10 10v1385l-928 -1389q-2 -6 -12 -6h-29q-10 0 -10 10z" />
<glyph unicode="&#x419;" horiz-adv-x="1431" d="M205 10q0 -10 10 -10h29q10 0 12 6l928 1389v-1385q0 -10 10 -10h23q10 0 10 10v1444q0 10 -10 10h-29q-8 0 -12 -6l-928 -1388v1384q0 10 -10 10h-23q-10 0 -10 -10v-1444zM414 1907q-2 8 8 12l18 4q8 2 13 -8q12 -119 80.5 -190.5t183 -71.5t183.5 71.5t81 190.5 q4 10 12 8l19 -4q10 -4 10 -12q-16 -129 -97 -211t-208 -82t-208 82t-95 211z" />
<glyph unicode="&#x41a;" horiz-adv-x="1232" d="M205 10v1444q0 10 10 10h23q10 0 10 -10v-836l862 840q6 6 14 6h33q18 0 6 -12l-665 -649l704 -791q10 -12 -6 -12h-33q-8 0 -12 6l-684 768l-219 -213v-551q0 -10 -10 -10h-23q-10 0 -10 10z" />
<glyph unicode="&#x41b;" horiz-adv-x="1282" d="M12 4v21q0 10 11 10q106 4 164.5 89t84.5 300q39 307 54 1030q0 10 10 10h731q10 0 10 -10v-1444q0 -10 -10 -10h-23q-10 0 -10 10v1413h-667q-13 -679 -52 -1005q-31 -231 -98 -325.5t-194 -98.5q-10 0 -11 10z" />
<glyph unicode="&#x41c;" horiz-adv-x="1716" d="M205 10v1444q0 10 10 10h35q8 0 12 -6l453 -788l143 -252l141 246l455 794q4 6 12 6h35q10 0 10 -10v-1444q0 -10 -10 -10h-22q-10 0 -11 10v1389l-190 -332l-399 -698q-2 -6 -13 -7h-16q-10 0 -12 7l-400 698l-190 332v-1389q0 -10 -10 -10h-23q-10 0 -10 10z" />
<glyph unicode="&#x41d;" horiz-adv-x="1376" d="M205 10v1444q0 10 10 10h23q10 0 10 -10v-686h880v686q0 10 11 10h22q10 0 10 -10v-1444q0 -10 -10 -10h-22q-10 0 -11 10v717h-880v-717q0 -10 -10 -10h-23q-10 0 -10 10z" />
<glyph unicode="&#x41e;" horiz-adv-x="1363" d="M154 446v553q0 215 145 350.5t383 135.5t383 -135.5t145 -350.5v-553q0 -201 -147.5 -333.5t-380.5 -132.5t-380.5 133t-147.5 333zM197 446q0 -184 134 -305t351 -121t351 121t134 305v553q0 199 -133 322t-352 123t-352 -123t-133 -322v-553z" />
<glyph unicode="&#x41f;" horiz-adv-x="1376" d="M205 10v1444q0 10 10 10h946q10 0 10 -10v-1444q0 -10 -10 -10h-22q-10 0 -11 10v1413h-880v-1413q0 -10 -10 -10h-23q-10 0 -10 10z" />
<glyph unicode="&#x420;" horiz-adv-x="1247" d="M205 10v1444q0 10 10 10h447q240 0 368.5 -116.5t128.5 -323.5q0 -209 -130 -323.5t-367 -114.5h-414v-576q0 -10 -10 -10h-23q-10 0 -10 10zM248 627h409q225 0 342 102t117 295t-117.5 296t-341.5 103h-409v-796z" />
<glyph unicode="&#x421;" horiz-adv-x="1177" d="M154 461v543q0 213 126 347t355 134q246 0 432 -154q10 -6 2 -14l-12 -17q-6 -6 -15 -2q-180 145 -409 146q-211 0 -323.5 -122t-112.5 -318v-543q0 -197 114.5 -319t327.5 -122q248 0 434 164q8 8 14 0l13 -18q8 -8 -2 -14q-190 -172 -457 -172q-233 0 -360 134 t-127 347z" />
<glyph unicode="&#x422;" horiz-adv-x="1079" d="M25 1434v20q0 10 10 10h1009q10 0 11 -10v-20q0 -10 -11 -11h-487v-1413q0 -10 -10 -10h-23q-10 0 -10 10v1413h-479q-10 0 -10 11z" />
<glyph unicode="&#x423;" horiz-adv-x="1038" d="M23 1452q-6 12 8 12h24q10 0 13 -8l487 -942l424 942q4 8 12 8h27q10 0 6 -12l-653 -1444q-5 -8 -13 -8h-26q-10 0 -6 12l206 455z" />
<glyph unicode="&#x424;" horiz-adv-x="1722" d="M143 623v217q0 139 46.5 247.5t123 172t166.5 96.5t189 33h172v174q0 10 10 10h22q10 0 11 -10v-174h170q133 0 248.5 -54.5t196.5 -182.5t81 -312v-217q0 -139 -46 -249t-123 -173.5t-168 -96t-189 -32.5h-170v-187q-1 -10 -11 -10h-22q-10 0 -10 10v187h-172 q-98 0 -189.5 32.5t-167 96t-122 173t-46.5 249.5zM186 623q0 -252 142.5 -381t339.5 -129h172v1235h-172q-92 0 -176 -30t-154 -89.5t-111 -159.5t-41 -229v-217zM883 113h170q92 0 176 29.5t153.5 89t111.5 161t42 230.5v217q0 250 -142.5 379t-340.5 129h-170v-1235z" />
<glyph unicode="&#x425;" horiz-adv-x="1165" d="M51 12l504 727l-481 713q-8 12 6 12h29q10 0 12 -6l463 -686l460 686q4 6 13 6h28q14 0 7 -12l-480 -713l502 -727q8 -12 -6 -12h-29q-10 0 -12 6l-483 701l-486 -701q-4 -6 -12 -6h-29q-14 0 -6 12z" />
<glyph unicode="&#x426;" horiz-adv-x="1382" d="M205 10v1444q0 10 10 10h23q10 0 10 -10v-1413h860v1413q0 10 10 10h23q10 0 10 -10v-1413h145q10 0 11 -10v-289q-1 -10 -11 -10h-22q-10 0 -10 10v258h-1049q-10 0 -10 10z" />
<glyph unicode="&#x427;" horiz-adv-x="1243" d="M125 981v473q0 10 10 10h23q10 0 10 -10v-473q0 -188 121 -297t344 -109q166 0 362 93v786q0 10 11 10h22q10 0 10 -10v-1444q0 -10 -10 -10h-22q-10 0 -11 10v615q-193 -90 -362 -90q-240 0 -374 119.5t-134 326.5z" />
<glyph unicode="&#x428;" horiz-adv-x="1951" d="M205 10v1444q0 10 10 10h23q10 0 10 -10v-1413h706v1413q0 10 11 10h22q10 0 10 -10v-1413h707v1413q0 10 10 10h23q10 0 10 -10v-1444q0 -10 -10 -10h-1522q-10 0 -10 10z" />
<glyph unicode="&#x429;" horiz-adv-x="1978" d="M205 10v1444q0 10 10 10h23q10 0 10 -10v-1413h706v1413q0 10 11 10h22q10 0 10 -10v-1413h707v1413q0 10 10 10h23q10 0 10 -10v-1413h145q10 0 11 -10v-289q-1 -10 -11 -10h-22q-10 0 -10 10v258h-1645q-10 0 -10 10z" />
<glyph unicode="&#x42a;" horiz-adv-x="1372" d="M29 1434v20q0 10 10 10h342q10 0 10 -10v-563h393q244 0 370 -113.5t126 -322.5q0 -219 -126 -337t-370 -118h-426q-10 0 -10 10v1413h-309q-10 0 -10 11zM391 41h393q453 0 453 414q0 190 -112.5 292.5t-340.5 102.5h-393v-809z" />
<glyph unicode="&#x42b;" horiz-adv-x="1726" d="M205 10v1444q0 10 10 10h23q10 0 10 -10v-561h393q244 0 370 -114.5t126 -323.5q0 -219 -126 -337t-370 -118h-426q-10 0 -10 10zM248 41h393q453 0 453 414q0 193 -113 295t-340 102h-393v-811zM1479 10v1444q0 10 10 10h22q10 0 11 -10v-1444q-1 -10 -11 -10h-22 q-10 0 -10 10z" />
<glyph unicode="&#x42c;" horiz-adv-x="1228" d="M205 10v1444q0 10 10 10h23q10 0 10 -10v-561h393q244 0 370 -115.5t126 -326.5q0 -219 -126 -335t-370 -116h-426q-10 0 -10 10zM248 41h393q453 0 453 410q0 195 -113 298t-340 103h-393v-811z" />
<glyph unicode="&#x42d;" horiz-adv-x="1191" d="M90 166l12 18q8 8 15 0q186 -164 434 -164q213 0 327.5 122t114.5 319v252h-723q-10 0 -10 10v20q0 10 10 11h723v250q0 197 -112.5 318.5t-323.5 121.5q-231 0 -410 -148q-8 -4 -14 2l-12 19q-8 8 2 14q186 154 432 154q229 0 355 -133t126 -348v-543q0 -215 -127 -348 t-360 -133q-267 0 -457 172q-10 6 -2 14z" />
<glyph unicode="&#x42e;" horiz-adv-x="1810" d="M205 10v1444q0 10 10 10h23q10 0 10 -10v-686h377v231q0 215 142 350.5t373.5 135.5t374 -135.5t142.5 -350.5v-553q0 -201 -144.5 -333.5t-372 -132.5t-371.5 133t-144 333v281h-377v-717q0 -10 -10 -10h-23q-10 0 -10 10zM668 446q0 -184 131 -305t342 -121t342 121 t131 305v553q0 199 -130 322t-343 123t-343 -123t-130 -322v-553z" />
<glyph unicode="&#x42f;" horiz-adv-x="1273" d="M102 12l478 580q-217 8 -338 120.5t-121 317.5q0 203 130 318.5t363 115.5h443q10 0 10 -10v-1444q0 -10 -10 -10h-23q-10 0 -10 10v582h-389l-483 -586q-4 -6 -13 -6h-30q-14 0 -7 12zM164 1030q0 -193 116.5 -295t333.5 -102h410v790h-410q-215 0 -332.5 -103 t-117.5 -290z" />
<glyph unicode="&#x430;" horiz-adv-x="1017" d="M82 305q0 152 108.5 236t307.5 84q152 0 331 -43v116q0 334 -331 334q-190 0 -338 -94q-8 -4 -15 2l-8 14q-4 11 0 13q145 104 361 104q188 0 280 -99.5t92 -273.5v-632q0 -10 -8 -13q-168 -74 -364 -73q-184 0 -300 89t-116 236zM123 305q0 -129 104.5 -208t270.5 -79 q172 0 331 62v465q-168 41 -331 41q-180 0 -277.5 -73t-97.5 -208z" />
<glyph unicode="&#x431;" horiz-adv-x="1075" d="M152 381v651q0 158 100 261.5t262 136.5q4 0 59.5 9t94.5 17t94 24.5t90 35.5q10 4 14 -5l8 -18q4 -10 -4 -12q-35 -18 -89 -34.5t-96 -25t-95 -18.5t-66 -12q-162 -35 -246.5 -127.5t-84.5 -231.5v-155q156 121 364 120q188 0 293.5 -112.5t105.5 -313.5v-190 q0 -180 -110.5 -290.5t-290.5 -110.5t-291.5 110.5t-111.5 290.5zM193 381q0 -164 99 -263.5t263 -99.5t262 99.5t98 263.5v190q0 184 -94 285.5t-264 101.5q-213 0 -364 -127v-450z" />
<glyph unicode="&#x432;" horiz-adv-x="1054" d="M162 10v1030q0 10 10 11h403q168 0 251 -74t83 -182q0 -94 -60.5 -161t-160.5 -83q121 -20 192.5 -88t71.5 -178q0 -127 -95 -206t-279 -79h-406q-10 0 -10 10zM203 39h375q168 0 250.5 67.5t82.5 178.5q0 115 -92 179t-241 64h-375v-489zM203 567h372q131 0 212 61.5 t81 166.5q0 94 -71.5 155.5t-221.5 61.5h-372v-445z" />
<glyph unicode="&#x433;" horiz-adv-x="796" d="M162 10v1030q0 10 10 11h584q10 0 10 -11v-18q0 -10 -10 -10h-553v-1002q0 -10 -10 -10h-21q-10 0 -10 10z" />
<glyph unicode="&#x434;" horiz-adv-x="1085" d="M18 29q0 10 11 10h47q86 37 129 249t61 752q0 10 10 11h615q10 0 10 -11v-1001h111q10 0 10 -10v-301q0 -10 -10 -11h-21q-10 0 -10 11v272h-922v-272q0 -11 -10 -11h-20q-10 0 -11 11v301zM133 39h727v973h-555q-27 -901 -172 -973z" />
<glyph unicode="&#x435;" horiz-adv-x="1034" d="M123 350v336q0 178 108.5 281.5t292.5 103.5q182 0 292 -103.5t110 -281.5v-180q0 -10 -11 -10h-751v-146q0 -152 104.5 -242t255.5 -90q195 0 357 150q8 6 14 -2l12 -12q8 -8 0 -15q-172 -160 -383 -159q-168 0 -284.5 102t-116.5 268zM164 535h721v151q0 162 -98.5 254 t-262.5 92q-168 0 -264 -91t-96 -255v-151z" />
<glyph unicode="&#x436;" horiz-adv-x="1462" d="M41 12l469 574l-436 452q-12 12 6 13h26q8 0 15 -7l590 -612v608q0 10 10 11h20q10 0 11 -11v-608l589 612q6 6 15 7h26q18 0 7 -13l-437 -452l469 -574q8 -12 -6 -12h-26q-8 0 -13 6l-452 551l-172 -180v-367q0 -10 -11 -10h-20q-10 0 -10 10v367l-172 180l-453 -551 q-4 -6 -12 -6h-27q-14 0 -6 12z" />
<glyph unicode="&#x437;" horiz-adv-x="962" d="M70 133l12 14q6 8 14 3q86 -66 166 -99t195 -33q156 0 259 79t103 194q0 104 -83 174t-218 70h-260q-10 0 -10 10v18q0 10 10 10h248q125 0 198.5 68t73.5 166q0 104 -90 164.5t-227 60.5q-211 0 -346 -110q-8 -4 -15 2l-10 14q-8 8 2 14q143 119 369 119 q154 0 256 -72.5t102 -191.5q0 -186 -196 -250q111 -25 174 -95.5t63 -170.5q0 -135 -113.5 -223t-289.5 -88q-209 0 -385 139q-10 6 -2 14z" />
<glyph unicode="&#x438;" horiz-adv-x="1140" d="M162 10v1030q0 10 10 11h21q10 0 10 -11v-979q12 16 27.5 38t61.5 84.5t113.5 151.5t208 279.5t318.5 429.5q2 6 12 7h25q10 0 10 -11v-1030q0 -10 -10 -10h-21q-10 0 -10 10v977l-727 -981q-2 -6 -12 -6h-27q-10 0 -10 10z" />
<glyph unicode="&#x439;" horiz-adv-x="1140" d="M162 10v1030q0 10 10 11h21q10 0 10 -11v-979q12 16 27.5 38t61.5 84.5t113.5 151.5t208 279.5t318.5 429.5q2 6 12 7h25q10 0 10 -11v-1030q0 -10 -10 -10h-21q-10 0 -10 10v977l-727 -981q-2 -6 -12 -6h-27q-10 0 -10 10zM281 1518q-4 10 8 12l20 2q10 0 13 -8 q14 -113 78.5 -180.5t171 -67.5t171 67.5t78.5 180.5q4 10 13 8l20 -2q12 0 8 -12q-14 -123 -92 -202t-198.5 -79t-198.5 79t-92 202z" />
<glyph unicode="&#x43a;" horiz-adv-x="978" d="M162 10v1030q0 10 10 11h21q10 0 10 -11v-618l674 625q4 4 14 4h31q16 0 4 -13l-502 -465l524 -561q8 -12 -4 -12h-33q-6 0 -12 6l-504 541l-192 -176v-361q0 -10 -10 -10h-21q-10 0 -10 10z" />
<glyph unicode="&#x43b;" horiz-adv-x="1103" d="M14 6v19q0 10 11 10q96 4 144 76.5t71 283.5q25 211 49 645q0 10 10 11h633q10 0 10 -11v-1030q0 -10 -10 -10h-21q-10 0 -10 10v1002h-573q-18 -346 -49 -633q-25 -219 -82.5 -299t-171.5 -84q-10 0 -11 10z" />
<glyph unicode="&#x43c;" horiz-adv-x="1323" d="M162 10v1030q0 10 10 11h25q8 0 12 -7l453 -788l452 788q4 6 12 7h25q10 0 10 -11v-1030q0 -10 -10 -10h-21q-10 0 -10 10v965l-434 -754q-2 -6 -12 -6h-25q-10 0 -12 6l-434 754v-965q0 -10 -10 -10h-21q-10 0 -10 10z" />
<glyph unicode="&#x43d;" horiz-adv-x="1091" d="M162 10v1030q0 10 10 11h21q10 0 10 -11v-477h686v477q0 10 10 11h21q10 0 10 -11v-1030q0 -10 -10 -10h-21q-10 0 -10 10v514h-686v-514q0 -10 -10 -10h-21q-10 0 -10 10z" />
<glyph unicode="&#x43e;" horiz-adv-x="1085" d="M123 360v332q0 164 110.5 271.5t309.5 107.5q201 0 310.5 -107.5t109.5 -271.5v-332q0 -166 -110 -273t-310.5 -107t-310 107.5t-109.5 272.5zM164 360q0 -150 98 -246t281 -96q184 0 281.5 96.5t97.5 245.5v332q0 147 -97.5 243.5t-281.5 96.5q-182 0 -280.5 -96 t-98.5 -244v-332z" />
<glyph unicode="&#x43f;" horiz-adv-x="1091" d="M162 10v1030q0 11 10 11h748q10 0 10 -11v-1030q0 -10 -10 -10h-21q-10 0 -10 10v1002h-686v-1002q0 -10 -10 -10h-21q-10 0 -10 10z" />
<glyph unicode="&#x440;" horiz-adv-x="1081" d="M160 -379v1366q0 8 6 10q174 74 369 74q428 0 428 -436v-215q0 -440 -428 -440q-186 0 -334 100v-459q0 -10 -11 -10h-20q-10 0 -10 10zM201 125q156 -107 334 -107q387 0 387 402v215q0 397 -387 397q-170 0 -334 -61v-846z" />
<glyph unicode="&#x441;" horiz-adv-x="946" d="M123 354v342q0 160 108.5 267.5t290.5 107.5q178 0 328 -110q10 -6 2 -15l-10 -14q-6 -6 -15 -2q-141 102 -307 102q-168 0 -262 -96t-94 -240v-342q0 -143 96 -239.5t260 -96.5q178 0 336 121q8 4 14 -2l11 -14q8 -8 -2 -14q-160 -129 -357 -129q-182 0 -290.5 107.5 t-108.5 266.5z" />
<glyph unicode="&#x442;" horiz-adv-x="884" d="M31 1022v18q0 10 10 11h803q10 0 10 -11v-18q0 -10 -10 -10h-381v-1002q0 -10 -10 -10h-21q-10 0 -10 10v1002h-381q-10 0 -10 10z" />
<glyph unicode="&#x443;" horiz-adv-x="1101" d="M152 432v608q0 10 10 11h20q10 0 11 -11v-608q0 -176 100 -264t282 -88q174 0 324 80v880q0 10 10 11h21q10 0 10 -11v-1085q0 -164 -97.5 -264.5t-289.5 -100.5q-201 0 -379 164q-6 8 0 15l12 14q6 8 15 0q168 -154 352 -154q176 0 261 88t85 238v164q-143 -78 -326 -78 q-199 0 -310 99.5t-111 291.5z" />
<glyph unicode="&#x444;" horiz-adv-x="1441" d="M121 397v256q0 182 105.5 290t281.5 108h192v403q0 10 11 10h20q10 0 10 -10v-403h193q176 0 281.5 -107.5t105.5 -290.5v-256q0 -182 -105.5 -289.5t-281.5 -107.5h-193v-379q0 -10 -10 -10h-20q-10 0 -11 10v379h-192q-176 0 -281.5 107.5t-105.5 289.5zM162 397 q0 -166 93 -262t249 -96h196v973h-196q-156 0 -249 -96.5t-93 -262.5v-256zM741 39h197q156 0 249 96t93 262v256q0 166 -93 262.5t-249 96.5h-197v-973z" />
<glyph unicode="&#x445;" horiz-adv-x="950" d="M43 12l403 527l-378 499q-8 12 6 13h26q10 0 13 -7l360 -475l361 475q2 6 12 7h26q14 0 7 -13l-379 -499l403 -527q8 -12 -6 -12h-27q-10 0 -12 6l-385 502l-385 -502q-2 -6 -12 -6h-27q-14 0 -6 12z" />
<glyph unicode="&#x446;" horiz-adv-x="1114" d="M162 10v1030q0 10 10 11h21q10 0 10 -11v-1001h686v1001q0 10 10 11h21q10 0 10 -11v-1001h112q10 0 11 -10v-287q-1 -10 -11 -10h-20q-10 0 -10 10v258h-840q-10 0 -10 10z" />
<glyph unicode="&#x447;" horiz-adv-x="1026" d="M104 774v266q0 10 11 11h20q10 0 10 -11v-266q0 -178 87 -269t253 -91q164 0 338 75v551q0 10 11 11h20q10 0 10 -11v-1030q0 -10 -10 -10h-20q-10 0 -11 10v439q-168 -74 -338 -74q-182 0 -281.5 102.5t-99.5 296.5z" />
<glyph unicode="&#x448;" horiz-adv-x="1593" d="M162 10v1032q0 10 10 11h21q10 0 10 -11v-1003h573v1003q0 10 10 11h21q10 0 10 -11v-1003h574v1003q0 10 10 11h20q10 0 11 -11v-1032q-1 -10 -11 -10h-1249q-10 0 -10 10z" />
<glyph unicode="&#x449;" horiz-adv-x="1615" d="M162 10v1032q0 10 10 11h21q10 0 10 -11v-1003h573v1003q0 10 10 11h21q10 0 10 -11v-1003h574v1003q0 10 10 11h20q10 0 11 -11v-1003h112q10 0 10 -10v-287q0 -10 -10 -10h-20q-10 0 -11 10v258h-1341q-10 0 -10 10z" />
<glyph unicode="&#x44a;" horiz-adv-x="1148" d="M31 1022v18q0 10 10 11h293q10 0 10 -11v-362h348q178 0 277.5 -93t99.5 -253q0 -162 -97.5 -247t-279.5 -85h-379q-10 0 -10 10v1002h-262q-10 0 -10 10zM344 39h348q336 0 336 293q0 143 -87 225t-249 82h-348v-600z" />
<glyph unicode="&#x44b;" horiz-adv-x="1300" d="M162 10v1030q0 10 10 11h21q10 0 10 -11v-362h348q178 0 277.5 -93t99.5 -253q0 -162 -97.5 -247t-279.5 -85h-379q-10 0 -10 10zM203 39h348q336 0 336 293q0 143 -87 225t-249 82h-348v-600zM1098 10v1030q0 10 10 11h20q10 0 11 -11v-1030q-1 -10 -11 -10h-20 q-10 0 -10 10z" />
<glyph unicode="&#x44c;" horiz-adv-x="1007" d="M162 10v1030q0 10 10 11h21q10 0 10 -11v-362h348q178 0 277.5 -93t99.5 -253q0 -162 -97.5 -247t-279.5 -85h-379q-10 0 -10 10zM203 39h348q336 0 336 293q0 143 -87 225t-249 82h-348v-600z" />
<glyph unicode="&#x44d;" horiz-adv-x="966" d="M72 123l10 16q6 6 14 2q163 -123 353 -123q160 0 256 94.5t96 227.5v188h-561q-10 0 -11 11v18q0 10 11 10h561v144q0 133 -95.5 227t-256.5 94q-178 0 -334 -102q-8 -4 -15 2l-8 14q-8 8 2 15q162 111 352 110q180 0 288 -105.5t108 -254.5v-371q0 -150 -108.5 -255 t-287.5 -105q-207 0 -372 129q-10 6 -2 14z" />
<glyph unicode="&#x44e;" horiz-adv-x="1417" d="M162 10v1030q0 10 10 11h21q10 0 10 -11v-475h291v144q0 154 105.5 258t293.5 104t293.5 -104.5t105.5 -257.5v-363q0 -154 -105.5 -260t-293.5 -106t-293.5 106.5t-105.5 259.5v180h-291v-516q0 -10 -10 -10h-21q-10 0 -10 10zM535 346q0 -137 94 -232.5t264 -95.5 q172 0 265 95.5t93 232.5v363q0 137 -93 230t-265 93t-265 -94t-93 -229v-363z" />
<glyph unicode="&#x44f;" horiz-adv-x="1017" d="M86 12l371 402q-164 2 -261.5 86t-97.5 233q0 156 100.5 238t284.5 82h361q10 0 10 -11v-1032q0 -10 -10 -10h-21q-10 0 -10 10v402h-305l-373 -406q-6 -6 -12 -6h-33q-12 0 -4 12zM139 733q0 -135 89 -208.5t255 -73.5h330v563h-330q-344 0 -344 -281z" />
<glyph unicode="&#x451;" horiz-adv-x="1034" d="M123 350v336q0 178 108.5 281.5t292.5 103.5q182 0 292 -103.5t110 -281.5v-180q0 -10 -11 -10h-751v-146q0 -152 104.5 -242t255.5 -90q195 0 357 150q8 6 14 -2l12 -12q8 -8 0 -15q-172 -160 -383 -159q-168 0 -284.5 102t-116.5 268zM164 535h721v151q0 162 -98.5 254 t-262.5 92q-168 0 -264 -91t-96 -255v-151zM311 1331q0 41 41 41t41 -41t-41 -41t-41 41zM655 1331q0 41 41 41t41 -41t-41 -41t-41 41z" />
<glyph unicode="&#x452;" horiz-adv-x="1118" d="M-8 1255v17q0 10 10 10h160v172q0 10 10 10h21q10 0 10 -10v-172h383q10 0 10 -10v-17q0 -10 -10 -10h-383v-258q168 84 336 84q205 0 316.5 -103.5t111.5 -303.5v-742q0 -330 -246 -330q-4 0 -96 7q-10 4 -11 12v18q0 12 11 9q49 -6 92 -7q100 0 154.5 65.5t54.5 217.5 v750q0 369 -387 368q-170 0 -336 -86v-936q0 -10 -10 -10h-21q-10 0 -10 10v1235h-160q-10 0 -10 10z" />
<glyph unicode="&#x453;" horiz-adv-x="796" d="M162 10v1030q0 10 10 11h584q10 0 10 -11v-18q0 -10 -10 -10h-553v-1002q0 -10 -10 -10h-21q-10 0 -10 10zM395 1241l170 275q4 6 13 6h30q12 0 6 -13l-182 -274q-2 -6 -12 -6h-17q-18 0 -8 12z" />
<glyph unicode="&#x454;" horiz-adv-x="966" d="M125 340v371q0 150 107.5 255t287.5 105q190 0 352 -110q10 -6 2 -15l-8 -14q-6 -6 -14 -2q-156 102 -334 102q-162 0 -257 -94t-95 -227v-144h561q10 0 10 -10v-18q0 -10 -10 -11h-561v-188q0 -133 96 -227.5t256 -94.5q190 0 352 123q8 4 15 -2l10 -16q8 -8 -2 -14 q-166 -129 -373 -129q-178 0 -286.5 105t-108.5 255z" />
<glyph unicode="&#x455;" horiz-adv-x="940" d="M88 125l10 16q6 6 15 2q166 -125 362 -125q156 0 248 66t92 184q0 51 -22.5 92t-49 65t-81 43t-88 28.5t-99.5 21.5q-76 14 -133 33.5t-116.5 52.5t-91.5 86t-32 123q0 117 97.5 187.5t253.5 70.5q186 0 362 -100q8 -8 2 -15l-8 -16q-4 -8 -14 -2q-164 94 -342 94 q-135 0 -222.5 -58.5t-87.5 -160.5q0 -49 20.5 -89t51.5 -64.5t79 -46t90 -33t99 -23.5q70 -14 113 -26.5t98.5 -35t86 -50t53 -74t22.5 -103.5q0 -129 -99.5 -208.5t-281.5 -79.5q-215 0 -385 131q-10 6 -2 14z" />
<glyph unicode="&#x456;" horiz-adv-x="364" d="M141 1331q0 41 41 41t41 -41t-41 -41t-41 41zM162 10v1030q0 10 10 11h21q10 0 10 -11v-1030q0 -10 -10 -10h-21q-10 0 -10 10z" />
<glyph unicode="&#x457;" horiz-adv-x="364" d="M14 1331q0 41 41 41t41 -41t-41 -41t-41 41zM162 10v1030q0 10 10 11h21q10 0 10 -11v-1030q0 -10 -10 -10h-21q-10 0 -10 10zM268 1331q0 41 41 41t41 -41t-41 -41t-41 41z" />
<glyph unicode="&#x458;" horiz-adv-x="380" d="M-143 -371q0 6 2 9.5t8 1.5q45 -10 106 -11q205 0 205 291v1120q0 10 10 11h21q10 0 10 -11v-1120q0 -330 -246 -330q-63 0 -106 11q-10 4 -10 12v16zM158 1331q0 41 41 41t41 -41t-41 -41t-41 41z" />
<glyph unicode="&#x459;" horiz-adv-x="1726" d="M14 6v19q0 10 11 10q94 0 140 72.5t75 287.5q23 172 49 645q0 10 10 11h623q10 0 10 -11v-362h338q178 0 277.5 -93t99.5 -253q0 -162 -97.5 -247t-279.5 -85h-369q-10 0 -10 10v1002h-563q-20 -400 -49 -633q-27 -221 -84.5 -302t-169.5 -81q-10 0 -11 10zM932 39h338 q336 0 336 293q0 143 -87 225t-249 82h-338v-600z" />
<glyph unicode="&#x45a;" horiz-adv-x="1669" d="M162 10v1030q0 10 10 11h21q10 0 10 -11v-424h651v424q0 10 10 11h21q10 0 10 -11v-424h328q176 0 273 -82.5t97 -226.5q0 -150 -96 -228.5t-274 -78.5h-359q-10 0 -10 10v568h-651v-568q0 -10 -10 -10h-21q-10 0 -10 10zM895 39h328q330 0 329 268q0 127 -85 199 t-244 72h-328v-539z" />
<glyph unicode="&#x45b;" horiz-adv-x="1118" d="M-8 1255v19q0 10 10 10h160v170q0 10 10 10h21q10 0 10 -10v-170h383q10 0 10 -10v-19q0 -10 -10 -10h-383v-258q168 84 336 84q205 0 316.5 -103.5t111.5 -303.5v-654q0 -10 -11 -10h-20q-10 0 -10 10v654q0 369 -387 368q-170 0 -336 -86v-936q0 -10 -10 -10h-21 q-10 0 -10 10v1235h-160q-10 0 -10 10z" />
<glyph unicode="&#x45c;" horiz-adv-x="978" d="M162 10v1030q0 10 10 11h21q10 0 10 -11v-618l674 625q4 4 14 4h31q16 0 4 -13l-502 -465l524 -561q8 -12 -4 -12h-33q-6 0 -12 6l-504 541l-192 -176v-361q0 -10 -10 -10h-21q-10 0 -10 10zM446 1241l170 275q2 6 13 6h30q12 0 7 -13l-183 -274q-4 -6 -12 -6h-16 q-18 0 -9 12z" />
<glyph unicode="&#x45d;" horiz-adv-x="1140" d="M162 10v1030q0 10 10 11h21q10 0 10 -11v-979q12 16 27.5 38t61.5 84.5t113.5 151.5t208 279.5t318.5 429.5q2 6 12 7h25q10 0 10 -11v-1030q0 -10 -10 -10h-21q-10 0 -10 10v977l-727 -981q-2 -6 -12 -6h-27q-10 0 -10 10zM395 1520q-6 12 6 12h31q10 0 12 -6l170 -275 q8 -12 -8 -12h-16q-8 0 -12 6z" />
<glyph unicode="&#x45e;" horiz-adv-x="1101" d="M152 432v608q0 10 10 11h20q10 0 11 -11v-608q0 -176 100 -264t282 -88q174 0 324 80v880q0 10 10 11h21q10 0 10 -11v-1085q0 -164 -97.5 -264.5t-289.5 -100.5q-201 0 -379 164q-6 8 0 15l12 14q6 8 15 0q168 -154 352 -154q176 0 261 88t85 238v164q-143 -78 -326 -78 q-199 0 -310 99.5t-111 291.5zM256 1507q-4 10 8 13l21 2q10 0 12 -9q14 -113 78.5 -180t171 -67t171 67.5t79.5 179.5q4 10 12 9l20 -2q13 -1 9 -13q-14 -123 -92 -201.5t-199 -78.5t-199 78.5t-92 201.5z" />
<glyph unicode="&#x45f;" horiz-adv-x="1093" d="M162 10v1030q0 10 10 11h21q10 0 10 -11v-1001h688v1001q0 11 10 11h21q10 0 10 -11v-1030q0 -10 -10 -10h-355v-258q0 -10 -10 -10h-18q-10 0 -11 10v258h-356q-10 0 -10 10z" />
<glyph unicode="&#x490;" horiz-adv-x="966" d="M205 10v1444q0 10 10 10h686v277q0 10 10 10h21q10 0 10 -10v-307q0 -10 -10 -11h-684v-1413q0 -10 -10 -10h-23q-10 0 -10 10z" />
<glyph unicode="&#x491;" horiz-adv-x="796" d="M162 10v1030q0 10 10 11h555v227q0 10 10 10h19q10 0 10 -10v-256q0 -10 -10 -10h-553v-1002q0 -10 -10 -10h-21q-10 0 -10 10z" />
<glyph unicode="&#x2000;" horiz-adv-x="961" />
<glyph unicode="&#x2001;" horiz-adv-x="1923" />
<glyph unicode="&#x2002;" horiz-adv-x="961" />
<glyph unicode="&#x2003;" horiz-adv-x="1923" />
<glyph unicode="&#x2004;" horiz-adv-x="641" />
<glyph unicode="&#x2005;" horiz-adv-x="480" />
<glyph unicode="&#x2006;" horiz-adv-x="320" />
<glyph unicode="&#x2007;" horiz-adv-x="320" />
<glyph unicode="&#x2008;" horiz-adv-x="240" />
<glyph unicode="&#x2009;" horiz-adv-x="384" />
<glyph unicode="&#x200a;" horiz-adv-x="106" />
<glyph unicode="&#x2010;" d="M137 623v18q0 10 10 10h508q10 0 11 -10v-18q-1 -11 -11 -11h-508q-10 0 -10 11z" />
<glyph unicode="&#x2011;" d="M137 623v18q0 10 10 10h508q10 0 11 -10v-18q-1 -11 -11 -11h-508q-10 0 -10 11z" />
<glyph unicode="&#x2012;" d="M137 623v18q0 10 10 10h508q10 0 11 -10v-18q-1 -11 -11 -11h-508q-10 0 -10 11z" />
<glyph unicode="&#x2013;" horiz-adv-x="1157" d="M137 623v18q0 10 10 10h863q10 0 10 -10v-18q0 -10 -10 -11h-863q-10 0 -10 11z" />
<glyph unicode="&#x2014;" horiz-adv-x="1857" d="M137 623v18q0 10 10 10h1563q10 0 10 -10v-18q0 -10 -10 -11h-1563q-10 0 -10 11z" />
<glyph unicode="&#x2018;" horiz-adv-x="344" d="M113 1130l104 326q4 8 10 8h15q12 0 10 -12l-90 -326q-4 -8 -10 -8h-31q-10 0 -8 12z" />
<glyph unicode="&#x2019;" horiz-adv-x="342" d="M117 1130l88 326q4 8 10 8h31q12 0 8 -12l-102 -326q-4 -8 -11 -8h-14q-12 0 -10 12z" />
<glyph unicode="&#x201a;" horiz-adv-x="323" d="M72 -203l88 326q4 8 10 8h31q12 0 8 -12l-103 -326q-4 -8 -10 -8h-14q-12 0 -10 12z" />
<glyph unicode="&#x201c;" horiz-adv-x="528" d="M113 1130l104 326q4 8 10 8h15q12 0 10 -12l-90 -326q-4 -8 -10 -8h-31q-10 0 -8 12zM297 1130l104 326q4 8 11 8h14q12 0 10 -12l-90 -326q-4 -8 -10 -8h-31q-10 0 -8 12z" />
<glyph unicode="&#x201d;" horiz-adv-x="526" d="M117 1130l88 326q4 8 10 8h31q12 0 8 -12l-102 -326q-5 -8 -11 -8h-14q-12 0 -10 12zM301 1130l88 326q4 8 10 8h31q12 0 8 -12l-102 -326q-4 -8 -10 -8h-15q-12 0 -10 12z" />
<glyph unicode="&#x201e;" horiz-adv-x="507" d="M72 -201l88 326q4 8 10 8h31q12 0 8 -12l-103 -326q-4 -8 -10 -8h-14q-12 0 -10 12zM256 -201l88 326q4 8 10 8h31q12 0 8 -12l-102 -326q-4 -8 -10 -8h-15q-12 0 -10 12z" />
<glyph unicode="&#x2026;" horiz-adv-x="989" d="M104 37q0 41 41 41t41 -41t-41 -41t-41 41zM455 37q0 41 41 41t41 -41t-41 -41t-41 41zM803 37q0 41 41 41t41 -41t-41 -41t-41 41z" />
<glyph unicode="&#x202f;" horiz-adv-x="384" />
<glyph unicode="&#x2039;" horiz-adv-x="534" d="M86 590q-4 6 0 12l297 438q2 6 12 7h25q14 0 6 -13l-297 -438l297 -438q8 -13 -6 -13h-25q-10 0 -12 7z" />
<glyph unicode="&#x203a;" horiz-adv-x="532" d="M104 158l297 438l-297 438q-8 12 7 13h24q8 0 12 -7l297 -438q2 -6 0 -12l-297 -438q-4 -7 -12 -7h-24q-14 0 -7 13z" />
<glyph unicode="&#x205f;" horiz-adv-x="480" />
<glyph unicode="&#x20ac;" horiz-adv-x="1296" d="M98 590v18q0 10 11 10h104v240h-104q-10 0 -11 10v19q0 10 11 10h104v107q0 213 126 347t353 134q260 0 463 -154q6 -4 2 -14l-10 -17q-6 -6 -14 -2q-190 147 -443 148q-211 0 -323.5 -122t-112.5 -320v-107h657q10 0 11 -10v-19q0 -10 -11 -10h-657v-240h657 q10 0 11 -10v-18q0 -10 -11 -10h-657v-119q0 -199 114.5 -321t327.5 -122q260 0 453 164q8 4 14 -2l13 -14q8 -8 -2 -14q-197 -172 -476 -172q-231 0 -358 134t-127 347v119h-104q-10 0 -11 10z" />
<glyph unicode="&#x2122;" horiz-adv-x="1298" d="M76 1442v12q0 10 10 10h410q10 0 10 -10v-12q0 -10 -10 -10h-189v-572q0 -10 -10 -10h-12q-10 0 -11 10v572h-188q-10 0 -10 10zM612 860v594q0 10 11 10h22q10 0 12 -8l213 -412l209 412q2 8 13 8h22q10 0 10 -10v-594q0 -10 -10 -10h-12q-10 0 -10 10v547l-207 -401 q-2 -8 -13 -9h-4q-10 0 -12 9l-211 403v-549q0 -10 -10 -10h-12q-10 0 -11 10z" />
<glyph unicode="&#x25fc;" horiz-adv-x="1054" d="M0 0v1055h1055v-1055h-1055z" />
</font>
</defs>
</svg>
